<svg width="392" height="288" viewBox="0 0 392 288" fill="none" xmlns="http://www.w3.org/2000/svg">
<g id="404">
<rect id="Rectangle" opacity="0.01" width="392" height="288" fill="#CCCDD7"/>
<path id="Shape" fill-rule="evenodd" clip-rule="evenodd" d="M19.4219 189.518H77.2689V217.188H100.328V189.518H120.175V168.765H100.328V81.1294H74.1866L19.4219 166.647V189.518ZM76.8809 113.8H77.2691V168.765H42.8691L76.8809 113.8Z" fill="#212B36"/>
<path id="Shape_2" fill-rule="evenodd" clip-rule="evenodd" d="M273.117 190.035H330.964V217.706H354.023V190.035H373.87V169.282H354.023V81.647H327.882L273.117 167.165V190.035ZM330.576 114.317H330.964V169.282H296.564L330.576 114.317Z" fill="#212B36"/>
<path id="Path" d="M192.504 87.9175C158.756 87.911 131.39 115.259 131.375 149.008C131.36 182.756 158.701 210.129 192.45 210.153C226.198 210.177 253.578 182.842 253.61 149.094C253.629 132.875 247.199 117.315 235.738 105.84C224.276 94.3651 208.723 87.9175 192.504 87.9175Z" stroke="#212B36" stroke-width="1.21176" stroke-linecap="round" stroke-linejoin="round"/>
<ellipse id="Oval" cx="224.542" cy="129.153" rx="2.82353" ry="4.2" fill="#212B36"/>
<path id="Path_2" d="M120.719 130.93L264.248 99.1648L236.013 90.9295C236.013 90.9295 220.719 65.5766 216.636 65.0472C212.554 64.5178 138.366 80.3413 138.366 80.3413L133.66 116.059L120.719 130.93Z" fill="#9F1C69"/>
<path id="Path_3" d="M168.727 161.765C168.727 161.765 205.197 147.188 221.15 174.341L168.727 161.765Z" fill="white"/>
<path id="Path_4" d="M221.155 174.953C220.94 174.951 220.742 174.834 220.637 174.647C205.119 148.259 169.308 162.188 168.955 162.329C168.744 162.411 168.506 162.375 168.33 162.234C168.154 162.093 168.067 161.869 168.101 161.646C168.135 161.423 168.286 161.235 168.496 161.153C168.872 161.012 205.637 146.694 221.684 173.988C221.848 174.278 221.755 174.646 221.472 174.823C221.38 174.895 221.27 174.94 221.155 174.953Z" fill="#212B36"/>
<path id="Path_5" d="M150.599 216.929L134.375 191.282L205.293 179.153L210.163 203.729L217.363 181.094L253.646 188.259L246.269 216.929H150.599Z" fill="#9F1C69"/>
<path id="Path_6" d="M241.473 161.315L248.01 160.411L251.388 184.813C251.623 186.512 250.436 188.08 248.737 188.316L248.352 188.369C246.653 188.604 245.085 187.417 244.85 185.718L241.473 161.315H241.473Z" fill="white"/>
<path id="Shape_3" fill-rule="evenodd" clip-rule="evenodd" d="M244.272 185.812C244.529 187.637 246.088 188.995 247.931 189C248.092 188.999 248.253 188.987 248.413 188.965L248.79 188.906C249.763 188.778 250.644 188.265 251.236 187.483C251.829 186.7 252.083 185.713 251.943 184.741L248.59 160.341C248.573 160.186 248.492 160.045 248.366 159.953C248.242 159.858 248.086 159.815 247.931 159.835L241.401 160.741C241.08 160.784 240.854 161.079 240.896 161.4L244.272 185.812ZM245.437 185.647L242.143 161.824L247.507 161.142L250.801 184.965C250.99 186.339 250.033 187.606 248.66 187.8H248.272C246.896 187.982 245.631 187.021 245.437 185.647Z" fill="#212B36"/>
<rect id="Rectangle_2" x="236.453" y="139.776" width="10.6471" height="24.0941" transform="rotate(-7.88 236.453 139.776)" fill="white"/>
<path id="Shape_4" fill-rule="evenodd" clip-rule="evenodd" d="M239.4 164.13C239.503 164.203 239.626 164.244 239.753 164.247L239.824 164.235L250.412 162.777C250.733 162.734 250.959 162.439 250.918 162.118L247.612 138.247C247.594 138.091 247.514 137.95 247.39 137.854C247.266 137.759 247.108 137.718 246.953 137.741L236.365 139.2C236.212 139.224 236.074 139.304 235.977 139.424C235.884 139.549 235.846 139.706 235.871 139.859L239.177 163.741C239.19 163.897 239.272 164.04 239.4 164.13ZM240.258 162.988L237.117 140.282L246.529 138.988L249.67 161.694L240.258 162.988Z" fill="#212B36"/>
<rect id="Rectangle_3" x="242.047" y="180.179" width="10.6471" height="41.9059" rx="3.76471" transform="rotate(-7.88 242.047 180.179)" fill="white"/>
<path id="Shape_5" fill-rule="evenodd" clip-rule="evenodd" d="M246.683 218.059C246.982 220.208 248.818 221.809 250.988 221.812L251.577 221.824L254.683 221.388C257.054 221.054 258.71 218.867 258.388 216.494L253.683 182.377C253.354 180.002 251.163 178.343 248.788 178.671L245.683 179.094C244.542 179.255 243.51 179.86 242.812 180.777C242.115 181.697 241.814 182.857 241.977 184L246.683 218.059ZM248.954 179.8C249.099 179.789 249.244 179.789 249.389 179.8L249.354 179.812C250.933 179.821 252.267 180.988 252.483 182.553L257.189 216.671C257.398 218.388 256.196 219.957 254.483 220.2L251.377 220.636C249.662 220.838 248.097 219.639 247.848 217.93L243.142 183.812C243.016 182.977 243.237 182.127 243.754 181.459C244.258 180.783 245.012 180.338 245.848 180.224L248.954 179.8Z" fill="#212B36"/>
<circle id="Oval_2" cx="240.88" cy="132.965" r="28.2706" fill="white"/>
<path id="Shape_6" fill-rule="evenodd" clip-rule="evenodd" d="M212.03 134.265C212.732 149.679 225.429 161.816 240.858 161.823C242.204 161.823 243.548 161.732 244.882 161.553C260.643 159.323 271.635 144.77 269.47 129C267.357 113.716 253.6 102.794 238.236 104.203C222.871 105.611 211.329 118.852 212.03 134.265ZM237.035 105.529C238.302 105.356 239.58 105.269 240.859 105.271H240.906C254.695 105.33 266.347 115.509 268.259 129.165C269.795 140.261 264.496 151.189 254.832 156.854C245.168 162.519 233.043 161.805 224.112 155.044C215.18 148.283 211.201 136.807 214.03 125.969C216.859 115.13 225.939 107.063 237.035 105.529Z" fill="#212B36"/>
<circle id="Oval_3" cx="240.883" cy="132.965" r="22.9647" fill="white"/>
<path id="Shape_7" fill-rule="evenodd" clip-rule="evenodd" d="M217.354 133.8C217.791 146.471 228.191 156.518 240.87 156.518C241.952 156.519 243.033 156.444 244.105 156.294C256.664 154.551 265.583 143.17 264.273 130.558C262.964 117.947 251.897 108.641 239.248 109.515C226.599 110.389 216.917 121.128 217.354 133.8ZM237.751 110.847C238.785 110.707 239.826 110.636 240.869 110.635C252.91 110.661 262.767 120.22 263.162 132.254C263.558 144.289 254.349 154.474 242.336 155.29C230.323 156.106 219.822 147.259 218.586 135.282C217.351 123.305 225.825 112.501 237.751 110.847Z" fill="#212B36"/>
<path id="Path_7" d="M267.883 196.694C266.329 194.722 264.361 193.116 262.118 191.988C255.377 188.459 247.648 188.576 240.554 190.812C238.036 191.612 233.154 192.753 232.895 196.094C232.914 197.462 233.827 198.657 235.142 199.035C236.429 199.369 237.774 199.421 239.083 199.188C237.217 199.138 235.374 199.602 233.754 200.529C232.236 201.6 231.401 203.941 232.648 205.365C233.199 205.956 233.917 206.367 234.707 206.541C236.423 207.013 238.239 206.989 239.942 206.47C238.099 206.824 236.303 207.388 234.589 208.153C233.554 208.612 232.401 209.423 232.518 210.506C232.636 211.588 233.695 212.082 234.66 212.412C236.689 213.108 238.81 213.504 240.954 213.588C239.103 213.924 237.353 214.676 235.836 215.788C233.483 217.765 233.483 221.518 236.671 222.588C237.694 222.887 238.76 223.011 239.824 222.953C249.236 222.953 260.507 221.776 266.883 213.941C270.021 210.274 271.148 205.296 269.895 200.635C269.459 199.214 268.778 197.88 267.883 196.694Z" fill="white"/>
<path id="Shape_8" fill-rule="evenodd" clip-rule="evenodd" d="M236.482 223.117C237.543 223.428 238.649 223.559 239.753 223.506L239.788 223.529C249.106 223.517 260.659 222.459 267.33 214.306C270.602 210.489 271.77 205.298 270.447 200.447C269.978 198.97 269.257 197.585 268.318 196.353C266.717 194.293 264.68 192.613 262.353 191.435C256.024 188.212 248.2 187.776 240.341 190.259L239.588 190.482C239.562 190.49 239.536 190.498 239.509 190.506C236.709 191.365 232.539 192.644 232.271 196.047C232.257 197.526 233.148 198.864 234.518 199.423C234.102 199.589 233.707 199.802 233.341 200.059C232.307 200.804 231.619 201.938 231.435 203.2C231.297 204.107 231.55 205.03 232.13 205.741C232.755 206.422 233.578 206.891 234.482 207.082C234.691 207.144 234.903 207.195 235.118 207.235L234.282 207.588C232.659 208.353 231.753 209.576 231.93 210.588C232.106 211.6 232.894 212.4 234.459 212.941C235.608 213.341 236.789 213.644 237.988 213.847C237.065 214.191 236.206 214.688 235.447 215.317C234.078 216.471 233.409 218.254 233.682 220.023C233.974 221.492 235.05 222.682 236.482 223.117ZM234.824 208.612C236.054 208.059 237.329 207.614 238.636 207.282C239.129 207.225 239.617 207.126 240.095 206.988C240.391 206.892 240.565 206.586 240.495 206.282C240.419 205.979 240.119 205.788 239.812 205.847C239.342 205.941 238.859 206.047 238.389 206.165C237.208 206.319 236.009 206.239 234.859 205.929C234.188 205.792 233.573 205.456 233.095 204.965C232.732 204.502 232.578 203.91 232.671 203.329C232.808 202.385 233.322 201.536 234.095 200.976C235.118 200.329 236.287 199.949 237.495 199.87C237.767 199.865 238.037 199.834 238.303 199.805C238.587 199.773 238.868 199.741 239.142 199.741C239.459 199.704 239.692 199.425 239.671 199.106C239.635 198.791 239.364 198.556 239.048 198.565C239.014 198.567 238.979 198.569 238.945 198.572C238.459 198.605 237.952 198.639 237.436 198.694C236.724 198.74 236.01 198.652 235.33 198.435C234.267 198.136 233.516 197.186 233.471 196.082C233.683 193.449 237.464 192.308 239.958 191.555L239.965 191.553L240.73 191.317C248.295 188.965 255.789 189.376 261.848 192.494C264.021 193.589 265.923 195.157 267.412 197.082C268.272 198.204 268.933 199.466 269.365 200.812C270.565 205.287 269.473 210.066 266.448 213.576C260.095 221.353 248.883 222.365 239.812 222.365C238.816 222.43 237.817 222.318 236.859 222.035C235.826 221.739 235.045 220.889 234.836 219.835C234.627 218.476 235.15 217.108 236.212 216.235C237.671 215.191 239.342 214.48 241.106 214.153C241.389 214.079 241.575 213.808 241.542 213.517C241.512 213.227 241.269 213.004 240.977 213C238.887 212.911 236.822 212.514 234.848 211.823C234.095 211.576 233.201 211.27 233.106 210.4C233.012 209.529 234.271 208.859 234.824 208.612Z" fill="#212B36"/>
<path id="Path_8" d="M202.284 133.412C202.284 133.412 216.614 154.941 207.943 155.247C199.272 155.553 198.531 153.282 198.531 153.282" fill="white"/>
<path id="Path_9" d="M206.386 155.929C199.116 155.929 198.069 153.941 197.928 153.577C197.826 153.255 197.998 152.912 198.316 152.8C198.634 152.699 198.974 152.872 199.081 153.188C199.081 153.188 200.139 155.012 207.916 154.729C208.69 154.801 209.434 154.415 209.822 153.741C211.681 150.129 204.645 138.153 201.775 133.847C201.615 133.569 201.697 133.215 201.963 133.035C202.229 132.856 202.588 132.912 202.786 133.165C203.881 134.812 213.375 149.4 210.904 154.341C210.327 155.417 209.182 156.063 207.963 156L206.386 155.929Z" fill="#212B36"/>
<ellipse id="Oval_4" cx="242.188" cy="132.247" rx="5.2" ry="8.85882" fill="#CCCCCC"/>
<ellipse id="Oval_5" cx="178.551" cy="132.247" rx="3.96471" ry="7.16471" fill="#212B36"/>
</g>
</svg>
