<svg width="24" height="24" viewBox="0 0 24 24" fill="none" xmlns="http://www.w3.org/2000/svg">
<path d="M16.2268 6.66667C16.5323 6.36119 17.0276 6.36119 17.3331 6.66667C17.6385 6.97215 17.6385 7.46742 17.3331 7.7729L7.77263 17.3333C7.46715 17.6388 6.97187 17.6388 6.6664 17.3333C6.36092 17.0279 6.36092 16.5326 6.6664 16.2271L16.2268 6.66667Z" fill="#212B36"/>
<path d="M6.6664 6.66667C6.97187 6.36119 7.46715 6.36119 7.77263 6.66667L17.3331 16.2271C17.6385 16.5326 17.6385 17.0279 17.3331 17.3333C17.0276 17.6388 16.5323 17.6388 16.2268 17.3333L6.6664 7.7729C6.36092 7.46742 6.36092 6.97215 6.6664 6.66667Z" fill="#212B36"/>
</svg>
