<svg width="200" height="96" viewBox="0 0 200 96" fill="none" xmlns="http://www.w3.org/2000/svg">
<path d="M45.3812 11.12C45.3812 8.432 43.8452 6.632 40.3172 6.632C38.7572 6.632 36.5492 6.704 35.3972 6.848C35.5412 7.448 35.7812 9.152 35.7812 12.56C35.7812 14.48 35.7812 20.192 35.0132 22.784C35.1812 22.88 36.0932 23.072 36.7892 23.072C37.1252 23.072 37.3412 22.976 37.4372 22.784C37.5812 22.496 37.5812 19.424 37.6052 16.28C38.5172 16.4 39.4052 16.424 40.0532 16.424C43.4132 16.424 45.3812 14.192 45.3812 11.12ZM39.9812 14.792C39.5732 14.792 38.4692 14.744 37.7012 14.6V11.48C37.7012 10.856 37.6772 9.824 37.5572 8.408C38.5172 8.264 39.0452 8.216 40.1252 8.216C42.4532 8.216 43.2692 9.584 43.2692 11.36C43.2692 13.664 42.2372 14.792 39.9812 14.792ZM51.6892 21.56C49.1932 21.56 48.3532 19.016 48.3532 16.784L55.0492 16.544C55.1452 16.304 55.3612 15.56 55.3612 14.504C55.3612 13.112 54.4972 11 51.6652 11C47.1772 11 46.4092 15.128 46.4092 17.288C46.4092 20.888 48.1372 23.24 51.6412 23.24C53.4172 23.24 55.4572 22.112 55.4572 20.696C55.4572 19.904 54.7612 19.76 54.7612 19.76C54.0172 20.816 52.8412 21.56 51.6892 21.56ZM51.3292 12.32C53.0332 12.32 53.3212 13.712 53.3212 14.144C53.3212 14.648 53.2732 14.984 53.1292 15.32L48.4732 15.488C48.6652 13.952 49.5532 12.32 51.3292 12.32ZM60.258 14.072V13.832C60.258 12.776 60.138 11.024 60.138 11.024C60.138 11.024 58.026 11.144 58.026 11.84C58.026 12.848 58.602 13.784 58.602 17.6C58.602 20 58.122 20.672 58.122 22.208C58.122 22.76 58.266 23.072 59.322 23.072C60.378 23.072 60.546 23.024 60.546 23.024C60.258 21.272 60.234 20.384 60.234 19.064V18.056C60.234 15.2 61.938 12.92 63.066 12.92C63.642 12.92 64.122 13.28 64.506 14.36C64.506 14.36 65.802 14.072 65.802 12.848C65.802 12.008 65.226 11 63.666 11C61.77 11 60.69 12.992 60.378 14.072H60.258ZM70.3708 13.424H73.1308C73.4908 13.4 73.7068 12.728 73.7068 12.248C73.7068 12.104 73.7068 11.984 73.6588 11.864H70.2508C70.2028 11.552 70.2028 10.952 70.2028 10.376C70.2028 9.2 70.2508 7.496 71.6668 7.496C72.6748 7.496 73.4428 8.072 74.1388 9.224C74.8348 8.864 75.2908 8.288 75.2908 7.88C75.2908 6.872 73.7068 6.2 71.5228 6.2C68.7628 6.2 68.3068 7.808 68.3068 9.704C68.3068 10.424 68.4028 11.168 68.4028 11.888H67.5388C67.1788 11.888 66.7228 12.68 66.7228 13.28C66.7228 13.328 66.7228 13.4 66.7468 13.472H68.5468C68.6188 15.128 68.6908 16.568 68.6908 17.816C68.6908 19.76 68.4988 21.272 67.9948 22.592C68.1388 22.712 68.7628 23.072 69.5548 23.072C70.4908 23.072 70.5148 21.944 70.5148 20.456C70.5148 17.936 70.5148 15.68 70.3708 13.424ZM79.9783 21.56C77.4823 21.56 76.6423 19.016 76.6423 16.784L83.3383 16.544C83.4343 16.304 83.6503 15.56 83.6503 14.504C83.6503 13.112 82.7863 11 79.9543 11C75.4663 11 74.6983 15.128 74.6983 17.288C74.6983 20.888 76.4263 23.24 79.9303 23.24C81.7063 23.24 83.7463 22.112 83.7463 20.696C83.7463 19.904 83.0503 19.76 83.0503 19.76C82.3063 20.816 81.1303 21.56 79.9783 21.56ZM79.6183 12.32C81.3223 12.32 81.6103 13.712 81.6103 14.144C81.6103 14.648 81.5623 14.984 81.4183 15.32L76.7623 15.488C76.9543 13.952 77.8423 12.32 79.6183 12.32ZM90.779 12.392C91.979 12.392 92.747 13.232 93.227 14.384C93.227 14.384 94.619 13.856 94.619 13.064C94.619 11.624 92.291 11 90.947 11C86.411 11 85.667 15.08 85.667 17.24C85.667 20.768 87.539 23.24 90.995 23.24C92.771 23.24 94.883 22.16 94.883 20.744C94.883 19.952 94.187 19.736 94.187 19.736C93.563 20.696 92.507 21.56 91.235 21.56C88.355 21.56 87.659 18.608 87.659 16.88C87.659 15.104 88.235 12.392 90.779 12.392ZM97.7203 19.736C97.7203 22.04 98.8483 23.072 100.6 23.072C101.704 23.072 102.904 22.688 102.904 21.8C102.904 21.44 102.784 21.056 102.592 20.816C102.112 21.128 101.704 21.344 101.008 21.344C99.5443 21.344 99.4963 19.712 99.4963 18.104C99.4963 15.752 99.6163 12.512 99.6163 12.512H102.088C102.448 12.512 102.664 11.912 102.664 11.384C102.664 11.24 102.664 11.12 102.616 11H99.5923V7.904C99.5923 7.904 97.6003 8.048 97.6003 8.744C97.6003 9.512 97.8403 10.352 97.8403 11H96.9043C96.5443 11 96.0883 11.792 96.0883 12.32C96.0883 12.368 96.0883 12.44 96.1123 12.512H97.8643C97.8163 15.296 97.7203 18.608 97.7203 19.736ZM105.493 21.32C105.493 22.568 105.709 23.072 106.573 23.072C107.005 23.072 107.989 22.544 107.989 22.544C107.989 22.544 107.389 21.44 107.389 19.976C107.389 18.344 107.557 14.768 107.557 13.544V11.12C107.557 7.712 107.485 6.2 106.453 6.2C105.709 6.2 104.941 6.68 104.941 6.68C105.541 8.216 105.709 9.632 105.709 12.872C105.709 15.8 105.493 18.56 105.493 21.32ZM111.089 29C114.497 29 120.569 15.368 120.569 12.224C120.569 11.288 120.257 11 119.513 11C118.769 11 117.833 11.456 117.833 11.456C118.121 11.984 118.337 12.416 118.337 13.232C118.337 15.224 117.545 17.576 115.913 21.128C115.289 18.56 112.841 11 111.761 11C110.513 11 109.793 11.624 109.697 11.768C111.449 13.904 113.873 19.952 114.833 22.832C113.801 24.68 112.697 26.792 110.057 26.792C110.057 27.92 110.105 29 111.089 29ZM128.091 17.768C128.091 23.096 127.707 27.08 127.035 28.544C127.107 28.64 127.851 29 128.643 29C128.979 29 129.267 28.904 129.363 28.712C129.531 28.376 129.723 26.528 129.723 23.912C129.723 23.024 129.651 22.112 129.627 20.984C130.131 21.872 131.427 23.24 133.011 23.24C135.627 23.24 137.811 20.12 137.811 16.064C137.811 13.904 137.019 11 133.899 11C131.547 11 130.419 12.8 130.011 14.072H129.891C129.819 12.44 129.651 11.024 129.651 11.024C129.651 11.024 127.563 11.144 127.563 11.84C127.563 12.704 128.091 13.976 128.091 17.768ZM135.795 16.616C135.795 18.584 135.315 21.392 133.035 21.392C131.787 21.392 130.179 20.384 129.771 19.52C129.771 15.704 131.331 12.584 133.467 12.584C135.531 12.584 135.795 15.296 135.795 16.616ZM142.617 14.072V13.832C142.617 12.776 142.497 11.024 142.497 11.024C142.497 11.024 140.385 11.144 140.385 11.84C140.385 12.848 140.961 13.784 140.961 17.6C140.961 20 140.481 20.672 140.481 22.208C140.481 22.76 140.625 23.072 141.681 23.072C142.737 23.072 142.905 23.024 142.905 23.024C142.617 21.272 142.593 20.384 142.593 19.064V18.056C142.593 15.2 144.297 12.92 145.425 12.92C146.001 12.92 146.481 13.28 146.865 14.36C146.865 14.36 148.161 14.072 148.161 12.848C148.161 12.008 147.585 11 146.025 11C144.129 11 143.049 12.992 142.737 14.072H142.617ZM154.299 21.56C151.803 21.56 150.963 19.016 150.963 16.784L157.659 16.544C157.755 16.304 157.971 15.56 157.971 14.504C157.971 13.112 157.107 11 154.275 11C149.787 11 149.019 15.128 149.019 17.288C149.019 20.888 150.747 23.24 154.251 23.24C156.027 23.24 158.067 22.112 158.067 20.696C158.067 19.904 157.371 19.76 157.371 19.76C156.627 20.816 155.451 21.56 154.299 21.56ZM153.939 12.32C155.643 12.32 155.931 13.712 155.931 14.144C155.931 14.648 155.883 14.984 155.739 15.32L151.083 15.488C151.275 13.952 152.163 12.32 153.939 12.32ZM165.051 17.816C165.483 17.816 165.675 17.312 165.675 16.712C165.675 16.496 165.651 16.208 165.603 15.992H160.731C160.299 15.992 160.059 16.592 160.059 17.216C160.059 17.408 160.059 17.648 160.107 17.816H165.051ZM35.2979 43C32.7299 43 31.4579 45.112 31.1219 45.976C31.0499 45.088 30.6419 43 28.5779 43C26.4659 43 25.0739 44.992 24.9059 45.976H24.8099V45.64C24.8099 44.872 24.6419 43.024 24.6419 43.024C24.6419 43.024 22.5299 43.144 22.5299 43.84C22.5299 44.872 23.1059 45.784 23.1059 50.032C23.1059 51.736 22.6259 53.2 22.6259 54.208C22.6259 54.76 22.7939 55.072 23.8499 55.072C24.9059 55.072 25.0739 55.024 25.0739 55.024C24.7859 53.272 24.7619 52.384 24.7619 51.064V50.056C24.7619 46.264 27.0659 44.872 28.0979 44.872C29.5859 44.872 29.7539 46.72 29.7539 47.728C29.7539 48.712 29.5619 50.272 29.5619 53.992C29.5619 54.4 29.6099 55.096 30.3539 55.096C31.0739 55.096 31.7219 54.904 31.8899 54.808C31.6259 53.848 31.4099 52.864 31.4099 50.584C31.4099 49.912 31.4579 49.168 31.5299 48.4C31.7459 46.216 33.3539 44.872 34.8179 44.872C36.1859 44.872 36.1859 46.864 36.1859 47.992C36.1859 49.888 36.0179 52.24 36.0179 53.224C36.0179 54.496 36.2339 55.072 36.8819 55.072C37.6739 55.072 38.5139 54.52 38.5139 54.52C37.8899 53.176 37.8899 52.12 37.8899 50.968C37.8899 48.904 38.0099 47.68 38.0099 46.312C38.0099 45.184 37.5299 43.024 35.2979 43ZM45.9588 53.56C43.4628 53.56 42.6228 51.016 42.6228 48.784L49.3188 48.544C49.4148 48.304 49.6308 47.56 49.6308 46.504C49.6308 45.112 48.7668 43 45.9348 43C41.4468 43 40.6788 47.128 40.6788 49.288C40.6788 52.888 42.4068 55.24 45.9108 55.24C47.6868 55.24 49.7268 54.112 49.7268 52.696C49.7268 51.904 49.0308 51.76 49.0308 51.76C48.2868 52.816 47.1108 53.56 45.9588 53.56ZM45.5988 44.32C47.3028 44.32 47.5908 45.712 47.5908 46.144C47.5908 46.648 47.5428 46.984 47.3988 47.32L42.7428 47.488C42.9348 45.952 43.8228 44.32 45.5988 44.32ZM60.5035 51.664C60.5035 49.024 60.6235 47.656 60.6235 46.24C60.6235 45.016 59.9755 43 56.5675 43C54.7675 43 52.1035 43.768 52.1035 45.208C52.1035 46 53.4715 46.624 53.4715 46.624C54.0955 45.136 55.2475 44.416 56.6395 44.416C58.0315 44.416 58.7995 45.28 58.7995 47.08C58.7995 48.592 58.7515 48.688 58.7515 48.688C58.3915 48.64 56.8555 48.472 55.7755 48.472C52.8955 48.472 51.7195 50.128 51.7195 52.216C51.7195 54.016 52.7755 55.24 54.8395 55.24C57.2635 55.24 58.4395 53.608 58.7755 52.672H58.8715C58.8715 52.72 58.8475 52.96 58.8475 53.296C58.8475 54.04 58.9675 55.168 59.6395 55.168C60.4795 55.168 61.3915 54.616 61.3915 54.616C61.3915 54.616 60.5035 53.2 60.5035 51.664ZM58.7035 50.704C58.7035 52.288 57.0955 53.512 55.3435 53.512C54.4075 53.512 53.7835 52.96 53.7835 51.904C53.7835 50.152 54.9835 49.768 56.8075 49.768C57.6715 49.768 58.5355 49.84 58.7035 49.84V50.704ZM67.5914 44.296C68.6474 44.296 69.4154 44.992 69.7754 46.288C69.7754 46.288 71.3114 45.76 71.3114 44.968C71.3114 43.528 69.2474 43 67.8794 43C65.2154 43 63.5594 44.32 63.5594 46.408C63.5594 48.088 65.2874 49 67.0634 49.624C68.5514 50.152 69.9434 50.752 69.9434 52.12C69.9434 53.368 68.7194 53.8 67.3754 53.8C65.4554 53.8 64.8554 52.408 64.4474 51.784C64.1114 51.952 63.3194 52.384 63.3194 53.296C63.3194 54.352 64.5914 55.24 67.3994 55.24C70.1834 55.24 71.8874 53.464 71.8874 51.424C71.8874 49.576 70.1354 48.688 68.4074 48.136C67.0394 47.704 65.4314 47.224 65.4314 45.928C65.4314 45.184 66.0074 44.296 67.5914 44.296ZM83.3508 43.888C83.3508 43.336 83.0628 43.096 82.5588 43.096C81.8148 43.096 80.9508 43.552 80.9508 43.552C80.9508 43.552 81.4788 44.464 81.4788 46.816C81.4788 50.416 79.8228 53.224 78.0228 53.224C76.4868 53.224 76.1748 51.808 76.1748 50.728C76.1748 49.192 76.2467 47.512 76.2467 45.856C76.2467 44.296 76.2228 43.096 75.2868 43.096C74.5428 43.096 73.7268 43.552 73.7268 43.552C74.2788 45.136 74.4948 45.976 74.4948 47.992C74.4948 49.072 74.4468 50.536 74.4468 51.616C74.4468 53.92 75.6948 55.24 77.6868 55.24C80.3268 55.24 81.2628 52.336 81.6468 50.776H81.7428C81.7428 51.544 81.7668 53.176 81.7668 53.512C81.7668 54.76 82.0308 55.168 82.6068 55.168C83.3748 55.168 84.1188 54.616 84.1188 54.616C83.2788 52.792 83.1108 50.584 83.1108 48.736C83.1108 46.984 83.3508 45.472 83.3508 43.888ZM88.8634 46.072V45.832C88.8634 44.776 88.7434 43.024 88.7434 43.024C88.7434 43.024 86.6314 43.144 86.6314 43.84C86.6314 44.848 87.2074 45.784 87.2074 49.6C87.2074 52 86.7274 52.672 86.7274 54.208C86.7274 54.76 86.8714 55.072 87.9274 55.072C88.9834 55.072 89.1514 55.024 89.1514 55.024C88.8634 53.272 88.8394 52.384 88.8394 51.064V50.056C88.8394 47.2 90.5434 44.92 91.6714 44.92C92.2474 44.92 92.7274 45.28 93.1114 46.36C93.1114 46.36 94.4074 46.072 94.4074 44.848C94.4074 44.008 93.8314 43 92.2714 43C90.3754 43 89.2954 44.992 88.9834 46.072H88.8634ZM100.545 53.56C98.0487 53.56 97.2087 51.016 97.2087 48.784L103.905 48.544C104.001 48.304 104.217 47.56 104.217 46.504C104.217 45.112 103.353 43 100.521 43C96.0327 43 95.2647 47.128 95.2647 49.288C95.2647 52.888 96.9927 55.24 100.497 55.24C102.273 55.24 104.313 54.112 104.313 52.696C104.313 51.904 103.617 51.76 103.617 51.76C102.873 52.816 101.697 53.56 100.545 53.56ZM100.185 44.32C101.889 44.32 102.177 45.712 102.177 46.144C102.177 46.648 102.129 46.984 101.985 47.32L97.3287 47.488C97.5207 45.952 98.4087 44.32 100.185 44.32ZM114.393 44.704C114.393 44.704 113.193 43 110.889 43C107.481 43 106.233 46.912 106.233 49.48C106.233 52.48 107.577 55.24 109.953 55.24C112.521 55.24 113.745 52.048 114.177 50.8H114.297C114.201 52.024 114.153 53.176 114.153 53.512C114.153 54.928 114.417 55.168 114.993 55.168C115.737 55.168 116.649 54.616 116.649 54.616C116.649 54.616 116.025 53.44 116.025 51.928C116.025 47.44 116.265 44.056 116.265 40.312C116.265 38.968 116.121 38.2 115.281 38.2C114.705 38.2 113.769 38.656 113.769 38.656C114.345 40.168 114.393 41.464 114.393 44.704ZM110.217 53.272C108.921 53.272 108.249 51.376 108.249 49.432C108.249 47.176 108.729 44.68 111.057 44.68C113.049 44.68 114.201 46.048 114.321 46.216C114.321 46.216 114.345 46.552 114.345 47.056C114.345 49.408 112.449 53.272 110.217 53.272ZM120.161 54.976C120.161 56.464 118.721 57.64 118.721 57.64C118.721 57.64 118.865 58.312 119.585 58.312C120.473 58.312 122.417 56.296 122.417 53.92C122.417 52.576 121.721 52.096 120.833 52.096C119.609 52.096 119.129 53.056 119.105 53.752C119.777 53.824 120.161 54.328 120.161 54.976ZM137.122 47.68C137.122 49.72 136.93 51.568 136.93 53.296C136.93 54.568 137.17 55.072 137.794 55.072C138.586 55.072 139.426 54.52 139.426 54.52C139.426 54.52 138.802 53.464 138.802 51.784C138.802 50.152 138.946 48.04 138.946 46.312C138.946 45.184 138.466 43 136.258 43C133.93 43 132.61 44.92 132.178 45.976H132.082C132.154 43.912 132.178 42.424 132.178 41.104C132.178 39.688 132.034 38.2 131.122 38.2C130.33 38.2 129.562 38.656 129.562 38.656C130.402 40.36 130.426 46.624 130.426 49.096V49.864C130.426 51.448 129.898 52.72 129.898 54.208C129.898 54.76 130.066 55.072 131.122 55.072C132.178 55.072 132.346 55.024 132.346 55.024C132.058 53.272 132.034 52.384 132.034 51.064V50.056C132.034 46.024 134.386 44.92 135.754 44.92C136.954 44.92 137.122 46.6 137.122 47.68ZM142.726 53.296C142.726 54.568 142.966 55.072 143.59 55.072C144.382 55.072 145.222 54.52 145.222 54.52C145.222 54.52 144.598 53.392 144.598 51.784V45.16C144.598 44.104 144.502 43.072 143.59 43.072C143.014 43.072 142.078 43.528 142.078 43.528C142.606 44.968 142.798 45.856 142.798 49.096C142.798 50.656 142.726 51.904 142.726 53.296ZM142.078 39.472C142.078 40.216 142.654 40.792 143.398 40.792C144.142 40.792 144.742 40.216 144.742 39.472C144.742 38.728 144.142 38.128 143.398 38.128C142.654 38.128 142.078 38.728 142.078 39.472ZM155.761 55.144C155.761 57.592 154.873 59.272 152.281 59.272C150.769 59.272 149.569 58.864 149.569 57.448C149.569 57.16 149.617 56.872 149.617 56.872C148.729 56.968 147.721 57.184 147.721 58.288C147.721 60.136 149.881 61 151.681 61C156.217 61 157.585 58.192 157.585 54.64C157.585 52.816 157.153 50.32 157.153 46.816C157.153 45.808 157.177 44.752 157.273 43.6C156.409 43.552 155.209 43 153.313 43C149.665 43 147.601 46.312 147.601 49.6C147.601 52.648 149.017 54.856 151.441 54.856C153.721 54.856 155.017 52.288 155.449 51.04H155.569C155.641 51.688 155.761 53.896 155.761 55.144ZM155.545 47.056C155.545 49.432 153.817 52.888 151.729 52.888C150.001 52.888 149.617 50.584 149.617 49.432C149.617 47.272 150.289 44.632 152.737 44.632C153.985 44.632 154.873 44.92 155.545 45.184V47.056ZM167.755 47.68C167.755 49.72 167.563 51.568 167.563 53.296C167.563 54.568 167.803 55.072 168.427 55.072C169.219 55.072 170.059 54.52 170.059 54.52C170.059 54.52 169.435 53.464 169.435 51.784C169.435 50.152 169.579 48.04 169.579 46.312C169.579 45.184 169.099 43 166.891 43C164.563 43 163.243 44.92 162.811 45.976H162.715C162.787 43.912 162.811 42.424 162.811 41.104C162.811 39.688 162.667 38.2 161.755 38.2C160.963 38.2 160.195 38.656 160.195 38.656C161.035 40.36 161.059 46.624 161.059 49.096V49.864C161.059 51.448 160.531 52.72 160.531 54.208C160.531 54.76 160.699 55.072 161.755 55.072C162.811 55.072 162.979 55.024 162.979 55.024C162.691 53.272 162.667 52.384 162.667 51.064V50.056C162.667 46.024 165.019 44.92 166.387 44.92C167.587 44.92 167.755 46.6 167.755 47.68ZM177.415 49.816C177.847 49.816 178.039 49.312 178.039 48.712C178.039 48.496 178.015 48.208 177.967 47.992H173.095C172.663 47.992 172.423 48.592 172.423 49.216C172.423 49.408 172.423 49.648 172.471 49.816H177.415ZM16.0422 75.6C15.2022 75.6 14.2662 75 11.8422 75C8.33819 75 6.20219 78.432 6.20219 81.552C6.20219 84.744 7.69019 87.24 10.0422 87.24C12.1062 87.24 13.6422 84.48 14.1462 83.208H14.2662C13.8822 86.04 13.7622 88.968 13.7622 91.752C13.7622 92.256 13.7862 92.568 13.8342 92.664C13.9782 92.904 14.2662 93 14.6262 93C15.3702 93 16.1862 92.616 16.1622 92.52C15.8502 91.008 15.7542 88.92 15.7542 86.76C15.7542 83.088 16.0662 79.848 16.0662 76.512C16.0662 76.152 16.0662 75.84 16.0422 75.6ZM14.3142 79.272C14.3142 81.528 12.4182 85.272 10.3302 85.272C8.72219 85.272 8.21819 82.944 8.21819 81.384C8.21819 79.152 9.13019 76.632 11.5542 76.632C13.0902 76.632 14.3142 77.184 14.3142 77.184V79.272ZM28.2492 75.888C28.2492 75.336 27.9612 75.096 27.4572 75.096C26.7132 75.096 25.8492 75.552 25.8492 75.552C25.8492 75.552 26.3772 76.464 26.3772 78.816C26.3772 82.416 24.7212 85.224 22.9212 85.224C21.3852 85.224 21.0732 83.808 21.0732 82.728C21.0732 81.192 21.1452 79.512 21.1452 77.856C21.1452 76.296 21.1212 75.096 20.1852 75.096C19.4412 75.096 18.6252 75.552 18.6252 75.552C19.1772 77.136 19.3932 77.976 19.3932 79.992C19.3932 81.072 19.3452 82.536 19.3452 83.616C19.3452 85.92 20.5932 87.24 22.5852 87.24C25.2252 87.24 26.1612 84.336 26.5452 82.776H26.6412C26.6412 83.544 26.6652 85.176 26.6652 85.512C26.6652 86.76 26.9292 87.168 27.5052 87.168C28.2732 87.168 29.0172 86.616 29.0172 86.616C28.1772 84.792 28.0092 82.584 28.0092 80.736C28.0092 78.984 28.2492 77.472 28.2492 75.888ZM39.7379 83.664C39.7379 81.024 39.8579 79.656 39.8579 78.24C39.8579 77.016 39.2099 75 35.8019 75C34.0019 75 31.3379 75.768 31.3379 77.208C31.3379 78 32.7059 78.624 32.7059 78.624C33.3299 77.136 34.4819 76.416 35.8739 76.416C37.2659 76.416 38.0339 77.28 38.0339 79.08C38.0339 80.592 37.9859 80.688 37.9859 80.688C37.6259 80.64 36.0899 80.472 35.0099 80.472C32.1299 80.472 30.9539 82.128 30.9539 84.216C30.9539 86.016 32.0099 87.24 34.0739 87.24C36.4979 87.24 37.6739 85.608 38.0099 84.672H38.1059C38.1059 84.72 38.0819 84.96 38.0819 85.296C38.0819 86.04 38.2019 87.168 38.8739 87.168C39.7139 87.168 40.6259 86.616 40.6259 86.616C40.6259 86.616 39.7379 85.2 39.7379 83.664ZM37.9379 82.704C37.9379 84.288 36.3299 85.512 34.5779 85.512C33.6419 85.512 33.0179 84.96 33.0179 83.904C33.0179 82.152 34.2179 81.768 36.0419 81.768C36.9059 81.768 37.7699 81.84 37.9379 81.84V82.704ZM43.4658 85.32C43.4658 86.568 43.6818 87.072 44.5458 87.072C44.9778 87.072 45.9618 86.544 45.9618 86.544C45.9618 86.544 45.3618 85.44 45.3618 83.976C45.3618 82.344 45.5298 78.768 45.5298 77.544V75.12C45.5298 71.712 45.4578 70.2 44.4258 70.2C43.6818 70.2 42.9138 70.68 42.9138 70.68C43.5138 72.216 43.6818 73.632 43.6818 76.872C43.6818 79.8 43.4658 82.56 43.4658 85.32ZM49.3977 85.296C49.3977 86.568 49.6377 87.072 50.2617 87.072C51.0537 87.072 51.8937 86.52 51.8937 86.52C51.8937 86.52 51.2697 85.392 51.2697 83.784V77.16C51.2697 76.104 51.1737 75.072 50.2617 75.072C49.6857 75.072 48.7497 75.528 48.7497 75.528C49.2777 76.968 49.4697 77.856 49.4697 81.096C49.4697 82.656 49.3977 83.904 49.3977 85.296ZM48.7497 71.472C48.7497 72.216 49.3257 72.792 50.0697 72.792C50.8137 72.792 51.4137 72.216 51.4137 71.472C51.4137 70.728 50.8137 70.128 50.0697 70.128C49.3257 70.128 48.7497 70.728 48.7497 71.472ZM55.5445 83.736C55.5445 86.04 56.6725 87.072 58.4245 87.072C59.5285 87.072 60.7285 86.688 60.7285 85.8C60.7285 85.44 60.6085 85.056 60.4165 84.816C59.9365 85.128 59.5285 85.344 58.8325 85.344C57.3685 85.344 57.3205 83.712 57.3205 82.104C57.3205 79.752 57.4405 76.512 57.4405 76.512H59.9125C60.2725 76.512 60.4885 75.912 60.4885 75.384C60.4885 75.24 60.4885 75.12 60.4405 75H57.4165V71.904C57.4165 71.904 55.4245 72.048 55.4245 72.744C55.4245 73.512 55.6645 74.352 55.6645 75H54.7285C54.3685 75 53.9125 75.792 53.9125 76.32C53.9125 76.368 53.9125 76.44 53.9365 76.512H55.6885C55.6405 79.296 55.5445 82.608 55.5445 83.736ZM63.0773 93C66.4853 93 72.5573 79.368 72.5573 76.224C72.5573 75.288 72.2453 75 71.5013 75C70.7573 75 69.8213 75.456 69.8213 75.456C70.1093 75.984 70.3253 76.416 70.3253 77.232C70.3253 79.224 69.5333 81.576 67.9013 85.128C67.2773 82.56 64.8293 75 63.7493 75C62.5013 75 61.7813 75.624 61.6853 75.768C63.4373 77.904 65.8613 83.952 66.8213 86.832C65.7893 88.68 64.6853 90.792 62.0453 90.792C62.0453 91.92 62.0933 93 63.0773 93ZM80.0071 85.296C80.0071 86.568 80.2471 87.072 80.8711 87.072C81.6631 87.072 82.5031 86.52 82.5031 86.52C82.5031 86.52 81.8791 85.392 81.8791 83.784V77.16C81.8791 76.104 81.7831 75.072 80.8711 75.072C80.2951 75.072 79.3591 75.528 79.3591 75.528C79.8871 76.968 80.0791 77.856 80.0791 81.096C80.0791 82.656 80.0071 83.904 80.0071 85.296ZM79.3591 71.472C79.3591 72.216 79.9351 72.792 80.6791 72.792C81.4231 72.792 82.0231 72.216 82.0231 71.472C82.0231 70.728 81.4231 70.128 80.6791 70.128C79.9351 70.128 79.3591 70.728 79.3591 71.472ZM87.7379 82.056C87.7379 78.024 90.1379 76.92 91.4339 76.92C92.6819 76.92 92.8739 78.6 92.8739 79.68C92.8739 82.032 92.6339 84.024 92.6339 85.224C92.6339 86.496 92.8019 87.072 93.5699 87.072C94.2419 87.072 95.1299 86.52 95.1299 86.52C94.6499 85.656 94.5059 84.528 94.5059 83.52C94.5059 82.2 94.6499 79.68 94.6499 78.312C94.6499 77.184 94.1939 75.024 91.9139 75C89.6339 75 88.2419 76.992 87.9059 77.976H87.7859V77.64C87.7859 76.872 87.6179 75.024 87.6179 75.024C87.6179 75.024 85.5299 75.144 85.5299 75.84C85.5299 76.872 86.1059 77.784 86.1059 82.032C86.1059 83.736 85.6259 85.2 85.6259 86.208C85.6259 86.76 85.7699 87.072 86.8259 87.072C87.8819 87.072 88.0499 87.024 88.0499 87.024C87.7619 85.272 87.7379 84.384 87.7379 83.064V82.056ZM105.487 87.144C105.487 89.592 104.599 91.272 102.007 91.272C100.495 91.272 99.2952 90.864 99.2952 89.448C99.2952 89.16 99.3432 88.872 99.3432 88.872C98.4552 88.968 97.4472 89.184 97.4472 90.288C97.4472 92.136 99.6072 93 101.407 93C105.943 93 107.311 90.192 107.311 86.64C107.311 84.816 106.879 82.32 106.879 78.816C106.879 77.808 106.903 76.752 106.999 75.6C106.135 75.552 104.935 75 103.039 75C99.3912 75 97.3272 78.312 97.3272 81.6C97.3272 84.648 98.7432 86.856 101.167 86.856C103.447 86.856 104.743 84.288 105.175 83.04H105.295C105.367 83.688 105.487 85.896 105.487 87.144ZM105.271 79.056C105.271 81.432 103.543 84.888 101.455 84.888C99.7272 84.888 99.3432 82.584 99.3432 81.432C99.3432 79.272 100.015 76.632 102.463 76.632C103.711 76.632 104.599 76.92 105.271 77.184V79.056ZM112.442 78.072V77.832C112.442 76.776 112.322 75.024 112.322 75.024C112.322 75.024 110.21 75.144 110.21 75.84C110.21 76.848 110.786 77.784 110.786 81.6C110.786 84 110.306 84.672 110.306 86.208C110.306 86.76 110.45 87.072 111.506 87.072C112.562 87.072 112.73 87.024 112.73 87.024C112.442 85.272 112.418 84.384 112.418 83.064V82.056C112.418 79.2 114.122 76.92 115.25 76.92C115.826 76.92 116.306 77.28 116.69 78.36C116.69 78.36 117.986 78.072 117.986 76.848C117.986 76.008 117.41 75 115.85 75C113.954 75 112.874 76.992 112.562 78.072H112.442ZM124.123 85.56C121.627 85.56 120.787 83.016 120.787 80.784L127.483 80.544C127.579 80.304 127.795 79.56 127.795 78.504C127.795 77.112 126.931 75 124.099 75C119.611 75 118.843 79.128 118.843 81.288C118.843 84.888 120.571 87.24 124.075 87.24C125.851 87.24 127.891 86.112 127.891 84.696C127.891 83.904 127.195 83.76 127.195 83.76C126.451 84.816 125.275 85.56 124.123 85.56ZM123.763 76.32C125.467 76.32 125.755 77.712 125.755 78.144C125.755 78.648 125.707 78.984 125.563 79.32L120.907 79.488C121.099 77.952 121.987 76.32 123.763 76.32ZM137.972 76.704C137.972 76.704 136.772 75 134.468 75C131.06 75 129.812 78.912 129.812 81.48C129.812 84.48 131.156 87.24 133.532 87.24C136.1 87.24 137.324 84.048 137.756 82.8H137.876C137.78 84.024 137.732 85.176 137.732 85.512C137.732 86.928 137.996 87.168 138.572 87.168C139.316 87.168 140.228 86.616 140.228 86.616C140.228 86.616 139.604 85.44 139.604 83.928C139.604 79.44 139.844 76.056 139.844 72.312C139.844 70.968 139.7 70.2 138.86 70.2C138.284 70.2 137.348 70.656 137.348 70.656C137.924 72.168 137.972 73.464 137.972 76.704ZM133.796 85.272C132.5 85.272 131.828 83.376 131.828 81.432C131.828 79.176 132.308 76.68 134.636 76.68C136.628 76.68 137.78 78.048 137.9 78.216C137.9 78.216 137.924 78.552 137.924 79.056C137.924 81.408 136.028 85.272 133.796 85.272ZM143.523 85.296C143.523 86.568 143.763 87.072 144.387 87.072C145.179 87.072 146.019 86.52 146.019 86.52C146.019 86.52 145.395 85.392 145.395 83.784V77.16C145.395 76.104 145.299 75.072 144.387 75.072C143.811 75.072 142.875 75.528 142.875 75.528C143.403 76.968 143.595 77.856 143.595 81.096C143.595 82.656 143.523 83.904 143.523 85.296ZM142.875 71.472C142.875 72.216 143.451 72.792 144.195 72.792C144.939 72.792 145.539 72.216 145.539 71.472C145.539 70.728 144.939 70.128 144.195 70.128C143.451 70.128 142.875 70.728 142.875 71.472ZM153.678 85.56C151.182 85.56 150.342 83.016 150.342 80.784L157.038 80.544C157.134 80.304 157.35 79.56 157.35 78.504C157.35 77.112 156.486 75 153.654 75C149.166 75 148.398 79.128 148.398 81.288C148.398 84.888 150.126 87.24 153.63 87.24C155.406 87.24 157.446 86.112 157.446 84.696C157.446 83.904 156.75 83.76 156.75 83.76C156.006 84.816 154.83 85.56 153.678 85.56ZM153.318 76.32C155.022 76.32 155.31 77.712 155.31 78.144C155.31 78.648 155.262 78.984 155.118 79.32L150.462 79.488C150.654 77.952 151.542 76.32 153.318 76.32ZM162.222 82.056C162.222 78.024 164.622 76.92 165.918 76.92C167.166 76.92 167.358 78.6 167.358 79.68C167.358 82.032 167.118 84.024 167.118 85.224C167.118 86.496 167.286 87.072 168.054 87.072C168.726 87.072 169.614 86.52 169.614 86.52C169.134 85.656 168.99 84.528 168.99 83.52C168.99 82.2 169.134 79.68 169.134 78.312C169.134 77.184 168.678 75.024 166.398 75C164.118 75 162.726 76.992 162.39 77.976H162.27V77.64C162.27 76.872 162.102 75.024 162.102 75.024C162.102 75.024 160.014 75.144 160.014 75.84C160.014 76.872 160.59 77.784 160.59 82.032C160.59 83.736 160.11 85.2 160.11 86.208C160.11 86.76 160.254 87.072 161.31 87.072C162.366 87.072 162.534 87.024 162.534 87.024C162.246 85.272 162.222 84.384 162.222 83.064V82.056ZM173.037 83.736C173.037 86.04 174.165 87.072 175.917 87.072C177.021 87.072 178.221 86.688 178.221 85.8C178.221 85.44 178.101 85.056 177.909 84.816C177.429 85.128 177.021 85.344 176.325 85.344C174.861 85.344 174.813 83.712 174.813 82.104C174.813 79.752 174.933 76.512 174.933 76.512H177.405C177.765 76.512 177.981 75.912 177.981 75.384C177.981 75.24 177.981 75.12 177.933 75H174.909V71.904C174.909 71.904 172.917 72.048 172.917 72.744C172.917 73.512 173.157 74.352 173.157 75H172.221C171.861 75 171.405 75.792 171.405 76.32C171.405 76.368 171.405 76.44 171.429 76.512H173.181C173.133 79.296 173.037 82.608 173.037 83.736ZM184.17 76.296C185.226 76.296 185.993 76.992 186.354 78.288C186.354 78.288 187.89 77.76 187.89 76.968C187.89 75.528 185.826 75 184.458 75C181.794 75 180.138 76.32 180.138 78.408C180.138 80.088 181.866 81 183.642 81.624C185.13 82.152 186.522 82.752 186.522 84.12C186.522 85.368 185.298 85.8 183.954 85.8C182.034 85.8 181.434 84.408 181.026 83.784C180.69 83.952 179.898 84.384 179.898 85.296C179.898 86.352 181.17 87.24 183.978 87.24C186.762 87.24 188.466 85.464 188.466 83.424C188.466 81.576 186.714 80.688 184.986 80.136C183.618 79.704 182.01 79.224 182.01 77.928C182.01 77.184 182.586 76.296 184.17 76.296ZM190.617 85.632C190.617 86.472 191.289 87.144 192.153 87.144C192.993 87.144 193.665 86.472 193.665 85.632C193.665 84.768 192.993 84.096 192.153 84.096C191.289 84.096 190.617 84.768 190.617 85.632Z" fill="#212B36"/>
</svg>
