<svg width="200" height="96" viewBox="0 0 200 96" fill="none" xmlns="http://www.w3.org/2000/svg">
<path d="M53.7975 7.136C52.4295 9.488 49.6695 19.496 48.0855 22.664C48.2055 22.784 48.9495 23.072 49.7895 23.072C50.6535 23.072 50.5095 22.424 51.8775 17.72H57.3015C58.5495 22.136 58.9815 23.072 59.6055 23.072C60.3015 23.072 61.0215 22.688 61.3815 22.232C59.0775 18.44 56.1495 8.024 55.6935 6.56C55.6935 6.56 54.1335 6.56 53.7975 7.136ZM54.5175 9.032C55.3815 11.696 56.2455 14.384 56.7255 16.064H52.3335C53.2455 12.872 54.4215 9.344 54.5175 9.032ZM63.7275 21.32C63.7275 22.568 63.9435 23.072 64.8075 23.072C65.2395 23.072 66.2235 22.544 66.2235 22.544C66.2235 22.544 65.6235 21.44 65.6235 19.976C65.6235 18.344 65.7915 14.768 65.7915 13.544V11.12C65.7915 7.712 65.7195 6.2 64.6875 6.2C63.9435 6.2 63.1755 6.68 63.1755 6.68C63.7755 8.216 63.9435 9.632 63.9435 12.872C63.9435 15.8 63.7275 18.56 63.7275 21.32ZM69.5634 21.32C69.5634 22.568 69.7794 23.072 70.6434 23.072C71.0754 23.072 72.0594 22.544 72.0594 22.544C72.0594 22.544 71.4594 21.44 71.4594 19.976C71.4594 18.344 71.6274 14.768 71.6274 13.544V11.12C71.6274 7.712 71.5554 6.2 70.5234 6.2C69.7794 6.2 69.0114 6.68 69.0114 6.68C69.6114 8.216 69.7794 9.632 69.7794 12.872C69.7794 15.8 69.5634 18.56 69.5634 21.32ZM79.5513 17.816C79.9833 17.816 80.1753 17.312 80.1753 16.712C80.1753 16.496 80.1513 16.208 80.1033 15.992H75.2313C74.7993 15.992 74.5593 16.592 74.5593 17.216C74.5593 17.408 74.5593 17.648 74.6073 17.816H79.5513ZM85.0308 18.056C85.0308 14.024 87.4308 12.92 88.7268 12.92C89.9748 12.92 90.1668 14.6 90.1668 15.68C90.1668 18.032 89.9268 20.024 89.9268 21.224C89.9268 22.496 90.0948 23.072 90.8628 23.072C91.5348 23.072 92.4228 22.52 92.4228 22.52C91.9428 21.656 91.7988 20.528 91.7988 19.52C91.7988 18.2 91.9428 15.68 91.9428 14.312C91.9428 13.184 91.4868 11.024 89.2068 11C86.9268 11 85.5348 12.992 85.1988 13.976H85.0788V13.64C85.0788 12.872 84.9108 11.024 84.9108 11.024C84.9108 11.024 82.8228 11.144 82.8228 11.84C82.8228 12.872 83.3988 13.784 83.3988 18.032C83.3988 19.736 82.9188 21.2 82.9188 22.208C82.9188 22.76 83.0628 23.072 84.1188 23.072C85.1748 23.072 85.3428 23.024 85.3428 23.024C85.0548 21.272 85.0308 20.384 85.0308 19.064V18.056ZM103.429 19.664C103.429 17.024 103.549 15.656 103.549 14.24C103.549 13.016 102.901 11 99.4933 11C97.6933 11 95.0293 11.768 95.0293 13.208C95.0293 14 96.3973 14.624 96.3973 14.624C97.0213 13.136 98.1733 12.416 99.5653 12.416C100.957 12.416 101.725 13.28 101.725 15.08C101.725 16.592 101.677 16.688 101.677 16.688C101.317 16.64 99.7813 16.472 98.7013 16.472C95.8213 16.472 94.6453 18.128 94.6453 20.216C94.6453 22.016 95.7013 23.24 97.7653 23.24C100.189 23.24 101.365 21.608 101.701 20.672H101.797C101.797 20.72 101.773 20.96 101.773 21.296C101.773 22.04 101.893 23.168 102.565 23.168C103.405 23.168 104.317 22.616 104.317 22.616C104.317 22.616 103.429 21.2 103.429 19.664ZM101.629 18.704C101.629 20.288 100.021 21.512 98.2693 21.512C97.3333 21.512 96.7093 20.96 96.7093 19.904C96.7093 18.152 97.9093 17.768 99.7333 17.768C100.597 17.768 101.461 17.84 101.629 17.84V18.704ZM107.048 19.736C107.048 22.04 108.176 23.072 109.928 23.072C111.032 23.072 112.232 22.688 112.232 21.8C112.232 21.44 112.112 21.056 111.92 20.816C111.44 21.128 111.032 21.344 110.336 21.344C108.872 21.344 108.824 19.712 108.824 18.104C108.824 15.752 108.944 12.512 108.944 12.512H111.416C111.776 12.512 111.992 11.912 111.992 11.384C111.992 11.24 111.992 11.12 111.944 11H108.92V7.904C108.92 7.904 106.928 8.048 106.928 8.744C106.928 9.512 107.168 10.352 107.168 11H106.232C105.872 11 105.416 11.792 105.416 12.32C105.416 12.368 105.416 12.44 105.44 12.512H107.192C107.144 15.296 107.048 18.608 107.048 19.736ZM123.581 11.888C123.581 11.336 123.293 11.096 122.789 11.096C122.045 11.096 121.181 11.552 121.181 11.552C121.181 11.552 121.709 12.464 121.709 14.816C121.709 18.416 120.053 21.224 118.253 21.224C116.717 21.224 116.405 19.808 116.405 18.728C116.405 17.192 116.477 15.512 116.477 13.856C116.477 12.296 116.453 11.096 115.517 11.096C114.773 11.096 113.957 11.552 113.957 11.552C114.509 13.136 114.725 13.976 114.725 15.992C114.725 17.072 114.677 18.536 114.677 19.616C114.677 21.92 115.925 23.24 117.917 23.24C120.557 23.24 121.493 20.336 121.877 18.776H121.973C121.973 19.544 121.997 21.176 121.997 21.512C121.997 22.76 122.261 23.168 122.837 23.168C123.605 23.168 124.349 22.616 124.349 22.616C123.509 20.792 123.341 18.584 123.341 16.736C123.341 14.984 123.581 13.472 123.581 11.888ZM129.094 14.072V13.832C129.094 12.776 128.974 11.024 128.974 11.024C128.974 11.024 126.862 11.144 126.862 11.84C126.862 12.848 127.438 13.784 127.438 17.6C127.438 20 126.958 20.672 126.958 22.208C126.958 22.76 127.102 23.072 128.158 23.072C129.214 23.072 129.382 23.024 129.382 23.024C129.094 21.272 129.07 20.384 129.07 19.064V18.056C129.07 15.2 130.774 12.92 131.902 12.92C132.478 12.92 132.958 13.28 133.342 14.36C133.342 14.36 134.638 14.072 134.638 12.848C134.638 12.008 134.062 11 132.502 11C130.606 11 129.526 12.992 129.214 14.072H129.094ZM144.703 19.664C144.703 17.024 144.823 15.656 144.823 14.24C144.823 13.016 144.175 11 140.767 11C138.967 11 136.303 11.768 136.303 13.208C136.303 14 137.671 14.624 137.671 14.624C138.295 13.136 139.447 12.416 140.839 12.416C142.231 12.416 142.999 13.28 142.999 15.08C142.999 16.592 142.951 16.688 142.951 16.688C142.591 16.64 141.055 16.472 139.975 16.472C137.095 16.472 135.919 18.128 135.919 20.216C135.919 22.016 136.975 23.24 139.039 23.24C141.463 23.24 142.639 21.608 142.975 20.672H143.071C143.071 20.72 143.047 20.96 143.047 21.296C143.047 22.04 143.167 23.168 143.839 23.168C144.679 23.168 145.591 22.616 145.591 22.616C145.591 22.616 144.703 21.2 144.703 19.664ZM142.903 18.704C142.903 20.288 141.295 21.512 139.543 21.512C138.607 21.512 137.983 20.96 137.983 19.904C137.983 18.152 139.183 17.768 141.007 17.768C141.871 17.768 142.735 17.84 142.903 17.84V18.704ZM148.431 21.32C148.431 22.568 148.647 23.072 149.511 23.072C149.943 23.072 150.927 22.544 150.927 22.544C150.927 22.544 150.327 21.44 150.327 19.976C150.327 18.344 150.495 14.768 150.495 13.544V11.12C150.495 7.712 150.423 6.2 149.391 6.2C148.647 6.2 147.879 6.68 147.879 6.68C148.479 8.216 148.647 9.632 148.647 12.872C148.647 15.8 148.431 18.56 148.431 21.32ZM12.1825 55.144C12.1825 57.592 11.2945 59.272 8.7025 59.272C7.1905 59.272 5.9905 58.864 5.9905 57.448C5.9905 57.16 6.0385 56.872 6.0385 56.872C5.1505 56.968 4.1425 57.184 4.1425 58.288C4.1425 60.136 6.3025 61 8.1025 61C12.6385 61 14.0065 58.192 14.0065 54.64C14.0065 52.816 13.5745 50.32 13.5745 46.816C13.5745 45.808 13.5985 44.752 13.6945 43.6C12.8305 43.552 11.6305 43 9.7345 43C6.0865 43 4.0225 46.312 4.0225 49.6C4.0225 52.648 5.4385 54.856 7.8625 54.856C10.1425 54.856 11.4385 52.288 11.8705 51.04H11.9905C12.0625 51.688 12.1825 53.896 12.1825 55.144ZM11.9665 47.056C11.9665 49.432 10.2385 52.888 8.1505 52.888C6.4225 52.888 6.0385 50.584 6.0385 49.432C6.0385 47.272 6.7105 44.632 9.1585 44.632C10.4065 44.632 11.2945 44.92 11.9665 45.184V47.056ZM21.6089 43C17.7929 43 16.2569 46.6 16.2569 49.648C16.2569 52.432 17.8889 55.24 21.3449 55.24C24.9209 55.24 26.3369 51.664 26.3369 48.76C26.3369 46.024 24.8729 43 21.6089 43ZM21.2009 44.488C23.2409 44.488 24.2009 46.888 24.2009 49.36C24.2009 51.016 23.5289 53.848 21.3929 53.848C19.3529 53.848 18.3689 51.52 18.3689 49.048C18.3689 47.392 19.0649 44.488 21.2009 44.488ZM33.6089 43C29.7929 43 28.2569 46.6 28.2569 49.648C28.2569 52.432 29.8889 55.24 33.3449 55.24C36.9209 55.24 38.3369 51.664 38.3369 48.76C38.3369 46.024 36.8729 43 33.6089 43ZM33.2009 44.488C35.2409 44.488 36.2009 46.888 36.2009 49.36C36.2009 51.016 35.5289 53.848 33.3929 53.848C31.3529 53.848 30.3689 51.52 30.3689 49.048C30.3689 47.392 31.0649 44.488 33.2009 44.488ZM48.4169 44.704C48.4169 44.704 47.2169 43 44.9129 43C41.5049 43 40.2569 46.912 40.2569 49.48C40.2569 52.48 41.6009 55.24 43.9769 55.24C46.5449 55.24 47.7689 52.048 48.2009 50.8H48.3209C48.2249 52.024 48.1769 53.176 48.1769 53.512C48.1769 54.928 48.4409 55.168 49.0169 55.168C49.7609 55.168 50.6729 54.616 50.6729 54.616C50.6729 54.616 50.0489 53.44 50.0489 51.928C50.0489 47.44 50.2889 44.056 50.2889 40.312C50.2889 38.968 50.1449 38.2 49.3049 38.2C48.7289 38.2 47.7929 38.656 47.7929 38.656C48.3689 40.168 48.4169 41.464 48.4169 44.704ZM44.2409 53.272C42.9449 53.272 42.2729 51.376 42.2729 49.432C42.2729 47.176 42.7529 44.68 45.0809 44.68C47.0729 44.68 48.2249 46.048 48.3449 46.216C48.3449 46.216 48.3689 46.552 48.3689 47.056C48.3689 49.408 46.4729 53.272 44.2409 53.272ZM55.816 50.056C55.816 46.024 58.216 44.92 59.512 44.92C60.76 44.92 60.952 46.6 60.952 47.68C60.952 50.032 60.712 52.024 60.712 53.224C60.712 54.496 60.88 55.072 61.648 55.072C62.32 55.072 63.208 54.52 63.208 54.52C62.728 53.656 62.584 52.528 62.584 51.52C62.584 50.2 62.728 47.68 62.728 46.312C62.728 45.184 62.272 43.024 59.992 43C57.712 43 56.32 44.992 55.984 45.976H55.864V45.64C55.864 44.872 55.696 43.024 55.696 43.024C55.696 43.024 53.608 43.144 53.608 43.84C53.608 44.872 54.184 45.784 54.184 50.032C54.184 51.736 53.704 53.2 53.704 54.208C53.704 54.76 53.848 55.072 54.904 55.072C55.96 55.072 56.128 55.024 56.128 55.024C55.84 53.272 55.816 52.384 55.816 51.064V50.056ZM70.6853 53.56C68.1893 53.56 67.3493 51.016 67.3493 48.784L74.0453 48.544C74.1413 48.304 74.3573 47.56 74.3573 46.504C74.3573 45.112 73.4933 43 70.6613 43C66.1733 43 65.4053 47.128 65.4053 49.288C65.4053 52.888 67.1333 55.24 70.6373 55.24C72.4133 55.24 74.4533 54.112 74.4533 52.696C74.4533 51.904 73.7573 51.76 73.7573 51.76C73.0133 52.816 71.8373 53.56 70.6853 53.56ZM70.3253 44.32C72.0293 44.32 72.3173 45.712 72.3173 46.144C72.3173 46.648 72.2693 46.984 72.1253 47.32L67.4693 47.488C67.6613 45.952 68.5493 44.32 70.3253 44.32ZM80.6461 44.296C81.7021 44.296 82.4701 44.992 82.8301 46.288C82.8301 46.288 84.3661 45.76 84.3661 44.968C84.3661 43.528 82.3021 43 80.9341 43C78.2701 43 76.6141 44.32 76.6141 46.408C76.6141 48.088 78.3421 49 80.1181 49.624C81.6061 50.152 82.9981 50.752 82.9981 52.12C82.9981 53.368 81.7741 53.8 80.4301 53.8C78.5101 53.8 77.9101 52.408 77.5021 51.784C77.1661 51.952 76.3741 52.384 76.3741 53.296C76.3741 54.352 77.6461 55.24 80.4541 55.24C83.2381 55.24 84.9421 53.464 84.9421 51.424C84.9421 49.576 83.1901 48.688 81.4621 48.136C80.0941 47.704 78.4861 47.224 78.4861 45.928C78.4861 45.184 79.0621 44.296 80.6461 44.296ZM91.0054 44.296C92.0614 44.296 92.8294 44.992 93.1894 46.288C93.1894 46.288 94.7254 45.76 94.7254 44.968C94.7254 43.528 92.6614 43 91.2934 43C88.6294 43 86.9734 44.32 86.9734 46.408C86.9734 48.088 88.7014 49 90.4774 49.624C91.9654 50.152 93.3574 50.752 93.3574 52.12C93.3574 53.368 92.1334 53.8 90.7894 53.8C88.8694 53.8 88.2694 52.408 87.8614 51.784C87.5254 51.952 86.7334 52.384 86.7334 53.296C86.7334 54.352 88.0054 55.24 90.8134 55.24C93.5974 55.24 95.3014 53.464 95.3014 51.424C95.3014 49.576 93.5494 48.688 91.8214 48.136C90.4534 47.704 88.8454 47.224 88.8454 45.928C88.8454 45.184 89.4214 44.296 91.0054 44.296ZM98.3168 54.976C98.3168 56.464 96.8768 57.64 96.8768 57.64C96.8768 57.64 97.0208 58.312 97.7408 58.312C98.6288 58.312 100.573 56.296 100.573 53.92C100.573 52.576 99.8768 52.096 98.9888 52.096C97.7648 52.096 97.2848 53.056 97.2608 53.752C97.9328 53.824 98.3168 54.328 98.3168 54.976ZM115.518 44.704C115.518 44.704 114.318 43 112.014 43C108.606 43 107.358 46.912 107.358 49.48C107.358 52.48 108.702 55.24 111.078 55.24C113.646 55.24 114.87 52.048 115.302 50.8H115.422C115.326 52.024 115.278 53.176 115.278 53.512C115.278 54.928 115.542 55.168 116.118 55.168C116.862 55.168 117.774 54.616 117.774 54.616C117.774 54.616 117.15 53.44 117.15 51.928C117.15 47.44 117.39 44.056 117.39 40.312C117.39 38.968 117.246 38.2 116.406 38.2C115.83 38.2 114.894 38.656 114.894 38.656C115.47 40.168 115.518 41.464 115.518 44.704ZM111.342 53.272C110.046 53.272 109.374 51.376 109.374 49.432C109.374 47.176 109.854 44.68 112.182 44.68C114.174 44.68 115.326 46.048 115.446 46.216C115.446 46.216 115.47 46.552 115.47 47.056C115.47 49.408 113.574 53.272 111.342 53.272ZM125.342 53.56C122.846 53.56 122.006 51.016 122.006 48.784L128.702 48.544C128.798 48.304 129.014 47.56 129.014 46.504C129.014 45.112 128.15 43 125.318 43C120.83 43 120.062 47.128 120.062 49.288C120.062 52.888 121.79 55.24 125.294 55.24C127.07 55.24 129.11 54.112 129.11 52.696C129.11 51.904 128.414 51.76 128.414 51.76C127.67 52.816 126.494 53.56 125.342 53.56ZM124.982 44.32C126.686 44.32 126.974 45.712 126.974 46.144C126.974 46.648 126.926 46.984 126.782 47.32L122.126 47.488C122.318 45.952 123.206 44.32 124.982 44.32ZM131.942 53.32C131.942 54.568 132.158 55.072 133.022 55.072C133.454 55.072 134.438 54.544 134.438 54.544C134.438 54.544 133.838 53.44 133.838 51.976C133.838 50.344 134.006 46.768 134.006 45.544V43.12C134.006 39.712 133.934 38.2 132.902 38.2C132.158 38.2 131.39 38.68 131.39 38.68C131.99 40.216 132.158 41.632 132.158 44.872C132.158 47.8 131.942 50.56 131.942 53.32ZM137.874 53.296C137.874 54.568 138.114 55.072 138.738 55.072C139.53 55.072 140.37 54.52 140.37 54.52C140.37 54.52 139.746 53.392 139.746 51.784V45.16C139.746 44.104 139.65 43.072 138.738 43.072C138.162 43.072 137.226 43.528 137.226 43.528C137.754 44.968 137.946 45.856 137.946 49.096C137.946 50.656 137.874 51.904 137.874 53.296ZM137.226 39.472C137.226 40.216 137.802 40.792 138.546 40.792C139.29 40.792 139.89 40.216 139.89 39.472C139.89 38.728 139.29 38.128 138.546 38.128C137.802 38.128 137.226 38.728 137.226 39.472ZM141.909 43.456C143.637 45.616 145.413 51.928 146.085 55.12C146.085 55.12 146.205 55.144 146.373 55.144C146.829 55.144 147.765 55.048 148.221 54.376C149.637 52.312 152.589 46.576 152.589 44.152C152.589 43.408 152.301 43 151.677 43C150.933 43 149.757 43.456 149.757 43.456C149.757 43.456 150.285 44.248 150.285 45.16C150.285 48.232 147.765 52.648 147.477 53.104C146.565 49.216 145.653 46.048 144.909 44.296C144.549 43.48 144.213 43 143.877 43C142.941 43 142.125 43.312 141.909 43.456ZM159.256 53.56C156.76 53.56 155.92 51.016 155.92 48.784L162.616 48.544C162.712 48.304 162.928 47.56 162.928 46.504C162.928 45.112 162.064 43 159.232 43C154.744 43 153.976 47.128 153.976 49.288C153.976 52.888 155.704 55.24 159.208 55.24C160.984 55.24 163.024 54.112 163.024 52.696C163.024 51.904 162.328 51.76 162.328 51.76C161.584 52.816 160.408 53.56 159.256 53.56ZM158.896 44.32C160.6 44.32 160.888 45.712 160.888 46.144C160.888 46.648 160.84 46.984 160.696 47.32L156.04 47.488C156.232 45.952 157.12 44.32 158.896 44.32ZM167.824 46.072V45.832C167.824 44.776 167.704 43.024 167.704 43.024C167.704 43.024 165.592 43.144 165.592 43.84C165.592 44.848 166.168 45.784 166.168 49.6C166.168 52 165.688 52.672 165.688 54.208C165.688 54.76 165.832 55.072 166.888 55.072C167.944 55.072 168.112 55.024 168.112 55.024C167.824 53.272 167.8 52.384 167.8 51.064V50.056C167.8 47.2 169.504 44.92 170.632 44.92C171.208 44.92 171.688 45.28 172.072 46.36C172.072 46.36 173.368 46.072 173.368 44.848C173.368 44.008 172.792 43 171.232 43C169.336 43 168.256 44.992 167.944 46.072H167.824ZM179.506 53.56C177.01 53.56 176.17 51.016 176.17 48.784L182.866 48.544C182.962 48.304 183.178 47.56 183.178 46.504C183.178 45.112 182.314 43 179.482 43C174.994 43 174.226 47.128 174.226 49.288C174.226 52.888 175.954 55.24 179.458 55.24C181.234 55.24 183.274 54.112 183.274 52.696C183.274 51.904 182.578 51.76 182.578 51.76C181.834 52.816 180.658 53.56 179.506 53.56ZM179.146 44.32C180.85 44.32 181.138 45.712 181.138 46.144C181.138 46.648 181.09 46.984 180.946 47.32L176.29 47.488C176.482 45.952 177.37 44.32 179.146 44.32ZM193.354 44.704C193.354 44.704 192.154 43 189.85 43C186.442 43 185.194 46.912 185.194 49.48C185.194 52.48 186.538 55.24 188.914 55.24C191.482 55.24 192.706 52.048 193.138 50.8H193.258C193.162 52.024 193.114 53.176 193.114 53.512C193.114 54.928 193.378 55.168 193.954 55.168C194.698 55.168 195.61 54.616 195.61 54.616C195.61 54.616 194.986 53.44 194.986 51.928C194.986 47.44 195.226 44.056 195.226 40.312C195.226 38.968 195.082 38.2 194.242 38.2C193.666 38.2 192.73 38.656 192.73 38.656C193.306 40.168 193.354 41.464 193.354 44.704ZM189.178 53.272C187.882 53.272 187.21 51.376 187.21 49.432C187.21 47.176 187.69 44.68 190.018 44.68C192.01 44.68 193.162 46.048 193.282 46.216C193.282 46.216 193.306 46.552 193.306 47.056C193.306 49.408 191.41 53.272 189.178 53.272ZM14.8244 78.072V77.832C14.8244 76.776 14.7044 75.024 14.7044 75.024C14.7044 75.024 12.5924 75.144 12.5924 75.84C12.5924 76.848 13.1684 77.784 13.1684 81.6C13.1684 84 12.6884 84.672 12.6884 86.208C12.6884 86.76 12.8324 87.072 13.8884 87.072C14.9444 87.072 15.1124 87.024 15.1124 87.024C14.8244 85.272 14.8004 84.384 14.8004 83.064V82.056C14.8004 79.2 16.5044 76.92 17.6324 76.92C18.2084 76.92 18.6884 77.28 19.0724 78.36C19.0724 78.36 20.3684 78.072 20.3684 76.848C20.3684 76.008 19.7924 75 18.2324 75C16.3364 75 15.2564 76.992 14.9444 78.072H14.8244ZM22.5852 85.296C22.5852 86.568 22.8252 87.072 23.4492 87.072C24.2412 87.072 25.0812 86.52 25.0812 86.52C25.0812 86.52 24.4572 85.392 24.4572 83.784V77.16C24.4572 76.104 24.3612 75.072 23.4492 75.072C22.8732 75.072 21.9372 75.528 21.9372 75.528C22.4652 76.968 22.6572 77.856 22.6572 81.096C22.6572 82.656 22.5852 83.904 22.5852 85.296ZM21.9372 71.472C21.9372 72.216 22.5132 72.792 23.2572 72.792C24.0012 72.792 24.6012 72.216 24.6012 71.472C24.6012 70.728 24.0012 70.128 23.2572 70.128C22.5132 70.128 21.9372 70.728 21.9372 71.472ZM35.62 87.144C35.62 89.592 34.732 91.272 32.14 91.272C30.628 91.272 29.428 90.864 29.428 89.448C29.428 89.16 29.476 88.872 29.476 88.872C28.588 88.968 27.58 89.184 27.58 90.288C27.58 92.136 29.74 93 31.54 93C36.076 93 37.444 90.192 37.444 86.64C37.444 84.816 37.012 82.32 37.012 78.816C37.012 77.808 37.036 76.752 37.132 75.6C36.268 75.552 35.068 75 33.172 75C29.524 75 27.46 78.312 27.46 81.6C27.46 84.648 28.876 86.856 31.3 86.856C33.58 86.856 34.876 84.288 35.308 83.04H35.428C35.5 83.688 35.62 85.896 35.62 87.144ZM35.404 79.056C35.404 81.432 33.676 84.888 31.588 84.888C29.86 84.888 29.476 82.584 29.476 81.432C29.476 79.272 30.148 76.632 32.596 76.632C33.844 76.632 34.732 76.92 35.404 77.184V79.056ZM47.6144 79.68C47.6144 81.72 47.4224 83.568 47.4224 85.296C47.4224 86.568 47.6624 87.072 48.2864 87.072C49.0784 87.072 49.9184 86.52 49.9184 86.52C49.9184 86.52 49.2944 85.464 49.2944 83.784C49.2944 82.152 49.4384 80.04 49.4384 78.312C49.4384 77.184 48.9584 75 46.7504 75C44.4224 75 43.1024 76.92 42.6704 77.976H42.5744C42.6464 75.912 42.6704 74.424 42.6704 73.104C42.6704 71.688 42.5264 70.2 41.6144 70.2C40.8224 70.2 40.0544 70.656 40.0544 70.656C40.8944 72.36 40.9184 78.624 40.9184 81.096V81.864C40.9184 83.448 40.3904 84.72 40.3904 86.208C40.3904 86.76 40.5584 87.072 41.6144 87.072C42.6704 87.072 42.8384 87.024 42.8384 87.024C42.5504 85.272 42.5264 84.384 42.5264 83.064V82.056C42.5264 78.024 44.8784 76.92 46.2464 76.92C47.4464 76.92 47.6144 78.6 47.6144 79.68ZM53.3179 83.736C53.3179 86.04 54.4459 87.072 56.1979 87.072C57.3019 87.072 58.5019 86.688 58.5019 85.8C58.5019 85.44 58.3819 85.056 58.1899 84.816C57.7099 85.128 57.3019 85.344 56.6059 85.344C55.1419 85.344 55.0939 83.712 55.0939 82.104C55.0939 79.752 55.2139 76.512 55.2139 76.512H57.6859C58.0459 76.512 58.2619 75.912 58.2619 75.384C58.2619 75.24 58.2619 75.12 58.2139 75H55.1899V71.904C55.1899 71.904 53.1979 72.048 53.1979 72.744C53.1979 73.512 53.4379 74.352 53.4379 75H52.5019C52.1419 75 51.6859 75.792 51.6859 76.32C51.6859 76.368 51.6859 76.44 51.7099 76.512H53.4619C53.4139 79.296 53.3179 82.608 53.3179 83.736ZM66.2554 83.736C66.2554 86.04 67.3834 87.072 69.1354 87.072C70.2394 87.072 71.4394 86.688 71.4394 85.8C71.4394 85.44 71.3194 85.056 71.1274 84.816C70.6474 85.128 70.2394 85.344 69.5434 85.344C68.0794 85.344 68.0314 83.712 68.0314 82.104C68.0314 79.752 68.1514 76.512 68.1514 76.512H70.6234C70.9834 76.512 71.1994 75.912 71.1994 75.384C71.1994 75.24 71.1994 75.12 71.1514 75H68.1274V71.904C68.1274 71.904 66.1354 72.048 66.1354 72.744C66.1354 73.512 66.3754 74.352 66.3754 75H65.4394C65.0794 75 64.6234 75.792 64.6234 76.32C64.6234 76.368 64.6234 76.44 64.6474 76.512H66.3994C66.3514 79.296 66.2554 82.608 66.2554 83.736ZM78.2339 75C74.4179 75 72.8819 78.6 72.8819 81.648C72.8819 84.432 74.5139 87.24 77.9699 87.24C81.5459 87.24 82.9619 83.664 82.9619 80.76C82.9619 78.024 81.4979 75 78.2339 75ZM77.8259 76.488C79.8659 76.488 80.8259 78.888 80.8259 81.36C80.8259 83.016 80.1539 85.848 78.0179 85.848C75.9779 85.848 74.9939 83.52 74.9939 81.048C74.9939 79.392 75.6899 76.488 77.8259 76.488ZM90.3586 93C93.7666 93 99.8386 79.368 99.8386 76.224C99.8386 75.288 99.5266 75 98.7826 75C98.0386 75 97.1026 75.456 97.1026 75.456C97.3906 75.984 97.6066 76.416 97.6066 77.232C97.6066 79.224 96.8146 81.576 95.1826 85.128C94.5586 82.56 92.1106 75 91.0306 75C89.7826 75 89.0626 75.624 88.9666 75.768C90.7186 77.904 93.1426 83.952 94.1026 86.832C93.0706 88.68 91.9666 90.792 89.3266 90.792C89.3266 91.92 89.3746 93 90.3586 93ZM106.593 75C102.777 75 101.241 78.6 101.241 81.648C101.241 84.432 102.873 87.24 106.329 87.24C109.905 87.24 111.321 83.664 111.321 80.76C111.321 78.024 109.857 75 106.593 75ZM106.185 76.488C108.225 76.488 109.185 78.888 109.185 81.36C109.185 83.016 108.513 85.848 106.377 85.848C104.337 85.848 103.353 83.52 103.353 81.048C103.353 79.392 104.049 76.488 106.185 76.488ZM122.913 75.888C122.913 75.336 122.625 75.096 122.121 75.096C121.377 75.096 120.513 75.552 120.513 75.552C120.513 75.552 121.041 76.464 121.041 78.816C121.041 82.416 119.385 85.224 117.585 85.224C116.049 85.224 115.737 83.808 115.737 82.728C115.737 81.192 115.809 79.512 115.809 77.856C115.809 76.296 115.785 75.096 114.849 75.096C114.105 75.096 113.289 75.552 113.289 75.552C113.841 77.136 114.057 77.976 114.057 79.992C114.057 81.072 114.009 82.536 114.009 83.616C114.009 85.92 115.257 87.24 117.249 87.24C119.889 87.24 120.825 84.336 121.209 82.776H121.305C121.305 83.544 121.329 85.176 121.329 85.512C121.329 86.76 121.593 87.168 122.169 87.168C122.937 87.168 123.681 86.616 123.681 86.616C122.841 84.792 122.673 82.584 122.673 80.736C122.673 78.984 122.913 77.472 122.913 75.888ZM128.426 78.072V77.832C128.426 76.776 128.306 75.024 128.306 75.024C128.306 75.024 126.194 75.144 126.194 75.84C126.194 76.848 126.77 77.784 126.77 81.6C126.77 84 126.29 84.672 126.29 86.208C126.29 86.76 126.434 87.072 127.49 87.072C128.546 87.072 128.714 87.024 128.714 87.024C128.426 85.272 128.402 84.384 128.402 83.064V82.056C128.402 79.2 130.106 76.92 131.234 76.92C131.81 76.92 132.29 77.28 132.674 78.36C132.674 78.36 133.97 78.072 133.97 76.848C133.97 76.008 133.394 75 131.834 75C129.938 75 128.858 76.992 128.546 78.072H128.426ZM148.143 76.704C148.143 76.704 146.943 75 144.639 75C141.231 75 139.983 78.912 139.983 81.48C139.983 84.48 141.327 87.24 143.703 87.24C146.271 87.24 147.495 84.048 147.927 82.8H148.047C147.951 84.024 147.903 85.176 147.903 85.512C147.903 86.928 148.167 87.168 148.743 87.168C149.487 87.168 150.399 86.616 150.399 86.616C150.399 86.616 149.775 85.44 149.775 83.928C149.775 79.44 150.015 76.056 150.015 72.312C150.015 70.968 149.871 70.2 149.031 70.2C148.455 70.2 147.519 70.656 147.519 70.656C148.095 72.168 148.143 73.464 148.143 76.704ZM143.967 85.272C142.671 85.272 141.999 83.376 141.999 81.432C141.999 79.176 142.479 76.68 144.807 76.68C146.799 76.68 147.951 78.048 148.071 78.216C148.071 78.216 148.095 78.552 148.095 79.056C148.095 81.408 146.199 85.272 143.967 85.272ZM158.039 75C154.223 75 152.687 78.6 152.687 81.648C152.687 84.432 154.319 87.24 157.775 87.24C161.351 87.24 162.767 83.664 162.767 80.76C162.767 78.024 161.303 75 158.039 75ZM157.631 76.488C159.671 76.488 160.631 78.888 160.631 81.36C160.631 83.016 159.959 85.848 157.823 85.848C155.783 85.848 154.799 83.52 154.799 81.048C154.799 79.392 155.495 76.488 157.631 76.488ZM170.039 75C166.223 75 164.687 78.6 164.687 81.648C164.687 84.432 166.319 87.24 169.775 87.24C173.351 87.24 174.767 83.664 174.767 80.76C174.767 78.024 173.303 75 170.039 75ZM169.631 76.488C171.671 76.488 172.631 78.888 172.631 81.36C172.631 83.016 171.959 85.848 169.823 85.848C167.783 85.848 166.799 83.52 166.799 81.048C166.799 79.392 167.495 76.488 169.631 76.488ZM179.567 78.072V77.832C179.567 76.776 179.447 75.024 179.447 75.024C179.447 75.024 177.335 75.144 177.335 75.84C177.335 76.848 177.911 77.784 177.911 81.6C177.911 84 177.431 84.672 177.431 86.208C177.431 86.76 177.575 87.072 178.631 87.072C179.687 87.072 179.855 87.024 179.855 87.024C179.567 85.272 179.543 84.384 179.543 83.064V82.056C179.543 79.2 181.247 76.92 182.375 76.92C182.951 76.92 183.431 77.28 183.815 78.36C183.815 78.36 185.111 78.072 185.111 76.848C185.111 76.008 184.535 75 182.975 75C181.079 75 179.999 76.992 179.687 78.072H179.567ZM184.875 85.632C184.875 86.472 185.547 87.144 186.411 87.144C187.251 87.144 187.923 86.472 187.923 85.632C187.923 84.768 187.251 84.096 186.411 84.096C185.547 84.096 184.875 84.768 184.875 85.632Z" fill="#212B36"/>
</svg>
