<svg width="200" height="96" viewBox="0 0 200 96" fill="none" xmlns="http://www.w3.org/2000/svg">
<path d="M29.6304 6.56C24.5424 6.56 22.5744 11.576 22.5744 15.656C22.5744 19.376 24.9024 23.24 28.8624 23.24C33.9504 23.24 35.8944 18.512 35.8944 14.432C35.8944 10.712 33.7104 6.56 29.6304 6.56ZM29.2704 21.56C26.3664 21.56 24.8304 18.8 24.8304 15.032C24.8304 12.608 25.9344 8.24 29.1024 8.24C32.1024 8.24 33.6384 11.024 33.6384 15.128C33.6384 17.936 32.4384 21.56 29.2704 21.56ZM40.7345 14.072V13.832C40.7345 12.776 40.6145 11.024 40.6145 11.024C40.6145 11.024 38.5025 11.144 38.5025 11.84C38.5025 12.848 39.0785 13.784 39.0785 17.6C39.0785 20 38.5985 20.672 38.5985 22.208C38.5985 22.76 38.7425 23.072 39.7985 23.072C40.8545 23.072 41.0225 23.024 41.0225 23.024C40.7345 21.272 40.7105 20.384 40.7105 19.064V18.056C40.7105 15.2 42.4145 12.92 43.5425 12.92C44.1185 12.92 44.5985 13.28 44.9825 14.36C44.9825 14.36 46.2785 14.072 46.2785 12.848C46.2785 12.008 45.7025 11 44.1425 11C42.2465 11 41.1665 12.992 40.8545 14.072H40.7345ZM46.9067 22.976C46.9067 24.464 45.4667 25.64 45.4667 25.64C45.4667 25.64 45.6107 26.312 46.3307 26.312C47.2187 26.312 49.1627 24.296 49.1627 21.92C49.1627 20.576 48.4667 20.096 47.5787 20.096C46.3547 20.096 45.8747 21.056 45.8507 21.752C46.5227 21.824 46.9067 22.328 46.9067 22.976ZM61.0603 12.392C62.2603 12.392 63.0283 13.232 63.5083 14.384C63.5083 14.384 64.9003 13.856 64.9003 13.064C64.9003 11.624 62.5723 11 61.2283 11C56.6923 11 55.9483 15.08 55.9483 17.24C55.9483 20.768 57.8203 23.24 61.2763 23.24C63.0523 23.24 65.1643 22.16 65.1643 20.744C65.1643 19.952 64.4683 19.736 64.4683 19.736C63.8443 20.696 62.7883 21.56 61.5163 21.56C58.6363 21.56 57.9403 18.608 57.9403 16.88C57.9403 15.104 58.5163 12.392 61.0603 12.392ZM69.6095 14.072V13.832C69.6095 12.776 69.4895 11.024 69.4895 11.024C69.4895 11.024 67.3775 11.144 67.3775 11.84C67.3775 12.848 67.9535 13.784 67.9535 17.6C67.9535 20 67.4735 20.672 67.4735 22.208C67.4735 22.76 67.6175 23.072 68.6735 23.072C69.7295 23.072 69.8975 23.024 69.8975 23.024C69.6095 21.272 69.5855 20.384 69.5855 19.064V18.056C69.5855 15.2 71.2895 12.92 72.4175 12.92C72.9935 12.92 73.4735 13.28 73.8575 14.36C73.8575 14.36 75.1535 14.072 75.1535 12.848C75.1535 12.008 74.5775 11 73.0175 11C71.1215 11 70.0415 12.992 69.7295 14.072H69.6095ZM81.2908 21.56C78.7948 21.56 77.9548 19.016 77.9548 16.784L84.6508 16.544C84.7468 16.304 84.9628 15.56 84.9628 14.504C84.9628 13.112 84.0988 11 81.2668 11C76.7788 11 76.0108 15.128 76.0108 17.288C76.0108 20.888 77.7388 23.24 81.2428 23.24C83.0188 23.24 85.0588 22.112 85.0588 20.696C85.0588 19.904 84.3628 19.76 84.3628 19.76C83.6188 20.816 82.4428 21.56 81.2908 21.56ZM80.9308 12.32C82.6348 12.32 82.9228 13.712 82.9228 14.144C82.9228 14.648 82.8748 14.984 82.7308 15.32L78.0748 15.488C78.2668 13.952 79.1548 12.32 80.9308 12.32ZM95.8355 19.664C95.8355 17.024 95.9555 15.656 95.9555 14.24C95.9555 13.016 95.3075 11 91.8995 11C90.0995 11 87.4355 11.768 87.4355 13.208C87.4355 14 88.8035 14.624 88.8035 14.624C89.4275 13.136 90.5795 12.416 91.9715 12.416C93.3635 12.416 94.1315 13.28 94.1315 15.08C94.1315 16.592 94.0835 16.688 94.0835 16.688C93.7235 16.64 92.1875 16.472 91.1075 16.472C88.2275 16.472 87.0515 18.128 87.0515 20.216C87.0515 22.016 88.1075 23.24 90.1715 23.24C92.5955 23.24 93.7715 21.608 94.1075 20.672H94.2035C94.2035 20.72 94.1795 20.96 94.1795 21.296C94.1795 22.04 94.2995 23.168 94.9715 23.168C95.8115 23.168 96.7235 22.616 96.7235 22.616C96.7235 22.616 95.8355 21.2 95.8355 19.664ZM94.0355 18.704C94.0355 20.288 92.4275 21.512 90.6755 21.512C89.7395 21.512 89.1155 20.96 89.1155 19.904C89.1155 18.152 90.3155 17.768 92.1395 17.768C93.0035 17.768 93.8675 17.84 94.0355 17.84V18.704ZM99.4547 19.736C99.4547 22.04 100.583 23.072 102.335 23.072C103.439 23.072 104.639 22.688 104.639 21.8C104.639 21.44 104.519 21.056 104.327 20.816C103.847 21.128 103.439 21.344 102.743 21.344C101.279 21.344 101.231 19.712 101.231 18.104C101.231 15.752 101.351 12.512 101.351 12.512H103.823C104.183 12.512 104.399 11.912 104.399 11.384C104.399 11.24 104.399 11.12 104.351 11H101.327V7.904C101.327 7.904 99.3347 8.048 99.3347 8.744C99.3347 9.512 99.5747 10.352 99.5747 11H98.6387C98.2787 11 97.8227 11.792 97.8227 12.32C97.8227 12.368 97.8227 12.44 97.8467 12.512H99.5987C99.5507 15.296 99.4547 18.608 99.4547 19.736ZM111.361 21.56C108.865 21.56 108.025 19.016 108.025 16.784L114.721 16.544C114.817 16.304 115.033 15.56 115.033 14.504C115.033 13.112 114.169 11 111.337 11C106.849 11 106.081 15.128 106.081 17.288C106.081 20.888 107.809 23.24 111.313 23.24C113.089 23.24 115.129 22.112 115.129 20.696C115.129 19.904 114.433 19.76 114.433 19.76C113.689 20.816 112.513 21.56 111.361 21.56ZM111.001 12.32C112.705 12.32 112.993 13.712 112.993 14.144C112.993 14.648 112.945 14.984 112.801 15.32L108.145 15.488C108.337 13.952 109.225 12.32 111.001 12.32ZM130.303 21.32C130.303 22.568 130.519 23.072 131.383 23.072C131.815 23.072 132.799 22.544 132.799 22.544C132.799 22.544 132.199 21.44 132.199 19.976C132.199 16.976 132.367 16.448 132.367 11.264C132.367 7.136 132.175 6.2 131.263 6.2C130.831 6.2 130.423 6.368 130.135 6.488C129.415 6.32 128.599 6.2 127.735 6.2C124.471 6.2 123.151 7.4 123.151 9.896C123.151 10.616 123.223 11.168 123.247 11.888H122.383C122.023 11.888 121.567 12.68 121.567 13.28C121.567 13.352 121.567 13.4 121.591 13.472H123.391C123.463 15.128 123.535 16.568 123.535 17.816C123.535 19.76 123.343 21.272 122.839 22.592C122.815 22.664 123.655 23.072 124.447 23.072C124.783 23.072 125.023 22.856 125.119 22.664C125.287 22.328 125.359 21.92 125.359 19.304C125.359 16.088 125.311 15.08 125.215 13.424H127.975C128.335 13.4 128.551 12.776 128.551 12.248C128.551 12.104 128.551 11.984 128.503 11.864H125.095C125.047 11.552 125.047 10.976 125.047 10.4C125.047 8.6 125.527 7.52 127.687 7.52C128.455 7.52 129.487 7.808 130.207 8.264C130.447 9.392 130.519 10.712 130.519 12.872C130.519 15.056 130.303 18.776 130.303 21.32ZM144.07 19.664C144.07 17.024 144.19 15.656 144.19 14.24C144.19 13.016 143.542 11 140.134 11C138.334 11 135.67 11.768 135.67 13.208C135.67 14 137.038 14.624 137.038 14.624C137.662 13.136 138.814 12.416 140.206 12.416C141.598 12.416 142.366 13.28 142.366 15.08C142.366 16.592 142.318 16.688 142.318 16.688C141.958 16.64 140.422 16.472 139.342 16.472C136.462 16.472 135.286 18.128 135.286 20.216C135.286 22.016 136.342 23.24 138.406 23.24C140.83 23.24 142.006 21.608 142.342 20.672H142.438C142.438 20.72 142.414 20.96 142.414 21.296C142.414 22.04 142.534 23.168 143.206 23.168C144.046 23.168 144.958 22.616 144.958 22.616C144.958 22.616 144.07 21.2 144.07 19.664ZM142.27 18.704C142.27 20.288 140.662 21.512 138.91 21.512C137.974 21.512 137.35 20.96 137.35 19.904C137.35 18.152 138.55 17.768 140.374 17.768C141.238 17.768 142.102 17.84 142.27 17.84V18.704ZM145.694 11.456C147.422 13.616 149.198 19.928 149.87 23.12C149.87 23.12 149.99 23.144 150.158 23.144C150.614 23.144 151.55 23.048 152.006 22.376C153.422 20.312 156.374 14.576 156.374 12.152C156.374 11.408 156.086 11 155.462 11C154.718 11 153.542 11.456 153.542 11.456C153.542 11.456 154.07 12.248 154.07 13.16C154.07 16.232 151.55 20.648 151.262 21.104C150.35 17.216 149.438 14.048 148.694 12.296C148.334 11.48 147.998 11 147.662 11C146.726 11 145.91 11.312 145.694 11.456ZM163.113 11C159.297 11 157.761 14.6 157.761 17.648C157.761 20.432 159.393 23.24 162.849 23.24C166.425 23.24 167.841 19.664 167.841 16.76C167.841 14.024 166.377 11 163.113 11ZM162.705 12.488C164.745 12.488 165.705 14.888 165.705 17.36C165.705 19.016 165.033 21.848 162.897 21.848C160.857 21.848 159.873 19.52 159.873 17.048C159.873 15.392 160.569 12.488 162.705 12.488ZM172.641 14.072V13.832C172.641 12.776 172.521 11.024 172.521 11.024C172.521 11.024 170.409 11.144 170.409 11.84C170.409 12.848 170.985 13.784 170.985 17.6C170.985 20 170.505 20.672 170.505 22.208C170.505 22.76 170.649 23.072 171.705 23.072C172.761 23.072 172.929 23.024 172.929 23.024C172.641 21.272 172.617 20.384 172.617 19.064V18.056C172.617 15.2 174.321 12.92 175.449 12.92C176.025 12.92 176.505 13.28 176.889 14.36C176.889 14.36 178.185 14.072 178.185 12.848C178.185 12.008 177.609 11 176.049 11C174.153 11 173.073 12.992 172.761 14.072H172.641ZM17.49 44.392C18.69 44.392 19.458 45.232 19.938 46.384C19.938 46.384 21.33 45.856 21.33 45.064C21.33 43.624 19.002 43 17.658 43C13.122 43 12.378 47.08 12.378 49.24C12.378 52.768 14.25 55.24 17.706 55.24C19.482 55.24 21.594 54.16 21.594 52.744C21.594 51.952 20.898 51.736 20.898 51.736C20.274 52.696 19.218 53.56 17.946 53.56C15.066 53.56 14.37 50.608 14.37 48.88C14.37 47.104 14.946 44.392 17.49 44.392ZM28.5112 43C24.6952 43 23.1592 46.6 23.1592 49.648C23.1592 52.432 24.7912 55.24 28.2472 55.24C31.8232 55.24 33.2392 51.664 33.2392 48.76C33.2392 46.024 31.7752 43 28.5112 43ZM28.1032 44.488C30.1432 44.488 31.1032 46.888 31.1032 49.36C31.1032 51.016 30.4312 53.848 28.2952 53.848C26.2552 53.848 25.2712 51.52 25.2712 49.048C25.2712 47.392 25.9672 44.488 28.1032 44.488ZM48.5752 43C46.0072 43 44.7352 45.112 44.3992 45.976C44.3272 45.088 43.9192 43 41.8552 43C39.7432 43 38.3512 44.992 38.1832 45.976H38.0872V45.64C38.0872 44.872 37.9192 43.024 37.9192 43.024C37.9192 43.024 35.8072 43.144 35.8072 43.84C35.8072 44.872 36.3832 45.784 36.3832 50.032C36.3832 51.736 35.9032 53.2 35.9032 54.208C35.9032 54.76 36.0712 55.072 37.1272 55.072C38.1832 55.072 38.3512 55.024 38.3512 55.024C38.0632 53.272 38.0392 52.384 38.0392 51.064V50.056C38.0392 46.264 40.3432 44.872 41.3752 44.872C42.8632 44.872 43.0312 46.72 43.0312 47.728C43.0312 48.712 42.8392 50.272 42.8392 53.992C42.8392 54.4 42.8872 55.096 43.6312 55.096C44.3512 55.096 44.9992 54.904 45.1672 54.808C44.9032 53.848 44.6872 52.864 44.6872 50.584C44.6872 49.912 44.7352 49.168 44.8072 48.4C45.0232 46.216 46.6312 44.872 48.0952 44.872C49.4632 44.872 49.4632 46.864 49.4632 47.992C49.4632 49.888 49.2952 52.24 49.2952 53.224C49.2952 54.496 49.5112 55.072 50.1592 55.072C50.9512 55.072 51.7912 54.52 51.7912 54.52C51.1672 53.176 51.1672 52.12 51.1672 50.968C51.1672 48.904 51.2872 47.68 51.2872 46.312C51.2872 45.184 50.8072 43.024 48.5752 43ZM56.3818 52.984C56.9338 53.92 58.1578 55.24 59.8138 55.24C62.4778 55.24 64.5658 52.192 64.5658 48.112C64.5658 45.952 63.6778 43 60.7258 43C58.4458 43 57.2218 44.608 56.7658 46.072H56.6458C56.7658 44.944 56.8378 43 56.8378 41.08C56.8378 40.264 56.8378 38.2 55.8538 38.2C55.0378 38.2 54.2458 38.656 54.2458 38.656C54.8938 39.928 54.9658 42.424 54.9658 44.752V48.04C54.9658 52.648 54.4618 52.384 54.4618 54.136C54.4618 54.904 54.8218 55.048 55.4938 55.048H56.4298C56.4058 54.28 56.3818 53.392 56.3818 52.984ZM60.2698 44.584C61.8538 44.584 62.5498 46.384 62.5498 48.664C62.5498 50.896 61.6618 53.584 59.8378 53.584C58.0618 53.584 56.9338 52.192 56.4778 51.52C56.4778 47.824 57.9898 44.584 60.2698 44.584ZM67.5032 53.296C67.5032 54.568 67.7432 55.072 68.3672 55.072C69.1592 55.072 69.9992 54.52 69.9992 54.52C69.9992 54.52 69.3752 53.392 69.3752 51.784V45.16C69.3752 44.104 69.2792 43.072 68.3672 43.072C67.7912 43.072 66.8552 43.528 66.8552 43.528C67.3832 44.968 67.5752 45.856 67.5752 49.096C67.5752 50.656 67.5032 51.904 67.5032 53.296ZM66.8552 39.472C66.8552 40.216 67.4312 40.792 68.1752 40.792C68.9192 40.792 69.5192 40.216 69.5192 39.472C69.5192 38.728 68.9192 38.128 68.1752 38.128C67.4312 38.128 66.8552 38.728 66.8552 39.472ZM75.234 50.056C75.234 46.024 77.634 44.92 78.93 44.92C80.178 44.92 80.37 46.6 80.37 47.68C80.37 50.032 80.13 52.024 80.13 53.224C80.13 54.496 80.298 55.072 81.066 55.072C81.738 55.072 82.626 54.52 82.626 54.52C82.146 53.656 82.002 52.528 82.002 51.52C82.002 50.2 82.146 47.68 82.146 46.312C82.146 45.184 81.69 43.024 79.41 43C77.13 43 75.738 44.992 75.402 45.976H75.282V45.64C75.282 44.872 75.114 43.024 75.114 43.024C75.114 43.024 73.026 43.144 73.026 43.84C73.026 44.872 73.602 45.784 73.602 50.032C73.602 51.736 73.122 53.2 73.122 54.208C73.122 54.76 73.266 55.072 74.322 55.072C75.378 55.072 75.546 55.024 75.546 55.024C75.258 53.272 75.234 52.384 75.234 51.064V50.056ZM93.6324 51.664C93.6324 49.024 93.7524 47.656 93.7524 46.24C93.7524 45.016 93.1044 43 89.6964 43C87.8964 43 85.2324 43.768 85.2324 45.208C85.2324 46 86.6004 46.624 86.6004 46.624C87.2244 45.136 88.3764 44.416 89.7684 44.416C91.1604 44.416 91.9284 45.28 91.9284 47.08C91.9284 48.592 91.8804 48.688 91.8804 48.688C91.5204 48.64 89.9844 48.472 88.9044 48.472C86.0244 48.472 84.8484 50.128 84.8484 52.216C84.8484 54.016 85.9044 55.24 87.9684 55.24C90.3924 55.24 91.5684 53.608 91.9044 52.672H92.0004C92.0004 52.72 91.9764 52.96 91.9764 53.296C91.9764 54.04 92.0964 55.168 92.7684 55.168C93.6084 55.168 94.5204 54.616 94.5204 54.616C94.5204 54.616 93.6324 53.2 93.6324 51.664ZM91.8324 50.704C91.8324 52.288 90.2244 53.512 88.4724 53.512C87.5364 53.512 86.9124 52.96 86.9124 51.904C86.9124 50.152 88.1124 49.768 89.9364 49.768C90.8004 49.768 91.6644 49.84 91.8324 49.84V50.704ZM97.2515 51.736C97.2515 54.04 98.3795 55.072 100.132 55.072C101.236 55.072 102.436 54.688 102.436 53.8C102.436 53.44 102.316 53.056 102.124 52.816C101.644 53.128 101.236 53.344 100.54 53.344C99.0755 53.344 99.0275 51.712 99.0275 50.104C99.0275 47.752 99.1475 44.512 99.1475 44.512H101.62C101.98 44.512 102.196 43.912 102.196 43.384C102.196 43.24 102.196 43.12 102.148 43H99.1235V39.904C99.1235 39.904 97.1315 40.048 97.1315 40.744C97.1315 41.512 97.3715 42.352 97.3715 43H96.4355C96.0755 43 95.6195 43.792 95.6195 44.32C95.6195 44.368 95.6195 44.44 95.6435 44.512H97.3955C97.3475 47.296 97.2515 50.608 97.2515 51.736ZM105.12 53.296C105.12 54.568 105.36 55.072 105.984 55.072C106.776 55.072 107.616 54.52 107.616 54.52C107.616 54.52 106.992 53.392 106.992 51.784V45.16C106.992 44.104 106.896 43.072 105.984 43.072C105.408 43.072 104.472 43.528 104.472 43.528C105 44.968 105.192 45.856 105.192 49.096C105.192 50.656 105.12 51.904 105.12 53.296ZM104.472 39.472C104.472 40.216 105.048 40.792 105.792 40.792C106.536 40.792 107.136 40.216 107.136 39.472C107.136 38.728 106.536 38.128 105.792 38.128C105.048 38.128 104.472 38.728 104.472 39.472ZM115.347 43C111.531 43 109.995 46.6 109.995 49.648C109.995 52.432 111.627 55.24 115.083 55.24C118.659 55.24 120.075 51.664 120.075 48.76C120.075 46.024 118.611 43 115.347 43ZM114.939 44.488C116.979 44.488 117.939 46.888 117.939 49.36C117.939 51.016 117.267 53.848 115.131 53.848C113.091 53.848 112.107 51.52 112.107 49.048C112.107 47.392 112.803 44.488 114.939 44.488ZM124.851 50.056C124.851 46.024 127.251 44.92 128.547 44.92C129.795 44.92 129.987 46.6 129.987 47.68C129.987 50.032 129.747 52.024 129.747 53.224C129.747 54.496 129.915 55.072 130.683 55.072C131.355 55.072 132.243 54.52 132.243 54.52C131.763 53.656 131.619 52.528 131.619 51.52C131.619 50.2 131.763 47.68 131.763 46.312C131.763 45.184 131.307 43.024 129.027 43C126.747 43 125.355 44.992 125.019 45.976H124.899V45.64C124.899 44.872 124.731 43.024 124.731 43.024C124.731 43.024 122.643 43.144 122.643 43.84C122.643 44.872 123.219 45.784 123.219 50.032C123.219 51.736 122.739 53.2 122.739 54.208C122.739 54.76 122.883 55.072 123.939 55.072C124.995 55.072 125.163 55.024 125.163 55.024C124.875 53.272 124.851 52.384 124.851 51.064V50.056ZM138.83 44.296C139.886 44.296 140.654 44.992 141.014 46.288C141.014 46.288 142.55 45.76 142.55 44.968C142.55 43.528 140.486 43 139.118 43C136.454 43 134.798 44.32 134.798 46.408C134.798 48.088 136.526 49 138.302 49.624C139.79 50.152 141.182 50.752 141.182 52.12C141.182 53.368 139.958 53.8 138.614 53.8C136.694 53.8 136.094 52.408 135.686 51.784C135.35 51.952 134.558 52.384 134.558 53.296C134.558 54.352 135.83 55.24 138.638 55.24C141.422 55.24 143.126 53.464 143.126 51.424C143.126 49.576 141.374 48.688 139.646 48.136C138.278 47.704 136.67 47.224 136.67 45.928C136.67 45.184 137.246 44.296 138.83 44.296ZM150.994 51.736C150.994 54.04 152.122 55.072 153.874 55.072C154.978 55.072 156.178 54.688 156.178 53.8C156.178 53.44 156.058 53.056 155.866 52.816C155.386 53.128 154.978 53.344 154.282 53.344C152.818 53.344 152.77 51.712 152.77 50.104C152.77 47.752 152.89 44.512 152.89 44.512H155.362C155.722 44.512 155.938 43.912 155.938 43.384C155.938 43.24 155.938 43.12 155.89 43H152.866V39.904C152.866 39.904 150.874 40.048 150.874 40.744C150.874 41.512 151.114 42.352 151.114 43H150.178C149.818 43 149.362 43.792 149.362 44.32C149.362 44.368 149.362 44.44 149.386 44.512H151.138C151.09 47.296 150.994 50.608 150.994 51.736ZM165.775 47.68C165.775 49.72 165.583 51.568 165.583 53.296C165.583 54.568 165.823 55.072 166.447 55.072C167.239 55.072 168.079 54.52 168.079 54.52C168.079 54.52 167.455 53.464 167.455 51.784C167.455 50.152 167.599 48.04 167.599 46.312C167.599 45.184 167.119 43 164.911 43C162.583 43 161.263 44.92 160.831 45.976H160.735C160.807 43.912 160.831 42.424 160.831 41.104C160.831 39.688 160.687 38.2 159.775 38.2C158.983 38.2 158.215 38.656 158.215 38.656C159.055 40.36 159.079 46.624 159.079 49.096V49.864C159.079 51.448 158.551 52.72 158.551 54.208C158.551 54.76 158.719 55.072 159.775 55.072C160.831 55.072 160.999 55.024 160.999 55.024C160.711 53.272 160.687 52.384 160.687 51.064V50.056C160.687 46.024 163.039 44.92 164.407 44.92C165.607 44.92 165.775 46.6 165.775 47.68ZM179.062 51.664C179.062 49.024 179.182 47.656 179.182 46.24C179.182 45.016 178.534 43 175.126 43C173.326 43 170.662 43.768 170.662 45.208C170.662 46 172.03 46.624 172.03 46.624C172.654 45.136 173.806 44.416 175.198 44.416C176.59 44.416 177.358 45.28 177.358 47.08C177.358 48.592 177.31 48.688 177.31 48.688C176.95 48.64 175.414 48.472 174.334 48.472C171.454 48.472 170.278 50.128 170.278 52.216C170.278 54.016 171.334 55.24 173.398 55.24C175.822 55.24 176.998 53.608 177.334 52.672H177.43C177.43 52.72 177.406 52.96 177.406 53.296C177.406 54.04 177.526 55.168 178.198 55.168C179.038 55.168 179.95 54.616 179.95 54.616C179.95 54.616 179.062 53.2 179.062 51.664ZM177.262 50.704C177.262 52.288 175.654 53.512 173.902 53.512C172.966 53.512 172.342 52.96 172.342 51.904C172.342 50.152 173.542 49.768 175.366 49.768C176.23 49.768 177.094 49.84 177.262 49.84V50.704ZM182.681 51.736C182.681 54.04 183.809 55.072 185.561 55.072C186.665 55.072 187.865 54.688 187.865 53.8C187.865 53.44 187.745 53.056 187.553 52.816C187.073 53.128 186.665 53.344 185.969 53.344C184.505 53.344 184.457 51.712 184.457 50.104C184.457 47.752 184.577 44.512 184.577 44.512H187.049C187.409 44.512 187.625 43.912 187.625 43.384C187.625 43.24 187.625 43.12 187.577 43H184.553V39.904C184.553 39.904 182.561 40.048 182.561 40.744C182.561 41.512 182.801 42.352 182.801 43H181.865C181.505 43 181.049 43.792 181.049 44.32C181.049 44.368 181.049 44.44 181.073 44.512H182.825C182.777 47.296 182.681 50.608 182.681 51.736ZM29.0387 83.664C29.0387 81.024 29.1587 79.656 29.1587 78.24C29.1587 77.016 28.5107 75 25.1027 75C23.3027 75 20.6387 75.768 20.6387 77.208C20.6387 78 22.0067 78.624 22.0067 78.624C22.6307 77.136 23.7827 76.416 25.1747 76.416C26.5667 76.416 27.3347 77.28 27.3347 79.08C27.3347 80.592 27.2867 80.688 27.2867 80.688C26.9267 80.64 25.3907 80.472 24.3107 80.472C21.4307 80.472 20.2547 82.128 20.2547 84.216C20.2547 86.016 21.3107 87.24 23.3747 87.24C25.7987 87.24 26.9747 85.608 27.3107 84.672H27.4067C27.4067 84.72 27.3827 84.96 27.3827 85.296C27.3827 86.04 27.5027 87.168 28.1747 87.168C29.0147 87.168 29.9267 86.616 29.9267 86.616C29.9267 86.616 29.0387 85.2 29.0387 83.664ZM27.2387 82.704C27.2387 84.288 25.6307 85.512 23.8787 85.512C22.9427 85.512 22.3187 84.96 22.3187 83.904C22.3187 82.152 23.5187 81.768 25.3427 81.768C26.2067 81.768 27.0707 81.84 27.2387 81.84V82.704ZM34.7345 78.072V77.832C34.7345 76.776 34.6145 75.024 34.6145 75.024C34.6145 75.024 32.5025 75.144 32.5025 75.84C32.5025 76.848 33.0785 77.784 33.0785 81.6C33.0785 84 32.5985 84.672 32.5985 86.208C32.5985 86.76 32.7425 87.072 33.7985 87.072C34.8545 87.072 35.0225 87.024 35.0225 87.024C34.7345 85.272 34.7105 84.384 34.7105 83.064V82.056C34.7105 79.2 36.4145 76.92 37.5425 76.92C38.1185 76.92 38.5985 77.28 38.9825 78.36C38.9825 78.36 40.2785 78.072 40.2785 76.848C40.2785 76.008 39.7025 75 38.1425 75C36.2465 75 35.1665 76.992 34.8545 78.072H34.7345ZM46.4158 85.56C43.9198 85.56 43.0798 83.016 43.0798 80.784L49.7758 80.544C49.8718 80.304 50.0878 79.56 50.0878 78.504C50.0878 77.112 49.2238 75 46.3918 75C41.9038 75 41.1358 79.128 41.1358 81.288C41.1358 84.888 42.8638 87.24 46.3678 87.24C48.1438 87.24 50.1838 86.112 50.1838 84.696C50.1838 83.904 49.4878 83.76 49.4878 83.76C48.7438 84.816 47.5678 85.56 46.4158 85.56ZM46.0558 76.32C47.7598 76.32 48.0478 77.712 48.0478 78.144C48.0478 78.648 47.9998 78.984 47.8558 79.32L43.1998 79.488C43.3918 77.952 44.2798 76.32 46.0558 76.32ZM65.7652 83.664C65.7652 81.024 65.8852 79.656 65.8852 78.24C65.8852 77.016 65.2372 75 61.8292 75C60.0292 75 57.3652 75.768 57.3652 77.208C57.3652 78 58.7332 78.624 58.7332 78.624C59.3572 77.136 60.5092 76.416 61.9012 76.416C63.2932 76.416 64.0612 77.28 64.0612 79.08C64.0612 80.592 64.0132 80.688 64.0132 80.688C63.6532 80.64 62.1172 80.472 61.0372 80.472C58.1572 80.472 56.9812 82.128 56.9812 84.216C56.9812 86.016 58.0372 87.24 60.1012 87.24C62.5252 87.24 63.7012 85.608 64.0372 84.672H64.1332C64.1332 84.72 64.1092 84.96 64.1092 85.296C64.1092 86.04 64.2292 87.168 64.9012 87.168C65.7412 87.168 66.6532 86.616 66.6532 86.616C66.6532 86.616 65.7652 85.2 65.7652 83.664ZM63.9652 82.704C63.9652 84.288 62.3572 85.512 60.6052 85.512C59.6692 85.512 59.0452 84.96 59.0452 83.904C59.0452 82.152 60.2452 81.768 62.0692 81.768C62.9332 81.768 63.7972 81.84 63.9652 81.84V82.704ZM69.4931 85.32C69.4931 86.568 69.7091 87.072 70.5731 87.072C71.0051 87.072 71.9891 86.544 71.9891 86.544C71.9891 86.544 71.3891 85.44 71.3891 83.976C71.3891 82.344 71.5571 78.768 71.5571 77.544V75.12C71.5571 71.712 71.4851 70.2 70.4531 70.2C69.7091 70.2 68.9411 70.68 68.9411 70.68C69.5411 72.216 69.7091 73.632 69.7091 76.872C69.7091 79.8 69.4931 82.56 69.4931 85.32ZM75.329 85.32C75.329 86.568 75.545 87.072 76.409 87.072C76.841 87.072 77.825 86.544 77.825 86.544C77.825 86.544 77.225 85.44 77.225 83.976C77.225 82.344 77.393 78.768 77.393 77.544V75.12C77.393 71.712 77.321 70.2 76.289 70.2C75.545 70.2 74.777 70.68 74.777 70.68C75.377 72.216 75.545 73.632 75.545 76.872C75.545 79.8 75.329 82.56 75.329 85.32ZM85.7297 93C89.1377 93 95.2097 79.368 95.2097 76.224C95.2097 75.288 94.8977 75 94.1537 75C93.4097 75 92.4737 75.456 92.4737 75.456C92.7617 75.984 92.9777 76.416 92.9777 77.232C92.9777 79.224 92.1857 81.576 90.5537 85.128C89.9297 82.56 87.4817 75 86.4017 75C85.1537 75 84.4337 75.624 84.3377 75.768C86.0897 77.904 88.5137 83.952 89.4737 86.832C88.4417 88.68 87.3377 90.792 84.6977 90.792C84.6977 91.92 84.7457 93 85.7297 93ZM101.964 75C98.1483 75 96.6123 78.6 96.6123 81.648C96.6123 84.432 98.2443 87.24 101.7 87.24C105.276 87.24 106.692 83.664 106.692 80.76C106.692 78.024 105.228 75 101.964 75ZM101.556 76.488C103.596 76.488 104.556 78.888 104.556 81.36C104.556 83.016 103.884 85.848 101.748 85.848C99.7083 85.848 98.7243 83.52 98.7243 81.048C98.7243 79.392 99.4203 76.488 101.556 76.488ZM118.284 75.888C118.284 75.336 117.996 75.096 117.492 75.096C116.748 75.096 115.884 75.552 115.884 75.552C115.884 75.552 116.412 76.464 116.412 78.816C116.412 82.416 114.756 85.224 112.956 85.224C111.42 85.224 111.108 83.808 111.108 82.728C111.108 81.192 111.18 79.512 111.18 77.856C111.18 76.296 111.156 75.096 110.22 75.096C109.476 75.096 108.66 75.552 108.66 75.552C109.212 77.136 109.428 77.976 109.428 79.992C109.428 81.072 109.38 82.536 109.38 83.616C109.38 85.92 110.628 87.24 112.62 87.24C115.26 87.24 116.196 84.336 116.58 82.776H116.676C116.676 83.544 116.7 85.176 116.7 85.512C116.7 86.76 116.964 87.168 117.54 87.168C118.308 87.168 119.052 86.616 119.052 86.616C118.212 84.792 118.044 82.584 118.044 80.736C118.044 78.984 118.284 77.472 118.284 75.888ZM123.797 78.072V77.832C123.797 76.776 123.677 75.024 123.677 75.024C123.677 75.024 121.565 75.144 121.565 75.84C121.565 76.848 122.141 77.784 122.141 81.6C122.141 84 121.661 84.672 121.661 86.208C121.661 86.76 121.805 87.072 122.861 87.072C123.917 87.072 124.085 87.024 124.085 87.024C123.797 85.272 123.773 84.384 123.773 83.064V82.056C123.773 79.2 125.477 76.92 126.605 76.92C127.181 76.92 127.661 77.28 128.045 78.36C128.045 78.36 129.341 78.072 129.341 76.848C129.341 76.008 128.765 75 127.205 75C125.309 75 124.229 76.992 123.917 78.072H123.797ZM140.707 75C136.891 75 135.355 78.6 135.355 81.648C135.355 84.432 136.987 87.24 140.443 87.24C144.019 87.24 145.435 83.664 145.435 80.76C145.435 78.024 143.971 75 140.707 75ZM140.299 76.488C142.339 76.488 143.299 78.888 143.299 81.36C143.299 83.016 142.627 85.848 140.491 85.848C138.451 85.848 137.467 83.52 137.467 81.048C137.467 79.392 138.163 76.488 140.299 76.488ZM157.158 85.104C156.342 81.672 155.718 78.456 155.166 76.512C154.83 75.288 154.422 75 153.918 75C153.702 75 153.006 75.072 152.358 75.456C152.766 76.008 153.222 76.896 153.87 79.08C153.558 80.76 152.382 83.544 151.278 85.104C150.462 82.08 149.862 79.176 149.31 77.28C148.902 75.864 148.494 75 148.038 75C146.958 75 146.214 75.36 146.046 75.456C147.846 77.664 149.238 83.952 149.91 87.144H150.03C150.318 87.144 151.494 87.096 152.046 86.328C152.526 85.656 153.966 82.872 154.47 81.312L155.814 87.144H155.91C156.222 87.144 157.374 87.096 157.926 86.304C159.366 84.264 162.078 78.576 162.078 76.152C162.078 75.408 161.79 75 161.166 75C160.422 75 159.246 75.456 159.246 75.456C159.246 75.456 159.774 76.248 159.774 77.16C159.774 80.232 157.446 84.648 157.158 85.104ZM166.57 82.056C166.57 78.024 168.97 76.92 170.266 76.92C171.514 76.92 171.706 78.6 171.706 79.68C171.706 82.032 171.466 84.024 171.466 85.224C171.466 86.496 171.634 87.072 172.402 87.072C173.074 87.072 173.962 86.52 173.962 86.52C173.482 85.656 173.338 84.528 173.338 83.52C173.338 82.2 173.482 79.68 173.482 78.312C173.482 77.184 173.026 75.024 170.746 75C168.466 75 167.074 76.992 166.738 77.976H166.618V77.64C166.618 76.872 166.45 75.024 166.45 75.024C166.45 75.024 164.362 75.144 164.362 75.84C164.362 76.872 164.938 77.784 164.938 82.032C164.938 83.736 164.458 85.2 164.458 86.208C164.458 86.76 164.602 87.072 165.658 87.072C166.714 87.072 166.882 87.024 166.882 87.024C166.594 85.272 166.57 84.384 166.57 83.064V82.056ZM176.636 85.632C176.636 86.472 177.308 87.144 178.172 87.144C179.012 87.144 179.684 86.472 179.684 85.632C179.684 84.768 179.012 84.096 178.172 84.096C177.308 84.096 176.636 84.768 176.636 85.632Z" fill="#212B36"/>
</svg>
