<svg width="200" height="64" viewBox="0 0 200 64" fill="none" xmlns="http://www.w3.org/2000/svg">
<path d="M17.3185 15.08C17.3185 17.264 17.1025 19.88 17.1025 21.44C17.1025 22.256 17.1025 23.072 17.7265 23.072C18.9505 23.072 19.6945 22.592 19.6945 22.592C19.2865 21.296 19.2145 18.176 19.2145 16.4V14.672C19.2145 13.688 19.4065 9.8 19.4065 8.528C19.4065 7.28 19.2625 6.68 18.7585 6.68C17.7985 6.68 16.8625 7.016 16.8625 7.016C17.1745 8.624 17.3185 11.384 17.3185 15.08ZM23.2476 19.736C23.2476 22.04 24.3756 23.072 26.1276 23.072C27.2316 23.072 28.4316 22.688 28.4316 21.8C28.4316 21.44 28.3116 21.056 28.1196 20.816C27.6396 21.128 27.2316 21.344 26.5356 21.344C25.0716 21.344 25.0236 19.712 25.0236 18.104C25.0236 15.752 25.1436 12.512 25.1436 12.512H27.6156C27.9756 12.512 28.1916 11.912 28.1916 11.384C28.1916 11.24 28.1916 11.12 28.1436 11H25.1196V7.904C25.1196 7.904 23.1276 8.048 23.1276 8.744C23.1276 9.512 23.3676 10.352 23.3676 11H22.4316C22.0716 11 21.6156 11.792 21.6156 12.32C21.6156 12.368 21.6156 12.44 21.6396 12.512H23.3916C23.3436 15.296 23.2476 18.608 23.2476 19.736ZM32.4364 6.2C31.3804 6.2 30.8044 7.28 30.7324 7.52C31.6924 7.688 31.8604 8.504 31.8604 8.816C31.8604 10.616 30.4204 12.128 30.4204 12.128C30.4204 12.128 30.8284 12.536 31.4044 12.536C31.9564 12.536 34.1404 10.328 34.1404 8.024C34.1404 6.824 33.3724 6.2 32.4364 6.2ZM39.6773 12.296C40.7333 12.296 41.5013 12.992 41.8613 14.288C41.8613 14.288 43.3973 13.76 43.3973 12.968C43.3973 11.528 41.3333 11 39.9653 11C37.3013 11 35.6453 12.32 35.6453 14.408C35.6453 16.088 37.3733 17 39.1493 17.624C40.6373 18.152 42.0293 18.752 42.0293 20.12C42.0293 21.368 40.8053 21.8 39.4613 21.8C37.5413 21.8 36.9413 20.408 36.5333 19.784C36.1973 19.952 35.4053 20.384 35.4053 21.296C35.4053 22.352 36.6773 23.24 39.4853 23.24C42.2693 23.24 43.9733 21.464 43.9733 19.424C43.9733 17.576 42.2213 16.688 40.4933 16.136C39.1253 15.704 37.5173 15.224 37.5173 13.928C37.5173 13.184 38.0933 12.296 39.6773 12.296ZM53.0654 20.984C53.6174 21.92 54.8414 23.24 56.4974 23.24C59.1614 23.24 61.2494 20.192 61.2494 16.112C61.2494 13.952 60.3614 11 57.4094 11C55.1294 11 53.9054 12.608 53.4494 14.072H53.3294C53.4494 12.944 53.5214 11 53.5214 9.08C53.5214 8.264 53.5214 6.2 52.5374 6.2C51.7214 6.2 50.9294 6.656 50.9294 6.656C51.5774 7.928 51.6494 10.424 51.6494 12.752V16.04C51.6494 20.648 51.1454 20.384 51.1454 22.136C51.1454 22.904 51.5054 23.048 52.1774 23.048H53.1134C53.0894 22.28 53.0654 21.392 53.0654 20.984ZM56.9534 12.584C58.5374 12.584 59.2334 14.384 59.2334 16.664C59.2334 18.896 58.3454 21.584 56.5214 21.584C54.7454 21.584 53.6174 20.192 53.1614 19.52C53.1614 15.824 54.6734 12.584 56.9534 12.584ZM72.0348 19.664C72.0348 17.024 72.1548 15.656 72.1548 14.24C72.1548 13.016 71.5068 11 68.0988 11C66.2988 11 63.6348 11.768 63.6348 13.208C63.6348 14 65.0028 14.624 65.0028 14.624C65.6268 13.136 66.7788 12.416 68.1708 12.416C69.5628 12.416 70.3308 13.28 70.3308 15.08C70.3308 16.592 70.2828 16.688 70.2828 16.688C69.9228 16.64 68.3867 16.472 67.3068 16.472C64.4268 16.472 63.2508 18.128 63.2508 20.216C63.2508 22.016 64.3068 23.24 66.3708 23.24C68.7948 23.24 69.9708 21.608 70.3068 20.672H70.4028C70.4028 20.72 70.3788 20.96 70.3788 21.296C70.3788 22.04 70.4988 23.168 71.1708 23.168C72.0108 23.168 72.9228 22.616 72.9228 22.616C72.9228 22.616 72.0348 21.2 72.0348 19.664ZM70.2348 18.704C70.2348 20.288 68.6268 21.512 66.8748 21.512C65.9388 21.512 65.3148 20.96 65.3148 19.904C65.3148 18.152 66.5148 17.768 68.3388 17.768C69.2028 17.768 70.0668 17.84 70.2348 17.84V18.704ZM77.6586 18.392L78.6666 16.904C80.0826 19.88 82.1226 23.072 82.9626 23.072C83.8026 23.072 84.5466 22.088 84.7626 21.656C83.7546 21.32 81.7386 19.664 79.8906 15.488C80.9946 14.048 82.2906 13.088 83.8746 12.08C83.6586 11.456 82.8906 11 82.4586 11C81.5706 11 80.1786 12.776 77.6346 16.184V13.136C77.6346 12.2 77.6586 9.92 77.6586 9.176C77.6586 7.328 77.5146 6.2 76.5786 6.2C76.0026 6.2 75.0666 6.656 75.0666 6.656C75.8586 8.432 75.9786 15.536 75.9786 17.528C75.9786 19.592 75.8586 21.008 75.2586 22.592C75.4026 22.736 76.1226 23.072 76.9146 23.072C77.2506 23.072 77.4426 22.904 77.5386 22.712C77.6586 22.496 77.7546 22.016 77.7546 20.792C77.7546 20.168 77.7306 19.496 77.6586 18.392ZM86.7571 21.296C86.7571 22.568 86.9971 23.072 87.6211 23.072C88.4131 23.072 89.2531 22.52 89.2531 22.52C89.2531 22.52 88.6291 21.392 88.6291 19.784V13.16C88.6291 12.104 88.5331 11.072 87.6211 11.072C87.0451 11.072 86.1091 11.528 86.1091 11.528C86.6371 12.968 86.8291 13.856 86.8291 17.096C86.8291 18.656 86.7571 19.904 86.7571 21.296ZM86.1091 7.472C86.1091 8.216 86.6851 8.792 87.4291 8.792C88.1731 8.792 88.7731 8.216 88.7731 7.472C88.7731 6.728 88.1731 6.128 87.4291 6.128C86.6851 6.128 86.1091 6.728 86.1091 7.472ZM94.4879 18.056C94.4879 14.024 96.8879 12.92 98.1839 12.92C99.4319 12.92 99.6239 14.6 99.6239 15.68C99.6239 18.032 99.3839 20.024 99.3839 21.224C99.3839 22.496 99.5519 23.072 100.32 23.072C100.992 23.072 101.88 22.52 101.88 22.52C101.4 21.656 101.256 20.528 101.256 19.52C101.256 18.2 101.4 15.68 101.4 14.312C101.4 13.184 100.944 11.024 98.6639 11C96.3839 11 94.9919 12.992 94.6559 13.976H94.5359V13.64C94.5359 12.872 94.3679 11.024 94.3679 11.024C94.3679 11.024 92.2799 11.144 92.2799 11.84C92.2799 12.872 92.8559 13.784 92.8559 18.032C92.8559 19.736 92.3759 21.2 92.3759 22.208C92.3759 22.76 92.5199 23.072 93.5759 23.072C94.6319 23.072 94.7999 23.024 94.7999 23.024C94.5119 21.272 94.4879 20.384 94.4879 19.064V18.056ZM112.237 23.144C112.237 25.592 111.349 27.272 108.757 27.272C107.245 27.272 106.045 26.864 106.045 25.448C106.045 25.16 106.093 24.872 106.093 24.872C105.205 24.968 104.197 25.184 104.197 26.288C104.197 28.136 106.357 29 108.157 29C112.693 29 114.061 26.192 114.061 22.64C114.061 20.816 113.629 18.32 113.629 14.816C113.629 13.808 113.653 12.752 113.749 11.6C112.885 11.552 111.685 11 109.789 11C106.141 11 104.077 14.312 104.077 17.6C104.077 20.648 105.493 22.856 107.917 22.856C110.197 22.856 111.493 20.288 111.925 19.04H112.045C112.117 19.688 112.237 21.896 112.237 23.144ZM112.021 15.056C112.021 17.432 110.293 20.888 108.205 20.888C106.477 20.888 106.093 18.584 106.093 17.432C106.093 15.272 106.765 12.632 109.213 12.632C110.461 12.632 111.349 12.92 112.021 13.184V15.056ZM134.532 11C131.964 11 130.692 13.112 130.356 13.976C130.284 13.088 129.876 11 127.812 11C125.7 11 124.308 12.992 124.14 13.976H124.044V13.64C124.044 12.872 123.876 11.024 123.876 11.024C123.876 11.024 121.764 11.144 121.764 11.84C121.764 12.872 122.34 13.784 122.34 18.032C122.34 19.736 121.86 21.2 121.86 22.208C121.86 22.76 122.028 23.072 123.084 23.072C124.14 23.072 124.308 23.024 124.308 23.024C124.02 21.272 123.996 20.384 123.996 19.064V18.056C123.996 14.264 126.3 12.872 127.332 12.872C128.82 12.872 128.988 14.72 128.988 15.728C128.988 16.712 128.796 18.272 128.796 21.992C128.796 22.4 128.844 23.096 129.588 23.096C130.308 23.096 130.956 22.904 131.124 22.808C130.86 21.848 130.644 20.864 130.644 18.584C130.644 17.912 130.692 17.168 130.764 16.4C130.98 14.216 132.588 12.872 134.052 12.872C135.42 12.872 135.42 14.864 135.42 15.992C135.42 17.888 135.252 20.24 135.252 21.224C135.252 22.496 135.468 23.072 136.116 23.072C136.908 23.072 137.748 22.52 137.748 22.52C137.124 21.176 137.124 20.12 137.124 18.968C137.124 16.904 137.244 15.68 137.244 14.312C137.244 13.184 136.764 11.024 134.532 11ZM148.722 19.664C148.722 17.024 148.842 15.656 148.842 14.24C148.842 13.016 148.194 11 144.786 11C142.986 11 140.322 11.768 140.322 13.208C140.322 14 141.69 14.624 141.69 14.624C142.314 13.136 143.466 12.416 144.858 12.416C146.25 12.416 147.018 13.28 147.018 15.08C147.018 16.592 146.97 16.688 146.97 16.688C146.61 16.64 145.074 16.472 143.994 16.472C141.114 16.472 139.938 18.128 139.938 20.216C139.938 22.016 140.994 23.24 143.058 23.24C145.482 23.24 146.658 21.608 146.994 20.672H147.09C147.09 20.72 147.066 20.96 147.066 21.296C147.066 22.04 147.186 23.168 147.858 23.168C148.698 23.168 149.61 22.616 149.61 22.616C149.61 22.616 148.722 21.2 148.722 19.664ZM146.922 18.704C146.922 20.288 145.314 21.512 143.562 21.512C142.626 21.512 142.002 20.96 142.002 19.904C142.002 18.152 143.202 17.768 145.026 17.768C145.89 17.768 146.754 17.84 146.922 17.84V18.704ZM159.698 23.144C159.698 25.592 158.81 27.272 156.218 27.272C154.706 27.272 153.506 26.864 153.506 25.448C153.506 25.16 153.554 24.872 153.554 24.872C152.666 24.968 151.658 25.184 151.658 26.288C151.658 28.136 153.818 29 155.618 29C160.154 29 161.522 26.192 161.522 22.64C161.522 20.816 161.09 18.32 161.09 14.816C161.09 13.808 161.114 12.752 161.21 11.6C160.346 11.552 159.146 11 157.25 11C153.602 11 151.538 14.312 151.538 17.6C151.538 20.648 152.954 22.856 155.378 22.856C157.658 22.856 158.954 20.288 159.386 19.04H159.506C159.578 19.688 159.698 21.896 159.698 23.144ZM159.482 15.056C159.482 17.432 157.754 20.888 155.666 20.888C153.938 20.888 153.554 18.584 153.554 17.432C153.554 15.272 154.226 12.632 156.674 12.632C157.922 12.632 158.81 12.92 159.482 13.184V15.056ZM164.781 21.296C164.781 22.568 165.021 23.072 165.645 23.072C166.437 23.072 167.277 22.52 167.277 22.52C167.277 22.52 166.653 21.392 166.653 19.784V13.16C166.653 12.104 166.557 11.072 165.645 11.072C165.069 11.072 164.133 11.528 164.133 11.528C164.661 12.968 164.853 13.856 164.853 17.096C164.853 18.656 164.781 19.904 164.781 21.296ZM164.133 7.472C164.133 8.216 164.709 8.792 165.453 8.792C166.197 8.792 166.797 8.216 166.797 7.472C166.797 6.728 166.197 6.128 165.453 6.128C164.709 6.128 164.133 6.728 164.133 7.472ZM174.767 12.392C175.967 12.392 176.735 13.232 177.215 14.384C177.215 14.384 178.607 13.856 178.607 13.064C178.607 11.624 176.279 11 174.935 11C170.399 11 169.655 15.08 169.655 17.24C169.655 20.768 171.527 23.24 174.983 23.24C176.759 23.24 178.871 22.16 178.871 20.744C178.871 19.952 178.175 19.736 178.175 19.736C177.551 20.696 176.495 21.56 175.223 21.56C172.343 21.56 171.647 18.608 171.647 16.88C171.647 15.104 172.223 12.392 174.767 12.392ZM181.661 22.976C181.661 24.464 180.221 25.64 180.221 25.64C180.221 25.64 180.365 26.312 181.085 26.312C181.973 26.312 183.917 24.296 183.917 21.92C183.917 20.576 183.221 20.096 182.333 20.096C181.109 20.096 180.629 21.056 180.605 21.752C181.277 21.824 181.661 22.328 181.661 22.976ZM30.6736 44.392C31.8736 44.392 32.6416 45.232 33.1216 46.384C33.1216 46.384 34.5136 45.856 34.5136 45.064C34.5136 43.624 32.1856 43 30.8416 43C26.3056 43 25.5616 47.08 25.5616 49.24C25.5616 52.768 27.4336 55.24 30.8896 55.24C32.6656 55.24 34.7776 54.16 34.7776 52.744C34.7776 51.952 34.0816 51.736 34.0816 51.736C33.4576 52.696 32.4016 53.56 31.1296 53.56C28.2496 53.56 27.5536 50.608 27.5536 48.88C27.5536 47.104 28.1296 44.392 30.6736 44.392ZM39.2228 46.072V45.832C39.2228 44.776 39.1028 43.024 39.1028 43.024C39.1028 43.024 36.9908 43.144 36.9908 43.84C36.9908 44.848 37.5668 45.784 37.5668 49.6C37.5668 52 37.0868 52.672 37.0868 54.208C37.0868 54.76 37.2308 55.072 38.2868 55.072C39.3428 55.072 39.5108 55.024 39.5108 55.024C39.2228 53.272 39.1988 52.384 39.1988 51.064V50.056C39.1988 47.2 40.9028 44.92 42.0308 44.92C42.6068 44.92 43.0868 45.28 43.4708 46.36C43.4708 46.36 44.7668 46.072 44.7668 44.848C44.7668 44.008 44.1908 43 42.6308 43C40.7348 43 39.6548 44.992 39.3428 46.072H39.2228ZM50.9041 53.56C48.4081 53.56 47.5681 51.016 47.5681 48.784L54.2641 48.544C54.3601 48.304 54.5761 47.56 54.5761 46.504C54.5761 45.112 53.7121 43 50.8801 43C46.3921 43 45.6241 47.128 45.6241 49.288C45.6241 52.888 47.3521 55.24 50.8561 55.24C52.6321 55.24 54.6721 54.112 54.6721 52.696C54.6721 51.904 53.9761 51.76 53.9761 51.76C53.2321 52.816 52.0561 53.56 50.9041 53.56ZM50.5441 44.32C52.2481 44.32 52.5361 45.712 52.5361 46.144C52.5361 46.648 52.4881 46.984 52.3441 47.32L47.6881 47.488C47.8801 45.952 48.7681 44.32 50.5441 44.32ZM65.4488 51.664C65.4488 49.024 65.5688 47.656 65.5688 46.24C65.5688 45.016 64.9208 43 61.5128 43C59.7128 43 57.0488 43.768 57.0488 45.208C57.0488 46 58.4168 46.624 58.4168 46.624C59.0408 45.136 60.1928 44.416 61.5848 44.416C62.9768 44.416 63.7448 45.28 63.7448 47.08C63.7448 48.592 63.6968 48.688 63.6968 48.688C63.3368 48.64 61.8008 48.472 60.7208 48.472C57.8408 48.472 56.6648 50.128 56.6648 52.216C56.6648 54.016 57.7208 55.24 59.7848 55.24C62.2088 55.24 63.3848 53.608 63.7208 52.672H63.8168C63.8168 52.72 63.7928 52.96 63.7928 53.296C63.7928 54.04 63.9128 55.168 64.5848 55.168C65.4248 55.168 66.3368 54.616 66.3368 54.616C66.3368 54.616 65.4488 53.2 65.4488 51.664ZM63.6488 50.704C63.6488 52.288 62.0408 53.512 60.2888 53.512C59.3528 53.512 58.7288 52.96 58.7288 51.904C58.7288 50.152 59.9288 49.768 61.7528 49.768C62.6168 49.768 63.4808 49.84 63.6488 49.84V50.704ZM69.0679 51.736C69.0679 54.04 70.1959 55.072 71.9479 55.072C73.0519 55.072 74.2519 54.688 74.2519 53.8C74.2519 53.44 74.1319 53.056 73.9399 52.816C73.4599 53.128 73.0519 53.344 72.3559 53.344C70.8919 53.344 70.8439 51.712 70.8439 50.104C70.8439 47.752 70.9639 44.512 70.9639 44.512H73.4359C73.7959 44.512 74.0119 43.912 74.0119 43.384C74.0119 43.24 74.0119 43.12 73.9639 43H70.9399V39.904C70.9399 39.904 68.9479 40.048 68.9479 40.744C68.9479 41.512 69.1879 42.352 69.1879 43H68.2519C67.8919 43 67.4359 43.792 67.4359 44.32C67.4359 44.368 67.4359 44.44 67.4599 44.512H69.2119C69.1639 47.296 69.0679 50.608 69.0679 51.736ZM80.9744 53.56C78.4784 53.56 77.6384 51.016 77.6384 48.784L84.3344 48.544C84.4304 48.304 84.6464 47.56 84.6464 46.504C84.6464 45.112 83.7824 43 80.9504 43C76.4624 43 75.6944 47.128 75.6944 49.288C75.6944 52.888 77.4224 55.24 80.9264 55.24C82.7024 55.24 84.7424 54.112 84.7424 52.696C84.7424 51.904 84.0464 51.76 84.0464 51.76C83.3024 52.816 82.1264 53.56 80.9744 53.56ZM80.6144 44.32C82.3184 44.32 82.6064 45.712 82.6064 46.144C82.6064 46.648 82.5584 46.984 82.4144 47.32L77.7584 47.488C77.9504 45.952 78.8384 44.32 80.6144 44.32ZM94.8231 44.704C94.8231 44.704 93.6231 43 91.3191 43C87.9111 43 86.6631 46.912 86.6631 49.48C86.6631 52.48 88.0071 55.24 90.3831 55.24C92.9511 55.24 94.1751 52.048 94.6071 50.8H94.7271C94.6311 52.024 94.5831 53.176 94.5831 53.512C94.5831 54.928 94.8471 55.168 95.4231 55.168C96.1671 55.168 97.0791 54.616 97.0791 54.616C97.0791 54.616 96.4551 53.44 96.4551 51.928C96.4551 47.44 96.6951 44.056 96.6951 40.312C96.6951 38.968 96.5511 38.2 95.7111 38.2C95.1351 38.2 94.1991 38.656 94.1991 38.656C94.7751 40.168 94.8231 41.464 94.8231 44.704ZM90.6471 53.272C89.3511 53.272 88.6791 51.376 88.6791 49.432C88.6791 47.176 89.1591 44.68 91.4871 44.68C93.4791 44.68 94.6311 46.048 94.7511 46.216C94.7511 46.216 94.7751 46.552 94.7751 47.056C94.7751 49.408 92.8791 53.272 90.6471 53.272ZM106.667 52.984C107.219 53.92 108.443 55.24 110.099 55.24C112.763 55.24 114.851 52.192 114.851 48.112C114.851 45.952 113.963 43 111.011 43C108.731 43 107.507 44.608 107.051 46.072H106.931C107.051 44.944 107.123 43 107.123 41.08C107.123 40.264 107.123 38.2 106.139 38.2C105.323 38.2 104.531 38.656 104.531 38.656C105.179 39.928 105.251 42.424 105.251 44.752V48.04C105.251 52.648 104.747 52.384 104.747 54.136C104.747 54.904 105.107 55.048 105.779 55.048H106.715C106.691 54.28 106.667 53.392 106.667 52.984ZM110.555 44.584C112.139 44.584 112.835 46.384 112.835 48.664C112.835 50.896 111.947 53.584 110.123 53.584C108.347 53.584 107.219 52.192 106.763 51.52C106.763 47.824 108.275 44.584 110.555 44.584ZM117.218 61C120.626 61 126.698 47.368 126.698 44.224C126.698 43.288 126.386 43 125.642 43C124.898 43 123.962 43.456 123.962 43.456C124.25 43.984 124.466 44.416 124.466 45.232C124.466 47.224 123.674 49.576 122.042 53.128C121.418 50.56 118.97 43 117.89 43C116.642 43 115.922 43.624 115.826 43.768C117.578 45.904 120.002 51.952 120.962 54.832C119.93 56.68 118.826 58.792 116.186 58.792C116.186 59.92 116.234 61 117.218 61ZM133.812 61C137.22 61 143.292 47.368 143.292 44.224C143.292 43.288 142.98 43 142.236 43C141.492 43 140.556 43.456 140.556 43.456C140.844 43.984 141.06 44.416 141.06 45.232C141.06 47.224 140.268 49.576 138.636 53.128C138.012 50.56 135.564 43 134.484 43C133.236 43 132.516 43.624 132.42 43.768C134.172 45.904 136.596 51.952 137.556 54.832C136.524 56.68 135.42 58.792 132.78 58.792C132.78 59.92 132.828 61 133.812 61ZM150.046 43C146.23 43 144.694 46.6 144.694 49.648C144.694 52.432 146.326 55.24 149.782 55.24C153.358 55.24 154.774 51.664 154.774 48.76C154.774 46.024 153.31 43 150.046 43ZM149.638 44.488C151.678 44.488 152.638 46.888 152.638 49.36C152.638 51.016 151.966 53.848 149.83 53.848C147.79 53.848 146.806 51.52 146.806 49.048C146.806 47.392 147.502 44.488 149.638 44.488ZM166.366 43.888C166.366 43.336 166.078 43.096 165.574 43.096C164.83 43.096 163.966 43.552 163.966 43.552C163.966 43.552 164.494 44.464 164.494 46.816C164.494 50.416 162.838 53.224 161.038 53.224C159.502 53.224 159.19 51.808 159.19 50.728C159.19 49.192 159.262 47.512 159.262 45.856C159.262 44.296 159.238 43.096 158.302 43.096C157.558 43.096 156.742 43.552 156.742 43.552C157.294 45.136 157.51 45.976 157.51 47.992C157.51 49.072 157.462 50.536 157.462 51.616C157.462 53.92 158.71 55.24 160.702 55.24C163.342 55.24 164.278 52.336 164.662 50.776H164.758C164.758 51.544 164.782 53.176 164.782 53.512C164.782 54.76 165.046 55.168 165.622 55.168C166.39 55.168 167.134 54.616 167.134 54.616C166.294 52.792 166.126 50.584 166.126 48.736C166.126 46.984 166.366 45.472 166.366 43.888ZM171.111 50.488C171.207 50.536 171.519 50.56 171.711 50.56C172.119 50.56 172.623 50.44 172.719 50.032C172.839 49.504 172.935 48.592 172.935 45.304V43.312C172.935 40.312 172.839 38.68 171.879 38.68C171.015 38.68 170.127 39.112 170.127 39.112C170.775 40.744 171.111 44.632 171.111 49.456V50.488ZM170.271 53.632C170.271 54.472 170.943 55.144 171.807 55.144C172.647 55.144 173.319 54.472 173.319 53.632C173.319 52.768 172.647 52.096 171.807 52.096C170.943 52.096 170.271 52.768 170.271 53.632Z" fill="#212B36"/>
</svg>
