<svg width="200" height="96" viewBox="0 0 200 96" fill="none" xmlns="http://www.w3.org/2000/svg">
<path d="M26.2967 8.24C28.0727 8.24 29.0327 9.296 29.6327 10.808C30.0647 10.64 31.4567 9.968 31.4567 9.128C31.4567 7.448 28.3607 6.56 26.6087 6.56C21.4727 6.56 19.4807 10.616 19.4807 15.368C19.4807 19.784 22.0727 23.24 26.3687 23.24C29.4407 23.24 31.5047 21.344 31.5047 20C31.5047 19.232 30.4007 18.752 30.4007 18.752C29.5607 19.928 28.3847 21.464 26.3207 21.464C22.2407 21.464 21.7127 16.928 21.7127 14.456C21.7127 11.888 22.5527 8.24 26.2967 8.24ZM41.1573 15.68C41.1573 17.72 40.9653 19.568 40.9653 21.296C40.9653 22.568 41.2053 23.072 41.8293 23.072C42.6213 23.072 43.4613 22.52 43.4613 22.52C43.4613 22.52 42.8373 21.464 42.8373 19.784C42.8373 18.152 42.9813 16.04 42.9813 14.312C42.9813 13.184 42.5013 11 40.2933 11C37.9653 11 36.6453 12.92 36.2133 13.976H36.1173C36.1893 11.912 36.2133 10.424 36.2133 9.104C36.2133 7.688 36.0693 6.2 35.1573 6.2C34.3653 6.2 33.5973 6.656 33.5973 6.656C34.4373 8.36 34.4613 14.624 34.4613 17.096V17.864C34.4613 19.448 33.9333 20.72 33.9333 22.208C33.9333 22.76 34.1013 23.072 35.1573 23.072C36.2133 23.072 36.3813 23.024 36.3813 23.024C36.0933 21.272 36.0693 20.384 36.0693 19.064V18.056C36.0693 14.024 38.4213 12.92 39.7893 12.92C40.9893 12.92 41.1573 14.6 41.1573 15.68ZM50.9878 11C47.1718 11 45.6358 14.6 45.6358 17.648C45.6358 20.432 47.2678 23.24 50.7238 23.24C54.2998 23.24 55.7158 19.664 55.7158 16.76C55.7158 14.024 54.2518 11 50.9878 11ZM50.5798 12.488C52.6198 12.488 53.5798 14.888 53.5798 17.36C53.5798 19.016 52.9078 21.848 50.7718 21.848C48.7318 21.848 47.7478 19.52 47.7478 17.048C47.7478 15.392 48.4438 12.488 50.5798 12.488ZM62.9878 11C59.1718 11 57.6358 14.6 57.6358 17.648C57.6358 20.432 59.2678 23.24 62.7238 23.24C66.2998 23.24 67.7158 19.664 67.7158 16.76C67.7158 14.024 66.2518 11 62.9878 11ZM62.5798 12.488C64.6198 12.488 65.5798 14.888 65.5798 17.36C65.5798 19.016 64.9078 21.848 62.7718 21.848C60.7318 21.848 59.7478 19.52 59.7478 17.048C59.7478 15.392 60.4438 12.488 62.5798 12.488ZM73.9078 12.296C74.9638 12.296 75.7318 12.992 76.0918 14.288C76.0918 14.288 77.6278 13.76 77.6278 12.968C77.6278 11.528 75.5638 11 74.1958 11C71.5318 11 69.8758 12.32 69.8758 14.408C69.8758 16.088 71.6038 17 73.3798 17.624C74.8678 18.152 76.2598 18.752 76.2598 20.12C76.2598 21.368 75.0358 21.8 73.6918 21.8C71.7718 21.8 71.1718 20.408 70.7638 19.784C70.4278 19.952 69.6358 20.384 69.6358 21.296C69.6358 22.352 70.9078 23.24 73.7158 23.24C76.4998 23.24 78.2038 21.464 78.2038 19.424C78.2038 17.576 76.4518 16.688 74.7238 16.136C73.3558 15.704 71.7478 15.224 71.7478 13.928C71.7478 13.184 72.3238 12.296 73.9078 12.296ZM85.2752 21.56C82.7792 21.56 81.9392 19.016 81.9392 16.784L88.6352 16.544C88.7312 16.304 88.9472 15.56 88.9472 14.504C88.9472 13.112 88.0832 11 85.2512 11C80.7632 11 79.9952 15.128 79.9952 17.288C79.9952 20.888 81.7232 23.24 85.2272 23.24C87.0032 23.24 89.0432 22.112 89.0432 20.696C89.0432 19.904 88.3472 19.76 88.3472 19.76C87.6032 20.816 86.4272 21.56 85.2752 21.56ZM84.9152 12.32C86.6192 12.32 86.9072 13.712 86.9072 14.144C86.9072 14.648 86.8592 14.984 86.7152 15.32L82.0592 15.488C82.2512 13.952 83.1392 12.32 84.9152 12.32ZM103.929 12.704C103.929 12.704 102.729 11 100.425 11C97.0166 11 95.7686 14.912 95.7686 17.48C95.7686 20.48 97.1126 23.24 99.4886 23.24C102.057 23.24 103.281 20.048 103.713 18.8H103.833C103.737 20.024 103.689 21.176 103.689 21.512C103.689 22.928 103.953 23.168 104.529 23.168C105.273 23.168 106.185 22.616 106.185 22.616C106.185 22.616 105.561 21.44 105.561 19.928C105.561 15.44 105.801 12.056 105.801 8.312C105.801 6.968 105.657 6.2 104.817 6.2C104.241 6.2 103.305 6.656 103.305 6.656C103.881 8.168 103.929 9.464 103.929 12.704ZM99.7526 21.272C98.4566 21.272 97.7846 19.376 97.7846 17.432C97.7846 15.176 98.2646 12.68 100.593 12.68C102.585 12.68 103.737 14.048 103.857 14.216C103.857 14.216 103.881 14.552 103.881 15.056C103.881 17.408 101.985 21.272 99.7526 21.272ZM113.752 21.56C111.256 21.56 110.416 19.016 110.416 16.784L117.112 16.544C117.208 16.304 117.424 15.56 117.424 14.504C117.424 13.112 116.56 11 113.728 11C109.24 11 108.472 15.128 108.472 17.288C108.472 20.888 110.2 23.24 113.704 23.24C115.48 23.24 117.52 22.112 117.52 20.696C117.52 19.904 116.824 19.76 116.824 19.76C116.08 20.816 114.904 21.56 113.752 21.56ZM113.392 12.32C115.096 12.32 115.384 13.712 115.384 14.144C115.384 14.648 115.336 14.984 115.192 15.32L110.536 15.488C110.728 13.952 111.616 12.32 113.392 12.32ZM120.352 21.32C120.352 22.568 120.568 23.072 121.432 23.072C121.864 23.072 122.848 22.544 122.848 22.544C122.848 22.544 122.248 21.44 122.248 19.976C122.248 18.344 122.416 14.768 122.416 13.544V11.12C122.416 7.712 122.344 6.2 121.312 6.2C120.568 6.2 119.8 6.68 119.8 6.68C120.4 8.216 120.568 9.632 120.568 12.872C120.568 15.8 120.352 18.56 120.352 21.32ZM126.284 21.296C126.284 22.568 126.524 23.072 127.148 23.072C127.94 23.072 128.78 22.52 128.78 22.52C128.78 22.52 128.156 21.392 128.156 19.784V13.16C128.156 12.104 128.06 11.072 127.148 11.072C126.572 11.072 125.636 11.528 125.636 11.528C126.164 12.968 126.356 13.856 126.356 17.096C126.356 18.656 126.284 19.904 126.284 21.296ZM125.636 7.472C125.636 8.216 126.212 8.792 126.956 8.792C127.7 8.792 128.3 8.216 128.3 7.472C128.3 6.728 127.7 6.128 126.956 6.128C126.212 6.128 125.636 6.728 125.636 7.472ZM136.271 12.392C137.471 12.392 138.239 13.232 138.719 14.384C138.719 14.384 140.111 13.856 140.111 13.064C140.111 11.624 137.783 11 136.439 11C131.903 11 131.159 15.08 131.159 17.24C131.159 20.768 133.031 23.24 136.487 23.24C138.263 23.24 140.375 22.16 140.375 20.744C140.375 19.952 139.679 19.736 139.679 19.736C139.055 20.696 137.999 21.56 136.727 21.56C133.847 21.56 133.151 18.608 133.151 16.88C133.151 15.104 133.727 12.392 136.271 12.392ZM142.948 21.296C142.948 22.568 143.188 23.072 143.812 23.072C144.604 23.072 145.444 22.52 145.444 22.52C145.444 22.52 144.82 21.392 144.82 19.784V13.16C144.82 12.104 144.724 11.072 143.812 11.072C143.236 11.072 142.3 11.528 142.3 11.528C142.828 12.968 143.02 13.856 143.02 17.096C143.02 18.656 142.948 19.904 142.948 21.296ZM142.3 7.472C142.3 8.216 142.876 8.792 143.62 8.792C144.364 8.792 144.964 8.216 144.964 7.472C144.964 6.728 144.364 6.128 143.62 6.128C142.876 6.128 142.3 6.728 142.3 7.472ZM153.175 11C149.359 11 147.823 14.6 147.823 17.648C147.823 20.432 149.455 23.24 152.911 23.24C156.487 23.24 157.903 19.664 157.903 16.76C157.903 14.024 156.439 11 153.175 11ZM152.767 12.488C154.807 12.488 155.767 14.888 155.767 17.36C155.767 19.016 155.095 21.848 152.959 21.848C150.919 21.848 149.935 19.52 149.935 17.048C149.935 15.392 150.631 12.488 152.767 12.488ZM169.495 11.888C169.495 11.336 169.207 11.096 168.703 11.096C167.959 11.096 167.095 11.552 167.095 11.552C167.095 11.552 167.623 12.464 167.623 14.816C167.623 18.416 165.967 21.224 164.167 21.224C162.631 21.224 162.319 19.808 162.319 18.728C162.319 17.192 162.391 15.512 162.391 13.856C162.391 12.296 162.367 11.096 161.431 11.096C160.687 11.096 159.871 11.552 159.871 11.552C160.423 13.136 160.639 13.976 160.639 15.992C160.639 17.072 160.591 18.536 160.591 19.616C160.591 21.92 161.839 23.24 163.831 23.24C166.471 23.24 167.407 20.336 167.791 18.776H167.887C167.887 19.544 167.911 21.176 167.911 21.512C167.911 22.76 168.175 23.168 168.751 23.168C169.519 23.168 170.263 22.616 170.263 22.616C169.423 20.792 169.255 18.584 169.255 16.736C169.255 14.984 169.495 13.472 169.495 11.888ZM176.4 12.296C177.456 12.296 178.224 12.992 178.584 14.288C178.584 14.288 180.12 13.76 180.12 12.968C180.12 11.528 178.056 11 176.688 11C174.024 11 172.368 12.32 172.368 14.408C172.368 16.088 174.096 17 175.872 17.624C177.36 18.152 178.752 18.752 178.752 20.12C178.752 21.368 177.528 21.8 176.184 21.8C174.264 21.8 173.664 20.408 173.256 19.784C172.92 19.952 172.128 20.384 172.128 21.296C172.128 22.352 173.4 23.24 176.208 23.24C178.992 23.24 180.696 21.464 180.696 19.424C180.696 17.576 178.944 16.688 177.216 16.136C175.848 15.704 174.24 15.224 174.24 13.928C174.24 13.184 174.816 12.296 176.4 12.296ZM4.30094 46.072V45.832C4.30094 44.776 4.18094 43.024 4.18094 43.024C4.18094 43.024 2.06894 43.144 2.06894 43.84C2.06894 44.848 2.64494 45.784 2.64494 49.6C2.64494 52 2.16494 52.672 2.16494 54.208C2.16494 54.76 2.30894 55.072 3.36494 55.072C4.42094 55.072 4.58894 55.024 4.58894 55.024C4.30094 53.272 4.27694 52.384 4.27694 51.064V50.056C4.27694 47.2 5.98094 44.92 7.10894 44.92C7.68494 44.92 8.16494 45.28 8.54894 46.36C8.54894 46.36 9.84494 46.072 9.84494 44.848C9.84494 44.008 9.26894 43 7.70894 43C5.81294 43 4.73294 44.992 4.42094 46.072H4.30094ZM15.9822 53.56C13.4862 53.56 12.6462 51.016 12.6462 48.784L19.3422 48.544C19.4382 48.304 19.6542 47.56 19.6542 46.504C19.6542 45.112 18.7902 43 15.9582 43C11.4702 43 10.7022 47.128 10.7022 49.288C10.7022 52.888 12.4302 55.24 15.9342 55.24C17.7102 55.24 19.7502 54.112 19.7502 52.696C19.7502 51.904 19.0542 51.76 19.0542 51.76C18.3102 52.816 17.1342 53.56 15.9822 53.56ZM15.6222 44.32C17.3262 44.32 17.6142 45.712 17.6142 46.144C17.6142 46.648 17.5662 46.984 17.4222 47.32L12.7662 47.488C12.9582 45.952 13.8462 44.32 15.6222 44.32ZM26.7829 44.392C27.9829 44.392 28.7509 45.232 29.2309 46.384C29.2309 46.384 30.6229 45.856 30.6229 45.064C30.6229 43.624 28.2949 43 26.9509 43C22.4149 43 21.6709 47.08 21.6709 49.24C21.6709 52.768 23.5429 55.24 26.9989 55.24C28.7749 55.24 30.8869 54.16 30.8869 52.744C30.8869 51.952 30.1909 51.736 30.1909 51.736C29.5669 52.696 28.5109 53.56 27.2389 53.56C24.3589 53.56 23.6629 50.608 23.6629 48.88C23.6629 47.104 24.2389 44.392 26.7829 44.392ZM33.4602 53.296C33.4602 54.568 33.7002 55.072 34.3242 55.072C35.1162 55.072 35.9562 54.52 35.9562 54.52C35.9562 54.52 35.3322 53.392 35.3322 51.784V45.16C35.3322 44.104 35.2362 43.072 34.3242 43.072C33.7482 43.072 32.8122 43.528 32.8122 43.528C33.3402 44.968 33.5322 45.856 33.5322 49.096C33.5322 50.656 33.4602 51.904 33.4602 53.296ZM32.8122 39.472C32.8122 40.216 33.3882 40.792 34.1322 40.792C34.8762 40.792 35.4762 40.216 35.4762 39.472C35.4762 38.728 34.8762 38.128 34.1322 38.128C33.3882 38.128 32.8122 38.728 32.8122 39.472ZM39.415 49.768C39.415 55.096 39.031 59.08 38.359 60.544C38.431 60.64 39.175 61 39.967 61C40.303 61 40.591 60.904 40.687 60.712C40.855 60.376 41.047 58.528 41.047 55.912C41.047 55.024 40.975 54.112 40.951 52.984C41.455 53.872 42.751 55.24 44.335 55.24C46.951 55.24 49.135 52.12 49.135 48.064C49.135 45.904 48.343 43 45.223 43C42.871 43 41.743 44.8 41.335 46.072H41.215C41.143 44.44 40.975 43.024 40.975 43.024C40.975 43.024 38.887 43.144 38.887 43.84C38.887 44.704 39.415 45.976 39.415 49.768ZM47.119 48.616C47.119 50.584 46.639 53.392 44.359 53.392C43.111 53.392 41.503 52.384 41.095 51.52C41.095 47.704 42.655 44.584 44.791 44.584C46.855 44.584 47.119 47.296 47.119 48.616ZM56.3416 53.56C53.8456 53.56 53.0056 51.016 53.0056 48.784L59.7016 48.544C59.7976 48.304 60.0136 47.56 60.0136 46.504C60.0136 45.112 59.1496 43 56.3176 43C51.8296 43 51.0616 47.128 51.0616 49.288C51.0616 52.888 52.7896 55.24 56.2936 55.24C58.0696 55.24 60.1096 54.112 60.1096 52.696C60.1096 51.904 59.4136 51.76 59.4136 51.76C58.6696 52.816 57.4936 53.56 56.3416 53.56ZM55.9816 44.32C57.6856 44.32 57.9736 45.712 57.9736 46.144C57.9736 46.648 57.9256 46.984 57.7816 47.32L53.1256 47.488C53.3176 45.952 54.2056 44.32 55.9816 44.32ZM66.3023 44.296C67.3583 44.296 68.1263 44.992 68.4863 46.288C68.4863 46.288 70.0223 45.76 70.0223 44.968C70.0223 43.528 67.9583 43 66.5903 43C63.9263 43 62.2703 44.32 62.2703 46.408C62.2703 48.088 63.9983 49 65.7743 49.624C67.2623 50.152 68.6543 50.752 68.6543 52.12C68.6543 53.368 67.4303 53.8 66.0863 53.8C64.1663 53.8 63.5663 52.408 63.1583 51.784C62.8223 51.952 62.0303 52.384 62.0303 53.296C62.0303 54.352 63.3023 55.24 66.1103 55.24C68.8943 55.24 70.5983 53.464 70.5983 51.424C70.5983 49.576 68.8463 48.688 67.1183 48.136C65.7503 47.704 64.1423 47.224 64.1423 45.928C64.1423 45.184 64.7183 44.296 66.3023 44.296ZM78.2744 49.768C78.2744 55.096 77.8904 59.08 77.2184 60.544C77.2904 60.64 78.0344 61 78.8264 61C79.1624 61 79.4504 60.904 79.5464 60.712C79.7144 60.376 79.9064 58.528 79.9064 55.912C79.9064 55.024 79.8344 54.112 79.8104 52.984C80.3144 53.872 81.6104 55.24 83.1944 55.24C85.8104 55.24 87.9944 52.12 87.9944 48.064C87.9944 45.904 87.2024 43 84.0824 43C81.7304 43 80.6024 44.8 80.1944 46.072H80.0744C80.0024 44.44 79.8344 43.024 79.8344 43.024C79.8344 43.024 77.7464 43.144 77.7464 43.84C77.7464 44.704 78.2744 45.976 78.2744 49.768ZM85.9784 48.616C85.9784 50.584 85.4984 53.392 83.2184 53.392C81.9704 53.392 80.3624 52.384 79.9544 51.52C79.9544 47.704 81.5144 44.584 83.6504 44.584C85.7144 44.584 85.9784 47.296 85.9784 48.616ZM95.2009 53.56C92.7049 53.56 91.8649 51.016 91.8649 48.784L98.5609 48.544C98.6569 48.304 98.8729 47.56 98.8729 46.504C98.8729 45.112 98.0089 43 95.1769 43C90.6889 43 89.9209 47.128 89.9209 49.288C89.9209 52.888 91.6489 55.24 95.1529 55.24C96.9289 55.24 98.9689 54.112 98.9689 52.696C98.9689 51.904 98.2729 51.76 98.2729 51.76C97.5289 52.816 96.3529 53.56 95.2009 53.56ZM94.8409 44.32C96.5449 44.32 96.8329 45.712 96.8329 46.144C96.8329 46.648 96.7849 46.984 96.6409 47.32L91.9849 47.488C92.1769 45.952 93.0649 44.32 94.8409 44.32ZM103.77 46.072V45.832C103.77 44.776 103.65 43.024 103.65 43.024C103.65 43.024 101.538 43.144 101.538 43.84C101.538 44.848 102.114 45.784 102.114 49.6C102.114 52 101.634 52.672 101.634 54.208C101.634 54.76 101.778 55.072 102.834 55.072C103.89 55.072 104.058 55.024 104.058 55.024C103.77 53.272 103.746 52.384 103.746 51.064V50.056C103.746 47.2 105.45 44.92 106.578 44.92C107.154 44.92 107.634 45.28 108.018 46.36C108.018 46.36 109.314 46.072 109.314 44.848C109.314 44.008 108.738 43 107.178 43C105.282 43 104.202 44.992 103.89 46.072H103.77ZM113.883 45.424H116.643C117.003 45.4 117.219 44.728 117.219 44.248C117.219 44.104 117.219 43.984 117.171 43.864H113.763C113.715 43.552 113.715 42.952 113.715 42.376C113.715 41.2 113.763 39.496 115.179 39.496C116.187 39.496 116.955 40.072 117.651 41.224C118.347 40.864 118.803 40.288 118.803 39.88C118.803 38.872 117.219 38.2 115.035 38.2C112.275 38.2 111.819 39.808 111.819 41.704C111.819 42.424 111.915 43.168 111.915 43.888H111.051C110.691 43.888 110.235 44.68 110.235 45.28C110.235 45.328 110.235 45.4 110.259 45.472H112.059C112.131 47.128 112.203 48.568 112.203 49.816C112.203 51.76 112.011 53.272 111.507 54.592C111.651 54.712 112.275 55.072 113.067 55.072C114.003 55.072 114.027 53.944 114.027 52.456C114.027 49.936 114.027 47.68 113.883 45.424ZM123.49 53.56C120.994 53.56 120.154 51.016 120.154 48.784L126.85 48.544C126.946 48.304 127.162 47.56 127.162 46.504C127.162 45.112 126.298 43 123.466 43C118.978 43 118.21 47.128 118.21 49.288C118.21 52.888 119.938 55.24 123.442 55.24C125.218 55.24 127.258 54.112 127.258 52.696C127.258 51.904 126.562 51.76 126.562 51.76C125.818 52.816 124.642 53.56 123.49 53.56ZM123.13 44.32C124.834 44.32 125.122 45.712 125.122 46.144C125.122 46.648 125.074 46.984 124.93 47.32L120.274 47.488C120.466 45.952 121.354 44.32 123.13 44.32ZM134.291 44.392C135.491 44.392 136.259 45.232 136.739 46.384C136.739 46.384 138.131 45.856 138.131 45.064C138.131 43.624 135.803 43 134.459 43C129.923 43 129.179 47.08 129.179 49.24C129.179 52.768 131.051 55.24 134.507 55.24C136.283 55.24 138.395 54.16 138.395 52.744C138.395 51.952 137.699 51.736 137.699 51.736C137.075 52.696 136.019 53.56 134.747 53.56C131.867 53.56 131.171 50.608 131.171 48.88C131.171 47.104 131.747 44.392 134.291 44.392ZM141.232 51.736C141.232 54.04 142.36 55.072 144.112 55.072C145.216 55.072 146.416 54.688 146.416 53.8C146.416 53.44 146.296 53.056 146.104 52.816C145.624 53.128 145.216 53.344 144.52 53.344C143.056 53.344 143.008 51.712 143.008 50.104C143.008 47.752 143.128 44.512 143.128 44.512H145.6C145.96 44.512 146.176 43.912 146.176 43.384C146.176 43.24 146.176 43.12 146.128 43H143.104V39.904C143.104 39.904 141.112 40.048 141.112 40.744C141.112 41.512 141.352 42.352 141.352 43H140.416C140.056 43 139.6 43.792 139.6 44.32C139.6 44.368 139.6 44.44 139.624 44.512H141.376C141.328 47.296 141.232 50.608 141.232 51.736ZM153.138 53.56C150.642 53.56 149.802 51.016 149.802 48.784L156.498 48.544C156.594 48.304 156.81 47.56 156.81 46.504C156.81 45.112 155.946 43 153.114 43C148.626 43 147.858 47.128 147.858 49.288C147.858 52.888 149.586 55.24 153.09 55.24C154.866 55.24 156.906 54.112 156.906 52.696C156.906 51.904 156.21 51.76 156.21 51.76C155.466 52.816 154.29 53.56 153.138 53.56ZM152.778 44.32C154.482 44.32 154.77 45.712 154.77 46.144C154.77 46.648 154.722 46.984 154.578 47.32L149.922 47.488C150.114 45.952 151.002 44.32 152.778 44.32ZM166.987 44.704C166.987 44.704 165.787 43 163.483 43C160.075 43 158.827 46.912 158.827 49.48C158.827 52.48 160.171 55.24 162.547 55.24C165.115 55.24 166.339 52.048 166.771 50.8H166.891C166.795 52.024 166.747 53.176 166.747 53.512C166.747 54.928 167.011 55.168 167.587 55.168C168.331 55.168 169.243 54.616 169.243 54.616C169.243 54.616 168.619 53.44 168.619 51.928C168.619 47.44 168.859 44.056 168.859 40.312C168.859 38.968 168.715 38.2 167.875 38.2C167.299 38.2 166.363 38.656 166.363 38.656C166.939 40.168 166.987 41.464 166.987 44.704ZM162.811 53.272C161.515 53.272 160.843 51.376 160.843 49.432C160.843 47.176 161.323 44.68 163.651 44.68C165.643 44.68 166.795 46.048 166.915 46.216C166.915 46.216 166.939 46.552 166.939 47.056C166.939 49.408 165.043 53.272 162.811 53.272ZM178.831 52.984C179.383 53.92 180.607 55.24 182.263 55.24C184.927 55.24 187.015 52.192 187.015 48.112C187.015 45.952 186.127 43 183.175 43C180.895 43 179.671 44.608 179.215 46.072H179.095C179.215 44.944 179.287 43 179.287 41.08C179.287 40.264 179.287 38.2 178.303 38.2C177.487 38.2 176.695 38.656 176.695 38.656C177.343 39.928 177.415 42.424 177.415 44.752V48.04C177.415 52.648 176.911 52.384 176.911 54.136C176.911 54.904 177.271 55.048 177.943 55.048H178.879C178.855 54.28 178.831 53.392 178.831 52.984ZM182.719 44.584C184.303 44.584 184.999 46.384 184.999 48.664C184.999 50.896 184.111 53.584 182.287 53.584C180.511 53.584 179.383 52.192 178.927 51.52C178.927 47.824 180.439 44.584 182.719 44.584ZM189.382 61C192.79 61 198.862 47.368 198.862 44.224C198.862 43.288 198.55 43 197.806 43C197.062 43 196.126 43.456 196.126 43.456C196.414 43.984 196.63 44.416 196.63 45.232C196.63 47.224 195.838 49.576 194.206 53.128C193.582 50.56 191.134 43 190.054 43C188.806 43 188.086 43.624 187.99 43.768C189.742 45.904 192.166 51.952 193.126 54.832C192.094 56.68 190.99 58.792 188.35 58.792C188.35 59.92 188.398 61 189.382 61ZM23.2026 75C19.3866 75 17.8506 78.6 17.8506 81.648C17.8506 84.432 19.4826 87.24 22.9386 87.24C26.5146 87.24 27.9306 83.664 27.9306 80.76C27.9306 78.024 26.4666 75 23.2026 75ZM22.7946 76.488C24.8346 76.488 25.7946 78.888 25.7946 81.36C25.7946 83.016 25.1226 85.848 22.9866 85.848C20.9466 85.848 19.9626 83.52 19.9626 81.048C19.9626 79.392 20.6586 76.488 22.7946 76.488ZM39.5226 75.888C39.5226 75.336 39.2346 75.096 38.7306 75.096C37.9866 75.096 37.1226 75.552 37.1226 75.552C37.1226 75.552 37.6506 76.464 37.6506 78.816C37.6506 82.416 35.9946 85.224 34.1946 85.224C32.6586 85.224 32.3466 83.808 32.3466 82.728C32.3466 81.192 32.4186 79.512 32.4186 77.856C32.4186 76.296 32.3946 75.096 31.4586 75.096C30.7146 75.096 29.8986 75.552 29.8986 75.552C30.4506 77.136 30.6666 77.976 30.6666 79.992C30.6666 81.072 30.6186 82.536 30.6186 83.616C30.6186 85.92 31.8666 87.24 33.8586 87.24C36.4986 87.24 37.4346 84.336 37.8186 82.776H37.9146C37.9146 83.544 37.9386 85.176 37.9386 85.512C37.9386 86.76 38.2026 87.168 38.7786 87.168C39.5466 87.168 40.2906 86.616 40.2906 86.616C39.4506 84.792 39.2826 82.584 39.2826 80.736C39.2826 78.984 39.5226 77.472 39.5226 75.888ZM45.0353 78.072V77.832C45.0353 76.776 44.9153 75.024 44.9153 75.024C44.9153 75.024 42.8033 75.144 42.8033 75.84C42.8033 76.848 43.3793 77.784 43.3793 81.6C43.3793 84 42.8993 84.672 42.8993 86.208C42.8993 86.76 43.0433 87.072 44.0993 87.072C45.1553 87.072 45.3233 87.024 45.3233 87.024C45.0353 85.272 45.0113 84.384 45.0113 83.064V82.056C45.0113 79.2 46.7153 76.92 47.8433 76.92C48.4193 76.92 48.8993 77.28 49.2833 78.36C49.2833 78.36 50.5793 78.072 50.5793 76.848C50.5793 76.008 50.0033 75 48.4433 75C46.5473 75 45.4673 76.992 45.1553 78.072H45.0353ZM57.6728 81.768C57.6728 87.096 57.2888 91.08 56.6168 92.544C56.6888 92.64 57.4328 93 58.2248 93C58.5608 93 58.8488 92.904 58.9448 92.712C59.1128 92.376 59.3048 90.528 59.3048 87.912C59.3048 87.024 59.2328 86.112 59.2088 84.984C59.7128 85.872 61.0088 87.24 62.5928 87.24C65.2088 87.24 67.3928 84.12 67.3928 80.064C67.3928 77.904 66.6008 75 63.4808 75C61.1288 75 60.0008 76.8 59.5928 78.072H59.4728C59.4008 76.44 59.2328 75.024 59.2328 75.024C59.2328 75.024 57.1448 75.144 57.1448 75.84C57.1448 76.704 57.6728 77.976 57.6728 81.768ZM65.3768 80.616C65.3768 82.584 64.8968 85.392 62.6168 85.392C61.3688 85.392 59.7608 84.384 59.3528 83.52C59.3528 79.704 60.9128 76.584 63.0488 76.584C65.1128 76.584 65.3768 79.296 65.3768 80.616ZM78.1754 83.664C78.1754 81.024 78.2954 79.656 78.2954 78.24C78.2954 77.016 77.6474 75 74.2394 75C72.4394 75 69.7754 75.768 69.7754 77.208C69.7754 78 71.1434 78.624 71.1434 78.624C71.7674 77.136 72.9194 76.416 74.3114 76.416C75.7034 76.416 76.4714 77.28 76.4714 79.08C76.4714 80.592 76.4234 80.688 76.4234 80.688C76.0634 80.64 74.5274 80.472 73.4474 80.472C70.5674 80.472 69.3914 82.128 69.3914 84.216C69.3914 86.016 70.4474 87.24 72.5114 87.24C74.9354 87.24 76.1114 85.608 76.4474 84.672H76.5434C76.5434 84.72 76.5194 84.96 76.5194 85.296C76.5194 86.04 76.6394 87.168 77.3114 87.168C78.1514 87.168 79.0634 86.616 79.0634 86.616C79.0634 86.616 78.1754 85.2 78.1754 83.664ZM76.3754 82.704C76.3754 84.288 74.7674 85.512 73.0154 85.512C72.0794 85.512 71.4554 84.96 71.4554 83.904C71.4554 82.152 72.6554 81.768 74.4794 81.768C75.3434 81.768 76.2074 81.84 76.3754 81.84V82.704ZM85.2633 76.296C86.3193 76.296 87.0872 76.992 87.4473 78.288C87.4473 78.288 88.9833 77.76 88.9833 76.968C88.9833 75.528 86.9193 75 85.5513 75C82.8873 75 81.2313 76.32 81.2313 78.408C81.2313 80.088 82.9593 81 84.7353 81.624C86.2233 82.152 87.6153 82.752 87.6153 84.12C87.6153 85.368 86.3913 85.8 85.0473 85.8C83.1273 85.8 82.5273 84.408 82.1193 83.784C81.7833 83.952 80.9913 84.384 80.9913 85.296C80.9913 86.352 82.2633 87.24 85.0713 87.24C87.8553 87.24 89.5593 85.464 89.5593 83.424C89.5593 81.576 87.8073 80.688 86.0793 80.136C84.7113 79.704 83.1033 79.224 83.1033 77.928C83.1033 77.184 83.6793 76.296 85.2633 76.296ZM92.6226 83.736C92.6226 86.04 93.7506 87.072 95.5026 87.072C96.6066 87.072 97.8066 86.688 97.8066 85.8C97.8066 85.44 97.6866 85.056 97.4946 84.816C97.0146 85.128 96.6066 85.344 95.9106 85.344C94.4466 85.344 94.3986 83.712 94.3986 82.104C94.3986 79.752 94.5186 76.512 94.5186 76.512H96.9906C97.3506 76.512 97.5666 75.912 97.5666 75.384C97.5666 75.24 97.5666 75.12 97.5186 75H94.4946V71.904C94.4946 71.904 92.5026 72.048 92.5026 72.744C92.5026 73.512 92.7426 74.352 92.7426 75H91.8066C91.4466 75 90.9906 75.792 90.9906 76.32C90.9906 76.368 90.9906 76.44 91.0146 76.512H92.7666C92.7186 79.296 92.6226 82.608 92.6226 83.736ZM102.363 78.072V77.832C102.363 76.776 102.243 75.024 102.243 75.024C102.243 75.024 100.131 75.144 100.131 75.84C100.131 76.848 100.707 77.784 100.707 81.6C100.707 84 100.227 84.672 100.227 86.208C100.227 86.76 100.371 87.072 101.427 87.072C102.483 87.072 102.651 87.024 102.651 87.024C102.363 85.272 102.339 84.384 102.339 83.064V82.056C102.339 79.2 104.043 76.92 105.171 76.92C105.747 76.92 106.227 77.28 106.611 78.36C106.611 78.36 107.907 78.072 107.907 76.848C107.907 76.008 107.331 75 105.771 75C103.875 75 102.795 76.992 102.483 78.072H102.363ZM110.14 93C113.548 93 119.62 79.368 119.62 76.224C119.62 75.288 119.308 75 118.564 75C117.82 75 116.884 75.456 116.884 75.456C117.172 75.984 117.388 76.416 117.388 77.232C117.388 79.224 116.596 81.576 114.964 85.128C114.34 82.56 111.892 75 110.812 75C109.564 75 108.844 75.624 108.748 75.768C110.5 77.904 112.924 83.952 113.884 86.832C112.852 88.68 111.748 90.792 109.108 90.792C109.108 91.92 109.156 93 110.14 93ZM131.174 76.392C132.374 76.392 133.142 77.232 133.622 78.384C133.622 78.384 135.014 77.856 135.014 77.064C135.014 75.624 132.686 75 131.342 75C126.806 75 126.062 79.08 126.062 81.24C126.062 84.768 127.934 87.24 131.39 87.24C133.166 87.24 135.278 86.16 135.278 84.744C135.278 83.952 134.582 83.736 134.582 83.736C133.958 84.696 132.902 85.56 131.63 85.56C128.75 85.56 128.054 82.608 128.054 80.88C128.054 79.104 128.63 76.392 131.174 76.392ZM144.763 79.68C144.763 81.72 144.571 83.568 144.571 85.296C144.571 86.568 144.811 87.072 145.435 87.072C146.227 87.072 147.067 86.52 147.067 86.52C147.067 86.52 146.443 85.464 146.443 83.784C146.443 82.152 146.587 80.04 146.587 78.312C146.587 77.184 146.107 75 143.899 75C141.571 75 140.251 76.92 139.819 77.976H139.723C139.795 75.912 139.819 74.424 139.819 73.104C139.819 71.688 139.675 70.2 138.763 70.2C137.971 70.2 137.203 70.656 137.203 70.656C138.043 72.36 138.067 78.624 138.067 81.096V81.864C138.067 83.448 137.539 84.72 137.539 86.208C137.539 86.76 137.707 87.072 138.763 87.072C139.819 87.072 139.987 87.024 139.987 87.024C139.699 85.272 139.675 84.384 139.675 83.064V82.056C139.675 78.024 142.027 76.92 143.395 76.92C144.595 76.92 144.763 78.6 144.763 79.68ZM154.521 85.56C152.025 85.56 151.185 83.016 151.185 80.784L157.881 80.544C157.977 80.304 158.193 79.56 158.193 78.504C158.193 77.112 157.329 75 154.497 75C150.009 75 149.241 79.128 149.241 81.288C149.241 84.888 150.969 87.24 154.473 87.24C156.249 87.24 158.289 86.112 158.289 84.696C158.289 83.904 157.593 83.76 157.593 83.76C156.849 84.816 155.673 85.56 154.521 85.56ZM154.161 76.32C155.865 76.32 156.153 77.712 156.153 78.144C156.153 78.648 156.105 78.984 155.961 79.32L151.305 79.488C151.497 77.952 152.385 76.32 154.161 76.32ZM163.57 77.424H166.33C166.69 77.4 166.906 76.728 166.906 76.248C166.906 76.104 166.906 75.984 166.858 75.864H163.45C163.402 75.552 163.402 74.952 163.402 74.376C163.402 73.2 163.45 71.496 164.866 71.496C165.874 71.496 166.642 72.072 167.338 73.224C168.034 72.864 168.49 72.288 168.49 71.88C168.49 70.872 166.906 70.2 164.722 70.2C161.962 70.2 161.506 71.808 161.506 73.704C161.506 74.424 161.602 75.168 161.602 75.888H160.738C160.378 75.888 159.922 76.68 159.922 77.28C159.922 77.328 159.922 77.4 159.946 77.472H161.746C161.818 79.128 161.89 80.568 161.89 81.816C161.89 83.76 161.698 85.272 161.194 86.592C161.338 86.712 161.962 87.072 162.754 87.072C163.69 87.072 163.714 85.944 163.714 84.456C163.714 81.936 163.714 79.68 163.57 77.424ZM172.521 76.296C173.577 76.296 174.345 76.992 174.705 78.288C174.705 78.288 176.241 77.76 176.241 76.968C176.241 75.528 174.177 75 172.809 75C170.145 75 168.489 76.32 168.489 78.408C168.489 80.088 170.217 81 171.993 81.624C173.481 82.152 174.873 82.752 174.873 84.12C174.873 85.368 173.649 85.8 172.305 85.8C170.385 85.8 169.785 84.408 169.377 83.784C169.041 83.952 168.249 84.384 168.249 85.296C168.249 86.352 169.521 87.24 172.329 87.24C175.113 87.24 176.817 85.464 176.817 83.424C176.817 81.576 175.065 80.688 173.337 80.136C171.969 79.704 170.361 79.224 170.361 77.928C170.361 77.184 170.937 76.296 172.521 76.296ZM178.968 85.632C178.968 86.472 179.64 87.144 180.504 87.144C181.344 87.144 182.016 86.472 182.016 85.632C182.016 84.768 181.344 84.096 180.504 84.096C179.64 84.096 178.968 84.768 178.968 85.632Z" fill="#212B36"/>
</svg>
