<svg width="16" height="16" viewBox="0 0 16 16" fill="none" xmlns="http://www.w3.org/2000/svg">
<path d="M2.26063 14.6752L1.50586 10.0892C2.69757 10.5742 5.46851 11.9465 7.99988 10.5C11.4999 8.5 14.4999 9.49998 14.7679 9.88534C14.5163 11.0403 13.9484 13.6153 13.6896 14.6752C13.4309 15.735 12.6474 16 12.288 16H3.55446C2.69189 16 2.3325 15.1168 2.26063 14.6752Z" fill="#212B36"/>
<path d="M2.90763 4.58599C1.18248 4.48408 -1.83649 6.92995 1.50594 10.0892C2.40262 10.9367 5.49189 12.0692 8.43243 10.53C11.373 8.99076 13.8813 9.39193 14.7679 9.88536C14.7679 9.88536 16.5188 7.56732 15.8461 6.21657C14.6601 4.07644 11.8568 4.07644 11.8568 4.07644C10.6492 1.1414 8.62214 0.135881 7.75957 0C7.83145 0.509555 7.50081 1.63058 5.60316 2.03822C3.70551 2.44586 3.01545 3.90659 2.90763 4.58599Z" fill="#637381"/>
</svg>
