<svg width="24" height="24" viewBox="0 0 24 24" fill="none" xmlns="http://www.w3.org/2000/svg">
<path d="M18.0909 10.5455C18.0909 15.6364 11.5455 20 11.5455 20C11.5455 20 5 15.6364 5 10.5455C5 8.80949 5.68961 7.14463 6.91712 5.91712C8.14463 4.68961 9.80949 4 11.5455 4C13.2814 4 14.9463 4.68961 16.1738 5.91712C17.4013 7.14463 18.0909 8.80949 18.0909 10.5455Z" stroke="#212B36" stroke-width="1.5" stroke-linecap="round" stroke-linejoin="round"/>
<path d="M11.5456 12.7273C12.7506 12.7273 13.7274 11.7504 13.7274 10.5455C13.7274 9.34047 12.7506 8.36363 11.5456 8.36363C10.3406 8.36363 9.36377 9.34047 9.36377 10.5455C9.36377 11.7504 10.3406 12.7273 11.5456 12.7273Z" stroke="#212B36" stroke-width="1.5" stroke-linecap="round" stroke-linejoin="round"/>
</svg>
