<svg width="16" height="16" viewBox="0 0 16 16" fill="none" xmlns="http://www.w3.org/2000/svg">
<g clip-path="url(#clip0_2360_3740)">
<path d="M8.00002 16C12.4183 16 16 12.4183 16 8.00002C16 3.58173 12.4183 0 8.00002 0C3.58173 0 0 3.58173 0 8.00002C0 12.4183 3.58173 16 8.00002 16Z" fill="#3577EA"/>
<path d="M10.6008 2.45557H8.82866C7.777 2.45557 6.60725 2.89789 6.60725 4.42235C6.61239 4.95353 6.60725 5.46224 6.60725 6.03477H5.39062V7.97082H6.6449V13.5444H8.9497V7.93404H10.471L10.6086 6.02933H8.90999C8.90999 6.02933 8.91379 5.18204 8.90999 4.93598C8.90999 4.33355 9.53683 4.36805 9.57453 4.36805C9.87282 4.36805 10.4528 4.36892 10.6017 4.36805V2.45557H10.6008Z" fill="white"/>
</g>
<defs>
<clipPath id="clip0_2360_3740">
<rect width="16" height="16" fill="white"/>
</clipPath>
</defs>
</svg>
