<svg width="24" height="24" viewBox="0 0 24 24" fill="none" xmlns="http://www.w3.org/2000/svg">
<path d="M5.3335 11.1666C6.71421 11.1666 7.8335 10.0473 7.8335 8.66663C7.8335 7.28591 6.71421 6.16663 5.3335 6.16663C3.95278 6.16663 2.8335 7.28591 2.8335 8.66663C2.8335 10.0473 3.95278 11.1666 5.3335 11.1666Z" stroke="black" stroke-width="1.66667" stroke-linecap="round" stroke-linejoin="round"/>
<path d="M18.6665 12C20.0472 12 21.1665 10.8807 21.1665 9.5C21.1665 8.11929 20.0472 7 18.6665 7C17.2858 7 16.1665 8.11929 16.1665 9.5C16.1665 10.8807 17.2858 12 18.6665 12Z" stroke="black" stroke-width="1.66667" stroke-linecap="round" stroke-linejoin="round"/>
<path d="M12 17.8334C13.3807 17.8334 14.5 16.7141 14.5 15.3334C14.5 13.9527 13.3807 12.8334 12 12.8334C10.6193 12.8334 9.5 13.9527 9.5 15.3334C9.5 16.7141 10.6193 17.8334 12 17.8334Z" stroke="black" stroke-width="1.66667" stroke-linecap="round" stroke-linejoin="round"/>
<path d="M5.3335 12V19.5" stroke="black" stroke-width="1.66667" stroke-linecap="round" stroke-linejoin="round"/>
<path d="M18.6665 12V19.5" stroke="black" stroke-width="1.66667" stroke-linecap="round" stroke-linejoin="round"/>
<path d="M12 4.5V12" stroke="black" stroke-width="1.66667" stroke-linecap="round" stroke-linejoin="round"/>
<path d="M5.3335 4.5V6.16667" stroke="black" stroke-width="1.66667" stroke-linecap="round" stroke-linejoin="round"/>
<path d="M18.6665 4.5V6.16667" stroke="black" stroke-width="1.66667" stroke-linecap="round" stroke-linejoin="round"/>
<path d="M12 17.8334V19.5" stroke="black" stroke-width="1.66667" stroke-linecap="round" stroke-linejoin="round"/>
</svg>
