<svg width="80" height="80" viewBox="0 0 80 80" fill="none" xmlns="http://www.w3.org/2000/svg">
<mask id="mask0_2087_4883" style="mask-type:alpha" maskUnits="userSpaceOnUse" x="0" y="0" width="80" height="80">
<rect width="80" height="80" fill="#C4C4C4"/>
</mask>
<g mask="url(#mask0_2087_4883)">
<path d="M65.325 5.63109L15.3479 5.92761L15.649 5.63043L15.8608 14.1776L15.9667 18.4512C16.0113 19.8759 16.026 21.3 16.03 22.7248L16.0147 31.2719V39.8191V74.0078L15.3486 73.3503H65.3257L64.6596 74.0078V39.8191L64.6503 22.7248C64.6483 21.3 64.7016 19.8759 64.7322 18.4512L64.8368 14.1776L65.0466 5.63043L65.325 5.9046L55.0979 5.63109L65.325 5.35692L65.5961 5.34969L65.6035 5.63175L65.8133 14.1789L65.9179 18.4525C65.9485 19.8772 66.0018 21.3013 65.9998 22.7261L65.9905 39.8204V74.0091V74.6666H65.3244H15.3479H14.6818V74.0091V39.8204V31.2733L14.6665 22.7261C14.6705 21.3013 14.6852 19.8772 14.7298 18.4525L14.8357 14.1789L15.0475 5.63175L15.0548 5.33325L15.3479 5.33457L65.325 5.63109Z" fill="#121212"/>
<path d="M28.9027 15.4225C28.9027 15.4225 28.8947 15.506 28.8807 15.6625C28.8528 15.8163 28.8794 16.0543 28.7762 16.3331C28.7335 16.4731 28.6989 16.6355 28.6363 16.8019C28.5584 16.9636 28.4738 17.1379 28.3832 17.3246C28.2766 17.5028 28.1321 17.673 27.9935 17.8657C27.8337 18.0379 27.6452 18.2043 27.4533 18.3884C27.0224 18.6842 26.5048 18.9952 25.8754 19.1011C25.7068 19.1261 25.5889 19.1734 25.3665 19.1787C25.2159 19.1787 25.0634 19.178 24.9095 19.1773C24.7637 19.1898 24.5878 19.1576 24.4033 19.1155C24.2255 19.0741 24.0263 19.0465 23.8578 18.9775C23.1724 18.7309 22.5416 18.2654 22.066 17.6448C21.5998 17.0116 21.3673 16.2187 21.334 15.4232L21.3433 15.295L21.3506 15.2325L21.3646 15.1076L21.3926 14.8577C21.3953 14.7078 21.4592 14.4909 21.5278 14.2851C21.6377 13.8511 21.8575 13.5296 22.064 13.1996C22.5409 12.5789 23.1697 12.1108 23.8565 11.8649C24.5479 11.6539 25.2579 11.5809 25.872 11.74C26.1498 11.7722 26.4622 11.9129 26.7366 12.0253C27.0137 12.1371 27.2275 12.3219 27.454 12.4553C27.6458 12.6394 27.833 12.8071 27.9935 12.9787C28.1321 13.1713 28.2766 13.3429 28.3832 13.5204C28.4738 13.7071 28.5577 13.882 28.6356 14.0431C28.6982 14.2095 28.7329 14.3712 28.7755 14.5112C28.8781 14.7894 28.8521 15.0287 28.8801 15.1825C28.8947 15.339 28.9027 15.4225 28.9027 15.4225ZM28.9027 15.4225C28.9027 15.4225 28.8934 15.339 28.8761 15.1832C28.8428 15.0306 28.8728 14.79 28.7535 14.5178C28.7022 14.3804 28.6603 14.2233 28.589 14.0635C28.4971 13.9136 28.3978 13.7519 28.2919 13.5789C28.1694 13.4185 28.0115 13.2693 27.863 13.1023C27.6964 12.9517 27.4886 12.8294 27.2921 12.6914C27.0623 12.6052 26.8405 12.4685 26.5947 12.4172C26.3443 12.3744 26.1238 12.2995 25.8121 12.3212C25.2672 12.2824 24.7297 12.4816 24.2454 12.7203C23.7679 12.999 23.3829 13.4087 23.0865 13.8643C22.9792 14.1161 22.836 14.3613 22.7974 14.5875C22.7647 14.6999 22.7128 14.7999 22.7095 14.9886L22.6861 15.2391L22.6748 15.364L22.6688 15.4264L22.6662 15.4573L22.6648 15.4731L22.6642 15.481C22.6655 15.4541 22.6602 15.552 22.6668 15.4232C22.6901 15.9695 22.8267 16.4975 23.0851 16.984C23.3815 17.4396 23.7652 17.8519 24.2448 18.1293C24.36 18.2003 24.4766 18.2325 24.5925 18.293C24.7044 18.3502 24.8249 18.4101 24.9881 18.4291C25.1393 18.4594 25.2885 18.489 25.4357 18.5185C25.5117 18.535 25.6882 18.5232 25.8094 18.5284C26.3543 18.5534 26.8525 18.364 27.2941 18.1556C27.4913 18.0176 27.6984 17.8939 27.8643 17.7434C28.0128 17.5764 28.1707 17.4271 28.2933 17.2667C28.3992 17.0938 28.4984 16.9314 28.5897 16.7822C28.6603 16.6224 28.7029 16.4659 28.7535 16.3285C28.8721 16.0556 28.8421 15.8144 28.8761 15.6618C28.8941 15.5053 28.9027 15.4225 28.9027 15.4225Z" fill="#121212"/>
<path d="M24.7001 14.677L26.2008 15.9874L25.5494 15.9992L30.0674 12.9873L26.2161 16.7967L25.951 17.059L25.564 16.8085L23.8901 15.7211L24.7001 14.677Z" fill="#121212"/>
<path d="M32.1621 14.994C32.1621 14.994 32.5924 14.8901 33.3444 14.7382C33.7207 14.6633 34.1777 14.5719 34.7019 14.4844C34.9643 14.4391 35.2428 14.3898 35.5365 14.3391C35.8302 14.2905 36.1393 14.3549 36.4624 14.3365C39.0428 14.3365 42.4824 14.3365 45.9228 14.3365C49.3631 14.3365 52.8028 14.3365 55.3832 14.3365C55.7056 14.3575 56.0147 14.2879 56.3091 14.3483C56.6028 14.3996 56.8819 14.4483 57.1437 14.4936C57.6679 14.5817 58.1255 14.6725 58.5012 14.7455C59.2538 14.8947 59.6835 14.994 59.6835 14.994C59.6835 14.994 59.2532 15.0933 58.5012 15.2425C58.1255 15.3155 57.6679 15.4062 57.1437 15.4943C56.8819 15.5397 56.6028 15.589 56.3091 15.6396C56.0153 15.7001 55.7063 15.6298 55.3832 15.6515C52.8028 15.6515 49.3631 15.6515 45.9228 15.6515C42.4824 15.6515 39.0421 15.6515 36.4624 15.6515C36.14 15.6324 35.8309 15.6968 35.5365 15.6488C35.2428 15.5975 34.9637 15.5489 34.7019 15.5035C34.1777 15.4161 33.7207 15.3247 33.3444 15.2497C32.5917 15.0979 32.1621 14.994 32.1621 14.994Z" fill="#121212"/>
<path d="M28.9021 27.4224C28.9021 27.4224 28.8941 27.5059 28.8801 27.6624C28.8521 27.8162 28.8787 28.0549 28.7755 28.333C28.7329 28.473 28.6982 28.6354 28.6356 28.8018C28.5577 28.9635 28.4731 29.1377 28.3825 29.3244C28.2759 29.5026 28.1307 29.6729 27.9928 29.8655C27.833 30.0378 27.6438 30.2035 27.4527 30.3882C27.0217 30.6841 26.5035 30.9944 25.8747 31.1009C25.7055 31.1259 25.5876 31.1726 25.3658 31.1785C25.2153 31.1785 25.0634 31.1779 24.9089 31.1779C24.763 31.1904 24.5878 31.1581 24.4026 31.1161C24.2248 31.0746 24.0256 31.047 23.8571 30.978C23.1717 30.7314 22.5409 30.266 22.0653 29.6446C21.5991 29.0115 21.3673 28.2186 21.334 27.4224L21.344 27.2942L21.3506 27.2317L21.3646 27.1068L21.3926 26.8569C21.3953 26.707 21.4585 26.4901 21.5278 26.2843C21.6377 25.851 21.8569 25.5288 22.0633 25.1988C22.5396 24.5781 23.1691 24.11 23.8565 23.8641C24.5479 23.6537 25.2579 23.5807 25.872 23.7405C26.1505 23.7721 26.4622 23.9134 26.7366 24.0252C27.0137 24.137 27.2275 24.3217 27.4547 24.4552C27.6458 24.6399 27.8337 24.8069 27.9942 24.9785C28.1327 25.1712 28.2773 25.3421 28.3838 25.5203C28.4744 25.707 28.559 25.8819 28.637 26.043C28.6996 26.2093 28.7335 26.3711 28.7762 26.5111C28.8794 26.7892 28.8528 27.0285 28.8807 27.1824C28.8941 27.3389 28.9021 27.4224 28.9021 27.4224ZM28.9021 27.4224C28.9021 27.4224 28.8927 27.3389 28.8754 27.1831C28.8421 27.0305 28.8721 26.7899 28.7529 26.517C28.7022 26.3803 28.6596 26.2231 28.5883 26.0627C28.4964 25.9128 28.3972 25.7511 28.2913 25.5788C28.1694 25.4184 28.0108 25.2691 27.8623 25.1021C27.6958 24.9516 27.488 24.8293 27.2915 24.6912C27.0617 24.6058 26.8399 24.469 26.5941 24.4171C26.343 24.3743 26.1231 24.2987 25.8114 24.3204C25.2659 24.2816 24.7284 24.4802 24.2441 24.7188C23.7665 24.9969 23.3815 25.4066 23.0851 25.8622C22.9779 26.1147 22.8347 26.3599 22.796 26.5861C22.7634 26.6985 22.7115 26.7984 22.7081 26.9871L22.6848 27.237L22.6735 27.3619L22.6675 27.4243L22.6648 27.4559L22.6635 27.471L22.6628 27.4789C22.6642 27.452 22.6588 27.5493 22.6655 27.4211C22.6888 27.9674 22.8247 28.4954 23.0831 28.9826C23.3795 29.4388 23.7632 29.8504 24.2428 30.1279C24.358 30.1989 24.4746 30.2311 24.5905 30.2916C24.7024 30.3488 24.8229 30.408 24.9861 30.4277C25.1373 30.4579 25.2865 30.4875 25.4337 30.5171C25.5097 30.5329 25.6862 30.5217 25.8081 30.5263C26.3529 30.5513 26.8512 30.3619 27.2928 30.1535C27.49 30.0155 27.6971 29.8925 27.863 29.7419C28.0115 29.5749 28.17 29.4257 28.2919 29.2653C28.3978 29.0924 28.4971 28.93 28.589 28.7807C28.6596 28.6209 28.7022 28.4645 28.7529 28.3271C28.8714 28.0542 28.8414 27.8129 28.8754 27.6604C28.8934 27.5052 28.9021 27.4224 28.9021 27.4224Z" fill="#121212"/>
<path d="M32.1606 26.994C32.1606 26.994 32.5909 26.8901 33.3429 26.7382C33.7193 26.6633 34.1762 26.5719 34.7004 26.4844C34.9629 26.4391 35.2413 26.3898 35.535 26.3391C35.8288 26.2905 36.1378 26.3549 36.4609 26.3365C39.0413 26.3365 42.481 26.3365 45.9213 26.3365C49.3617 26.3365 52.8013 26.3365 55.3817 26.3365C55.7041 26.3575 56.0132 26.2879 56.3076 26.3483C56.6014 26.3996 56.8804 26.4483 57.1422 26.4936C57.6664 26.5817 58.124 26.6725 58.4997 26.7455C59.2524 26.8947 59.682 26.994 59.682 26.994C59.682 26.994 59.2517 27.0933 58.4997 27.2425C58.124 27.3155 57.6664 27.4062 57.1422 27.4943C56.8804 27.5397 56.6014 27.589 56.3076 27.6396C56.0139 27.7001 55.7048 27.6298 55.3817 27.6515C52.8013 27.6515 49.3617 27.6515 45.9213 27.6515C42.481 27.6515 39.0406 27.6515 36.4609 27.6515C36.1385 27.6324 35.8294 27.6968 35.535 27.6488C35.2413 27.5975 34.9622 27.5489 34.7004 27.5035C34.1762 27.4161 33.7193 27.3247 33.3429 27.2497C32.5903 27.0979 32.1606 26.994 32.1606 26.994Z" fill="#121212"/>
<path d="M24.6986 26.677L26.2 27.988L25.5479 27.9999L30.066 24.9873L26.2146 28.7967L25.9489 29.0597L25.5625 28.8085L23.8887 27.7211L24.6986 26.677Z" fill="#121212"/>
<path d="M28.9025 39.4225C28.9025 39.4225 28.8945 39.506 28.8805 39.6625C28.8525 39.8164 28.8792 40.0544 28.7759 40.3331C28.7333 40.4732 28.6987 40.6356 28.6361 40.8019C28.5575 40.9637 28.4729 41.1379 28.3829 41.3246C28.2757 41.5021 28.1318 41.6731 27.9933 41.8657C27.8328 42.0373 27.6449 42.2043 27.4531 42.3884C27.0221 42.6843 26.5046 42.9953 25.8751 43.1011C25.7066 43.1261 25.5887 43.1734 25.3662 43.1787C25.2157 43.1787 25.0638 43.178 24.9093 43.1774C24.7634 43.1899 24.5876 43.157 24.4031 43.1156C24.2252 43.0735 24.0261 43.0465 23.8576 42.9768C23.1722 42.7303 22.542 42.2648 22.0658 41.6441C21.8593 41.3154 21.6368 40.9821 21.5382 40.5935C21.473 40.4055 21.405 40.2168 21.3964 40.0162L21.3637 39.7191L21.3484 39.5705L21.3411 39.4962L21.3378 39.4594L21.3358 39.4409L21.3351 39.4317C21.3358 39.3995 21.3311 39.4909 21.3371 39.3568C21.3904 39.0096 21.3611 38.7328 21.5269 38.2844C21.6368 37.8512 21.856 37.529 22.0631 37.199C22.54 36.5783 23.1688 36.1102 23.8562 35.8643C24.5476 35.6539 25.2577 35.5809 25.8718 35.74C26.1502 35.7722 26.4626 35.9129 26.737 36.0254C27.0141 36.1371 27.228 36.3212 27.4544 36.4553C27.6463 36.6394 27.8334 36.8071 27.994 36.9787C28.1325 37.1713 28.277 37.3423 28.3836 37.5205C28.4742 37.7072 28.5581 37.8814 28.6361 38.0432C28.6987 38.2095 28.7326 38.3712 28.7753 38.5113C28.8785 38.7894 28.8519 39.0287 28.8798 39.1826C28.8945 39.339 28.9025 39.4225 28.9025 39.4225ZM28.9025 39.4225C28.9025 39.4225 28.8932 39.339 28.8759 39.1832C28.8425 39.0307 28.8725 38.79 28.7533 38.5172C28.7027 38.3804 28.66 38.2233 28.5894 38.0629C28.4975 37.913 28.3983 37.7512 28.2924 37.5783C28.1698 37.4179 28.0119 37.2686 27.8634 37.1023C27.6969 36.9517 27.4891 36.8295 27.2926 36.6914C27.0628 36.6059 26.841 36.4692 26.5952 36.4172C26.3447 36.3745 26.1242 36.2995 25.8125 36.3212C25.2677 36.2824 24.7295 36.4816 24.2452 36.7203C23.7676 36.9984 23.3826 37.408 23.0862 37.8637C22.979 38.1155 22.8358 38.3607 22.7971 38.5869C22.7026 38.7644 22.6999 39.174 22.6626 39.4889C22.6693 39.3594 22.6646 39.4567 22.6666 39.4298L22.6673 39.4357L22.6686 39.4488L22.6713 39.4745L22.6766 39.5251L22.6866 39.6264L22.7046 39.8295C22.7026 39.9676 22.7505 40.0958 22.7865 40.2266C22.8358 40.4975 22.977 40.7309 23.0842 40.9847C23.3806 41.4403 23.7643 41.8526 24.2439 42.13C24.3591 42.2017 24.4757 42.2332 24.5916 42.2944C24.7042 42.3516 24.824 42.4114 24.9872 42.4305C25.1384 42.4607 25.2876 42.4903 25.4348 42.5199C25.5108 42.5363 25.6873 42.5245 25.8092 42.5298C26.354 42.5547 26.8523 42.3654 27.2939 42.157C27.4911 42.0189 27.6982 41.8953 27.8641 41.7447C28.0126 41.5777 28.1705 41.4285 28.293 41.2681C28.3989 41.0951 28.4982 40.9328 28.5901 40.7835C28.6607 40.6237 28.7027 40.4673 28.754 40.3298C28.8725 40.057 28.8425 39.8157 28.8765 39.6632C28.8938 39.506 28.9025 39.4225 28.9025 39.4225Z" fill="#121212"/>
<path d="M32.1621 38.994C32.1621 38.994 32.5924 38.8901 33.3444 38.7382C33.7207 38.6633 34.1777 38.5719 34.7019 38.4844C34.9643 38.4391 35.2428 38.3898 35.5365 38.3391C35.8302 38.2905 36.1393 38.3549 36.4624 38.3365C39.0428 38.3365 42.4824 38.3365 45.9228 38.3365C49.3631 38.3365 52.8028 38.3365 55.3832 38.3365C55.7056 38.3575 56.0147 38.2879 56.3091 38.3483C56.6028 38.3996 56.8819 38.4483 57.1437 38.4936C57.6679 38.5817 58.1255 38.6725 58.5012 38.7455C59.2538 38.8947 59.6835 38.994 59.6835 38.994C59.6835 38.994 59.2532 39.0933 58.5012 39.2425C58.1255 39.3155 57.6679 39.4062 57.1437 39.4943C56.8819 39.5397 56.6028 39.589 56.3091 39.6396C56.0153 39.7001 55.7063 39.6298 55.3832 39.6515C52.8028 39.6515 49.3631 39.6515 45.9228 39.6515C42.4824 39.6515 39.0421 39.6515 36.4624 39.6515C36.14 39.6324 35.8309 39.6968 35.5365 39.6488C35.2428 39.5975 34.9637 39.5489 34.7019 39.5035C34.1777 39.4161 33.7207 39.3247 33.3444 39.2497C32.5917 39.0985 32.1621 38.994 32.1621 38.994Z" fill="#121212"/>
<path d="M28.9002 51.4234C28.9002 51.4234 28.8922 51.5069 28.8782 51.6634C28.8502 51.8172 28.8768 52.0552 28.7736 52.334C28.731 52.474 28.6963 52.6364 28.6337 52.8028C28.5558 52.9645 28.4712 53.1394 28.3806 53.3255C28.2734 53.5036 28.1295 53.6739 27.991 53.8666C27.8304 54.0388 27.6426 54.2052 27.4508 54.3893C27.0198 54.6851 26.5016 54.9961 25.8728 55.1026C25.7043 55.1269 25.5864 55.1743 25.3639 55.1802C25.2134 55.1795 25.0608 55.1789 24.907 55.1789C24.7611 55.1914 24.5853 55.1585 24.4007 55.1164C24.2229 55.075 24.0231 55.0474 23.8552 54.9777C23.1698 54.7311 22.5397 54.265 22.0641 53.6443C21.857 53.3163 21.6352 52.9823 21.5366 52.5937C21.4713 52.4057 21.4034 52.217 21.3954 52.0164L21.3621 51.7199L21.3474 51.5707L21.3401 51.4964L21.3368 51.4589L21.3354 51.4405L21.3348 51.4313C21.3361 51.3984 21.3308 51.4905 21.3374 51.3563C21.3907 51.0092 21.3614 50.7324 21.5273 50.284C21.6372 49.8507 21.8563 49.5286 22.0628 49.1985C22.5397 48.5778 23.1692 48.1097 23.8559 47.8638C24.5466 47.6541 25.2573 47.5805 25.8715 47.7402C26.1492 47.7718 26.4616 47.9138 26.736 48.0256C27.0131 48.138 27.227 48.3214 27.4534 48.4556C27.6446 48.6396 27.8324 48.8066 27.993 48.9796C28.1315 49.1722 28.276 49.3431 28.3826 49.5207C28.4725 49.7074 28.5571 49.8823 28.6351 50.0434C28.6977 50.2097 28.7316 50.3714 28.7743 50.5121C28.8775 50.7909 28.8509 51.0296 28.8788 51.1834C28.8922 51.3399 28.9002 51.4234 28.9002 51.4234ZM28.9002 51.4234C28.9002 51.4234 28.8908 51.3399 28.8735 51.1841C28.8402 51.0315 28.8702 50.7909 28.751 50.5181C28.7003 50.3806 28.6577 50.2242 28.5864 50.0644C28.4945 49.9145 28.3953 49.7528 28.2894 49.5798C28.1675 49.4194 28.0089 49.2702 27.8604 49.1038C27.6945 48.9533 27.4867 48.831 27.2902 48.6922C27.0604 48.6061 26.8386 48.47 26.5928 48.4181C26.3417 48.3753 26.1226 48.2997 25.8102 48.3214C25.2653 48.282 24.7271 48.4812 24.2429 48.7199C23.7653 48.9986 23.3803 49.4076 23.0839 49.8632C22.9767 50.1157 22.8334 50.3609 22.7948 50.5871C22.7002 50.7653 22.6976 51.1736 22.6596 51.4885C22.6663 51.3596 22.6616 51.4563 22.6636 51.4293L22.6643 51.4359L22.6656 51.4484L22.6683 51.474L22.6736 51.5246L22.6836 51.6252L22.7016 51.8291C22.6996 51.9671 22.7469 52.0947 22.7828 52.2262C22.8321 52.4971 22.9733 52.7311 23.0806 52.9842C23.377 53.4399 23.7606 53.8521 24.2402 54.1302C24.3555 54.2012 24.4714 54.2328 24.5879 54.2939C24.6998 54.3518 24.8197 54.411 24.9836 54.43C25.1348 54.4603 25.2833 54.4905 25.4312 54.5201C25.5071 54.5359 25.6836 54.5247 25.8049 54.5293C26.3497 54.5543 26.8479 54.3656 27.2896 54.1572C27.4867 54.0191 27.6932 53.8955 27.8597 53.7449C28.0083 53.5779 28.1661 53.4287 28.2887 53.2683C28.3946 53.0954 28.4938 52.933 28.5858 52.7837C28.657 52.6246 28.699 52.4681 28.7503 52.3307C28.8689 52.0579 28.8395 51.8172 28.8729 51.664C28.8915 51.5069 28.9002 51.4234 28.9002 51.4234Z" fill="#121212"/>
<path d="M32.1597 50.9944C32.1597 50.9944 32.59 50.8905 33.342 50.7386C33.7183 50.6643 34.1752 50.5723 34.6995 50.4848C34.9619 50.4394 35.2403 50.3901 35.5341 50.3388C35.8278 50.2909 36.1369 50.3546 36.4599 50.3362C39.0403 50.3362 42.48 50.3362 45.9203 50.3362C49.3607 50.3362 52.8004 50.3362 55.3808 50.3362C55.7032 50.3573 56.0122 50.2876 56.3066 50.3481C56.6004 50.3993 56.8795 50.4473 57.1412 50.494C57.6654 50.5815 58.123 50.6722 58.4987 50.7458C59.2514 50.8951 59.681 50.9944 59.681 50.9944C59.681 50.9944 59.2507 51.0936 58.4987 51.2429C58.123 51.3159 57.6654 51.4072 57.1412 51.4947C56.8795 51.5407 56.6004 51.5894 56.3066 51.6406C56.0129 51.7011 55.7038 51.6308 55.3808 51.6525C52.8004 51.6525 49.3607 51.6525 45.9203 51.6525C42.48 51.6525 39.0397 51.6525 36.4599 51.6525C36.1375 51.6341 35.8285 51.6978 35.5341 51.6498C35.2403 51.5986 34.9612 51.5499 34.6995 51.5039C34.1752 51.4164 33.7183 51.3251 33.342 51.2501C32.5893 51.0989 32.1597 50.9944 32.1597 50.9944Z" fill="#121212"/>
<path d="M24.6972 50.6761L26.1985 51.9878L25.5464 51.9996L30.0645 48.9871L26.2132 52.7971L25.9474 53.0595L25.5611 52.8083L23.8872 51.7202L24.6972 50.6761Z" fill="#121212"/>
<path d="M28.9021 63.4229C28.9021 63.4229 28.8941 63.5064 28.8801 63.6628C28.8521 63.8167 28.8787 64.0547 28.7755 64.3335C28.7329 64.4742 28.6982 64.6359 28.6356 64.8029C28.557 64.964 28.4731 65.1389 28.3825 65.3256C28.2759 65.5038 28.1314 65.6741 27.9928 65.8667C27.833 66.039 27.6445 66.2053 27.4533 66.3901C27.0224 66.6859 26.5041 66.9976 25.8754 67.1041C25.7062 67.1284 25.5883 67.1757 25.3665 67.181C25.2159 67.181 25.0634 67.1803 24.9095 67.1803C24.7637 67.1928 24.5878 67.16 24.4033 67.1179C24.2255 67.0758 24.0256 67.0488 23.8578 66.9792C23.1724 66.7319 22.5423 66.2658 22.066 65.6458C21.6004 65.0126 21.3673 64.2197 21.334 63.4235L21.3433 63.2953L21.3506 63.2329L21.3646 63.1079L21.3926 62.8581C21.3953 62.7082 21.4592 62.4912 21.5278 62.2854C21.6377 61.8522 21.8575 61.53 22.064 61.1999C22.5409 60.5799 23.1691 60.1105 23.8565 59.8646C24.5472 59.6536 25.2579 59.5806 25.872 59.7404C26.1498 59.7719 26.4622 59.9133 26.7366 60.0257C27.0144 60.1375 27.2275 60.3222 27.454 60.4557C27.6458 60.6398 27.833 60.8074 27.9935 60.9797C28.1321 61.1723 28.2759 61.3439 28.3832 61.5215C28.4731 61.7075 28.5577 61.8831 28.6356 62.0441C28.6982 62.2105 28.7322 62.3722 28.7755 62.5129C28.8781 62.791 28.8521 63.0304 28.8801 63.1842C28.8941 63.3394 28.9021 63.4229 28.9021 63.4229ZM28.9021 63.4229C28.9021 63.4229 28.8927 63.3394 28.8754 63.1836C28.8421 63.031 28.8721 62.7904 28.7529 62.5175C28.7016 62.3801 28.6596 62.2236 28.5883 62.0632C28.4964 61.9133 28.3972 61.7516 28.2913 61.5793C28.1687 61.4189 28.0108 61.2696 27.8623 61.1026C27.6958 60.9521 27.488 60.8298 27.2915 60.6911C27.0617 60.6049 26.8399 60.4682 26.5941 60.4169C26.3436 60.3735 26.1231 60.2986 25.8114 60.3202C25.2666 60.2815 24.7284 60.4807 24.2448 60.7193C23.7672 60.9981 23.3822 61.4084 23.0858 61.864C22.9786 62.1165 22.8353 62.3617 22.7967 62.5879C22.7647 62.701 22.7121 62.7996 22.7088 62.9889L22.6855 63.2388L22.6742 63.3637L22.6682 63.4268L22.6655 63.4584L22.6642 63.4735L22.6635 63.4814C22.6648 63.4544 22.6595 63.5524 22.6662 63.4235C22.6895 63.9692 22.826 64.4978 23.0845 64.9844C23.3815 65.4407 23.7652 65.8529 24.2448 66.1304C24.36 66.202 24.4766 66.2336 24.5925 66.2947C24.7044 66.3519 24.8249 66.4118 24.9881 66.4308C25.1393 66.4611 25.2885 66.4913 25.4357 66.5209C25.5117 66.5367 25.6882 66.5255 25.8101 66.5301C26.3549 66.5551 26.8532 66.3657 27.2948 66.1573C27.492 66.0186 27.6991 65.8956 27.865 65.7444C28.0135 65.5774 28.1714 65.4288 28.2939 65.2677C28.3998 65.0942 28.4991 64.9324 28.591 64.7832C28.6616 64.6234 28.7036 64.4669 28.7549 64.3295C28.8734 64.0567 28.8434 63.816 28.8774 63.6628C28.8934 63.5064 28.9021 63.4229 28.9021 63.4229Z" fill="#121212"/>
<path d="M32.1606 62.9944C32.1606 62.9944 32.5909 62.8905 33.3429 62.7386C33.7193 62.6643 34.1762 62.5723 34.7004 62.4848C34.9629 62.4394 35.2413 62.3901 35.535 62.3388C35.8288 62.2909 36.1378 62.3546 36.4609 62.3362C39.0413 62.3362 42.481 62.3362 45.9213 62.3362C49.3617 62.3362 52.8013 62.3362 55.3817 62.3362C55.7041 62.3573 56.0132 62.2876 56.3076 62.3481C56.6014 62.3993 56.8804 62.4473 57.1422 62.494C57.6664 62.5815 58.124 62.6722 58.4997 62.7458C59.2524 62.8951 59.682 62.9944 59.682 62.9944C59.682 62.9944 59.2517 63.0936 58.4997 63.2429C58.124 63.3159 57.6664 63.4072 57.1422 63.4947C56.8804 63.5407 56.6014 63.5894 56.3076 63.6406C56.0139 63.7011 55.7048 63.6308 55.3817 63.6525C52.8013 63.6525 49.3617 63.6525 45.9213 63.6525C42.481 63.6525 39.0406 63.6525 36.4609 63.6525C36.1385 63.6341 35.8294 63.6978 35.535 63.6499C35.2413 63.5986 34.9622 63.5499 34.7004 63.5039C34.1762 63.4164 33.7193 63.3251 33.3429 63.2501C32.5903 63.0982 32.1606 62.9944 32.1606 62.9944Z" fill="#121212"/>
</g>
</svg>
