<svg width="80" height="80" viewBox="0 0 80 80" fill="none" xmlns="http://www.w3.org/2000/svg">
<mask id="mask0_2087_4906" style="mask-type:alpha" maskUnits="userSpaceOnUse" x="0" y="0" width="80" height="80">
<rect width="80" height="80" fill="#C4C4C4"/>
</mask>
<g mask="url(#mask0_2087_4906)">
<path d="M24.5675 48.2782C24.8047 52.5255 24.948 56.7735 25.1388 61.0209C25.1623 61.5519 25.1846 62.0823 25.1846 62.6139L25.1701 64.2069L25.1695 67.3929V73.7642L24.5675 73.1801H54.6191L54.017 73.7642V48.2782L54.6191 48.8623H47.1065H43.3499C42.0983 48.8629 40.8461 48.8582 39.5939 48.8746C38.3417 48.8746 37.0895 48.7893 35.8373 48.7507L32.0813 48.6018C29.5757 48.5083 27.0719 48.402 24.5675 48.2782ZM24.5675 48.2782C27.0719 48.1543 29.5757 48.048 32.0801 47.954L35.8361 47.805C37.0883 47.767 38.3405 47.6812 39.5927 47.6812C40.8449 47.6975 42.0971 47.6934 43.3487 47.6934H47.1053H54.6179H55.2199V48.2776V73.7637V74.3478H54.6179H24.5663H23.9643V73.7637V67.3923L23.9637 64.2063L23.9492 62.6133C23.9492 62.0823 23.9715 61.5519 23.995 61.0203C24.187 56.7735 24.3303 52.5261 24.5675 48.2782Z" fill="#121212"/>
<path d="M35.0865 48.8623C35.2214 49.3524 35.3388 49.8425 35.4495 50.3326L35.6019 51.0675C35.6422 51.3128 35.7349 51.5576 35.6976 51.8024C35.6801 52.2925 35.6928 52.7826 35.6885 53.2727V54.743L35.0865 54.1588H44.3161L43.7141 54.743V51.8029C43.7171 51.6808 43.7092 51.5582 43.7014 51.4355C43.6936 51.3134 43.7393 51.1907 43.7628 51.0681L43.9296 50.3332C44.047 49.8431 44.174 49.353 44.3167 48.8629C44.4588 49.353 44.5858 49.8431 44.7038 50.3332L44.8705 51.0681C44.894 51.1907 44.9392 51.3134 44.9319 51.4355C44.9235 51.5582 44.9163 51.6808 44.9193 51.8029V54.743V55.3271H44.3173H35.0865H34.4845V54.743V53.2727C34.4803 52.7826 34.4935 52.2925 34.4755 51.8024C34.4381 51.5576 34.5309 51.3128 34.5712 51.0675L34.7235 50.3326C34.8343 49.8425 34.9517 49.3524 35.0865 48.8623Z" fill="#121212"/>
<path d="M39.9272 29.6783C39.9272 29.6783 40.9952 29.5863 42.8637 29.4246C43.7979 29.3548 44.9324 29.2701 46.2336 29.1729C46.8849 29.1279 47.5765 29.079 48.307 29.0288C49.0369 28.9792 49.8045 29.0431 50.605 29.0261C52.2066 29.0261 53.942 29.0261 55.7768 29.0261C56.2527 29.0268 56.7359 29.0274 57.2245 29.0288C57.4725 29.0581 57.6641 29.0431 57.9632 29.109C58.2515 29.1677 58.5506 29.229 58.7912 29.3274C59.804 29.694 60.7531 30.2535 61.4897 31.1411C61.8768 31.6335 62.0724 32.0189 62.3493 32.4506C62.6108 32.8739 62.8729 33.3004 63.1377 33.7289C63.6673 34.5865 64.203 35.4545 64.7427 36.3297C65.8227 38.0801 66.9196 39.8579 68.0165 41.6357C69.1134 43.4135 70.2109 45.1912 71.2903 46.9416C71.83 47.8168 72.3657 48.6849 72.8953 49.5425C73.1601 49.9709 73.4229 50.3974 73.6837 50.8207L74.0742 51.4533L74.1226 51.5315L74.1467 51.5713L74.1972 51.6672L74.2778 51.8328C74.3309 51.9522 74.3874 52.0337 74.4364 52.1824C74.6535 52.8202 74.7059 53.3739 74.6407 53.9406C74.6219 54.223 74.5339 54.4956 74.466 54.7669C74.3497 55.0252 74.2771 55.2991 74.1071 55.5345L73.8759 55.8938L73.5822 56.2141C73.3718 56.4488 73.2186 56.5538 73.0384 56.7221C72.6903 57.0306 72.3469 57.3345 72.0081 57.6345C70.6525 58.8351 69.3708 59.9692 68.1879 61.0172C67.5823 61.5266 67.0641 62.0802 66.4821 62.512C65.9061 62.9502 65.359 63.3656 64.8455 63.7563C63.8185 64.5369 62.9233 65.2178 62.1853 65.7793C60.7074 66.8971 59.8471 67.5199 59.8471 67.5199C59.8471 67.5199 60.5649 66.7458 61.8472 65.4193C62.4898 64.758 63.2701 63.9545 64.166 63.0337C64.6136 62.5733 65.0895 62.0828 65.5915 61.5663C66.0875 61.0426 66.7032 60.5927 67.2812 60.0546C68.4648 59.0073 69.7458 57.8718 71.1021 56.6712C71.4409 56.3712 71.7843 56.0667 72.1318 55.7595C72.2904 55.6108 72.5169 55.436 72.611 55.3121L72.7965 55.1152L72.9437 54.8791C73.0606 54.733 73.0989 54.5373 73.185 54.3678C73.2253 54.1813 73.2932 53.9954 73.3026 53.8017C73.3604 53.4189 73.2831 52.9996 73.2058 52.71C73.187 52.6259 73.1083 52.4974 73.062 52.393L72.9813 52.2281L72.9712 52.2072C72.9813 52.2248 72.9343 52.1387 72.9914 52.2417L72.9672 52.202L72.9188 52.1237L72.5283 51.4911C72.2669 51.0679 72.0048 50.6413 71.7399 50.2129C71.2103 49.3553 70.6747 48.4873 70.135 47.6121C69.0549 45.8617 67.958 44.0839 66.8611 42.3061C65.7643 40.5283 64.6667 38.7505 63.5873 37.0001C63.0476 36.1249 62.512 35.2569 61.9823 34.3993C61.7175 33.9708 61.4547 33.5443 61.194 33.1211C60.9365 32.7135 60.6617 32.2282 60.4338 31.9517C59.9176 31.3165 59.1232 30.8346 58.3409 30.5581C58.1352 30.4726 57.9625 30.4492 57.7871 30.4029C57.6237 30.3507 57.3341 30.3559 57.1163 30.3298C56.6633 30.3298 56.2157 30.3305 55.7748 30.3311C53.9399 30.3311 52.2039 30.3311 50.6029 30.3311C49.8025 30.3142 49.0349 30.3774 48.305 30.3285C47.5744 30.2776 46.8829 30.2294 46.2316 30.1844C44.9304 30.0872 43.7959 30.0024 42.8616 29.9326C40.9952 29.7703 39.9272 29.6783 39.9272 29.6783Z" fill="#121212"/>
<path d="M56.7429 71.0241C58.5803 71.0241 60.0699 69.2331 60.0699 67.0238C60.0699 64.8145 58.5803 63.0234 56.7429 63.0234C54.9055 63.0234 53.416 64.8145 53.416 67.0238C53.416 69.2331 54.9055 71.0241 56.7429 71.0241Z" fill="white"/>
<path d="M53.416 67.0236C53.416 67.0236 53.4207 67.1123 53.4295 67.2792C53.4362 67.4455 53.4597 67.6908 53.5303 67.9934C53.5941 68.2973 53.7198 68.6586 53.9309 69.0355C54.1412 69.4099 54.4336 69.8122 54.8557 70.1266C55.265 70.4507 55.7993 70.6829 56.3672 70.7063C56.501 70.7168 56.665 70.705 56.7765 70.6927C56.9405 70.6705 57.1059 70.6444 57.2168 70.5987C57.4708 70.5192 57.7423 70.3861 57.9702 70.2114C58.4373 69.8709 58.8009 69.3714 59.0409 68.817C59.2795 68.2705 59.393 67.6151 59.3984 67.0497C59.387 66.8834 59.3957 66.6682 59.3715 66.5423C59.3581 66.4034 59.3366 66.258 59.305 66.1041C59.2459 65.8028 59.1565 65.5086 59.0382 65.2302C58.7989 64.6758 58.4333 64.1795 57.9675 63.8378C57.5011 63.4908 56.9452 63.3109 56.3531 63.3461C56.0944 63.35 55.8067 63.4289 55.5506 63.5182C55.3013 63.6311 55.06 63.7576 54.8563 63.9219C54.4343 64.2356 54.1419 64.638 53.9315 65.0123C53.7211 65.3893 53.5941 65.7506 53.5303 66.0545C53.4597 66.3571 53.4355 66.6023 53.4295 66.7686C53.4207 66.9356 53.416 67.0236 53.416 67.0236ZM53.416 67.0236C53.416 67.0236 53.4187 66.9343 53.4248 66.768C53.4261 66.601 53.4523 66.3564 53.5074 66.0493C53.5558 65.7401 53.6654 65.3736 53.8314 64.966C54.0041 64.5597 54.2716 64.1261 54.6581 63.7139C55.0512 63.305 55.5748 62.9391 56.2879 62.7702C56.9365 62.6091 57.7726 62.6776 58.4689 63.0454C59.1793 63.3995 59.7687 64.0008 60.1498 64.7071C60.3521 65.056 60.4966 65.4362 60.5914 65.8275C60.6445 66.0186 60.6794 66.2241 60.7023 66.4393C60.7352 66.6643 60.7278 66.8071 60.7413 66.9962C60.7258 67.8499 60.5564 68.6273 60.1471 69.3375C59.7667 70.0431 59.1753 70.6424 58.4676 70.9972C58.1167 71.1844 57.7444 71.2855 57.3519 71.3344C57.1401 71.3637 56.9782 71.3559 56.8189 71.3494C56.6092 71.3357 56.4506 71.3135 56.2751 71.2711C55.5903 71.1068 55.0465 70.7396 54.6594 70.332C54.2736 69.9198 54.0041 69.4875 53.8327 69.0812C53.666 68.6729 53.5558 68.3064 53.5074 67.9979C53.4523 67.6908 53.4261 67.4462 53.4248 67.2792C53.4187 67.1129 53.416 67.0236 53.416 67.0236Z" fill="#121212"/>
<path d="M40.0772 29.6783C40.0772 29.6783 39.0187 29.7702 37.1664 29.932C36.2402 30.0017 35.1151 30.0865 33.8247 30.1837C33.1794 30.2287 32.4939 30.2776 31.7694 30.3278C31.0462 30.3774 30.2847 30.3135 29.4909 30.3304C27.9028 30.3304 26.1828 30.3304 24.3635 30.3304C23.481 30.3532 22.413 30.2463 21.7926 30.5104C21.0056 30.7622 20.2267 31.2304 19.6654 31.8363C19.527 31.996 19.4289 32.1356 19.2965 32.3286L18.91 32.956C18.6506 33.3754 18.3905 33.798 18.1283 34.2232C17.6034 35.0736 17.0725 35.9344 16.5375 36.8018C15.4668 38.5366 14.3793 40.2993 13.2919 42.0615C12.2044 43.8243 11.117 45.5864 10.0463 47.3218C9.51063 48.1892 8.97966 49.0494 8.45542 49.8998C8.19263 50.325 7.93253 50.7476 7.67377 51.1669L7.28663 51.7943L7.09442 52.1061L7.0467 52.1837L7.02317 52.2228L7.0104 52.2424C7.0682 52.1387 7.02116 52.2254 7.03056 52.2071L6.95125 52.3708C6.90219 52.4765 6.83699 52.5939 6.8007 52.6904C6.78591 52.7706 6.76844 52.8482 6.74693 52.9252C6.69316 53.0693 6.70459 53.293 6.67838 53.4723C6.70459 53.8512 6.74492 54.2438 6.91765 54.5771C6.97411 54.7597 7.09912 54.8973 7.18851 55.0558C7.30747 55.2012 7.41097 55.3075 7.56489 55.4575C7.91304 55.7601 8.25513 56.0588 8.59387 56.3536C9.94816 57.5333 11.2285 58.6479 12.4101 59.677C12.9874 60.2065 13.6017 60.6467 14.0977 61.162C14.5998 61.6706 15.0763 62.1532 15.5233 62.6065C16.4185 63.5136 17.1982 64.3041 17.8407 64.9549C19.1224 66.2612 19.8402 67.0229 19.8402 67.0229C19.8402 67.0229 18.9826 66.4125 17.506 65.3175C16.7694 64.7677 15.8754 64.1006 14.8498 63.3349C14.337 62.9521 13.7919 62.5452 13.2166 62.1161C12.6352 61.6935 12.117 61.1483 11.5122 60.648C10.3306 59.6189 9.05023 58.5044 7.69594 57.3246C7.3572 57.0305 7.01443 56.7312 6.66696 56.4286C6.49086 56.2623 6.26638 56.036 6.09903 55.8201C5.95116 55.584 5.7744 55.3551 5.68299 55.0929C5.43431 54.5882 5.36105 54.0273 5.3335 53.4684C5.36441 53.1802 5.34896 52.918 5.44306 52.6043L5.57814 52.1458C5.62855 52.0193 5.68299 51.9241 5.73542 51.8106L5.81472 51.6476L5.86715 51.5524L5.89134 51.5132L5.93906 51.4356L6.13129 51.1239L6.51775 50.4965C6.77718 50.0765 7.03729 49.6546 7.30008 49.2294C7.82432 48.379 8.35527 47.5188 8.89094 46.6514C9.9616 44.916 11.0491 43.1539 12.1365 41.3911C13.224 39.6283 14.3108 37.8661 15.3814 36.1314C15.9171 35.2634 16.4481 34.4032 16.9723 33.5527C17.2351 33.1275 17.4952 32.7049 17.7547 32.2856L18.1411 31.6582C18.2829 31.4469 18.4664 31.1834 18.6499 30.9793C19.4201 30.1537 20.3591 29.6007 21.3807 29.2681C21.6367 29.1826 21.9486 29.1291 22.2235 29.0731L22.575 29.045L22.7504 29.0307L22.8479 29.0261H22.8915H22.9789C23.4454 29.0261 23.9071 29.0261 24.3621 29.0261C26.1815 29.0261 27.9014 29.0261 29.4896 29.0261C30.2833 29.0431 31.0442 28.9798 31.768 29.0287C32.4919 29.0796 33.1781 29.1278 33.8233 29.1728C35.1138 29.27 36.2389 29.3548 37.165 29.4246C39.0187 29.5863 40.0772 29.6783 40.0772 29.6783Z" fill="#121212"/>
<path d="M57.2535 44.2149C56.8755 43.6079 56.3661 43.0496 55.9115 42.4115L54.8313 43.1747C55.319 43.7897 55.7125 44.4308 56.1933 44.965C56.6134 45.4435 57.0139 45.9001 57.3936 46.3329L57.5374 46.4968L59.7233 48.9883C60.94 50.3664 61.6519 51.1418 61.6519 51.1418C61.6519 51.1418 61.1082 50.2474 60.1261 48.7032C59.6329 47.933 59.0347 46.9978 58.3476 45.9243C58.0046 45.388 57.6389 44.8169 57.2535 44.2149Z" fill="#121212"/>
<path d="M22.7651 44.2149C23.1431 43.6078 23.6525 43.0495 24.1071 42.4115L25.1873 43.1746C24.6996 43.7897 24.3061 44.4307 23.8253 44.965C23.4055 45.4431 23.0053 45.8993 22.6258 46.3319L22.4812 46.4968C21.6372 47.4589 20.9015 48.2974 20.2953 48.9883C19.0786 50.3663 18.3667 51.1417 18.3667 51.1417C18.3667 51.1417 18.9104 50.2474 19.8925 48.7032C20.3857 47.933 20.9839 46.9977 21.671 45.9243C22.014 45.388 22.3797 44.8168 22.7651 44.2149Z" fill="#121212"/>
<path d="M23.1502 71.0239C24.9876 71.0239 26.4771 69.2329 26.4771 67.0235C26.4771 64.8142 24.9876 63.0232 23.1502 63.0232C21.3128 63.0232 19.8232 64.8142 19.8232 67.0235C19.8232 69.2329 21.3128 71.0239 23.1502 71.0239Z" fill="white"/>
<path d="M26.4781 67.0235C26.4781 67.0235 26.4754 67.1128 26.4693 67.2791C26.468 67.4461 26.4418 67.6906 26.3867 67.9978C26.3383 68.3069 26.2281 68.6728 26.0614 69.081C25.8893 69.4873 25.6205 69.9197 25.2347 70.3319C24.8476 70.7395 24.3032 71.1066 23.619 71.271C23.4435 71.3134 23.2849 71.3355 23.0752 71.3492C22.9159 71.3558 22.754 71.3629 22.5423 71.3342C22.1497 71.286 21.7774 71.1849 21.4266 70.9971C20.7188 70.6423 20.1274 70.043 19.747 69.3373C19.3383 68.6271 19.169 67.8497 19.1528 66.9961C19.1663 66.8076 19.1589 66.6641 19.1918 66.4391C19.2147 66.2239 19.2496 66.0178 19.3027 65.8274C19.3981 65.4361 19.542 65.0559 19.7443 64.707C20.1254 64.0007 20.7148 63.3994 21.4252 63.0453C22.1215 62.6781 22.9576 62.609 23.6062 62.7701C24.3193 62.939 24.8429 63.3048 25.236 63.7137C25.6225 64.1259 25.8907 64.5596 26.0627 64.9659C26.2287 65.3735 26.3383 65.7407 26.3867 66.0491C26.4418 66.3563 26.468 66.6009 26.4693 66.7678C26.4754 66.9348 26.4781 67.0235 26.4781 67.0235ZM26.4781 67.0235C26.4781 67.0235 26.4734 66.9348 26.4646 66.7678C26.4579 66.6015 26.4344 66.3563 26.3638 66.0537C26.3 65.7498 26.1736 65.3885 25.9626 65.0115C25.7522 64.6372 25.4599 64.2355 25.0378 63.9211C24.8341 63.7568 24.5928 63.6303 24.3435 63.5174C24.0874 63.4281 23.7991 63.3492 23.541 63.3453C22.9482 63.3101 22.393 63.49 21.9266 63.837C21.4615 64.1781 21.0959 64.675 20.8559 65.2294C20.737 65.5078 20.6476 65.802 20.5891 66.1033C20.5575 66.2572 20.536 66.4026 20.5226 66.5415C20.4984 66.6674 20.5071 66.8826 20.4957 67.0489C20.5011 67.6143 20.6147 68.2697 20.8533 68.8162C21.0925 69.3706 21.4561 69.8695 21.9239 70.2106C22.1518 70.3853 22.4233 70.5184 22.6773 70.5979C22.7882 70.6429 22.9536 70.669 23.1176 70.6919C23.2291 70.7042 23.3931 70.7153 23.5269 70.7056C24.0948 70.6821 24.6291 70.4499 25.0384 70.1258C25.4605 69.8121 25.7529 69.4091 25.9633 69.0347C26.1736 68.6578 26.3 68.2965 26.3638 67.9926C26.4344 67.69 26.4586 67.4447 26.4646 67.2784C26.4734 67.1121 26.4781 67.0235 26.4781 67.0235Z" fill="#121212"/>
<path d="M51.1742 16.652C51.1742 16.652 51.1642 16.9265 51.146 17.4418C51.1185 17.9544 51.062 18.7141 50.892 19.6721C50.8308 20.1587 50.6816 20.6778 50.5579 21.2621C50.3832 21.8282 50.2151 22.4575 49.9356 23.096C49.8112 23.4221 49.66 23.7494 49.4819 24.0768C49.3098 24.4075 49.1304 24.7486 48.9072 25.0766C48.6888 25.4079 48.4549 25.7424 48.1578 26.0411C47.8722 26.349 47.596 26.675 47.266 26.9698C46.0031 28.1757 44.3672 29.3326 42.3213 29.8589C41.8058 29.9639 41.2896 30.1021 40.7432 30.1113L40.3366 30.1393L40.1322 30.153L40.0812 30.1563L39.9851 30.1517L39.8903 30.1452C39.6382 30.1276 39.3849 30.1093 39.1295 30.0917C38.8868 30.0911 38.5844 30.0095 38.3048 29.9574C38.0272 29.8895 37.7194 29.8589 37.4647 29.7545C36.9337 29.5758 36.3974 29.3952 35.902 29.1252C35.3805 28.8989 34.9255 28.5657 34.4409 28.2683C34.2117 28.1033 33.9946 27.9233 33.7701 27.7498C33.5423 27.5796 33.3265 27.3963 33.1269 27.1955C32.2713 26.4442 31.5723 25.5403 30.909 24.6142C29.6548 22.7158 28.7367 20.5526 28.4323 18.2524C28.3805 17.9674 28.3536 17.6791 28.3462 17.3876C28.3375 17.0863 28.3032 16.8333 28.3173 16.4916L28.3597 15.6692C28.3731 15.3959 28.4403 15.0829 28.4807 14.792C28.6917 13.626 29.0405 12.5186 29.6051 11.5006C30.1582 10.4871 30.8391 9.54409 31.659 8.74585C32.4824 7.95413 33.3964 7.27066 34.3844 6.74111C36.3691 5.70091 38.573 5.23331 40.6377 5.35135C40.885 5.36831 41.1129 5.36309 41.3716 5.39831C41.631 5.43548 41.8878 5.47266 42.1425 5.50918C42.6573 5.577 43.1164 5.72961 43.5922 5.83917C44.5103 6.14568 45.3861 6.49198 46.1489 6.96089C46.5441 7.17414 46.899 7.42718 47.2485 7.6737C47.6141 7.90065 47.9105 8.19738 48.1975 8.48172C48.4885 8.7628 48.7143 9.08888 48.961 9.37583C49.1936 9.67518 49.3737 9.9993 49.5693 10.2915C50.2837 11.5182 50.6211 12.6895 50.8436 13.6351C51.0432 14.5918 51.1171 15.3464 51.1447 15.8616C51.1648 16.3774 51.1742 16.652 51.1742 16.652ZM51.1742 16.652C51.1742 16.652 51.1561 16.3781 51.1205 15.8635C51.1191 15.6053 51.0519 15.2929 50.9733 14.9277C50.9188 14.5586 50.7703 14.1523 50.609 13.7023C50.2528 12.814 49.6707 11.7927 48.7923 10.8223C48.3514 10.3397 47.8561 9.85778 47.2902 9.40975C46.7135 8.97932 46.1671 8.44846 45.458 8.07999C44.7832 7.66261 44.0063 7.36001 43.195 7.08545C42.7797 6.99284 42.3509 6.84937 41.9261 6.79654C41.7137 6.76459 41.4986 6.73198 41.2836 6.70002C41.0665 6.66741 40.8084 6.67133 40.5698 6.65437C38.7437 6.54807 36.7885 6.96545 35.0323 7.88434C34.1572 8.35325 33.348 8.96041 32.6174 9.66018C31.8902 10.3665 31.2907 11.2032 30.8001 12.0986C30.3 12.9875 29.9915 13.9997 29.8107 14.9838C29.7778 15.2355 29.7166 15.4598 29.7032 15.735L29.6602 16.5574C29.6494 16.7642 29.681 17.0602 29.6891 17.3081C29.6938 17.567 29.718 17.8259 29.7657 18.0835C30.0359 20.1567 30.8827 22.1588 32.0334 23.8988C33.2203 25.6068 34.7332 27.1107 36.5143 27.9644C36.9478 28.2037 37.4089 28.3543 37.8639 28.5096C38.0924 28.6048 38.3122 28.6133 38.534 28.6726C38.7612 28.7137 38.954 28.788 39.2256 28.7913C39.481 28.8089 39.7344 28.8272 39.9864 28.8448C40.1443 28.863 40.4266 28.82 40.6383 28.8122C41.0987 28.8096 41.5376 28.685 41.9752 28.5996C43.7179 28.1548 45.1764 27.1381 46.3176 26.0464C46.9084 25.5103 47.3513 24.8842 47.8157 24.3266C48.0658 24.0586 48.2761 23.7716 48.4805 23.4905C48.6969 23.2166 48.8998 22.9447 49.0706 22.6636C49.4543 22.1236 49.7427 21.5771 50.0283 21.073C50.2568 20.5499 50.5183 20.0745 50.6439 19.6134C50.7186 19.3852 50.7898 19.1687 50.8557 18.9652C50.9121 18.7591 50.9404 18.5615 50.9807 18.3796C51.0586 18.0143 51.1185 17.7 51.1205 17.4418C51.1561 16.9265 51.1742 16.652 51.1742 16.652Z" fill="#121212"/>
</g>
</svg>
