<svg width="80" height="80" viewBox="0 0 80 80" fill="none" xmlns="http://www.w3.org/2000/svg">
<mask id="mask0_2087_4980" style="mask-type:alpha" maskUnits="userSpaceOnUse" x="0" y="0" width="80" height="80">
<rect width="80" height="80" fill="#C4C4C4"/>
</mask>
<g mask="url(#mask0_2087_4980)">
<path d="M8 48.1796C10.1375 48.0848 12.2757 47.9795 14.4132 47.9075L20.8264 47.6701L24.033 47.5504C25.1021 47.4987 26.1705 47.5039 27.2403 47.5196L33.6528 47.5255H59.3056H60.0035L59.9715 48.2005C59.9395 48.8919 59.8655 49.5271 59.7775 50.1831C59.6909 50.8346 59.5742 51.4789 59.4483 52.1225C59.315 52.7642 59.1717 53.4046 59.0004 54.0377C58.8331 54.6716 58.6491 55.3021 58.4378 55.9242C58.2346 56.5482 58.0059 57.165 57.7573 57.7746C57.514 58.3862 57.2401 58.986 56.9542 59.5806C56.6649 60.1738 56.351 60.7553 56.0204 61.329C55.6778 61.8948 55.3352 62.4625 54.9466 63.0022C53.4363 65.1849 51.5234 67.1204 49.3006 68.6294C48.7541 69.0192 48.1648 69.3482 47.5856 69.6864C46.9878 69.9932 46.3986 70.3189 45.7727 70.5688C45.1622 70.8533 44.527 71.0731 43.8925 71.2949C43.2606 71.5244 42.6041 71.6729 41.9609 71.8652L42.4648 71.2307V74.0126V74.6667H41.7983H25.9179H25.2514V74.0126V71.2307L25.788 71.8718C25.0788 71.7043 24.4489 71.5159 23.8137 71.2707C23.1739 71.0496 22.5687 70.7591 21.9535 70.4883C21.3656 70.1685 20.7451 69.9023 20.1852 69.534C19.6147 69.186 19.0342 68.8492 18.5049 68.441C17.9611 68.0538 17.4152 67.6672 16.9233 67.2165C16.4201 66.7796 15.8949 66.3649 15.4483 65.8704C14.9924 65.3877 14.4805 64.9514 14.074 64.4255C13.6647 63.9016 13.2721 63.3672 12.8782 62.836C12.5236 62.2774 12.1944 61.7051 11.8531 61.1426C11.4912 60.5905 11.2279 59.9881 10.9507 59.3942C10.6867 58.795 10.3648 58.222 10.1515 57.6052L9.50832 55.7613C9.27038 55.1556 9.12641 54.5224 8.97978 53.8919L8.53056 52.0054C8.40259 51.3729 8.34927 50.7273 8.25462 50.0902L8 48.1796ZM8 48.1796L8.42459 50.0602C8.57588 50.6835 8.68585 51.3147 8.86915 51.9276L9.46034 53.7532C9.65096 54.3622 9.83892 54.9705 10.1182 55.5467L10.882 57.2965C11.134 57.8793 11.4905 58.4124 11.7878 58.971C12.0991 59.5237 12.3943 60.0829 12.7829 60.5866C13.1522 61.1007 13.5068 61.6233 13.882 62.1283C14.2966 62.6051 14.7131 63.078 15.1137 63.5627C15.499 64.0599 15.9709 64.4824 16.3934 64.9488C16.814 65.4191 17.3125 65.8076 17.7878 66.2217C18.2523 66.6488 18.7689 67.0131 19.2828 67.3794C19.7827 67.766 20.3305 68.0819 20.8697 68.4116C21.397 68.7602 21.9828 69.0081 22.536 69.3116C23.1139 69.5648 23.6851 69.8408 24.2796 70.0449C24.8595 70.2731 25.4867 70.4537 26.0466 70.5884L26.5831 70.7173V71.2294V74.0113L25.9166 73.3572H41.797L41.1304 74.0113V71.2294V70.7474L41.6343 70.5956C42.2415 70.4125 42.8654 70.2731 43.4599 70.0566C44.0578 69.8473 44.6576 69.64 45.2302 69.3725C45.8194 69.1383 46.3706 68.8309 46.9325 68.5444C47.475 68.2258 48.0289 67.919 48.5394 67.5527L49.3113 67.0098L50.0471 66.4205C50.2984 66.2315 50.521 66.0091 50.7556 65.8004C50.9882 65.5891 51.2248 65.3824 51.4374 65.1515L52.0906 64.4739L52.7071 63.7622C53.0997 63.273 53.497 62.7857 53.8455 62.2624C54.2128 61.7535 54.5374 61.2145 54.8626 60.6775C55.1772 60.1333 55.4758 59.5799 55.7511 59.0148C56.023 58.4477 56.2857 57.876 56.5176 57.2906C56.7555 56.7078 56.9748 56.1171 57.1695 55.5186C57.3721 54.9221 57.5487 54.317 57.7093 53.7081C57.8746 53.0998 58.0119 52.4849 58.1399 51.8681C58.2612 51.2506 58.3732 50.6299 58.4558 50.0078C58.5392 49.3917 58.6111 48.7493 58.6385 48.158L59.305 48.8324H33.6521L27.2396 48.8383C26.1705 48.854 25.1014 48.8592 24.0324 48.8076L20.8257 48.6879L14.4125 48.4504C12.2764 48.3798 10.1382 48.2745 8 48.1796Z" fill="#121212"/>
<path d="M14.1473 54.3289C14.1513 54.3413 14.17 54.4839 14.2386 54.7808C14.308 55.0739 14.4139 55.4984 14.5812 55.9988C14.7405 56.5024 14.9645 57.0793 15.2337 57.6883C15.5137 58.292 15.8276 58.935 16.2089 59.5414C16.3855 59.854 16.5928 60.1464 16.7907 60.4395C16.9813 60.739 17.2093 61.0033 17.4126 61.2747C17.6119 61.5501 17.8425 61.783 18.0444 62.0211C18.2451 62.2605 18.4543 62.4685 18.651 62.6582C19.0309 63.0519 19.3808 63.3463 19.6274 63.551C19.872 63.759 20.012 63.8781 20.012 63.8781C20.012 63.8781 19.8594 63.7754 19.5927 63.5955C19.3228 63.4182 18.9389 63.1625 18.511 62.8093C18.2911 62.6398 18.0544 62.4534 17.8245 62.2343C17.5925 62.0171 17.3293 61.8039 17.0947 61.5475C16.8574 61.2944 16.5908 61.0478 16.3608 60.7639C16.1235 60.4859 15.8749 60.2073 15.655 59.9064C15.1898 59.3229 14.7872 58.6937 14.4219 58.0952C14.0673 57.4908 13.7614 56.9093 13.5301 56.3938C13.2922 55.883 13.1256 55.4395 13.0116 55.1249C12.9003 54.8122 12.8436 54.6003 12.8463 54.6127L14.1473 54.3289Z" fill="#121212"/>
<path d="M21.9819 46.0595C21.9819 46.0595 21.8766 45.6769 21.7226 45.0071C21.6473 44.6715 21.554 44.2647 21.4653 43.7983C21.4194 43.5648 21.3694 43.3169 21.3174 43.0546C21.2687 42.7929 21.3334 42.5176 21.3147 42.2304C21.3307 41.8654 21.3214 41.6574 21.3907 41.2538C21.4407 40.881 21.534 40.5474 21.6579 40.1942C21.9052 39.4956 22.3065 38.8055 22.8537 38.2044C23.9341 36.9924 25.6504 36.1852 27.41 36.1977L28.0325 36.2304C28.2591 36.2637 28.4944 36.2886 28.711 36.3363C29.1369 36.4325 29.5535 36.5613 29.9441 36.7406C30.7292 37.0925 31.4211 37.6033 31.9663 38.2044C32.5135 38.8049 32.9147 39.4956 33.162 40.1942C33.4139 40.8895 33.5026 41.6064 33.5059 42.2304C33.4846 42.5169 33.5553 42.7923 33.4939 43.0546C33.4419 43.3162 33.3933 43.5641 33.346 43.7983C33.2573 44.2647 33.1653 44.6715 33.0907 45.0071C32.9394 45.6769 32.8387 46.0595 32.8387 46.0595C32.8387 46.0595 32.7381 45.6769 32.5868 45.0071C32.5128 44.6715 32.4202 44.2647 32.3315 43.7983C32.2849 43.5648 32.2356 43.3169 32.1836 43.0546C32.1222 42.7929 32.1936 42.5176 32.1716 42.2304C32.1662 41.7071 32.0989 41.1747 31.9029 40.6259C31.711 40.0824 31.3984 39.5447 30.9705 39.075C30.5439 38.6054 30.0034 38.2051 29.3909 37.931C29.0856 37.7904 28.7603 37.6916 28.4291 37.6151C28.2665 37.5791 28.1132 37.566 27.9552 37.5366L27.4106 37.5059C26.031 37.498 24.6966 38.1279 23.8495 39.075C23.4209 39.5447 23.109 40.083 22.917 40.6259C22.821 40.8921 22.743 41.1819 22.713 41.4219C22.6611 41.628 22.6577 42.0218 22.6477 42.2298C22.6291 42.5163 22.6937 42.7916 22.6451 43.0539C22.5931 43.3156 22.5437 43.5635 22.4971 43.7976C22.4084 44.264 22.3158 44.6709 22.2398 45.0064C22.0872 45.6769 21.9819 46.0595 21.9819 46.0595Z" fill="#121212"/>
<path d="M30.2088 37.2764L29.5422 46.5901L28.8755 37.2764H30.2088Z" fill="#121212"/>
<path d="M26.4569 37.2764L25.7902 46.5901L25.1235 37.2764H26.4569Z" fill="#121212"/>
<path d="M31.7837 37.1749C31.7837 37.1749 31.973 37.0179 32.3136 36.772C32.3989 36.7111 32.4935 36.6444 32.5968 36.5718C32.7148 36.5149 32.8494 36.4626 32.9974 36.4018C33.1514 36.3429 33.3153 36.2794 33.488 36.2134C33.5319 36.1983 33.5786 36.1859 33.6246 36.1826C33.7419 36.1781 33.7252 36.1905 33.7826 36.1964C33.8625 36.2095 33.9452 36.2121 34.0292 36.216C34.1858 36.2173 34.3924 36.2441 34.609 36.2781C34.8277 36.3036 35.0323 36.354 35.2402 36.409C35.6621 36.5116 36.0874 36.685 36.5099 36.8936C36.9232 37.1173 37.3364 37.3809 37.7037 37.7106C38.0842 38.0246 38.4035 38.4144 38.7001 38.8141C38.9714 39.2314 39.2226 39.6664 39.3806 40.1308C39.5606 40.5873 39.6506 41.0635 39.7139 41.5234C39.7299 41.7523 39.7425 41.9897 39.7485 42.2003C39.7485 42.3998 39.7485 42.5948 39.7485 42.7845C39.7485 43.1638 39.7485 43.5223 39.7485 43.8533C39.7265 44.0187 39.7985 44.1777 39.7365 44.3288C39.6845 44.4792 39.6359 44.6225 39.5886 44.7572C39.4999 45.0261 39.4079 45.2609 39.3333 45.4532C39.182 45.8398 39.0814 46.0602 39.0814 46.0602C39.0814 46.0602 38.9807 45.8398 38.8294 45.4532C38.7554 45.2602 38.6628 45.0261 38.5741 44.7572C38.5275 44.6225 38.4782 44.4792 38.4262 44.3288C38.3642 44.1783 38.4368 44.0187 38.4142 43.8533C38.4142 43.5223 38.4142 43.1638 38.4142 42.7845C38.4142 42.5948 38.4142 42.3998 38.4142 42.2003C38.4048 42.0237 38.3962 41.8439 38.3868 41.6607C38.3355 41.3023 38.2682 40.9321 38.1262 40.5769C38.0056 40.2145 37.8056 39.8776 37.597 39.5506C37.3624 39.2405 37.1171 38.9331 36.8172 38.6891C36.5306 38.4301 36.2067 38.226 35.8847 38.0501C35.5542 37.8885 35.2229 37.7512 34.8936 37.672C34.7283 37.6288 34.569 37.5883 34.4257 37.5739C34.2824 37.5504 34.1418 37.5248 33.9605 37.5222C33.8765 37.5177 33.7939 37.5124 33.7132 37.5177C33.6899 37.5222 33.5933 37.5209 33.6319 37.5262C33.5999 37.5294 33.568 37.5242 33.5366 37.515C33.4027 37.4751 33.276 37.4372 33.1574 37.4019C33.0274 37.3646 32.9054 37.3299 32.7928 37.2979C32.6675 37.2848 32.5515 37.273 32.4462 37.2619C32.0283 37.2174 31.7837 37.1749 31.7837 37.1749Z" fill="#121212"/>
<path d="M36.4505 37.2764L35.7839 46.5901L35.1172 37.2764H36.4505Z" fill="#121212"/>
<path d="M27.4106 36.8516V33.4739" stroke="#121212" stroke-width="2" stroke-miterlimit="10"/>
<path d="M34.0605 36.8516V33.4739" stroke="#121212" stroke-width="2" stroke-miterlimit="10"/>
<path d="M21.9817 28.5735C22.179 30.2074 22.3596 31.8407 22.5035 33.4747L21.9817 32.9618L23.494 32.8264C23.9985 32.7728 24.5024 32.8291 25.0063 32.8199H28.0309H34.0789H46.1755H58.2721H61.296L62.8084 32.816C63.3129 32.7852 63.8168 32.8245 64.3207 32.8762C66.3369 33.0541 68.3538 33.2405 70.3693 33.4747C68.3538 33.7088 66.3369 33.8952 64.3207 34.0732C63.8168 34.1248 63.3129 34.1641 62.8084 34.1333L61.296 34.1294H58.2721H46.1755H34.0789H28.0309H25.0063C24.5024 34.1203 23.9985 34.1765 23.494 34.1229L21.9817 33.9875L21.4185 33.9371L21.4598 33.4747C21.6037 31.8407 21.7844 30.2068 21.9817 28.5735Z" fill="#121212"/>
<path d="M69.7018 33.4739L69.7638 28.5734L70.3683 29.166L21.98 28.5734L70.3683 27.9808L70.9641 27.9729L70.9721 28.5734L71.0348 33.4739H69.7018Z" fill="#121212"/>
<path d="M21.9804 29.1686C21.5671 28.1934 21.2319 27.1815 20.9599 26.1519C20.83 25.6359 20.708 25.1165 20.6087 24.5913C20.5087 24.0667 20.4168 23.5375 20.3561 23.0044C20.2875 22.472 20.2501 21.935 20.2214 21.396C20.1981 21.1265 20.2108 20.8557 20.2048 20.5856C20.2028 20.3141 20.1948 20.0426 20.2161 19.7719C20.2368 19.2283 20.2701 18.6828 20.3554 18.1399C20.3854 17.8671 20.4374 17.5976 20.5141 17.3327L20.726 16.5354L20.7133 16.5857C20.8233 16.1651 20.928 15.8087 21.0673 15.4391C21.1946 15.0708 21.3539 14.717 21.5078 14.3618C21.6751 14.0132 21.8471 13.6658 22.0337 13.3264C22.2363 12.9967 22.4136 12.6507 22.6382 12.3341C22.8655 12.0195 23.0668 11.6865 23.3161 11.3883C23.5654 11.09 23.8006 10.7799 24.0632 10.4928L24.8797 9.6562C25.1683 9.3939 25.4716 9.14731 25.7675 8.89286C26.0548 8.6273 26.3927 8.42649 26.71 8.19821C27.0306 7.97582 27.3472 7.74426 27.6978 7.56962L28.7262 7.00513C29.0814 6.84422 29.4447 6.69901 29.8039 6.54595C30.1619 6.38897 30.5231 6.2418 30.901 6.14303L32.0208 5.80617C32.392 5.68385 32.7806 5.64395 33.1598 5.56022L34.3043 5.33979L34.3402 5.33325H34.4009H67.8572H67.9019L67.9259 5.33652C68.6071 5.43725 69.1283 5.64853 69.6615 5.96184C70.1807 6.27254 70.6386 6.69051 70.9965 7.1752C71.3598 7.66185 71.5851 8.21522 71.759 8.76858C71.8983 9.33373 71.983 9.87794 71.9856 10.4614V16.6093C71.987 17.1221 72.0076 17.6343 71.997 18.1464C71.9843 18.6586 71.943 19.1707 71.917 19.6835L71.7397 22.7578C71.6204 24.8071 71.5111 26.8564 71.3624 28.9057L71.3591 28.9508L71.3191 28.9482L70.6733 28.9057L71.3191 28.8632L71.2765 28.9057C71.1272 26.8564 71.0179 24.8071 70.8992 22.7578L70.7219 19.6835C70.6959 19.1714 70.6539 18.6592 70.642 18.1464C70.6306 17.6343 70.6519 17.1221 70.6533 16.6093V10.4614C70.6533 10.0192 70.5793 9.545 70.474 9.1146C70.3374 8.69271 70.1734 8.28128 69.9141 7.93788C69.6582 7.59447 69.3396 7.30144 68.9677 7.07839C68.6131 6.85665 68.1399 6.68985 67.7886 6.63818L67.8572 6.64145H34.4009L34.4969 6.63491L33.4278 6.84226C33.0739 6.92141 32.7073 6.95607 32.364 7.07119L31.3256 7.38451C30.9743 7.47477 30.6417 7.61148 30.3118 7.75669L29.3194 8.17793L28.3783 8.69598C28.0557 8.85492 27.7684 9.06751 27.4751 9.27093C27.1865 9.47959 26.8753 9.66012 26.6147 9.90476C26.3454 10.1376 26.0681 10.3613 25.8042 10.6001L25.0597 11.3634C24.8204 11.625 24.6065 11.9096 24.3778 12.181C24.1492 12.4531 23.9673 12.7592 23.7586 13.0464C23.552 13.3355 23.3914 13.6527 23.2048 13.9543C23.0341 14.2643 22.8782 14.5822 22.7242 14.9008C22.5842 15.2245 22.4383 15.547 22.3237 15.8786C22.203 16.2018 22.0924 16.5543 22.0284 16.8513L22.0157 16.9017C21.9091 17.3962 21.7718 17.8795 21.6771 18.378L21.5112 19.1217L21.3872 19.8772C21.3399 20.129 21.3192 20.3841 21.2926 20.6398C21.2712 20.8956 21.2299 21.1507 21.2239 21.4078C21.1946 21.9225 21.1732 22.4386 21.1826 22.9573C21.1792 23.4754 21.2026 23.996 21.2366 24.5154C21.2699 25.036 21.3252 25.5554 21.3892 26.0754C21.5258 27.1089 21.7058 28.1483 21.9804 29.1686Z" fill="#121212"/>
<path d="M23.3521 20.842C23.3521 20.842 23.3607 20.7765 23.3767 20.6542C23.3934 20.5201 23.4254 20.337 23.4707 20.1139C23.564 19.6639 23.714 19.0294 23.9766 18.2982C24.0965 17.9292 24.2625 17.542 24.4365 17.1345C24.6171 16.7303 24.8304 16.3123 25.063 15.8898C25.3163 15.477 25.5535 15.0394 25.8655 14.6365C26.0161 14.4318 26.1587 14.2212 26.3167 14.0197L26.8213 13.4362C27.1405 13.0333 27.5411 12.703 27.8983 12.3491C28.2589 11.9966 28.6795 11.7218 29.0487 11.419C29.4267 11.1253 29.8419 10.9094 30.2072 10.6694C30.5684 10.4215 30.9603 10.2704 31.2989 10.0971C31.6462 9.94007 31.9468 9.75888 32.246 9.66993C32.5373 9.56527 32.7906 9.47435 32.9999 9.39913C33.4164 9.24934 33.6544 9.16431 33.6544 9.16431C33.6544 9.16431 33.4237 9.26896 33.0212 9.4508C32.8205 9.54172 32.5766 9.65227 32.2967 9.77916C32.0101 9.8897 31.7268 10.0944 31.3982 10.2763C31.0789 10.4745 30.7097 10.6504 30.3764 10.9232C30.0392 11.1868 29.6546 11.4268 29.3127 11.7415C28.9788 12.0652 28.5982 12.3589 28.2802 12.7259C27.9657 13.0948 27.6111 13.4362 27.3405 13.8457L26.9092 14.4357C26.7766 14.6385 26.6573 14.8497 26.5327 15.0532C26.2707 15.4541 26.0821 15.8865 25.8775 16.2907C25.6935 16.7041 25.5275 17.1097 25.3909 17.4995C25.2609 17.8926 25.1363 18.2628 25.055 18.6134C24.869 19.3081 24.7817 19.8987 24.7324 20.3062C24.7091 20.5129 24.6944 20.6686 24.6904 20.7667C24.6851 20.876 24.6817 20.9348 24.6817 20.9348L23.3521 20.842Z" fill="#121212"/>
<path d="M59.7425 20.1914C59.7425 20.1914 59.172 20.4609 58.1622 20.8991C57.6377 21.0705 56.9898 21.304 56.2286 21.5133C55.8474 21.6016 55.4415 21.6952 55.0136 21.7939C54.583 21.9019 54.1185 21.8639 53.6399 21.8927C53.1553 21.9064 52.6728 21.9359 52.1322 21.9378C51.623 21.9215 51.1172 21.9306 50.5526 21.8835C49.4355 21.8293 48.2938 21.6788 47.1061 21.4545C45.923 21.2268 44.7093 20.8998 43.5202 20.4007C42.3398 19.9016 41.1434 19.2357 40.231 18.1087C39.7991 17.5115 39.4751 16.8228 39.5191 15.9397C39.5405 15.7834 39.5465 15.6474 39.5818 15.4747C39.6411 15.2726 39.7091 15.0691 39.7844 14.8722C39.9624 14.5334 40.1396 14.211 40.3816 13.9559C41.3067 12.8792 42.4805 12.2853 43.6035 11.8084C44.7366 11.3368 45.8717 11.034 46.9554 10.8175C48.0385 10.5905 49.0749 10.4682 50.0314 10.391C50.2707 10.3747 50.5053 10.3629 50.7346 10.3393C50.9632 10.304 51.1878 10.306 51.4071 10.3295C51.6257 10.3505 51.8383 10.3707 52.0463 10.3904C52.1556 10.4015 52.2636 10.4126 52.3695 10.4237C52.4669 10.4388 52.5635 10.4538 52.6588 10.4688C53.4173 10.5918 54.0738 10.6795 54.6217 10.8096C55.7154 11.0798 56.3153 11.2466 56.3153 11.2466C56.3153 11.2466 55.6901 11.2675 54.595 11.3035C54.0565 11.3185 53.3826 11.4121 52.6201 11.4631C52.5242 11.4709 52.4275 11.4788 52.3289 11.4873C52.2389 11.4997 52.1482 11.5128 52.0549 11.5259C51.8576 11.554 51.655 11.5834 51.4471 11.6135C51.0318 11.673 50.5933 11.6475 50.1374 11.694C49.2276 11.7672 48.2431 11.8837 47.226 12.0969C46.2069 12.3003 45.1452 12.5855 44.1208 13.012C43.107 13.4332 42.0739 13.9964 41.4107 14.7853C41.2274 14.9691 41.1208 15.1967 41.0081 15.3883C40.9808 15.4779 40.9455 15.5617 40.9028 15.6474C40.8735 15.771 40.8635 15.9424 40.8428 16.0882L40.8362 16.1451L40.8328 16.1733L40.8308 16.187C40.8288 16.2086 40.8388 16.0542 40.8355 16.1242L40.8488 16.206L40.8688 16.3695C40.8655 16.4794 40.9135 16.5866 40.9541 16.6939C41.0075 16.913 41.1668 17.1178 41.3001 17.3251C41.9472 18.1316 42.9763 18.7563 44.0454 19.1965C45.1192 19.6478 46.2536 19.9566 47.3673 20.1698C48.4784 20.3804 49.5868 20.5256 50.6153 20.5753C51.1218 20.6198 51.661 20.6126 52.1616 20.6283C52.6315 20.6257 53.1234 20.5969 53.5753 20.5838C53.8039 20.576 54.0278 20.5695 54.2458 20.5525C54.4624 20.5204 54.6737 20.4955 54.8823 20.4955C55.3035 20.5008 55.7021 20.5054 56.078 20.5093C56.8272 20.47 57.4804 20.4367 58.0182 20.4085C59.116 20.2712 59.7425 20.1914 59.7425 20.1914Z" fill="#121212"/>
</g>
</svg>
