<svg width="24" height="24" viewBox="0 0 24 24" fill="none" xmlns="http://www.w3.org/2000/svg">
<g id="Inst">
<path id="XMLID_142_" fill-rule="evenodd" clip-rule="evenodd" d="M20.2924 3.68349C20.8463 4.23947 21.1847 4.79546 21.4386 5.45183C21.6847 6.08503 21.854 6.8109 21.9001 7.87654C21.954 8.94218 21.9616 9.28194 21.9616 12.0001C21.9616 14.7029 21.9464 15.0541 21.9009 16.1057L21.9001 16.1236C21.854 17.1816 21.6847 17.9151 21.4386 18.5484C21.1847 19.2047 20.8463 19.7607 20.2924 20.3167C19.7386 20.8727 19.1847 21.2124 18.5309 21.4673C17.9001 21.7144 17.177 21.8843 16.1155 21.9306C15.054 21.9846 14.7155 21.9924 12.0078 21.9924C9.31542 21.9924 8.96555 21.9771 7.91805 21.9314L7.90011 21.9306C6.84626 21.8843 6.11549 21.7144 5.48472 21.4673C4.83088 21.2124 4.27703 20.8727 3.72319 20.3167C3.16934 19.7607 2.83088 19.2047 2.57703 18.5484C2.33088 17.9151 2.16165 17.1893 2.11549 16.1236C2.06165 15.058 2.05396 14.7182 2.05396 12.0001C2.05396 9.29727 2.06917 8.94608 2.11472 7.8945L2.11549 7.87654C2.16165 6.81862 2.33088 6.08503 2.57703 5.45183C2.83088 4.79546 3.16934 4.23947 3.72319 3.68349C4.27703 3.1275 4.83088 2.78774 5.48472 2.53291C6.11549 2.2858 6.83857 2.11592 7.90011 2.06959C8.96165 2.01553 9.30011 2.00781 12.0078 2.00781C14.7002 2.00781 15.0501 2.02308 16.0976 2.06881L16.1155 2.06959C17.1693 2.11592 17.9001 2.2858 18.5309 2.53291C19.1847 2.78774 19.7386 3.1275 20.2924 3.68349ZM19.7616 17.892C19.9001 17.5445 20.0616 17.0117 20.1078 16.0387L20.1091 16.0088C20.1542 14.9821 20.1693 14.6388 20.1693 12.0001C20.1693 9.37139 20.1544 9.02822 20.1096 8.00326L20.1078 7.96148C20.0616 6.98851 19.9001 6.46341 19.7616 6.1082C19.577 5.63715 19.3616 5.30511 19.0155 4.95762C18.6693 4.61013 18.3309 4.38619 17.8693 4.20858C17.5232 4.06959 16.9924 3.90742 16.0232 3.86109C14.977 3.80704 14.6539 3.79932 12.0001 3.79932C9.38152 3.79932 9.03967 3.81435 8.01865 3.85926L7.97703 3.86109C7.00779 3.90742 6.48472 4.06959 6.13087 4.20858C5.66164 4.39391 5.33087 4.61013 4.98472 4.95762C4.63856 5.30511 4.41549 5.64488 4.23856 6.1082C4.1001 6.45569 3.93856 6.98851 3.89241 7.96148C3.83856 9.01167 3.83087 9.336 3.83087 12.0001C3.83087 14.6288 3.84585 14.972 3.89059 15.9969L3.89241 16.0387C3.93856 17.0117 4.1001 17.5368 4.23856 17.892C4.42318 18.363 4.63856 18.6951 4.98472 19.0426C5.33087 19.3901 5.66933 19.614 6.13087 19.7916C6.47703 19.9306 7.00779 20.0928 7.97703 20.1391C9.02318 20.1931 9.33856 20.2009 12.0001 20.2009C14.6189 20.2009 14.9589 20.1859 15.973 20.1413L16.0232 20.1391C16.9924 20.0928 17.5155 19.9306 17.8693 19.7916C18.3386 19.6063 18.6693 19.3901 19.0155 19.0426C19.3616 18.6951 19.5847 18.3553 19.7616 17.892Z" fill="#212B36"/>
<path id="XMLID_145_" fill-rule="evenodd" clip-rule="evenodd" d="M6.88477 11.9999C6.88477 9.1659 9.17707 6.86475 12.0002 6.86475C14.8232 6.86475 17.1155 9.1659 17.1155 11.9999C17.1155 14.8339 14.8232 17.135 12.0002 17.135C9.17707 17.135 6.88477 14.8339 6.88477 11.9999ZM8.67706 12C8.67706 13.8455 10.1694 15.3359 12.0001 15.3359C13.8309 15.3359 15.3232 13.8378 15.3232 12C15.3232 10.1544 13.8386 8.66406 12.0001 8.66406C10.1617 8.66406 8.67706 10.1621 8.67706 12Z" fill="#212B36"/>
<ellipse id="XMLID_143_" cx="17.3154" cy="6.6642" rx="1.19231" ry="1.19691" fill="#212B36"/>
</g>
</svg>
