<svg width="172" height="88" viewBox="0 0 172 88" fill="none" xmlns="http://www.w3.org/2000/svg">
<path d="M16.7266 87.2987C16.7266 87.2987 17.414 86.7215 17.9776 83.7656C18.4998 80.9886 18.5272 79.7372 18.5272 79.7372C18.3897 79.6137 18.06 79.5173 17.6476 79.5173C17.6476 79.3661 17.8264 78.5139 18.8162 78.5139C19.2837 78.5139 19.5997 78.8025 19.875 79.1873C20.7269 80.3699 21.6619 83.1469 21.6619 83.1469C22.2395 81.992 24.3014 78.4725 24.8377 78.4725C25.1677 78.4725 25.5938 78.6787 25.6899 78.7615C25.3739 80.3012 24.9752 83.9992 24.9752 85.7451C24.9752 86.4462 25.1127 87.1749 25.3876 87.3401C25.1263 87.8073 24.7553 87.9725 24.3839 87.9725C23.9991 87.9725 23.7105 87.7659 23.7105 86.7488C23.7105 85.3877 24.2053 81.992 24.5487 80.1086C23.6691 81.3323 22.652 83.1195 21.7994 84.7553C21.7994 84.7553 21.4971 84.8518 21.3045 84.8518C21.0296 84.8518 20.8921 84.4804 20.6995 83.848C20.3285 82.652 19.916 81.346 19.3935 80.466C19.1735 83.4629 18.8575 85.5802 18.5549 86.8449C18.3623 87.6698 18.0874 87.9448 17.73 87.9448C16.9738 87.9448 16.7266 87.2987 16.7266 87.2987Z" fill="#402020"/>
<path d="M30.458 82.3495C29.8117 82.0195 29.207 81.9645 28.891 81.9645C27.6947 82.2394 27.1585 84.343 27.1585 85.5116C27.1585 86.3088 27.351 86.9001 27.7771 86.9001C28.3821 86.9001 29.468 85.0304 30.2245 83.7107C30.2932 83.2979 30.3069 83.1608 30.3342 83.037L30.458 82.3495ZM30.3479 88C30.0596 88 29.8534 87.7661 29.8534 87.2025C29.8534 86.735 29.9632 85.855 30.128 85.0715C29.3031 86.8174 28.5607 88 27.4885 88C26.9249 88 26.0312 87.3263 26.0312 85.6214C26.0312 83.6967 27.2409 81.1122 29.6195 81.1122C30.2792 81.1122 30.719 81.2911 30.9252 81.3872C31.0353 81.3458 31.1591 81.3321 31.2829 81.3321C31.3931 81.3321 31.5165 81.3458 31.6266 81.3598C31.6403 81.4559 31.6403 81.5383 31.6403 81.6344C31.6403 82.3218 31.3106 83.3119 31.0353 84.0681C30.9252 84.604 30.8565 85.2914 30.8565 85.9238C30.8565 86.7213 30.9252 87.1611 31.4341 87.3126C31.4067 87.3813 31.1181 88 30.3479 88Z" fill="#402020"/>
<path d="M38.4307 82.3907C38.4307 83.5867 37.3172 84.5764 35.8186 85.0716C36.0935 86.02 36.9872 86.8863 37.8397 87.1476C37.8397 87.1476 37.5508 87.9448 36.9321 87.9448C36.0111 87.9448 35.021 86.2813 34.8288 84.7963L34.9386 84.6592C35.9287 84.4667 37.3032 83.518 37.3032 82.652C37.3032 82.3767 37.166 82.1295 36.891 82.0333C36.1486 82.1568 34.8562 83.3531 33.8664 85.4427C33.6052 86.9961 33.6188 87.1335 33.5364 87.9311C33.4126 87.9448 33.2067 87.9588 33.1103 87.9588C32.5877 87.9588 32.3955 87.7936 32.3955 87.3538C32.3955 86.6524 32.7526 85.9926 33.0005 85.2915C33.1243 84.4116 33.5364 81.3046 33.5364 80.3285C33.5364 79.6274 33.4814 79.0912 32.9868 79.0361C33.0829 78.61 33.5364 78.2389 34.1 78.2389C34.6089 78.2389 34.7738 78.5549 34.7738 79.0912C34.7738 79.6961 34.43 82.0744 34.045 83.7792C34.65 82.638 35.7912 81.112 37.166 81.112C38.0733 81.112 38.4307 81.7581 38.4307 82.3907Z" fill="#402020"/>
<path d="M42.1828 81.7857C41.3165 81.8545 40.1479 82.8856 39.887 84.7416C41.4677 84.4667 42.6226 83.6695 42.6226 82.6243C42.6226 82.3357 42.5402 81.992 42.1828 81.7857ZM40.8904 87.9998C39.7358 87.9998 38.7734 87.3675 38.7734 85.415C38.7734 82.4044 41.0416 81.112 42.1828 81.112C43.1452 81.112 43.7912 81.6756 43.7912 82.5833C43.7912 83.9991 41.9903 85.2365 39.8593 85.4013C39.887 86.0337 40.0932 87.0788 40.9044 87.2437C41.6606 87.1062 42.2789 86.4051 42.5539 85.9376C42.7187 85.9926 43.2276 86.1989 43.2276 86.5426C43.2276 87.0925 42.059 87.9998 40.8904 87.9998Z" fill="#402020"/>
<path d="M49.358 78.2115C49.7841 78.2115 50.0454 78.4864 50.0454 78.8852C50.0454 79.3524 49.674 79.655 49.2755 79.655C48.8494 79.655 48.5468 79.366 48.5468 78.995C48.5468 78.5825 48.8494 78.2115 49.358 78.2115ZM49.5639 81.827C49.5639 82.3356 49.3443 83.2296 49.0967 84.1092C48.8631 84.9891 48.6292 85.8828 48.6292 86.419C48.6292 86.9826 48.9045 87.1748 49.2342 87.2436C49.0556 87.7111 48.7253 87.9447 48.3405 87.9447C47.7632 87.9447 47.502 87.5462 47.502 86.9963C47.502 86.4737 47.6945 85.7863 47.9007 85.0579C48.148 84.2053 48.3956 83.3393 48.3956 82.5558C48.3956 82.1434 48.1894 81.8684 47.9144 81.772C48.148 81.4009 48.5327 81.1396 48.9729 81.1396C49.3853 81.1396 49.5639 81.3872 49.5639 81.827Z" fill="#402020"/>
<path d="M52.7666 82.1708L52.134 85.0029C51.9828 85.6763 51.8043 86.35 51.8043 86.6527C51.8043 86.8726 51.8453 87.0237 51.914 87.1338C52.3405 87.0925 52.9041 86.625 53.1377 86.2813C53.413 86.4601 53.5779 86.625 53.5779 86.8726C53.5779 87.3948 52.5604 87.9998 51.7218 87.9998C51.227 87.9998 50.7731 87.7662 50.7731 86.9413C50.7731 86.5015 51.0071 85.5251 51.2407 84.6041C51.4606 83.7378 51.6941 82.7344 51.7769 82.1568C51.4332 82.1568 51.0207 82.1845 50.7731 82.2532C50.7044 82.0884 50.663 81.9509 50.663 81.8271C50.663 81.4557 50.9106 81.3322 51.4055 81.3322C51.5707 81.3322 51.7769 81.3322 51.9417 81.3459C51.9968 81.0573 52.0242 80.7823 52.0242 80.5761C52.0242 80.2734 51.9417 79.9574 51.7355 79.8336C51.9281 79.6137 52.2307 79.4348 52.5331 79.4348C52.8904 79.4348 53.1103 79.5723 53.1103 79.9437C53.1103 80.3285 53.0139 80.796 52.9178 81.3733C53.3302 81.3733 53.7841 81.3596 54.1278 81.2772C54.1965 81.4147 54.2376 81.6346 54.2376 81.7447C54.2376 82.0884 54.004 82.1982 53.5505 82.1982C53.2889 82.1982 53.0967 82.1845 52.7666 82.1708Z" fill="#402020"/>
<path d="M55.5698 86.1989C56.0096 86.1989 56.34 86.5149 56.34 86.9551C56.34 87.5187 55.9272 87.9448 55.3639 87.9448C54.9098 87.9448 54.5801 87.6699 54.5801 87.175C54.5801 86.5974 55.0753 86.1989 55.5698 86.1989Z" fill="#402020"/>
<path d="M63.5016 79.3661C63.4465 80.8371 62.8005 87.9448 61.3432 87.9448C60.8347 87.9448 60.5734 87.7385 60.3945 87.4913C61.6042 86.2813 62.2919 82.2806 62.5255 79.6548C62.1267 79.82 61.7971 80.0262 61.467 80.3011C61.3018 80.1637 61.1784 79.9434 61.1784 79.6548C61.1784 78.9537 63.0344 78.4451 64.5741 78.4451C66.4161 78.4451 67.571 79.0501 67.571 80.4383C67.571 81.6619 66.6914 82.5696 65.4403 82.8442C66.9249 83.0782 67.8323 83.8753 67.8323 85.0716C67.8323 86.8726 66.2512 87.9998 64.4092 87.9998C63.2269 87.9998 62.8278 87.56 62.8278 87.1476C62.8278 86.8863 62.9243 86.625 63.1582 86.4051C63.5429 86.8312 63.9277 87.0101 64.6291 87.0101C65.8114 87.0101 66.5949 86.2676 66.5949 85.1127C66.5949 83.8617 65.3853 83.4906 64.8901 83.4629C64.7115 83.518 64.5604 83.5593 64.4092 83.5593C64.0789 83.5593 63.8179 83.3394 63.8179 82.9267C63.8179 82.6243 63.9277 82.4044 64.0515 82.2533C64.2304 82.363 64.4092 82.4321 64.6428 82.4321C65.4814 82.4321 66.3336 81.6756 66.3336 80.5898C66.3336 79.8747 65.9212 79.27 64.4639 79.27C64.1479 79.27 63.8316 79.2974 63.5016 79.3661Z" fill="#402020"/>
<path d="M72.0793 81.7857C71.213 81.8545 70.0444 82.8856 69.7835 84.7416C71.3642 84.4667 72.5191 83.6695 72.5191 82.6243C72.5191 82.3357 72.4367 81.992 72.0793 81.7857ZM70.7869 87.9998C69.6323 87.9998 68.6699 87.3675 68.6699 85.415C68.6699 82.4044 70.938 81.112 72.0793 81.112C73.0417 81.112 73.6877 81.6756 73.6877 82.5833C73.6877 83.9991 71.8867 85.2365 69.7558 85.4013C69.7835 86.0337 69.9897 87.0788 70.8009 87.2437C71.5571 87.1062 72.1754 86.4051 72.4504 85.9376C72.6152 85.9926 73.1241 86.1989 73.1241 86.5426C73.1241 87.0925 71.9555 87.9998 70.7869 87.9998Z" fill="#402020"/>
<path d="M74.168 85.4703C74.168 82.3218 76.395 81.1259 77.6461 81.1259C78.4987 81.1259 79.2408 81.4285 79.2408 81.9922C79.2408 82.6656 78.4159 82.8167 78.4159 82.8167C78.2644 82.3906 77.7699 81.9645 77.1922 81.9234C75.8725 82.0609 75.2952 83.8755 75.2952 85.2363C75.2952 86.2678 75.6663 87.1337 76.2989 87.2435C77.2476 87.12 77.9761 85.869 77.9761 85.869C78.2784 85.9651 78.6221 86.1303 78.6221 86.4877C78.6221 87.1337 77.4675 88 76.2439 88C75.4464 88 74.168 87.6286 74.168 85.4703Z" fill="#402020"/>
<path d="M83.8721 82.3495C83.2257 82.0195 82.6211 81.9645 82.3051 81.9645C81.1088 82.2394 80.5725 84.343 80.5725 85.5116C80.5725 86.3088 80.7651 86.9001 81.1912 86.9001C81.7962 86.9001 82.882 85.0304 83.6385 83.7107C83.7073 83.2979 83.7209 83.1608 83.7483 83.037L83.8721 82.3495ZM83.762 88C83.4737 88 83.2675 87.7661 83.2675 87.2025C83.2675 86.735 83.3772 85.855 83.5421 85.0715C82.7172 86.8174 81.9747 88 80.9026 88C80.3389 88 79.4453 87.3263 79.4453 85.6214C79.4453 83.6967 80.655 81.1122 83.0335 81.1122C83.6932 81.1122 84.1331 81.2911 84.3393 81.3872C84.4494 81.3458 84.5732 81.3321 84.697 81.3321C84.8071 81.3321 84.9306 81.3458 85.0407 81.3598C85.0544 81.4559 85.0544 81.5383 85.0544 81.6344C85.0544 82.3218 84.7247 83.3119 84.4494 84.0681C84.3393 84.604 84.2705 85.2914 84.2705 85.9238C84.2705 86.7213 84.3393 87.1611 84.8482 87.3126C84.8208 87.3813 84.5322 88 83.762 88Z" fill="#402020"/>
<path d="M89.549 87.0374C89.549 86.625 89.7552 85.4977 89.8927 84.7966C89.3291 86.0203 88.2706 87.9998 86.8684 87.9998C86.1259 87.9998 85.8096 87.6424 85.8096 86.8862C85.8096 86.5425 85.9197 85.9516 86.0432 85.2915C86.2083 84.3842 86.3869 83.4906 86.3869 82.8032C86.3869 82.4044 86.3458 81.9095 85.8783 81.8685C85.8783 81.8685 86.1396 81.1123 86.9094 81.1123C87.3629 81.1123 87.5418 81.5108 87.5418 81.9919C87.5418 82.377 87.4043 83.0781 87.2531 83.9577C87.102 84.8654 86.9094 85.7864 86.9094 86.3637C86.9094 86.68 87.0059 86.8999 87.1157 86.955C87.9132 86.9413 88.9303 85.5528 89.8653 83.4632C90.0024 82.7207 90.0438 81.9646 90.1816 81.1947C90.4289 81.1397 90.7039 81.1123 90.8824 81.1123C91.171 81.1123 91.3085 81.3045 91.3085 81.6486C91.3085 82.2122 91.0613 82.9133 90.8 83.5593C90.7176 83.9441 90.5253 84.9341 90.5253 85.7176C90.5253 86.4328 90.6628 87.0651 91.2261 87.1062C91.1026 87.5186 90.7453 87.9174 90.1816 87.9174C89.7141 87.9174 89.549 87.601 89.549 87.0374Z" fill="#402020"/>
<path d="M96.6549 82.0745C96.6549 82.3221 96.4764 82.6794 95.9675 82.8169C95.7476 82.3631 95.4039 81.9096 94.923 81.8269C94.3864 81.9233 93.7131 82.2807 93.7131 82.9681C93.7131 83.4907 94.1942 83.7242 94.7302 83.9718C95.4176 84.3015 96.2014 84.6729 96.2014 85.7451C96.2014 87.0375 95.1429 87.9999 93.6994 87.9999C92.5581 87.9999 91.9258 87.2711 91.9258 86.7212C91.9258 85.9927 92.7093 85.9513 92.7093 85.9513C92.9979 86.7762 93.5479 87.216 94.0017 87.3125C94.5376 87.2023 95.1977 86.7762 95.1977 86.0064C95.1977 85.4975 94.6888 85.2366 94.1942 84.9889C93.5065 84.6593 92.6819 84.1777 92.6819 83.1193C92.6819 82.0194 93.8369 81.1121 95.1703 81.1121C96.0226 81.1121 96.6549 81.4972 96.6549 82.0745Z" fill="#402020"/>
<path d="M100.229 81.7857C99.3624 81.8545 98.1938 82.8856 97.9329 84.7416C99.5136 84.4667 100.669 83.6695 100.669 82.6243C100.669 82.3357 100.586 81.992 100.229 81.7857ZM98.9363 87.9998C97.7817 87.9998 96.8193 87.3675 96.8193 85.415C96.8193 82.4044 99.0878 81.112 100.229 81.112C101.191 81.112 101.837 81.6756 101.837 82.5833C101.837 83.9991 100.036 85.2365 97.9052 85.4013C97.9329 86.0337 98.1391 87.0788 98.9503 87.2437C99.7065 87.1062 100.325 86.4051 100.6 85.9376C100.765 85.9926 101.273 86.1989 101.273 86.5426C101.273 87.0925 100.105 87.9998 98.9363 87.9998Z" fill="#402020"/>
<path d="M107.404 78.2115C107.83 78.2115 108.091 78.4864 108.091 78.8852C108.091 79.3524 107.72 79.655 107.322 79.655C106.895 79.655 106.593 79.366 106.593 78.995C106.593 78.5825 106.895 78.2115 107.404 78.2115ZM107.61 81.827C107.61 82.3356 107.39 83.2296 107.143 84.1092C106.909 84.9891 106.675 85.8828 106.675 86.419C106.675 86.9826 106.95 87.1748 107.28 87.2436C107.102 87.7111 106.771 87.9447 106.386 87.9447C105.809 87.9447 105.548 87.5462 105.548 86.9963C105.548 86.4737 105.74 85.7863 105.947 85.0579C106.194 84.2053 106.442 83.3393 106.442 82.5558C106.442 82.1434 106.235 81.8684 105.96 81.772C106.194 81.4009 106.579 81.1396 107.019 81.1396C107.431 81.1396 107.61 81.3872 107.61 81.827Z" fill="#402020"/>
<path d="M110.813 82.1708L110.18 85.0029C110.029 85.6763 109.85 86.35 109.85 86.6527C109.85 86.8726 109.892 87.0237 109.96 87.1338C110.386 87.0925 110.95 86.625 111.184 86.2813C111.459 86.4601 111.624 86.625 111.624 86.8726C111.624 87.3948 110.606 87.9998 109.768 87.9998C109.273 87.9998 108.819 87.7662 108.819 86.9413C108.819 86.5015 109.053 85.5251 109.287 84.6041C109.507 83.7378 109.74 82.7344 109.823 82.1568C109.479 82.1568 109.067 82.1845 108.819 82.2532C108.75 82.0884 108.709 81.9509 108.709 81.8271C108.709 81.4557 108.957 81.3322 109.452 81.3322C109.617 81.3322 109.823 81.3322 109.988 81.3459C110.043 81.0573 110.07 80.7823 110.07 80.5761C110.07 80.2734 109.988 79.9574 109.781 79.8336C109.974 79.6137 110.277 79.4348 110.579 79.4348C110.936 79.4348 111.156 79.5723 111.156 79.9437C111.156 80.3285 111.06 80.796 110.964 81.3733C111.376 81.3733 111.83 81.3596 112.174 81.2772C112.242 81.4147 112.284 81.6346 112.284 81.7447C112.284 82.0884 112.05 82.1982 111.596 82.1982C111.335 82.1982 111.143 82.1845 110.813 82.1708Z" fill="#402020"/>
<path d="M117.658 82.047C117.658 82.5555 117.548 83.1331 117.411 83.7518C117.933 82.707 118.936 81.1123 120.353 81.1123C120.903 81.1123 121.219 81.5111 121.219 82.061C121.219 82.2395 121.054 82.6379 120.889 83.1195C120.793 83.3807 120.696 83.6968 120.6 83.9854C121.164 82.9406 122.346 81.1123 123.707 81.1123C124.243 81.1123 124.683 81.5111 124.683 82.061C124.683 82.5555 123.817 84.5767 123.817 86.3089C123.817 86.8312 123.996 87.1889 124.326 87.1889C124.326 87.1889 124.037 87.9447 123.309 87.9447C122.868 87.9447 122.676 87.4635 122.676 86.9413C122.676 85.8414 123.143 83.9167 123.68 82.1981C122.607 82.2258 121.439 83.3394 120.627 85.3329C120.559 86.1851 120.435 87.2299 120.325 87.931C120.146 87.9447 119.94 87.9587 119.872 87.9587C119.486 87.9587 119.294 87.7935 119.294 87.2713C119.294 86.9827 119.473 86.1714 119.638 85.5665C119.775 84.5767 119.968 83.3394 120.325 82.1981C119.253 82.2258 118.222 83.2706 117.246 85.4153C117.025 86.8175 116.984 87.0788 116.902 87.931C116.723 87.9447 116.503 87.9587 116.434 87.9587C115.94 87.9587 115.788 87.7525 115.788 87.34C115.788 86.6937 116.132 85.9238 116.366 85.2915C116.462 84.8103 116.613 83.9307 116.613 83.2566C116.613 82.5695 116.434 81.9095 115.926 81.9095C116.022 81.456 116.49 81.1123 117.025 81.1123C117.493 81.1123 117.658 81.497 117.658 82.047Z" fill="#402020"/>
<path d="M129.658 82.3495C129.012 82.0195 128.407 81.9645 128.091 81.9645C126.895 82.2394 126.359 84.343 126.359 85.5116C126.359 86.3088 126.551 86.9001 126.977 86.9001C127.582 86.9001 128.668 85.0304 129.425 83.7107C129.493 83.2979 129.507 83.1608 129.535 83.037L129.658 82.3495ZM129.548 88C129.26 88 129.054 87.7661 129.054 87.2025C129.054 86.735 129.163 85.855 129.328 85.0715C128.503 86.8174 127.761 88 126.689 88C126.125 88 125.232 87.3263 125.232 85.6214C125.232 83.6967 126.441 81.1122 128.819 81.1122C129.48 81.1122 129.92 81.2911 130.125 81.3872C130.236 81.3458 130.36 81.3321 130.483 81.3321C130.593 81.3321 130.717 81.3458 130.827 81.3598C130.841 81.4559 130.841 81.5383 130.841 81.6344C130.841 82.3218 130.511 83.3119 130.236 84.0681C130.125 84.604 130.057 85.2914 130.057 85.9238C130.057 86.7213 130.125 87.1611 130.634 87.3126C130.607 87.3813 130.318 88 129.548 88Z" fill="#402020"/>
<path d="M133.63 82.1708L132.997 85.0029C132.846 85.6763 132.668 86.35 132.668 86.6527C132.668 86.8726 132.709 87.0237 132.777 87.1338C133.204 87.0925 133.767 86.625 134.001 86.2813C134.276 86.4601 134.441 86.625 134.441 86.8726C134.441 87.3948 133.424 87.9998 132.585 87.9998C132.09 87.9998 131.636 87.7662 131.636 86.9413C131.636 86.5015 131.87 85.5251 132.104 84.6041C132.324 83.7378 132.557 82.7344 132.64 82.1568C132.297 82.1568 131.884 82.1845 131.636 82.2532C131.568 82.0884 131.526 81.9509 131.526 81.8271C131.526 81.4557 131.774 81.3322 132.269 81.3322C132.434 81.3322 132.64 81.3322 132.805 81.3459C132.86 81.0573 132.888 80.7823 132.888 80.5761C132.888 80.2734 132.805 79.9574 132.599 79.8336C132.791 79.6137 133.094 79.4348 133.396 79.4348C133.754 79.4348 133.974 79.5723 133.974 79.9437C133.974 80.3285 133.877 80.796 133.781 81.3733C134.194 81.3733 134.647 81.3596 134.991 81.2772C135.06 81.4147 135.101 81.6346 135.101 81.7447C135.101 82.0884 134.867 82.1982 134.414 82.1982C134.152 82.1982 133.96 82.1845 133.63 82.1708Z" fill="#402020"/>
<path d="M137.753 82.1708L137.12 85.0029C136.969 85.6763 136.791 86.35 136.791 86.6527C136.791 86.8726 136.832 87.0237 136.9 87.1338C137.327 87.0925 137.891 86.625 138.124 86.2813C138.399 86.4601 138.564 86.625 138.564 86.8726C138.564 87.3948 137.547 87.9998 136.708 87.9998C136.213 87.9998 135.76 87.7662 135.76 86.9413C135.76 86.5015 135.993 85.5251 136.227 84.6041C136.447 83.7378 136.681 82.7344 136.763 82.1568C136.42 82.1568 136.007 82.1845 135.76 82.2532C135.691 82.0884 135.649 81.9509 135.649 81.8271C135.649 81.4557 135.897 81.3322 136.392 81.3322C136.557 81.3322 136.763 81.3322 136.928 81.3459C136.983 81.0573 137.011 80.7823 137.011 80.5761C137.011 80.2734 136.928 79.9574 136.722 79.8336C136.914 79.6137 137.217 79.4348 137.519 79.4348C137.877 79.4348 138.097 79.5723 138.097 79.9437C138.097 80.3285 138 80.796 137.904 81.3733C138.317 81.3733 138.77 81.3596 139.114 81.2772C139.183 81.4147 139.224 81.6346 139.224 81.7447C139.224 82.0884 138.99 82.1982 138.537 82.1982C138.275 82.1982 138.083 82.1845 137.753 82.1708Z" fill="#402020"/>
<path d="M142.701 81.7857C141.835 81.8545 140.666 82.8856 140.406 84.7416C141.986 84.4667 143.141 83.6695 143.141 82.6243C143.141 82.3357 143.059 81.992 142.701 81.7857ZM141.409 87.9998C140.254 87.9998 139.292 87.3675 139.292 85.415C139.292 82.4044 141.56 81.112 142.701 81.112C143.664 81.112 144.31 81.6756 144.31 82.5833C144.31 83.9991 142.509 85.2365 140.378 85.4013C140.406 86.0337 140.612 87.0788 141.423 87.2437C142.179 87.1062 142.797 86.4051 143.072 85.9376C143.237 85.9926 143.746 86.1989 143.746 86.5426C143.746 87.0925 142.578 87.9998 141.409 87.9998Z" fill="#402020"/>
<path d="M148.832 82.1845C148.461 82.2669 147.43 83.1468 146.371 85.5114C146.248 86.3089 146.096 87.0924 146.042 87.931C145.904 87.9447 145.67 87.9587 145.574 87.9587C145.052 87.9587 144.928 87.7388 144.928 87.3123C144.928 86.8038 145.258 85.9789 145.505 85.2915C145.588 84.8654 145.739 84.0128 145.739 83.2566C145.739 82.5145 145.546 81.9095 145.052 81.9095C145.12 81.5244 145.629 81.1123 146.193 81.1123C146.646 81.1123 146.784 81.497 146.784 82.047C146.784 82.6793 146.633 83.3394 146.523 83.944C147.031 82.7754 147.952 81.1123 149.093 81.1123C149.753 81.1123 150.179 81.5521 150.179 82.1294C150.179 82.7754 149.726 83.0093 149.258 83.0781C149.258 83.0781 149.176 82.3083 148.832 82.1845Z" fill="#402020"/>
<path d="M154.358 82.0745C154.358 82.3221 154.18 82.6794 153.671 82.8169C153.451 82.3631 153.107 81.9096 152.626 81.8269C152.09 81.9233 151.416 82.2807 151.416 82.9681C151.416 83.4907 151.897 83.7242 152.433 83.9718C153.121 84.3015 153.905 84.6729 153.905 85.7451C153.905 87.0375 152.846 87.9999 151.402 87.9999C150.261 87.9999 149.629 87.2711 149.629 86.7212C149.629 85.9927 150.412 85.9513 150.412 85.9513C150.701 86.7762 151.251 87.216 151.705 87.3125C152.241 87.2023 152.901 86.7762 152.901 86.0064C152.901 85.4975 152.392 85.2366 151.897 84.9889C151.21 84.6593 150.385 84.1777 150.385 83.1193C150.385 82.0194 151.54 81.1121 152.873 81.1121C153.726 81.1121 154.358 81.4972 154.358 82.0745Z" fill="#402020"/>
<path d="M154.686 80.8016H155.384V80.8791H155.08V81.761H154.989V80.8791H154.686V80.8016Z" fill="#402020"/>
<path d="M155.509 81.7609V80.8015H155.647L155.962 81.6477H155.965L156.274 80.8015H156.411V81.7609H156.32V80.9056H156.318L156.003 81.7609H155.918L155.602 80.9056H155.6V81.7609H155.509Z" fill="#402020"/>
<path d="M56.3729 54.5469C55.2126 54.3928 53.0126 54.1976 50.7004 54.2356C45.9593 54.3134 42.8562 55.4626 42.9293 59.9141C42.9727 62.573 44.6218 64.3963 47.4542 64.3499C52.1954 64.2721 56.4707 60.5011 56.4069 56.6282L56.3729 54.5469ZM61.986 66.3304C61.1874 67.0371 60.2721 67.6301 58.8272 67.6538C57.382 67.6775 56.7717 64.8334 56.7416 62.9834L56.7119 61.1911C55.3087 63.7583 52.5938 67.4463 46.6977 67.543C42.0727 67.6188 39.3081 64.7727 39.238 60.4947C39.1592 55.6965 41.8715 51.836 48.7513 51.7232C51.4098 51.6795 53.8999 51.87 56.3906 52.118C56.3906 52.118 56.484 50.7862 56.4326 47.6652C56.3589 43.1553 54.5276 40.8147 50.4238 40.8821C47.1279 40.9362 44.0869 42.3738 42.7017 46.0397C42.7017 46.0397 40.143 45.1564 40.1163 43.538C40.0642 40.3579 45.9289 38.2957 50.2065 38.2256C58.011 38.0978 59.6471 42.6968 59.7002 45.9343C59.7609 49.634 59.5914 53.3376 59.6842 59.0031C59.7392 62.3561 61.1554 65.071 61.986 66.3304Z" fill="#9F1C69"/>
<path d="M84.576 44.3833C83.2236 46.9778 83.0283 51.2081 83.1578 54.7909C83.2432 57.1595 83.3687 59.0065 83.6016 60.6756C83.7762 62.2894 83.9997 63.6696 84.51 64.9823C84.284 65.1642 82.9182 65.7915 81.5901 65.8396C80.2033 65.8896 80.0968 64.5629 80.0321 62.7719C79.7651 55.3762 80.0731 51.0833 79.9397 47.3852C79.8416 44.67 79.2252 40.4107 75.2386 40.5548C72.6962 40.6463 69.4657 42.4986 67.6747 47.3649C66.8275 49.5366 66.712 52.7808 66.8455 56.4784C66.9683 59.8871 67.31 61.2025 67.9777 65.286C67.8062 65.3504 67.4034 65.4225 65.6705 65.4849C63.8215 65.5516 63.5039 64.7531 63.4661 63.7133C63.3557 60.651 63.8856 57.8005 63.7294 53.4668C63.4104 44.6266 62.1914 40.7674 62.104 38.3408C62.054 36.9539 65.8617 36.6433 66.2078 36.6306L66.3853 45.3287C68.2223 40.1137 71.1885 37.3454 75.8109 37.1785C80.1449 37.022 82.0112 40.6573 82.4134 43.767C83.2606 41.5963 85.9802 36.8115 91.9894 36.5945C97.0742 36.411 98.7741 40.2258 98.9179 44.2128C99.0577 48.084 99.014 51.7316 99.1028 57.339C99.1859 62.5991 99.4251 64.2719 101.098 67.1397C101.098 67.1397 99.4622 68.2982 98.0753 68.3483C96.861 68.392 96.3451 66.8206 96.2387 63.8738C96.1179 60.5225 95.8583 52.423 95.6787 47.454C95.5766 44.6229 95.2309 39.8334 91.1859 39.9792C87.3731 40.1167 85.3889 42.8497 84.576 44.3833Z" fill="#9F1C69"/>
<path d="M119.636 54.7318C118.479 54.5563 116.283 54.3204 113.97 54.3154C109.228 54.3054 106.104 55.3972 106.095 59.8494C106.089 62.5086 107.704 64.3619 110.537 64.3679C115.279 64.378 119.623 60.6866 119.631 56.8134L119.636 54.7318ZM124.7 66.1329C123.888 66.8249 122.962 67.4006 121.517 67.3976C120.071 67.3946 119.844 65.024 119.848 63.1737L119.852 61.381C118.401 63.9221 115.618 67.5591 109.722 67.5464C105.096 67.5367 102.385 64.6402 102.394 60.3616C102.404 55.5627 105.187 51.7529 112.067 51.7676C114.727 51.773 117.212 52.0096 119.698 52.3035C119.698 52.3035 119.816 50.9738 119.823 47.852C119.832 43.3418 118.045 40.9679 113.94 40.9592C110.644 40.9522 108.047 42.9484 106.594 46.588C106.594 46.588 104.052 45.6577 104.056 44.0386C104.062 40.8585 109.494 38.2904 113.772 38.2994C121.578 38.3157 123.128 42.9444 123.122 46.1822C123.114 49.8826 122.876 53.5823 122.864 59.2484C122.857 62.6017 123.892 64.8588 124.7 66.1329Z" fill="#9F1C69"/>
<path d="M131.218 44.6856C130.846 51.3241 146.504 49.8839 145.987 59.1203C145.729 63.7383 141.635 67.5627 135.401 67.214C129.339 66.875 126.216 64.7313 126.352 62.3067C126.449 60.5748 127.876 59.9018 128.642 59.6552C129.361 61.317 130.703 64.2291 135.494 64.4974C139.074 64.6976 142.221 63.3105 142.408 59.9622C142.825 52.5158 127.238 53.7281 127.712 45.2419C127.964 40.7393 131.724 37.7067 137.959 38.0558C141.192 38.2366 145.684 39.7042 145.509 42.8209C145.425 44.3226 143.238 45.1264 142.539 45.2028C141.96 42.1015 140.017 40.6029 137.419 40.4577C133.032 40.2121 131.337 42.5493 131.218 44.6856Z" fill="#9F1C69"/>
<path d="M134.551 12.1992C133.144 8.08945 134.955 3.20216 138.143 1.47662C137.591 2.33121 136.952 3.65064 136.931 5.84235C136.903 8.8723 138.871 13.5547 140.469 16.1775C141.815 18.3863 146.665 27.4735 146.665 27.4735C146.665 27.4735 146.026 26.6609 145.645 26.1931C141.206 20.7428 135.923 16.2089 134.551 12.1992ZM147.996 26.6332L139.605 1.41555C139.913 1.51366 140.387 1.66682 140.578 1.7953C141.588 2.4747 141.874 2.79037 142.73 3.99435C144.479 6.45401 145.813 11.2789 146.121 14.3242C146.375 16.8419 147.996 26.6332 147.996 26.6332ZM147.307 26.9716C145.759 24.0437 142.444 18.0276 141.215 15.9984C139.627 13.3755 137.788 8.69644 137.714 5.66415C137.678 4.18255 137.717 3.75775 138.121 2.60818C138.198 2.38727 138.495 1.97182 138.683 1.71054L147.307 26.9716ZM149.099 7.29826C150.395 11.2866 149.046 18.131 148.761 25.1786C148.721 26.1727 148.703 26.5555 148.703 26.5555C148.703 26.5555 147.069 16.583 146.816 14.0119C146.516 10.9636 145.16 6.1617 143.457 3.67033C142.283 1.9538 140.816 1.30576 139.798 0.98642C143.541 0.439491 147.771 3.21117 149.099 7.29826ZM157.728 48.9003C160.47 44.8463 163.856 41.5524 167.153 39.3106C166.588 38.0799 165.258 37.4352 164.509 37.4963C162.32 37.6758 157.182 44.3618 152.706 52.0381L152.031 43.7978C151.785 40.8012 151.123 35.8866 150.62 33.2157C149.749 28.5827 149.483 28.0117 149.384 26.8311C149.37 26.6569 149.326 25.483 149.355 24.8596C149.684 17.8026 151.155 10.8578 149.872 6.86179C148.505 2.60284 144.014 -0.184845 140.302 0.385773C140.31 0.381432 140.321 0.37542 140.321 0.37542C140.321 0.37542 140.215 0.39077 140.052 0.421135C140.02 0.427475 139.988 0.432816 139.957 0.439491C139.701 0.489883 139.346 0.569298 139.005 0.681755C138.375 0.889648 137.969 1.09821 137.969 1.09821L137.973 1.09988C134.38 2.66757 132.114 7.88156 133.652 12.3237C135.041 16.3367 140.32 20.8159 144.703 26.3382C145.427 27.2512 145.912 27.7291 146.225 28.3818C146.717 29.4109 148.647 40.0137 149.336 48.4275L149.846 54.6509C150.233 59.3757 150.217 62.742 149.439 66.6923C149.808 66.9526 150.999 67.319 152.272 67.2726C152.559 67.2489 152.905 67.2205 153.127 67.0864C153.569 66.8181 154.059 66.43 153.681 61.82L153.578 60.5523C153.478 59.342 153.303 57.9061 153.094 56.0671C153.902 54.6085 154.77 53.1453 155.746 51.6153C160.636 59.626 166.155 64.5029 167.883 64.3611C169.323 64.2433 170.703 62.0853 171.084 61.0675C167.852 60.8763 162.996 57.9825 157.728 48.9003Z" fill="#9F1C69"/>
<path d="M149.924 6.49717C150.311 7.54064 150.532 8.6435 150.751 9.74002C151.009 11.0334 151.164 10.97 151.422 12.2634C151.546 12.8881 151.672 13.5341 151.552 14.1585C151.432 14.7832 151.001 15.3851 150.406 15.4712C149.792 15.5603 149.198 15.0578 148.975 14.4411C148.752 13.8244 148.829 13.1314 148.994 12.4963C149.214 11.6554 149.693 10.7658 149.569 9.87817C149.485 9.27885 149.409 8.72492 149.211 8.15664C149.034 7.65142 148.821 7.15989 148.576 6.68771C148.093 5.75804 147.485 4.90178 146.78 4.14896C146.187 3.51561 145.526 2.955 144.812 2.48482C144.557 2.31697 144.3 2.15246 144.04 1.99229C143.846 1.87216 143.518 1.78874 143.604 2.17649C143.638 2.33066 143.76 2.44778 143.87 2.56091C144.153 2.85122 144.398 3.17791 144.598 3.53029C144.814 3.91304 144.976 4.32315 145.117 4.73893C145.236 5.09065 145.399 5.40732 145.521 5.74936C145.705 6.26459 145.752 6.85923 145.53 7.3551C145.308 7.85097 144.775 8.20502 144.269 8.08489C143.65 7.9374 143.322 7.19292 143.274 6.52086C143.226 5.84847 143.362 5.1654 143.243 4.50301C143.105 3.73785 142.644 3.08814 142.197 2.46914C142.071 2.29395 141.909 2.10074 141.702 2.11576C141.546 2.12677 141.418 2.26225 141.362 2.41608C141.305 2.57025 141.306 2.74077 141.312 2.90628C141.375 4.62347 141.887 6.28761 142.087 7.99346C142.158 8.59278 142.19 9.19643 142.221 9.79942L142.334 11.9431C142.366 12.5417 142.392 13.1714 142.143 13.7083C141.895 14.2452 141.271 14.6353 140.756 14.3877C140.298 14.1675 140.123 13.5558 140.161 13.0242C140.198 12.4923 140.392 11.9861 140.446 11.4562C140.5 10.925 140.412 10.3901 140.335 9.86182C140.117 8.35118 139.99 6.82619 139.956 5.29921C139.943 4.73826 140.154 4.00414 139.899 3.4779C139.715 3.09849 139.381 3.37712 139.171 3.59703C138.891 3.89068 138.723 4.30413 138.749 4.72659C138.81 5.69197 139.64 6.73109 138.683 7.54831C138.506 7.69914 138.288 7.8106 138.163 8.00647C138.039 8.20068 138.03 8.44361 138.024 8.67353C138.011 9.15972 137.999 9.64558 137.987 10.1318C137.974 10.606 138.066 11.0638 138.059 11.539C138.05 12.1106 137.741 12.7449 137.209 12.826C136.745 12.8964 136.306 12.5047 136.131 12.0415C135.956 11.5787 135.983 11.0621 136.012 10.5649C136.065 9.64759 136.199 8.69489 136.178 7.77622C136.161 7.06345 135.431 6.53822 134.895 7.12118C134.697 7.33642 134.602 7.64041 134.581 7.94107C134.567 8.14429 134.583 8.35218 134.533 8.54906C134.483 8.74561 134.343 8.93615 134.152 8.9555C133.936 8.97719 133.725 8.77664 133.517 8.84205C133.338 8.89877 133.262 9.11868 133.211 9.31022C133.082 9.79741 132.902 10.293 132.865 10.7992C132.827 11.3381 132.824 11.881 132.853 12.4213C132.971 14.6086 133.766 16.836 134.721 18.7812C134.907 19.1599 135.095 19.544 135.183 19.9568C135.27 20.3699 135.249 20.8217 135.034 21.1851C134.622 21.8818 133.635 21.9619 132.987 21.5728C132.453 21.2528 132.11 20.6775 131.953 20.0759C131.796 19.4739 131.807 18.8416 131.847 18.2209C131.962 16.454 131.852 14.6911 131.775 12.9221C131.739 12.0776 131.629 11.0721 131.619 10.2446C131.6 8.59778 131.732 7.05678 132.307 5.54114C132.663 4.60312 133.192 3.53696 134.172 2.61596C134.929 1.90353 135.778 1.35393 137.097 0.780308C138.474 0.18166 140.266 -0.0696125 141.547 0.0164795C142.241 0.0628643 142.892 0.251736 143.564 0.464634C144.421 0.73526 145.251 1.10399 146.012 1.6042C147.753 2.74711 149.171 4.46897 149.924 6.49717Z" fill="#402020"/>
<path d="M151.199 13.9259C151.117 14.4218 150.846 14.9103 150.408 15.1009C150.271 15.1606 150.07 15.1619 150.018 15.0138C149.988 14.9283 150.028 14.8306 150.087 14.7652C150.147 14.6998 150.225 14.6564 150.293 14.6017C150.513 14.4251 150.629 14.1352 150.678 13.8465C150.728 13.5579 150.721 13.2619 150.745 12.9696C150.77 12.6802 151.016 12.1764 151.165 12.6579C151.279 13.0273 151.262 13.5495 151.199 13.9259Z" fill="#6A3935"/>
<path d="M134.978 20.5834C134.939 20.84 134.778 21.0716 134.559 21.1864C134.381 21.2795 134.153 21.2905 133.993 21.1647C133.832 21.0385 133.785 20.7576 133.928 20.6117C134.061 20.4773 134.314 20.4696 134.363 20.2817C134.402 20.1359 134.277 19.9907 134.289 19.8396C134.312 19.5225 134.653 19.6273 134.777 19.7965C134.921 19.9927 135.014 20.3418 134.978 20.5834Z" fill="#6A3935"/>
<path d="M145.244 7.09812C145.169 7.33805 144.992 7.55829 144.758 7.602C144.678 7.61702 144.589 7.60868 144.525 7.55462C144.462 7.50089 144.436 7.39244 144.487 7.32537C144.532 7.2643 144.615 7.25763 144.682 7.22526C144.837 7.14951 144.889 6.93795 144.876 6.75642C144.859 6.53051 144.676 5.9065 145.099 6.07268C145.432 6.20349 145.327 6.83217 145.244 7.09812Z" fill="#6A3935"/>
<path d="M141.742 13.7117C141.532 13.9543 141.261 14.1405 140.971 14.0207C140.814 13.9556 140.707 13.743 140.789 13.5872C140.903 13.3713 141.229 13.435 141.404 13.2718C141.489 13.1918 141.525 13.0696 141.57 12.9585C141.616 12.8474 141.686 12.7323 141.796 12.7032C141.919 12.6715 142.05 12.7673 142.093 12.8938C142.135 13.0202 142.104 13.1641 142.04 13.2792C141.967 13.4093 141.865 13.5702 141.742 13.7117Z" fill="#6A3935"/>
<path d="M141.871 0.297429C141.646 0.271735 141.419 0.26139 141.192 0.267063C141.077 0.270066 140.959 0.277408 140.854 0.321789C140.748 0.366171 140.653 0.454266 140.631 0.566721C140.596 0.742578 140.748 0.911094 140.919 0.964152C141.09 1.01721 141.275 0.987177 141.453 0.966821C141.758 0.931783 142.9 1.2548 142.792 0.596754C142.745 0.307774 142.087 0.322123 141.871 0.297429Z" fill="#6A3935"/>
<path d="M137.43 12.3689C137.312 12.4724 137.154 12.5468 137.005 12.5051C136.856 12.4633 136.746 12.2658 136.827 12.127C136.936 11.9394 137.258 12.0075 137.354 11.8123C137.4 11.7185 137.371 11.6011 137.405 11.502C137.497 11.2313 137.852 11.3515 137.856 11.6108C137.859 11.8397 137.587 12.2328 137.43 12.3689Z" fill="#6A3935"/>
<path d="M138.572 7.00288C138.397 7.19643 138.133 7.29387 137.882 7.25716C137.751 7.23781 137.602 7.14971 137.607 7.00989C137.609 6.92647 137.668 6.85706 137.733 6.81068C137.798 6.76429 137.872 6.73293 137.933 6.68054C138.035 6.59244 138.086 6.45729 138.142 6.33116C138.198 6.20469 138.269 6.07421 138.387 6.01548C138.94 5.74252 138.766 6.78698 138.572 7.00288Z" fill="#6A3935"/>
<path d="M34.5137 46.3983C34.3208 53.4492 31.1584 63.3693 20.9276 63.0897C15.9576 62.9539 12.5616 62.3402 12.5616 62.3402C13.249 56.2279 13.53 52.3027 13.7262 45.1359C13.7589 43.9356 13.7772 42.2781 13.7829 40.4411C14.7706 40.1161 15.7417 39.706 16.7338 39.2242C18.2834 38.4713 19.2328 37.7582 19.3656 36.8062C19.5475 35.5035 17.6968 34.7947 17.6968 34.7947C17.6968 34.7947 17.6488 36.1855 13.7819 37.5153C13.7719 34.7386 13.7379 31.8835 13.6841 29.7496C15.1951 29.5013 18.494 29.4182 20.4011 29.4703C32.4224 29.799 34.7096 39.2315 34.5137 46.3983ZM5.85064 36.8763C4.55023 35.4731 4.46314 33.532 5.19326 32.2653C5.87734 31.0777 8.0894 30.4623 9.82828 30.1543C9.97144 32.8469 10.0322 35.6436 10.0425 38.2962C8.2746 38.3439 6.75528 37.8523 5.85064 36.8763ZM20.8879 26.476C18.2851 26.4049 15.6446 26.3686 12.5819 26.5578C11.6903 26.5968 7.35694 26.8144 5.45955 27.4077C2.54239 28.32 0.59394 30.0409 0.136111 32.7311C-0.409814 35.9379 0.730424 38.0729 2.7693 39.4858C4.91729 40.9741 7.49008 41.3425 9.97244 41.1926C9.9938 41.1913 10.0142 41.1883 10.0355 41.187C10.0218 42.7136 9.9938 44.1505 9.95842 45.4379C9.74987 53.0672 9.16356 59.7024 8.14412 65.2851C13.3341 65.8317 17.7779 66.1844 20.2633 66.2525C33.0361 66.6015 38.3952 56.7418 38.6972 45.7029C38.9278 37.2647 35.1063 26.8648 20.8879 26.476Z" fill="#9F1C69"/>
<path d="M16.335 64.6184C16.3314 64.6081 16.3307 64.605 16.328 64.597C16.324 64.5894 16.322 64.586 16.3164 64.5753C16.2793 64.5019 16.2456 64.4272 16.2072 64.3548C16.1218 64.1929 16.0274 64.0361 15.9246 63.8849C15.7834 63.676 15.6613 63.4631 15.5322 63.2469C15.5068 63.2045 15.4798 63.1635 15.4534 63.1221C15.2048 63.047 12.6167 62.5845 12.5046 62.3549C8.69009 62.2218 6.72295 61.9081 5.15526 60.0838C3.5018 60.9674 3.04597 63.2192 4.38542 64.3594C5.85501 65.6101 13.7639 65.8057 16.2496 65.8738C16.3934 65.8774 16.5309 65.8734 16.6724 65.8748C16.6444 65.7319 16.6163 65.5925 16.586 65.4623C16.5186 65.1747 16.4325 64.897 16.335 64.6184Z" fill="#9F1C69"/>
<path d="M168.248 36.8716V37.0811H167.655V38.6315H167.414V37.0811H166.821V36.8716H168.248Z" fill="#9F1C69"/>
<path d="M168.461 36.8716H168.802L169.309 38.3595L169.811 36.8716H170.15V38.6315H169.923V37.5927C169.923 37.557 169.923 37.4973 169.925 37.4142C169.927 37.3311 169.927 37.2423 169.927 37.1472L169.425 38.6315H169.188L168.682 37.1472V37.2009C168.682 37.2443 168.683 37.3101 168.685 37.3981C168.688 37.4866 168.689 37.5513 168.689 37.5927V38.6315H168.461V36.8716Z" fill="#9F1C69"/>
</svg>
