<svg width="296" height="64" viewBox="0 0 296 64" fill="none" xmlns="http://www.w3.org/2000/svg">
<path d="M50.1295 7.136C48.7615 9.488 46.0015 19.496 44.4175 22.664C44.5375 22.784 45.2815 23.072 46.1215 23.072C46.9855 23.072 46.8415 22.424 48.2095 17.72H53.6335C54.8815 22.136 55.3135 23.072 55.9375 23.072C56.6335 23.072 57.3535 22.688 57.7135 22.232C55.4095 18.44 52.4815 8.024 52.0255 6.56C52.0255 6.56 50.4655 6.56 50.1295 7.136ZM50.8495 9.032C51.7135 11.696 52.5775 14.384 53.0575 16.064H48.6655C49.5775 12.872 50.7535 9.344 50.8495 9.032ZM60.0595 21.32C60.0595 22.568 60.2755 23.072 61.1395 23.072C61.5715 23.072 62.5555 22.544 62.5555 22.544C62.5555 22.544 61.9555 21.44 61.9555 19.976C61.9555 18.344 62.1235 14.768 62.1235 13.544V11.12C62.1235 7.712 62.0515 6.2 61.0195 6.2C60.2755 6.2 59.5075 6.68 59.5075 6.68C60.1075 8.216 60.2755 9.632 60.2755 12.872C60.2755 15.8 60.0595 18.56 60.0595 21.32ZM65.8954 21.32C65.8954 22.568 66.1114 23.072 66.9754 23.072C67.4074 23.072 68.3914 22.544 68.3914 22.544C68.3914 22.544 67.7914 21.44 67.7914 19.976C67.7914 18.344 67.9594 14.768 67.9594 13.544V11.12C67.9594 7.712 67.8874 6.2 66.8554 6.2C66.1114 6.2 65.3434 6.68 65.3434 6.68C65.9434 8.216 66.1114 9.632 66.1114 12.872C66.1114 15.8 65.8954 18.56 65.8954 21.32ZM75.8834 17.816C76.3154 17.816 76.5074 17.312 76.5074 16.712C76.5074 16.496 76.4834 16.208 76.4354 15.992H71.5634C71.1314 15.992 70.8914 16.592 70.8914 17.216C70.8914 17.408 70.8914 17.648 70.9394 17.816H75.8834ZM81.3629 18.056C81.3629 14.024 83.7629 12.92 85.0589 12.92C86.3069 12.92 86.4989 14.6 86.4989 15.68C86.4989 18.032 86.2589 20.024 86.2589 21.224C86.2589 22.496 86.4269 23.072 87.1949 23.072C87.8669 23.072 88.7549 22.52 88.7549 22.52C88.2749 21.656 88.1309 20.528 88.1309 19.52C88.1309 18.2 88.2749 15.68 88.2749 14.312C88.2749 13.184 87.8189 11.024 85.5389 11C83.2589 11 81.8669 12.992 81.5309 13.976H81.4109V13.64C81.4109 12.872 81.2429 11.024 81.2429 11.024C81.2429 11.024 79.1549 11.144 79.1549 11.84C79.1549 12.872 79.7309 13.784 79.7309 18.032C79.7309 19.736 79.2509 21.2 79.2509 22.208C79.2509 22.76 79.3949 23.072 80.4509 23.072C81.5069 23.072 81.6749 23.024 81.6749 23.024C81.3869 21.272 81.3629 20.384 81.3629 19.064V18.056ZM99.7613 19.664C99.7613 17.024 99.8813 15.656 99.8813 14.24C99.8813 13.016 99.2333 11 95.8253 11C94.0253 11 91.3613 11.768 91.3613 13.208C91.3613 14 92.7293 14.624 92.7293 14.624C93.3533 13.136 94.5053 12.416 95.8973 12.416C97.2893 12.416 98.0573 13.28 98.0573 15.08C98.0573 16.592 98.0093 16.688 98.0093 16.688C97.6493 16.64 96.1133 16.472 95.0333 16.472C92.1533 16.472 90.9773 18.128 90.9773 20.216C90.9773 22.016 92.0333 23.24 94.0973 23.24C96.5213 23.24 97.6973 21.608 98.0333 20.672H98.1293C98.1293 20.72 98.1053 20.96 98.1053 21.296C98.1053 22.04 98.2253 23.168 98.8973 23.168C99.7373 23.168 100.649 22.616 100.649 22.616C100.649 22.616 99.7613 21.2 99.7613 19.664ZM97.9613 18.704C97.9613 20.288 96.3533 21.512 94.6013 21.512C93.6653 21.512 93.0413 20.96 93.0413 19.904C93.0413 18.152 94.2413 17.768 96.0653 17.768C96.9293 17.768 97.7933 17.84 97.9613 17.84V18.704ZM103.38 19.736C103.38 22.04 104.508 23.072 106.26 23.072C107.364 23.072 108.564 22.688 108.564 21.8C108.564 21.44 108.444 21.056 108.252 20.816C107.772 21.128 107.364 21.344 106.668 21.344C105.204 21.344 105.156 19.712 105.156 18.104C105.156 15.752 105.276 12.512 105.276 12.512H107.748C108.108 12.512 108.324 11.912 108.324 11.384C108.324 11.24 108.324 11.12 108.276 11H105.252V7.904C105.252 7.904 103.26 8.048 103.26 8.744C103.26 9.512 103.5 10.352 103.5 11H102.564C102.204 11 101.748 11.792 101.748 12.32C101.748 12.368 101.748 12.44 101.772 12.512H103.524C103.476 15.296 103.38 18.608 103.38 19.736ZM119.913 11.888C119.913 11.336 119.625 11.096 119.121 11.096C118.377 11.096 117.513 11.552 117.513 11.552C117.513 11.552 118.041 12.464 118.041 14.816C118.041 18.416 116.385 21.224 114.585 21.224C113.049 21.224 112.737 19.808 112.737 18.728C112.737 17.192 112.809 15.512 112.809 13.856C112.809 12.296 112.785 11.096 111.849 11.096C111.105 11.096 110.289 11.552 110.289 11.552C110.841 13.136 111.057 13.976 111.057 15.992C111.057 17.072 111.009 18.536 111.009 19.616C111.009 21.92 112.257 23.24 114.249 23.24C116.889 23.24 117.825 20.336 118.209 18.776H118.305C118.305 19.544 118.329 21.176 118.329 21.512C118.329 22.76 118.593 23.168 119.169 23.168C119.937 23.168 120.681 22.616 120.681 22.616C119.841 20.792 119.673 18.584 119.673 16.736C119.673 14.984 119.913 13.472 119.913 11.888ZM125.426 14.072V13.832C125.426 12.776 125.306 11.024 125.306 11.024C125.306 11.024 123.194 11.144 123.194 11.84C123.194 12.848 123.77 13.784 123.77 17.6C123.77 20 123.29 20.672 123.29 22.208C123.29 22.76 123.434 23.072 124.49 23.072C125.546 23.072 125.714 23.024 125.714 23.024C125.426 21.272 125.402 20.384 125.402 19.064V18.056C125.402 15.2 127.106 12.92 128.234 12.92C128.81 12.92 129.29 13.28 129.674 14.36C129.674 14.36 130.97 14.072 130.97 12.848C130.97 12.008 130.394 11 128.834 11C126.938 11 125.858 12.992 125.546 14.072H125.426ZM141.035 19.664C141.035 17.024 141.155 15.656 141.155 14.24C141.155 13.016 140.507 11 137.099 11C135.299 11 132.635 11.768 132.635 13.208C132.635 14 134.003 14.624 134.003 14.624C134.627 13.136 135.779 12.416 137.171 12.416C138.563 12.416 139.331 13.28 139.331 15.08C139.331 16.592 139.283 16.688 139.283 16.688C138.923 16.64 137.387 16.472 136.307 16.472C133.427 16.472 132.251 18.128 132.251 20.216C132.251 22.016 133.307 23.24 135.371 23.24C137.795 23.24 138.971 21.608 139.307 20.672H139.403C139.403 20.72 139.379 20.96 139.379 21.296C139.379 22.04 139.499 23.168 140.171 23.168C141.011 23.168 141.923 22.616 141.923 22.616C141.923 22.616 141.035 21.2 141.035 19.664ZM139.235 18.704C139.235 20.288 137.627 21.512 135.875 21.512C134.939 21.512 134.315 20.96 134.315 19.904C134.315 18.152 135.515 17.768 137.339 17.768C138.203 17.768 139.067 17.84 139.235 17.84V18.704ZM144.763 21.32C144.763 22.568 144.979 23.072 145.843 23.072C146.275 23.072 147.259 22.544 147.259 22.544C147.259 22.544 146.659 21.44 146.659 19.976C146.659 18.344 146.827 14.768 146.827 13.544V11.12C146.827 7.712 146.755 6.2 145.723 6.2C144.979 6.2 144.211 6.68 144.211 6.68C144.811 8.216 144.979 9.632 144.979 12.872C144.979 15.8 144.763 18.56 144.763 21.32ZM162.651 23.144C162.651 25.592 161.763 27.272 159.171 27.272C157.659 27.272 156.459 26.864 156.459 25.448C156.459 25.16 156.507 24.872 156.507 24.872C155.619 24.968 154.611 25.184 154.611 26.288C154.611 28.136 156.771 29 158.571 29C163.107 29 164.475 26.192 164.475 22.64C164.475 20.816 164.043 18.32 164.043 14.816C164.043 13.808 164.067 12.752 164.163 11.6C163.299 11.552 162.099 11 160.203 11C156.555 11 154.491 14.312 154.491 17.6C154.491 20.648 155.907 22.856 158.331 22.856C160.611 22.856 161.907 20.288 162.339 19.04H162.459C162.531 19.688 162.651 21.896 162.651 23.144ZM162.435 15.056C162.435 17.432 160.707 20.888 158.619 20.888C156.891 20.888 156.507 18.584 156.507 17.432C156.507 15.272 157.179 12.632 159.627 12.632C160.875 12.632 161.763 12.92 162.435 13.184V15.056ZM172.078 11C168.262 11 166.726 14.6 166.726 17.648C166.726 20.432 168.358 23.24 171.814 23.24C175.39 23.24 176.806 19.664 176.806 16.76C176.806 14.024 175.342 11 172.078 11ZM171.67 12.488C173.71 12.488 174.67 14.888 174.67 17.36C174.67 19.016 173.998 21.848 171.862 21.848C169.822 21.848 168.838 19.52 168.838 17.048C168.838 15.392 169.534 12.488 171.67 12.488ZM184.078 11C180.262 11 178.726 14.6 178.726 17.648C178.726 20.432 180.358 23.24 183.814 23.24C187.39 23.24 188.806 19.664 188.806 16.76C188.806 14.024 187.342 11 184.078 11ZM183.67 12.488C185.71 12.488 186.67 14.888 186.67 17.36C186.67 19.016 185.998 21.848 183.862 21.848C181.822 21.848 180.838 19.52 180.838 17.048C180.838 15.392 181.534 12.488 183.67 12.488ZM198.886 12.704C198.886 12.704 197.686 11 195.382 11C191.974 11 190.726 14.912 190.726 17.48C190.726 20.48 192.07 23.24 194.446 23.24C197.014 23.24 198.238 20.048 198.67 18.8H198.79C198.694 20.024 198.646 21.176 198.646 21.512C198.646 22.928 198.91 23.168 199.486 23.168C200.23 23.168 201.142 22.616 201.142 22.616C201.142 22.616 200.518 21.44 200.518 19.928C200.518 15.44 200.758 12.056 200.758 8.312C200.758 6.968 200.614 6.2 199.774 6.2C199.198 6.2 198.262 6.656 198.262 6.656C198.838 8.168 198.886 9.464 198.886 12.704ZM194.71 21.272C193.414 21.272 192.742 19.376 192.742 17.432C192.742 15.176 193.222 12.68 195.55 12.68C197.542 12.68 198.694 14.048 198.814 14.216C198.814 14.216 198.838 14.552 198.838 15.056C198.838 17.408 196.942 21.272 194.71 21.272ZM206.285 18.056C206.285 14.024 208.685 12.92 209.981 12.92C211.229 12.92 211.421 14.6 211.421 15.68C211.421 18.032 211.181 20.024 211.181 21.224C211.181 22.496 211.349 23.072 212.117 23.072C212.789 23.072 213.677 22.52 213.677 22.52C213.197 21.656 213.053 20.528 213.053 19.52C213.053 18.2 213.197 15.68 213.197 14.312C213.197 13.184 212.741 11.024 210.461 11C208.181 11 206.789 12.992 206.453 13.976H206.333V13.64C206.333 12.872 206.165 11.024 206.165 11.024C206.165 11.024 204.077 11.144 204.077 11.84C204.077 12.872 204.653 13.784 204.653 18.032C204.653 19.736 204.173 21.2 204.173 22.208C204.173 22.76 204.317 23.072 205.373 23.072C206.429 23.072 206.597 23.024 206.597 23.024C206.309 21.272 206.285 20.384 206.285 19.064V18.056ZM221.154 21.56C218.658 21.56 217.818 19.016 217.818 16.784L224.514 16.544C224.61 16.304 224.826 15.56 224.826 14.504C224.826 13.112 223.962 11 221.13 11C216.642 11 215.874 15.128 215.874 17.288C215.874 20.888 217.602 23.24 221.106 23.24C222.882 23.24 224.922 22.112 224.922 20.696C224.922 19.904 224.226 19.76 224.226 19.76C223.482 20.816 222.306 21.56 221.154 21.56ZM220.794 12.32C222.498 12.32 222.786 13.712 222.786 14.144C222.786 14.648 222.738 14.984 222.594 15.32L217.938 15.488C218.13 13.952 219.018 12.32 220.794 12.32ZM231.115 12.296C232.171 12.296 232.939 12.992 233.299 14.288C233.299 14.288 234.835 13.76 234.835 12.968C234.835 11.528 232.771 11 231.403 11C228.739 11 227.083 12.32 227.083 14.408C227.083 16.088 228.811 17 230.587 17.624C232.075 18.152 233.467 18.752 233.467 20.12C233.467 21.368 232.243 21.8 230.899 21.8C228.979 21.8 228.379 20.408 227.971 19.784C227.635 19.952 226.843 20.384 226.843 21.296C226.843 22.352 228.115 23.24 230.923 23.24C233.707 23.24 235.411 21.464 235.411 19.424C235.411 17.576 233.659 16.688 231.931 16.136C230.563 15.704 228.955 15.224 228.955 13.928C228.955 13.184 229.531 12.296 231.115 12.296ZM241.474 12.296C242.53 12.296 243.298 12.992 243.658 14.288C243.658 14.288 245.194 13.76 245.194 12.968C245.194 11.528 243.13 11 241.762 11C239.098 11 237.442 12.32 237.442 14.408C237.442 16.088 239.17 17 240.946 17.624C242.434 18.152 243.826 18.752 243.826 20.12C243.826 21.368 242.602 21.8 241.258 21.8C239.338 21.8 238.738 20.408 238.33 19.784C237.994 19.952 237.202 20.384 237.202 21.296C237.202 22.352 238.474 23.24 241.282 23.24C244.066 23.24 245.77 21.464 245.77 19.424C245.77 17.576 244.018 16.688 242.29 16.136C240.922 15.704 239.314 15.224 239.314 13.928C239.314 13.184 239.89 12.296 241.474 12.296ZM248.786 22.976C248.786 24.464 247.346 25.64 247.346 25.64C247.346 25.64 247.49 26.312 248.21 26.312C249.098 26.312 251.042 24.296 251.042 21.92C251.042 20.576 250.346 20.096 249.458 20.096C248.234 20.096 247.754 21.056 247.73 21.752C248.402 21.824 248.786 22.328 248.786 22.976ZM20.4325 44.704C20.4325 44.704 19.2325 43 16.9285 43C13.5205 43 12.2725 46.912 12.2725 49.48C12.2725 52.48 13.6165 55.24 15.9925 55.24C18.5605 55.24 19.7845 52.048 20.2165 50.8H20.3365C20.2405 52.024 20.1925 53.176 20.1925 53.512C20.1925 54.928 20.4565 55.168 21.0325 55.168C21.7765 55.168 22.6885 54.616 22.6885 54.616C22.6885 54.616 22.0645 53.44 22.0645 51.928C22.0645 47.44 22.3045 44.056 22.3045 40.312C22.3045 38.968 22.1605 38.2 21.3205 38.2C20.7445 38.2 19.8085 38.656 19.8085 38.656C20.3845 40.168 20.4325 41.464 20.4325 44.704ZM16.2565 53.272C14.9605 53.272 14.2885 51.376 14.2885 49.432C14.2885 47.176 14.7685 44.68 17.0965 44.68C19.0885 44.68 20.2405 46.048 20.3605 46.216C20.3605 46.216 20.3845 46.552 20.3845 47.056C20.3845 49.408 18.4885 53.272 16.2565 53.272ZM30.2556 53.56C27.7596 53.56 26.9196 51.016 26.9196 48.784L33.6156 48.544C33.7116 48.304 33.9276 47.56 33.9276 46.504C33.9276 45.112 33.0636 43 30.2316 43C25.7436 43 24.9756 47.128 24.9756 49.288C24.9756 52.888 26.7036 55.24 30.2076 55.24C31.9836 55.24 34.0236 54.112 34.0236 52.696C34.0236 51.904 33.3276 51.76 33.3276 51.76C32.5836 52.816 31.4076 53.56 30.2556 53.56ZM29.8956 44.32C31.5996 44.32 31.8876 45.712 31.8876 46.144C31.8876 46.648 31.8396 46.984 31.6956 47.32L27.0396 47.488C27.2316 45.952 28.1196 44.32 29.8956 44.32ZM36.8564 53.32C36.8564 54.568 37.0724 55.072 37.9364 55.072C38.3684 55.072 39.3524 54.544 39.3524 54.544C39.3524 54.544 38.7524 53.44 38.7524 51.976C38.7524 50.344 38.9204 46.768 38.9204 45.544V43.12C38.9204 39.712 38.8484 38.2 37.8164 38.2C37.0724 38.2 36.3044 38.68 36.3044 38.68C36.9044 40.216 37.0724 41.632 37.0724 44.872C37.0724 47.8 36.8564 50.56 36.8564 53.32ZM42.7883 53.296C42.7883 54.568 43.0283 55.072 43.6523 55.072C44.4443 55.072 45.2843 54.52 45.2843 54.52C45.2843 54.52 44.6603 53.392 44.6603 51.784V45.16C44.6603 44.104 44.5643 43.072 43.6523 43.072C43.0763 43.072 42.1403 43.528 42.1403 43.528C42.6683 44.968 42.8603 45.856 42.8603 49.096C42.8603 50.656 42.7883 51.904 42.7883 53.296ZM42.1403 39.472C42.1403 40.216 42.7163 40.792 43.4603 40.792C44.2043 40.792 44.8043 40.216 44.8043 39.472C44.8043 38.728 44.2043 38.128 43.4603 38.128C42.7163 38.128 42.1403 38.728 42.1403 39.472ZM46.8231 43.456C48.5511 45.616 50.3271 51.928 50.9991 55.12C50.9991 55.12 51.1191 55.144 51.2871 55.144C51.7431 55.144 52.6791 55.048 53.1351 54.376C54.5511 52.312 57.5031 46.576 57.5031 44.152C57.5031 43.408 57.2151 43 56.5911 43C55.8471 43 54.6711 43.456 54.6711 43.456C54.6711 43.456 55.1991 44.248 55.1991 45.16C55.1991 48.232 52.6791 52.648 52.3911 53.104C51.4791 49.216 50.5671 46.048 49.8231 44.296C49.4631 43.48 49.1271 43 48.7911 43C47.8551 43 47.0391 43.312 46.8231 43.456ZM64.1697 53.56C61.6737 53.56 60.8337 51.016 60.8337 48.784L67.5297 48.544C67.6257 48.304 67.8417 47.56 67.8417 46.504C67.8417 45.112 66.9777 43 64.1457 43C59.6577 43 58.8897 47.128 58.8897 49.288C58.8897 52.888 60.6177 55.24 64.1217 55.24C65.8977 55.24 67.9377 54.112 67.9377 52.696C67.9377 51.904 67.2417 51.76 67.2417 51.76C66.4977 52.816 65.3217 53.56 64.1697 53.56ZM63.8097 44.32C65.5137 44.32 65.8017 45.712 65.8017 46.144C65.8017 46.648 65.7537 46.984 65.6097 47.32L60.9537 47.488C61.1457 45.952 62.0337 44.32 63.8097 44.32ZM72.7384 46.072V45.832C72.7384 44.776 72.6184 43.024 72.6184 43.024C72.6184 43.024 70.5064 43.144 70.5064 43.84C70.5064 44.848 71.0824 45.784 71.0824 49.6C71.0824 52 70.6024 52.672 70.6024 54.208C70.6024 54.76 70.7464 55.072 71.8024 55.072C72.8584 55.072 73.0264 55.024 73.0264 55.024C72.7384 53.272 72.7144 52.384 72.7144 51.064V50.056C72.7144 47.2 74.4184 44.92 75.5464 44.92C76.1224 44.92 76.6024 45.28 76.9864 46.36C76.9864 46.36 78.2824 46.072 78.2824 44.848C78.2824 44.008 77.7064 43 76.1464 43C74.2504 43 73.1704 44.992 72.8584 46.072H72.7384ZM84.4197 53.56C81.9237 53.56 81.0837 51.016 81.0837 48.784L87.7797 48.544C87.8757 48.304 88.0917 47.56 88.0917 46.504C88.0917 45.112 87.2277 43 84.3957 43C79.9077 43 79.1397 47.128 79.1397 49.288C79.1397 52.888 80.8677 55.24 84.3717 55.24C86.1477 55.24 88.1877 54.112 88.1877 52.696C88.1877 51.904 87.4917 51.76 87.4917 51.76C86.7477 52.816 85.5717 53.56 84.4197 53.56ZM84.0597 44.32C85.7637 44.32 86.0517 45.712 86.0517 46.144C86.0517 46.648 86.0037 46.984 85.8597 47.32L81.2037 47.488C81.3957 45.952 82.2837 44.32 84.0597 44.32ZM98.2684 44.704C98.2684 44.704 97.0684 43 94.7644 43C91.3564 43 90.1084 46.912 90.1084 49.48C90.1084 52.48 91.4524 55.24 93.8284 55.24C96.3964 55.24 97.6204 52.048 98.0524 50.8H98.1724C98.0764 52.024 98.0284 53.176 98.0284 53.512C98.0284 54.928 98.2924 55.168 98.8684 55.168C99.6124 55.168 100.524 54.616 100.524 54.616C100.524 54.616 99.9004 53.44 99.9004 51.928C99.9004 47.44 100.14 44.056 100.14 40.312C100.14 38.968 99.9964 38.2 99.1564 38.2C98.5804 38.2 97.6444 38.656 97.6444 38.656C98.2204 40.168 98.2684 41.464 98.2684 44.704ZM94.0924 53.272C92.7964 53.272 92.1244 51.376 92.1244 49.432C92.1244 47.176 92.6044 44.68 94.9324 44.68C96.9244 44.68 98.0764 46.048 98.1964 46.216C98.1964 46.216 98.2204 46.552 98.2204 47.056C98.2204 49.408 96.3244 53.272 94.0924 53.272ZM110.496 46.072V45.832C110.496 44.776 110.376 43.024 110.376 43.024C110.376 43.024 108.264 43.144 108.264 43.84C108.264 44.848 108.84 45.784 108.84 49.6C108.84 52 108.36 52.672 108.36 54.208C108.36 54.76 108.504 55.072 109.56 55.072C110.616 55.072 110.784 55.024 110.784 55.024C110.496 53.272 110.472 52.384 110.472 51.064V50.056C110.472 47.2 112.176 44.92 113.304 44.92C113.88 44.92 114.36 45.28 114.744 46.36C114.744 46.36 116.04 46.072 116.04 44.848C116.04 44.008 115.464 43 113.904 43C112.008 43 110.928 44.992 110.616 46.072H110.496ZM118.257 53.296C118.257 54.568 118.497 55.072 119.121 55.072C119.913 55.072 120.753 54.52 120.753 54.52C120.753 54.52 120.129 53.392 120.129 51.784V45.16C120.129 44.104 120.033 43.072 119.121 43.072C118.545 43.072 117.609 43.528 117.609 43.528C118.137 44.968 118.329 45.856 118.329 49.096C118.329 50.656 118.257 51.904 118.257 53.296ZM117.609 39.472C117.609 40.216 118.185 40.792 118.929 40.792C119.673 40.792 120.273 40.216 120.273 39.472C120.273 38.728 119.673 38.128 118.929 38.128C118.185 38.128 117.609 38.728 117.609 39.472ZM131.292 55.144C131.292 57.592 130.404 59.272 127.812 59.272C126.3 59.272 125.1 58.864 125.1 57.448C125.1 57.16 125.148 56.872 125.148 56.872C124.26 56.968 123.252 57.184 123.252 58.288C123.252 60.136 125.412 61 127.212 61C131.748 61 133.116 58.192 133.116 54.64C133.116 52.816 132.684 50.32 132.684 46.816C132.684 45.808 132.708 44.752 132.804 43.6C131.94 43.552 130.74 43 128.844 43C125.196 43 123.132 46.312 123.132 49.6C123.132 52.648 124.548 54.856 126.972 54.856C129.252 54.856 130.548 52.288 130.98 51.04H131.1C131.172 51.688 131.292 53.896 131.292 55.144ZM131.076 47.056C131.076 49.432 129.348 52.888 127.26 52.888C125.532 52.888 125.148 50.584 125.148 49.432C125.148 47.272 125.82 44.632 128.268 44.632C129.516 44.632 130.404 44.92 131.076 45.184V47.056ZM143.286 47.68C143.286 49.72 143.094 51.568 143.094 53.296C143.094 54.568 143.334 55.072 143.958 55.072C144.75 55.072 145.59 54.52 145.59 54.52C145.59 54.52 144.966 53.464 144.966 51.784C144.966 50.152 145.11 48.04 145.11 46.312C145.11 45.184 144.63 43 142.422 43C140.094 43 138.774 44.92 138.342 45.976H138.246C138.318 43.912 138.342 42.424 138.342 41.104C138.342 39.688 138.198 38.2 137.286 38.2C136.494 38.2 135.726 38.656 135.726 38.656C136.566 40.36 136.59 46.624 136.59 49.096V49.864C136.59 51.448 136.062 52.72 136.062 54.208C136.062 54.76 136.23 55.072 137.286 55.072C138.342 55.072 138.51 55.024 138.51 55.024C138.222 53.272 138.198 52.384 138.198 51.064V50.056C138.198 46.024 140.55 44.92 141.918 44.92C143.118 44.92 143.286 46.6 143.286 47.68ZM148.99 51.736C148.99 54.04 150.118 55.072 151.87 55.072C152.974 55.072 154.174 54.688 154.174 53.8C154.174 53.44 154.054 53.056 153.862 52.816C153.382 53.128 152.974 53.344 152.278 53.344C150.814 53.344 150.766 51.712 150.766 50.104C150.766 47.752 150.886 44.512 150.886 44.512H153.358C153.718 44.512 153.934 43.912 153.934 43.384C153.934 43.24 153.934 43.12 153.886 43H150.862V39.904C150.862 39.904 148.87 40.048 148.87 40.744C148.87 41.512 149.11 42.352 149.11 43H148.174C147.814 43 147.358 43.792 147.358 44.32C147.358 44.368 147.358 44.44 147.382 44.512H149.134C149.086 47.296 148.99 50.608 148.99 51.736ZM161.927 51.736C161.927 54.04 163.055 55.072 164.807 55.072C165.911 55.072 167.111 54.688 167.111 53.8C167.111 53.44 166.991 53.056 166.799 52.816C166.319 53.128 165.911 53.344 165.215 53.344C163.751 53.344 163.703 51.712 163.703 50.104C163.703 47.752 163.823 44.512 163.823 44.512H166.295C166.655 44.512 166.871 43.912 166.871 43.384C166.871 43.24 166.871 43.12 166.823 43H163.799V39.904C163.799 39.904 161.807 40.048 161.807 40.744C161.807 41.512 162.047 42.352 162.047 43H161.111C160.751 43 160.295 43.792 160.295 44.32C160.295 44.368 160.295 44.44 160.319 44.512H162.071C162.023 47.296 161.927 50.608 161.927 51.736ZM173.906 43C170.09 43 168.554 46.6 168.554 49.648C168.554 52.432 170.186 55.24 173.642 55.24C177.218 55.24 178.634 51.664 178.634 48.76C178.634 46.024 177.17 43 173.906 43ZM173.498 44.488C175.538 44.488 176.498 46.888 176.498 49.36C176.498 51.016 175.826 53.848 173.69 53.848C171.65 53.848 170.666 51.52 170.666 49.048C170.666 47.392 171.362 44.488 173.498 44.488ZM186.03 61C189.438 61 195.51 47.368 195.51 44.224C195.51 43.288 195.198 43 194.454 43C193.71 43 192.774 43.456 192.774 43.456C193.062 43.984 193.278 44.416 193.278 45.232C193.278 47.224 192.486 49.576 190.854 53.128C190.23 50.56 187.782 43 186.702 43C185.454 43 184.734 43.624 184.638 43.768C186.39 45.904 188.814 51.952 189.774 54.832C188.742 56.68 187.638 58.792 184.998 58.792C184.998 59.92 185.046 61 186.03 61ZM202.265 43C198.449 43 196.913 46.6 196.913 49.648C196.913 52.432 198.545 55.24 202.001 55.24C205.577 55.24 206.993 51.664 206.993 48.76C206.993 46.024 205.529 43 202.265 43ZM201.857 44.488C203.897 44.488 204.857 46.888 204.857 49.36C204.857 51.016 204.185 53.848 202.049 53.848C200.009 53.848 199.025 51.52 199.025 49.048C199.025 47.392 199.721 44.488 201.857 44.488ZM218.585 43.888C218.585 43.336 218.297 43.096 217.793 43.096C217.049 43.096 216.185 43.552 216.185 43.552C216.185 43.552 216.713 44.464 216.713 46.816C216.713 50.416 215.057 53.224 213.257 53.224C211.721 53.224 211.409 51.808 211.409 50.728C211.409 49.192 211.481 47.512 211.481 45.856C211.481 44.296 211.457 43.096 210.521 43.096C209.777 43.096 208.961 43.552 208.961 43.552C209.513 45.136 209.729 45.976 209.729 47.992C209.729 49.072 209.681 50.536 209.681 51.616C209.681 53.92 210.929 55.24 212.921 55.24C215.561 55.24 216.497 52.336 216.881 50.776H216.977C216.977 51.544 217.001 53.176 217.001 53.512C217.001 54.76 217.265 55.168 217.841 55.168C218.609 55.168 219.353 54.616 219.353 54.616C218.513 52.792 218.345 50.584 218.345 48.736C218.345 46.984 218.585 45.472 218.585 43.888ZM224.098 46.072V45.832C224.098 44.776 223.978 43.024 223.978 43.024C223.978 43.024 221.866 43.144 221.866 43.84C221.866 44.848 222.442 45.784 222.442 49.6C222.442 52 221.962 52.672 221.962 54.208C221.962 54.76 222.106 55.072 223.162 55.072C224.218 55.072 224.386 55.024 224.386 55.024C224.098 53.272 224.074 52.384 224.074 51.064V50.056C224.074 47.2 225.778 44.92 226.906 44.92C227.482 44.92 227.962 45.28 228.346 46.36C228.346 46.36 229.642 46.072 229.642 44.848C229.642 44.008 229.066 43 227.506 43C225.61 43 224.53 44.992 224.218 46.072H224.098ZM243.815 44.704C243.815 44.704 242.615 43 240.311 43C236.903 43 235.655 46.912 235.655 49.48C235.655 52.48 236.999 55.24 239.375 55.24C241.943 55.24 243.167 52.048 243.599 50.8H243.719C243.623 52.024 243.575 53.176 243.575 53.512C243.575 54.928 243.839 55.168 244.415 55.168C245.159 55.168 246.071 54.616 246.071 54.616C246.071 54.616 245.447 53.44 245.447 51.928C245.447 47.44 245.687 44.056 245.687 40.312C245.687 38.968 245.543 38.2 244.703 38.2C244.127 38.2 243.191 38.656 243.191 38.656C243.767 40.168 243.815 41.464 243.815 44.704ZM239.639 53.272C238.343 53.272 237.671 51.376 237.671 49.432C237.671 47.176 238.151 44.68 240.479 44.68C242.471 44.68 243.623 46.048 243.743 46.216C243.743 46.216 243.767 46.552 243.767 47.056C243.767 49.408 241.871 53.272 239.639 53.272ZM253.71 43C249.894 43 248.358 46.6 248.358 49.648C248.358 52.432 249.99 55.24 253.446 55.24C257.022 55.24 258.438 51.664 258.438 48.76C258.438 46.024 256.974 43 253.71 43ZM253.302 44.488C255.342 44.488 256.302 46.888 256.302 49.36C256.302 51.016 255.63 53.848 253.494 53.848C251.454 53.848 250.47 51.52 250.47 49.048C250.47 47.392 251.166 44.488 253.302 44.488ZM265.71 43C261.894 43 260.358 46.6 260.358 49.648C260.358 52.432 261.99 55.24 265.446 55.24C269.022 55.24 270.438 51.664 270.438 48.76C270.438 46.024 268.974 43 265.71 43ZM265.302 44.488C267.342 44.488 268.302 46.888 268.302 49.36C268.302 51.016 267.63 53.848 265.494 53.848C263.454 53.848 262.47 51.52 262.47 49.048C262.47 47.392 263.166 44.488 265.302 44.488ZM275.238 46.072V45.832C275.238 44.776 275.118 43.024 275.118 43.024C275.118 43.024 273.006 43.144 273.006 43.84C273.006 44.848 273.582 45.784 273.582 49.6C273.582 52 273.102 52.672 273.102 54.208C273.102 54.76 273.246 55.072 274.302 55.072C275.358 55.072 275.526 55.024 275.526 55.024C275.238 53.272 275.214 52.384 275.214 51.064V50.056C275.214 47.2 276.918 44.92 278.046 44.92C278.622 44.92 279.102 45.28 279.486 46.36C279.486 46.36 280.782 46.072 280.782 44.848C280.782 44.008 280.206 43 278.646 43C276.75 43 275.67 44.992 275.358 46.072H275.238ZM280.547 53.632C280.547 54.472 281.219 55.144 282.083 55.144C282.923 55.144 283.595 54.472 283.595 53.632C283.595 52.768 282.923 52.096 282.083 52.096C281.219 52.096 280.547 52.768 280.547 53.632Z" fill="#212B36"/>
</svg>
