<svg width="296" height="64" viewBox="0 0 296 64" fill="none" xmlns="http://www.w3.org/2000/svg">
<path d="M11.5294 15.08C11.5294 17.264 11.3134 19.88 11.3134 21.44C11.3134 22.256 11.3134 23.072 11.9374 23.072C13.1614 23.072 13.9054 22.592 13.9054 22.592C13.4974 21.296 13.4254 18.176 13.4254 16.4V14.672C13.4254 13.688 13.6174 9.8 13.6174 8.528C13.6174 7.28 13.4734 6.68 12.9694 6.68C12.0094 6.68 11.0734 7.016 11.0734 7.016C11.3854 8.624 11.5294 11.384 11.5294 15.08ZM17.4586 19.736C17.4586 22.04 18.5866 23.072 20.3386 23.072C21.4426 23.072 22.6426 22.688 22.6426 21.8C22.6426 21.44 22.5226 21.056 22.3306 20.816C21.8506 21.128 21.4426 21.344 20.7466 21.344C19.2826 21.344 19.2346 19.712 19.2346 18.104C19.2346 15.752 19.3546 12.512 19.3546 12.512H21.8266C22.1866 12.512 22.4026 11.912 22.4026 11.384C22.4026 11.24 22.4026 11.12 22.3546 11H19.3306V7.904C19.3306 7.904 17.3386 8.048 17.3386 8.744C17.3386 9.512 17.5786 10.352 17.5786 11H16.6426C16.2826 11 15.8266 11.792 15.8266 12.32C15.8266 12.368 15.8266 12.44 15.8506 12.512H17.6026C17.5546 15.296 17.4586 18.608 17.4586 19.736ZM26.6474 6.2C25.5914 6.2 25.0154 7.28 24.9434 7.52C25.9034 7.688 26.0714 8.504 26.0714 8.816C26.0714 10.616 24.6314 12.128 24.6314 12.128C24.6314 12.128 25.0394 12.536 25.6154 12.536C26.1674 12.536 28.3514 10.328 28.3514 8.024C28.3514 6.824 27.5834 6.2 26.6474 6.2ZM33.8883 12.296C34.9443 12.296 35.7122 12.992 36.0723 14.288C36.0723 14.288 37.6083 13.76 37.6083 12.968C37.6083 11.528 35.5443 11 34.1763 11C31.5123 11 29.8563 12.32 29.8563 14.408C29.8563 16.088 31.5843 17 33.3603 17.624C34.8483 18.152 36.2403 18.752 36.2403 20.12C36.2403 21.368 35.0163 21.8 33.6723 21.8C31.7523 21.8 31.1523 20.408 30.7443 19.784C30.4083 19.952 29.6163 20.384 29.6163 21.296C29.6163 22.352 30.8883 23.24 33.6963 23.24C36.4803 23.24 38.1843 21.464 38.1843 19.424C38.1843 17.576 36.4323 16.688 34.7043 16.136C33.3363 15.704 31.7283 15.224 31.7283 13.928C31.7283 13.184 32.3043 12.296 33.8883 12.296ZM47.2763 20.984C47.8283 21.92 49.0523 23.24 50.7083 23.24C53.3723 23.24 55.4603 20.192 55.4603 16.112C55.4603 13.952 54.5723 11 51.6203 11C49.3403 11 48.1163 12.608 47.6603 14.072H47.5403C47.6603 12.944 47.7323 11 47.7323 9.08C47.7323 8.264 47.7323 6.2 46.7483 6.2C45.9323 6.2 45.1403 6.656 45.1403 6.656C45.7883 7.928 45.8603 10.424 45.8603 12.752V16.04C45.8603 20.648 45.3563 20.384 45.3563 22.136C45.3563 22.904 45.7163 23.048 46.3883 23.048H47.3243C47.3003 22.28 47.2763 21.392 47.2763 20.984ZM51.1643 12.584C52.7483 12.584 53.4443 14.384 53.4443 16.664C53.4443 18.896 52.5563 21.584 50.7323 21.584C48.9563 21.584 47.8283 20.192 47.3723 19.52C47.3723 15.824 48.8843 12.584 51.1643 12.584ZM66.2457 19.664C66.2457 17.024 66.3657 15.656 66.3657 14.24C66.3657 13.016 65.7177 11 62.3097 11C60.5097 11 57.8457 11.768 57.8457 13.208C57.8457 14 59.2137 14.624 59.2137 14.624C59.8377 13.136 60.9897 12.416 62.3817 12.416C63.7737 12.416 64.5417 13.28 64.5417 15.08C64.5417 16.592 64.4937 16.688 64.4937 16.688C64.1337 16.64 62.5977 16.472 61.5177 16.472C58.6377 16.472 57.4617 18.128 57.4617 20.216C57.4617 22.016 58.5177 23.24 60.5817 23.24C63.0057 23.24 64.1817 21.608 64.5177 20.672H64.6137C64.6137 20.72 64.5897 20.96 64.5897 21.296C64.5897 22.04 64.7097 23.168 65.3817 23.168C66.2217 23.168 67.1337 22.616 67.1337 22.616C67.1337 22.616 66.2457 21.2 66.2457 19.664ZM64.4457 18.704C64.4457 20.288 62.8377 21.512 61.0857 21.512C60.1497 21.512 59.5257 20.96 59.5257 19.904C59.5257 18.152 60.7257 17.768 62.5497 17.768C63.4137 17.768 64.2777 17.84 64.4457 17.84V18.704ZM71.8696 18.392L72.8776 16.904C74.2936 19.88 76.3336 23.072 77.1736 23.072C78.0136 23.072 78.7576 22.088 78.9736 21.656C77.9656 21.32 75.9496 19.664 74.1016 15.488C75.2056 14.048 76.5016 13.088 78.0856 12.08C77.8696 11.456 77.1016 11 76.6696 11C75.7816 11 74.3896 12.776 71.8456 16.184V13.136C71.8456 12.2 71.8696 9.92 71.8696 9.176C71.8696 7.328 71.7256 6.2 70.7896 6.2C70.2136 6.2 69.2776 6.656 69.2776 6.656C70.0696 8.432 70.1896 15.536 70.1896 17.528C70.1896 19.592 70.0696 21.008 69.4696 22.592C69.6136 22.736 70.3336 23.072 71.1256 23.072C71.4616 23.072 71.6536 22.904 71.7496 22.712C71.8696 22.496 71.9656 22.016 71.9656 20.792C71.9656 20.168 71.9416 19.496 71.8696 18.392ZM80.968 21.296C80.968 22.568 81.208 23.072 81.832 23.072C82.624 23.072 83.464 22.52 83.464 22.52C83.464 22.52 82.84 21.392 82.84 19.784V13.16C82.84 12.104 82.744 11.072 81.832 11.072C81.256 11.072 80.32 11.528 80.32 11.528C80.848 12.968 81.04 13.856 81.04 17.096C81.04 18.656 80.968 19.904 80.968 21.296ZM80.32 7.472C80.32 8.216 80.896 8.792 81.64 8.792C82.384 8.792 82.984 8.216 82.984 7.472C82.984 6.728 82.384 6.128 81.64 6.128C80.896 6.128 80.32 6.728 80.32 7.472ZM88.6988 18.056C88.6988 14.024 91.0988 12.92 92.3948 12.92C93.6428 12.92 93.8348 14.6 93.8348 15.68C93.8348 18.032 93.5948 20.024 93.5948 21.224C93.5948 22.496 93.7628 23.072 94.5308 23.072C95.2028 23.072 96.0908 22.52 96.0908 22.52C95.6108 21.656 95.4668 20.528 95.4668 19.52C95.4668 18.2 95.6108 15.68 95.6108 14.312C95.6108 13.184 95.1548 11.024 92.8748 11C90.5948 11 89.2028 12.992 88.8668 13.976H88.7468V13.64C88.7468 12.872 88.5788 11.024 88.5788 11.024C88.5788 11.024 86.4908 11.144 86.4908 11.84C86.4908 12.872 87.0668 13.784 87.0668 18.032C87.0668 19.736 86.5868 21.2 86.5868 22.208C86.5868 22.76 86.7308 23.072 87.7868 23.072C88.8428 23.072 89.0108 23.024 89.0108 23.024C88.7228 21.272 88.6988 20.384 88.6988 19.064V18.056ZM106.448 23.144C106.448 25.592 105.56 27.272 102.968 27.272C101.456 27.272 100.256 26.864 100.256 25.448C100.256 25.16 100.304 24.872 100.304 24.872C99.4161 24.968 98.4081 25.184 98.4081 26.288C98.4081 28.136 100.568 29 102.368 29C106.904 29 108.272 26.192 108.272 22.64C108.272 20.816 107.84 18.32 107.84 14.816C107.84 13.808 107.864 12.752 107.96 11.6C107.096 11.552 105.896 11 104 11C100.352 11 98.2881 14.312 98.2881 17.6C98.2881 20.648 99.7041 22.856 102.128 22.856C104.408 22.856 105.704 20.288 106.136 19.04H106.256C106.328 19.688 106.448 21.896 106.448 23.144ZM106.232 15.056C106.232 17.432 104.504 20.888 102.416 20.888C100.688 20.888 100.304 18.584 100.304 17.432C100.304 15.272 100.976 12.632 103.424 12.632C104.672 12.632 105.56 12.92 106.232 13.184V15.056ZM128.743 11C126.175 11 124.903 13.112 124.567 13.976C124.495 13.088 124.087 11 122.023 11C119.911 11 118.519 12.992 118.351 13.976H118.255V13.64C118.255 12.872 118.087 11.024 118.087 11.024C118.087 11.024 115.975 11.144 115.975 11.84C115.975 12.872 116.551 13.784 116.551 18.032C116.551 19.736 116.071 21.2 116.071 22.208C116.071 22.76 116.239 23.072 117.295 23.072C118.351 23.072 118.519 23.024 118.519 23.024C118.231 21.272 118.207 20.384 118.207 19.064V18.056C118.207 14.264 120.511 12.872 121.543 12.872C123.031 12.872 123.199 14.72 123.199 15.728C123.199 16.712 123.007 18.272 123.007 21.992C123.007 22.4 123.055 23.096 123.799 23.096C124.519 23.096 125.167 22.904 125.335 22.808C125.071 21.848 124.855 20.864 124.855 18.584C124.855 17.912 124.903 17.168 124.975 16.4C125.191 14.216 126.799 12.872 128.263 12.872C129.631 12.872 129.631 14.864 129.631 15.992C129.631 17.888 129.463 20.24 129.463 21.224C129.463 22.496 129.679 23.072 130.327 23.072C131.119 23.072 131.959 22.52 131.959 22.52C131.335 21.176 131.335 20.12 131.335 18.968C131.335 16.904 131.455 15.68 131.455 14.312C131.455 13.184 130.975 11.024 128.743 11ZM142.933 19.664C142.933 17.024 143.053 15.656 143.053 14.24C143.053 13.016 142.405 11 138.997 11C137.197 11 134.533 11.768 134.533 13.208C134.533 14 135.901 14.624 135.901 14.624C136.525 13.136 137.677 12.416 139.069 12.416C140.461 12.416 141.229 13.28 141.229 15.08C141.229 16.592 141.181 16.688 141.181 16.688C140.821 16.64 139.285 16.472 138.205 16.472C135.325 16.472 134.149 18.128 134.149 20.216C134.149 22.016 135.205 23.24 137.269 23.24C139.693 23.24 140.869 21.608 141.205 20.672H141.301C141.301 20.72 141.277 20.96 141.277 21.296C141.277 22.04 141.397 23.168 142.069 23.168C142.909 23.168 143.821 22.616 143.821 22.616C143.821 22.616 142.933 21.2 142.933 19.664ZM141.133 18.704C141.133 20.288 139.525 21.512 137.773 21.512C136.837 21.512 136.213 20.96 136.213 19.904C136.213 18.152 137.413 17.768 139.237 17.768C140.101 17.768 140.965 17.84 141.133 17.84V18.704ZM153.909 23.144C153.909 25.592 153.021 27.272 150.429 27.272C148.917 27.272 147.717 26.864 147.717 25.448C147.717 25.16 147.765 24.872 147.765 24.872C146.877 24.968 145.869 25.184 145.869 26.288C145.869 28.136 148.029 29 149.829 29C154.365 29 155.733 26.192 155.733 22.64C155.733 20.816 155.301 18.32 155.301 14.816C155.301 13.808 155.325 12.752 155.421 11.6C154.557 11.552 153.357 11 151.461 11C147.813 11 145.749 14.312 145.749 17.6C145.749 20.648 147.165 22.856 149.589 22.856C151.869 22.856 153.165 20.288 153.597 19.04H153.717C153.789 19.688 153.909 21.896 153.909 23.144ZM153.693 15.056C153.693 17.432 151.965 20.888 149.877 20.888C148.149 20.888 147.765 18.584 147.765 17.432C147.765 15.272 148.437 12.632 150.885 12.632C152.133 12.632 153.021 12.92 153.693 13.184V15.056ZM158.991 21.296C158.991 22.568 159.231 23.072 159.855 23.072C160.647 23.072 161.487 22.52 161.487 22.52C161.487 22.52 160.863 21.392 160.863 19.784V13.16C160.863 12.104 160.767 11.072 159.855 11.072C159.279 11.072 158.343 11.528 158.343 11.528C158.871 12.968 159.063 13.856 159.063 17.096C159.063 18.656 158.991 19.904 158.991 21.296ZM158.343 7.472C158.343 8.216 158.919 8.792 159.663 8.792C160.407 8.792 161.007 8.216 161.007 7.472C161.007 6.728 160.407 6.128 159.663 6.128C158.919 6.128 158.343 6.728 158.343 7.472ZM168.978 12.392C170.178 12.392 170.946 13.232 171.426 14.384C171.426 14.384 172.818 13.856 172.818 13.064C172.818 11.624 170.49 11 169.146 11C164.61 11 163.866 15.08 163.866 17.24C163.866 20.768 165.738 23.24 169.194 23.24C170.97 23.24 173.082 22.16 173.082 20.744C173.082 19.952 172.386 19.736 172.386 19.736C171.762 20.696 170.706 21.56 169.434 21.56C166.554 21.56 165.858 18.608 165.858 16.88C165.858 15.104 166.434 12.392 168.978 12.392ZM175.872 22.976C175.872 24.464 174.432 25.64 174.432 25.64C174.432 25.64 174.576 26.312 175.296 26.312C176.184 26.312 178.128 24.296 178.128 21.92C178.128 20.576 177.432 20.096 176.544 20.096C175.32 20.096 174.84 21.056 174.816 21.752C175.488 21.824 175.872 22.328 175.872 22.976ZM190.025 12.392C191.225 12.392 191.993 13.232 192.473 14.384C192.473 14.384 193.865 13.856 193.865 13.064C193.865 11.624 191.537 11 190.193 11C185.657 11 184.913 15.08 184.913 17.24C184.913 20.768 186.785 23.24 190.241 23.24C192.017 23.24 194.129 22.16 194.129 20.744C194.129 19.952 193.433 19.736 193.433 19.736C192.809 20.696 191.753 21.56 190.481 21.56C187.601 21.56 186.905 18.608 186.905 16.88C186.905 15.104 187.481 12.392 190.025 12.392ZM198.574 14.072V13.832C198.574 12.776 198.454 11.024 198.454 11.024C198.454 11.024 196.342 11.144 196.342 11.84C196.342 12.848 196.918 13.784 196.918 17.6C196.918 20 196.438 20.672 196.438 22.208C196.438 22.76 196.582 23.072 197.638 23.072C198.694 23.072 198.862 23.024 198.862 23.024C198.574 21.272 198.55 20.384 198.55 19.064V18.056C198.55 15.2 200.254 12.92 201.382 12.92C201.958 12.92 202.438 13.28 202.822 14.36C202.822 14.36 204.118 14.072 204.118 12.848C204.118 12.008 203.542 11 201.982 11C200.086 11 199.006 12.992 198.694 14.072H198.574ZM210.256 21.56C207.76 21.56 206.92 19.016 206.92 16.784L213.616 16.544C213.712 16.304 213.928 15.56 213.928 14.504C213.928 13.112 213.064 11 210.232 11C205.744 11 204.976 15.128 204.976 17.288C204.976 20.888 206.704 23.24 210.208 23.24C211.984 23.24 214.024 22.112 214.024 20.696C214.024 19.904 213.328 19.76 213.328 19.76C212.584 20.816 211.408 21.56 210.256 21.56ZM209.896 12.32C211.6 12.32 211.888 13.712 211.888 14.144C211.888 14.648 211.84 14.984 211.696 15.32L207.04 15.488C207.232 13.952 208.12 12.32 209.896 12.32ZM224.8 19.664C224.8 17.024 224.92 15.656 224.92 14.24C224.92 13.016 224.272 11 220.864 11C219.064 11 216.4 11.768 216.4 13.208C216.4 14 217.768 14.624 217.768 14.624C218.392 13.136 219.544 12.416 220.936 12.416C222.328 12.416 223.096 13.28 223.096 15.08C223.096 16.592 223.048 16.688 223.048 16.688C222.688 16.64 221.152 16.472 220.072 16.472C217.192 16.472 216.016 18.128 216.016 20.216C216.016 22.016 217.072 23.24 219.136 23.24C221.56 23.24 222.736 21.608 223.072 20.672H223.168C223.168 20.72 223.144 20.96 223.144 21.296C223.144 22.04 223.264 23.168 223.936 23.168C224.776 23.168 225.688 22.616 225.688 22.616C225.688 22.616 224.8 21.2 224.8 19.664ZM223 18.704C223 20.288 221.392 21.512 219.64 21.512C218.704 21.512 218.08 20.96 218.08 19.904C218.08 18.152 219.28 17.768 221.104 17.768C221.968 17.768 222.832 17.84 223 17.84V18.704ZM228.42 19.736C228.42 22.04 229.548 23.072 231.3 23.072C232.404 23.072 233.604 22.688 233.604 21.8C233.604 21.44 233.484 21.056 233.292 20.816C232.812 21.128 232.404 21.344 231.708 21.344C230.244 21.344 230.196 19.712 230.196 18.104C230.196 15.752 230.316 12.512 230.316 12.512H232.788C233.148 12.512 233.364 11.912 233.364 11.384C233.364 11.24 233.364 11.12 233.316 11H230.292V7.904C230.292 7.904 228.3 8.048 228.3 8.744C228.3 9.512 228.54 10.352 228.54 11H227.604C227.244 11 226.788 11.792 226.788 12.32C226.788 12.368 226.788 12.44 226.812 12.512H228.564C228.516 15.296 228.42 18.608 228.42 19.736ZM240.326 21.56C237.83 21.56 236.99 19.016 236.99 16.784L243.686 16.544C243.782 16.304 243.998 15.56 243.998 14.504C243.998 13.112 243.134 11 240.302 11C235.814 11 235.046 15.128 235.046 17.288C235.046 20.888 236.774 23.24 240.278 23.24C242.054 23.24 244.094 22.112 244.094 20.696C244.094 19.904 243.398 19.76 243.398 19.76C242.654 20.816 241.478 21.56 240.326 21.56ZM239.966 12.32C241.67 12.32 241.958 13.712 241.958 14.144C241.958 14.648 241.91 14.984 241.766 15.32L237.11 15.488C237.302 13.952 238.19 12.32 239.966 12.32ZM254.175 12.704C254.175 12.704 252.975 11 250.671 11C247.263 11 246.015 14.912 246.015 17.48C246.015 20.48 247.359 23.24 249.735 23.24C252.303 23.24 253.527 20.048 253.959 18.8H254.079C253.983 20.024 253.935 21.176 253.935 21.512C253.935 22.928 254.199 23.168 254.775 23.168C255.519 23.168 256.431 22.616 256.431 22.616C256.431 22.616 255.807 21.44 255.807 19.928C255.807 15.44 256.047 12.056 256.047 8.312C256.047 6.968 255.903 6.2 255.063 6.2C254.487 6.2 253.551 6.656 253.551 6.656C254.127 8.168 254.175 9.464 254.175 12.704ZM249.999 21.272C248.703 21.272 248.031 19.376 248.031 17.432C248.031 15.176 248.511 12.68 250.839 12.68C252.831 12.68 253.983 14.048 254.103 14.216C254.103 14.216 254.127 14.552 254.127 15.056C254.127 17.408 252.231 21.272 249.999 21.272ZM266.019 20.984C266.571 21.92 267.795 23.24 269.451 23.24C272.115 23.24 274.203 20.192 274.203 16.112C274.203 13.952 273.315 11 270.363 11C268.083 11 266.859 12.608 266.403 14.072H266.283C266.403 12.944 266.475 11 266.475 9.08C266.475 8.264 266.475 6.2 265.491 6.2C264.675 6.2 263.883 6.656 263.883 6.656C264.531 7.928 264.603 10.424 264.603 12.752V16.04C264.603 20.648 264.099 20.384 264.099 22.136C264.099 22.904 264.459 23.048 265.131 23.048H266.067C266.043 22.28 266.019 21.392 266.019 20.984ZM269.907 12.584C271.491 12.584 272.187 14.384 272.187 16.664C272.187 18.896 271.299 21.584 269.475 21.584C267.699 21.584 266.571 20.192 266.115 19.52C266.115 15.824 267.627 12.584 269.907 12.584ZM276.57 29C279.978 29 286.05 15.368 286.05 12.224C286.05 11.288 285.738 11 284.994 11C284.25 11 283.314 11.456 283.314 11.456C283.602 11.984 283.818 12.416 283.818 13.232C283.818 15.224 283.026 17.576 281.394 21.128C280.77 18.56 278.322 11 277.242 11C275.994 11 275.274 11.624 275.178 11.768C276.93 13.904 279.354 19.952 280.314 22.832C279.282 24.68 278.178 26.792 275.538 26.792C275.538 27.92 275.586 29 276.57 29ZM128.023 61C131.431 61 137.503 47.368 137.503 44.224C137.503 43.288 137.191 43 136.447 43C135.703 43 134.767 43.456 134.767 43.456C135.055 43.984 135.271 44.416 135.271 45.232C135.271 47.224 134.479 49.576 132.847 53.128C132.223 50.56 129.775 43 128.695 43C127.447 43 126.727 43.624 126.631 43.768C128.383 45.904 130.807 51.952 131.767 54.832C130.735 56.68 129.631 58.792 126.991 58.792C126.991 59.92 127.039 61 128.023 61ZM144.257 43C140.441 43 138.905 46.6 138.905 49.648C138.905 52.432 140.537 55.24 143.993 55.24C147.569 55.24 148.985 51.664 148.985 48.76C148.985 46.024 147.521 43 144.257 43ZM143.849 44.488C145.889 44.488 146.849 46.888 146.849 49.36C146.849 51.016 146.177 53.848 144.041 53.848C142.001 53.848 141.017 51.52 141.017 49.048C141.017 47.392 141.713 44.488 143.849 44.488ZM160.577 43.888C160.577 43.336 160.289 43.096 159.785 43.096C159.041 43.096 158.177 43.552 158.177 43.552C158.177 43.552 158.705 44.464 158.705 46.816C158.705 50.416 157.049 53.224 155.249 53.224C153.713 53.224 153.401 51.808 153.401 50.728C153.401 49.192 153.473 47.512 153.473 45.856C153.473 44.296 153.449 43.096 152.513 43.096C151.769 43.096 150.953 43.552 150.953 43.552C151.505 45.136 151.721 45.976 151.721 47.992C151.721 49.072 151.673 50.536 151.673 51.616C151.673 53.92 152.921 55.24 154.913 55.24C157.553 55.24 158.489 52.336 158.873 50.776H158.969C158.969 51.544 158.993 53.176 158.993 53.512C158.993 54.76 159.257 55.168 159.833 55.168C160.601 55.168 161.345 54.616 161.345 54.616C160.505 52.792 160.337 50.584 160.337 48.736C160.337 46.984 160.577 45.472 160.577 43.888ZM165.322 50.488C165.418 50.536 165.73 50.56 165.922 50.56C166.33 50.56 166.834 50.44 166.93 50.032C167.05 49.504 167.146 48.592 167.146 45.304V43.312C167.146 40.312 167.05 38.68 166.09 38.68C165.226 38.68 164.338 39.112 164.338 39.112C164.986 40.744 165.322 44.632 165.322 49.456V50.488ZM164.482 53.632C164.482 54.472 165.154 55.144 166.018 55.144C166.858 55.144 167.53 54.472 167.53 53.632C167.53 52.768 166.858 52.096 166.018 52.096C165.154 52.096 164.482 52.768 164.482 53.632Z" fill="#212B36"/>
</svg>
