<svg width="296" height="96" viewBox="0 0 296 96" fill="none" xmlns="http://www.w3.org/2000/svg">
<path d="M44.9007 11.12C44.9007 8.432 43.3647 6.632 39.8367 6.632C38.2767 6.632 36.0687 6.704 34.9167 6.848C35.0607 7.448 35.3007 9.152 35.3007 12.56C35.3007 14.48 35.3007 20.192 34.5327 22.784C34.7007 22.88 35.6127 23.072 36.3087 23.072C36.6447 23.072 36.8607 22.976 36.9567 22.784C37.1007 22.496 37.1007 19.424 37.1247 16.28C38.0367 16.4 38.9247 16.424 39.5727 16.424C42.9327 16.424 44.9007 14.192 44.9007 11.12ZM39.5007 14.792C39.0927 14.792 37.9887 14.744 37.2207 14.6V11.48C37.2207 10.856 37.1967 9.824 37.0767 8.408C38.0367 8.264 38.5647 8.216 39.6447 8.216C41.9727 8.216 42.7887 9.584 42.7887 11.36C42.7887 13.664 41.7567 14.792 39.5007 14.792ZM51.2088 21.56C48.7128 21.56 47.8728 19.016 47.8728 16.784L54.5688 16.544C54.6648 16.304 54.8808 15.56 54.8808 14.504C54.8808 13.112 54.0168 11 51.1848 11C46.6968 11 45.9288 15.128 45.9288 17.288C45.9288 20.888 47.6568 23.24 51.1608 23.24C52.9368 23.24 54.9768 22.112 54.9768 20.696C54.9768 19.904 54.2808 19.76 54.2808 19.76C53.5368 20.816 52.3608 21.56 51.2088 21.56ZM50.8488 12.32C52.5528 12.32 52.8408 13.712 52.8408 14.144C52.8408 14.648 52.7928 14.984 52.6488 15.32L47.9928 15.488C48.1848 13.952 49.0728 12.32 50.8488 12.32ZM59.7775 14.072V13.832C59.7775 12.776 59.6575 11.024 59.6575 11.024C59.6575 11.024 57.5455 11.144 57.5455 11.84C57.5455 12.848 58.1215 13.784 58.1215 17.6C58.1215 20 57.6415 20.672 57.6415 22.208C57.6415 22.76 57.7855 23.072 58.8415 23.072C59.8975 23.072 60.0655 23.024 60.0655 23.024C59.7775 21.272 59.7535 20.384 59.7535 19.064V18.056C59.7535 15.2 61.4575 12.92 62.5855 12.92C63.1615 12.92 63.6415 13.28 64.0255 14.36C64.0255 14.36 65.3215 14.072 65.3215 12.848C65.3215 12.008 64.7455 11 63.1855 11C61.2895 11 60.2095 12.992 59.8975 14.072H59.7775ZM69.8903 13.424H72.6503C73.0103 13.4 73.2263 12.728 73.2263 12.248C73.2263 12.104 73.2263 11.984 73.1783 11.864H69.7703C69.7223 11.552 69.7223 10.952 69.7223 10.376C69.7223 9.2 69.7703 7.496 71.1863 7.496C72.1943 7.496 72.9623 8.072 73.6583 9.224C74.3543 8.864 74.8103 8.288 74.8103 7.88C74.8103 6.872 73.2263 6.2 71.0423 6.2C68.2823 6.2 67.8263 7.808 67.8263 9.704C67.8263 10.424 67.9223 11.168 67.9223 11.888H67.0583C66.6983 11.888 66.2423 12.68 66.2423 13.28C66.2423 13.328 66.2423 13.4 66.2663 13.472H68.0663C68.1383 15.128 68.2103 16.568 68.2103 17.816C68.2103 19.76 68.0183 21.272 67.5143 22.592C67.6583 22.712 68.2823 23.072 69.0743 23.072C70.0103 23.072 70.0343 21.944 70.0343 20.456C70.0343 17.936 70.0343 15.68 69.8903 13.424ZM79.4978 21.56C77.0018 21.56 76.1618 19.016 76.1618 16.784L82.8578 16.544C82.9538 16.304 83.1698 15.56 83.1698 14.504C83.1698 13.112 82.3058 11 79.4738 11C74.9858 11 74.2178 15.128 74.2178 17.288C74.2178 20.888 75.9458 23.24 79.4498 23.24C81.2258 23.24 83.2658 22.112 83.2658 20.696C83.2658 19.904 82.5698 19.76 82.5698 19.76C81.8258 20.816 80.6498 21.56 79.4978 21.56ZM79.1378 12.32C80.8418 12.32 81.1298 13.712 81.1298 14.144C81.1298 14.648 81.0818 14.984 80.9378 15.32L76.2818 15.488C76.4738 13.952 77.3618 12.32 79.1378 12.32ZM90.2986 12.392C91.4986 12.392 92.2666 13.232 92.7466 14.384C92.7466 14.384 94.1386 13.856 94.1386 13.064C94.1386 11.624 91.8106 11 90.4666 11C85.9306 11 85.1866 15.08 85.1866 17.24C85.1866 20.768 87.0586 23.24 90.5146 23.24C92.2906 23.24 94.4026 22.16 94.4026 20.744C94.4026 19.952 93.7066 19.736 93.7066 19.736C93.0826 20.696 92.0266 21.56 90.7546 21.56C87.8746 21.56 87.1786 18.608 87.1786 16.88C87.1786 15.104 87.7546 12.392 90.2986 12.392ZM97.2398 19.736C97.2398 22.04 98.3678 23.072 100.12 23.072C101.224 23.072 102.424 22.688 102.424 21.8C102.424 21.44 102.304 21.056 102.112 20.816C101.632 21.128 101.224 21.344 100.528 21.344C99.0638 21.344 99.0158 19.712 99.0158 18.104C99.0158 15.752 99.1358 12.512 99.1358 12.512H101.608C101.968 12.512 102.184 11.912 102.184 11.384C102.184 11.24 102.184 11.12 102.136 11H99.1118V7.904C99.1118 7.904 97.1198 8.048 97.1198 8.744C97.1198 9.512 97.3598 10.352 97.3598 11H96.4238C96.0638 11 95.6078 11.792 95.6078 12.32C95.6078 12.368 95.6078 12.44 95.6318 12.512H97.3838C97.3358 15.296 97.2398 18.608 97.2398 19.736ZM105.013 21.32C105.013 22.568 105.229 23.072 106.093 23.072C106.525 23.072 107.509 22.544 107.509 22.544C107.509 22.544 106.909 21.44 106.909 19.976C106.909 18.344 107.077 14.768 107.077 13.544V11.12C107.077 7.712 107.005 6.2 105.973 6.2C105.229 6.2 104.461 6.68 104.461 6.68C105.061 8.216 105.229 9.632 105.229 12.872C105.229 15.8 105.013 18.56 105.013 21.32ZM110.609 29C114.017 29 120.089 15.368 120.089 12.224C120.089 11.288 119.777 11 119.033 11C118.289 11 117.353 11.456 117.353 11.456C117.641 11.984 117.857 12.416 117.857 13.232C117.857 15.224 117.065 17.576 115.433 21.128C114.809 18.56 112.361 11 111.281 11C110.033 11 109.313 11.624 109.217 11.768C110.969 13.904 113.393 19.952 114.353 22.832C113.321 24.68 112.217 26.792 109.577 26.792C109.577 27.92 109.625 29 110.609 29ZM137.666 11.12C137.666 8.432 136.13 6.632 132.602 6.632C131.042 6.632 128.834 6.704 127.682 6.848C127.826 7.448 128.066 9.152 128.066 12.56C128.066 14.48 128.066 20.192 127.298 22.784C127.466 22.88 128.378 23.072 129.074 23.072C129.41 23.072 129.626 22.976 129.722 22.784C129.866 22.496 129.866 19.424 129.89 16.28C130.802 16.4 131.69 16.424 132.338 16.424C135.698 16.424 137.666 14.192 137.666 11.12ZM132.266 14.792C131.858 14.792 130.754 14.744 129.986 14.6V11.48C129.986 10.856 129.962 9.824 129.842 8.408C130.802 8.264 131.33 8.216 132.41 8.216C134.738 8.216 135.554 9.584 135.554 11.36C135.554 13.664 134.522 14.792 132.266 14.792ZM142.043 14.072V13.832C142.043 12.776 141.923 11.024 141.923 11.024C141.923 11.024 139.811 11.144 139.811 11.84C139.811 12.848 140.387 13.784 140.387 17.6C140.387 20 139.907 20.672 139.907 22.208C139.907 22.76 140.051 23.072 141.107 23.072C142.163 23.072 142.331 23.024 142.331 23.024C142.043 21.272 142.019 20.384 142.019 19.064V18.056C142.019 15.2 143.723 12.92 144.851 12.92C145.427 12.92 145.907 13.28 146.291 14.36C146.291 14.36 147.587 14.072 147.587 12.848C147.587 12.008 147.011 11 145.451 11C143.555 11 142.475 12.992 142.163 14.072H142.043ZM153.724 21.56C151.228 21.56 150.388 19.016 150.388 16.784L157.084 16.544C157.18 16.304 157.396 15.56 157.396 14.504C157.396 13.112 156.532 11 153.7 11C149.212 11 148.444 15.128 148.444 17.288C148.444 20.888 150.172 23.24 153.676 23.24C155.452 23.24 157.492 22.112 157.492 20.696C157.492 19.904 156.796 19.76 156.796 19.76C156.052 20.816 154.876 21.56 153.724 21.56ZM153.364 12.32C155.068 12.32 155.356 13.712 155.356 14.144C155.356 14.648 155.308 14.984 155.164 15.32L150.508 15.488C150.7 13.952 151.588 12.32 153.364 12.32ZM164.477 17.816C164.909 17.816 165.101 17.312 165.101 16.712C165.101 16.496 165.077 16.208 165.029 15.992H160.157C159.725 15.992 159.485 16.592 159.485 17.216C159.485 17.408 159.485 17.648 159.533 17.816H164.477ZM180.517 11C177.949 11 176.677 13.112 176.341 13.976C176.269 13.088 175.861 11 173.797 11C171.685 11 170.293 12.992 170.125 13.976H170.029V13.64C170.029 12.872 169.861 11.024 169.861 11.024C169.861 11.024 167.749 11.144 167.749 11.84C167.749 12.872 168.325 13.784 168.325 18.032C168.325 19.736 167.845 21.2 167.845 22.208C167.845 22.76 168.013 23.072 169.069 23.072C170.125 23.072 170.293 23.024 170.293 23.024C170.005 21.272 169.981 20.384 169.981 19.064V18.056C169.981 14.264 172.285 12.872 173.317 12.872C174.805 12.872 174.973 14.72 174.973 15.728C174.973 16.712 174.781 18.272 174.781 21.992C174.781 22.4 174.829 23.096 175.573 23.096C176.293 23.096 176.941 22.904 177.109 22.808C176.845 21.848 176.629 20.864 176.629 18.584C176.629 17.912 176.677 17.168 176.749 16.4C176.965 14.216 178.573 12.872 180.037 12.872C181.405 12.872 181.405 14.864 181.405 15.992C181.405 17.888 181.237 20.24 181.237 21.224C181.237 22.496 181.453 23.072 182.101 23.072C182.893 23.072 183.733 22.52 183.733 22.52C183.109 21.176 183.109 20.12 183.109 18.968C183.109 16.904 183.229 15.68 183.229 14.312C183.229 13.184 182.749 11.024 180.517 11ZM191.178 21.56C188.682 21.56 187.842 19.016 187.842 16.784L194.538 16.544C194.634 16.304 194.85 15.56 194.85 14.504C194.85 13.112 193.986 11 191.154 11C186.666 11 185.898 15.128 185.898 17.288C185.898 20.888 187.626 23.24 191.13 23.24C192.906 23.24 194.946 22.112 194.946 20.696C194.946 19.904 194.25 19.76 194.25 19.76C193.506 20.816 192.33 21.56 191.178 21.56ZM190.818 12.32C192.522 12.32 192.81 13.712 192.81 14.144C192.81 14.648 192.762 14.984 192.618 15.32L187.962 15.488C188.154 13.952 189.042 12.32 190.818 12.32ZM205.722 19.664C205.722 17.024 205.842 15.656 205.842 14.24C205.842 13.016 205.194 11 201.786 11C199.986 11 197.322 11.768 197.322 13.208C197.322 14 198.69 14.624 198.69 14.624C199.314 13.136 200.466 12.416 201.858 12.416C203.25 12.416 204.018 13.28 204.018 15.08C204.018 16.592 203.97 16.688 203.97 16.688C203.61 16.64 202.074 16.472 200.994 16.472C198.114 16.472 196.938 18.128 196.938 20.216C196.938 22.016 197.994 23.24 200.058 23.24C202.482 23.24 203.658 21.608 203.994 20.672H204.09C204.09 20.72 204.066 20.96 204.066 21.296C204.066 22.04 204.186 23.168 204.858 23.168C205.698 23.168 206.61 22.616 206.61 22.616C206.61 22.616 205.722 21.2 205.722 19.664ZM203.922 18.704C203.922 20.288 202.314 21.512 200.562 21.512C199.626 21.512 199.002 20.96 199.002 19.904C199.002 18.152 200.202 17.768 202.026 17.768C202.89 17.768 203.754 17.84 203.922 17.84V18.704ZM212.81 12.296C213.866 12.296 214.634 12.992 214.994 14.288C214.994 14.288 216.53 13.76 216.53 12.968C216.53 11.528 214.466 11 213.098 11C210.434 11 208.778 12.32 208.778 14.408C208.778 16.088 210.506 17 212.282 17.624C213.77 18.152 215.162 18.752 215.162 20.12C215.162 21.368 213.938 21.8 212.594 21.8C210.674 21.8 210.074 20.408 209.666 19.784C209.33 19.952 208.538 20.384 208.538 21.296C208.538 22.352 209.81 23.24 212.618 23.24C215.402 23.24 217.106 21.464 217.106 19.424C217.106 17.576 215.354 16.688 213.626 16.136C212.258 15.704 210.65 15.224 210.65 13.928C210.65 13.184 211.226 12.296 212.81 12.296ZM228.57 11.888C228.57 11.336 228.282 11.096 227.778 11.096C227.034 11.096 226.17 11.552 226.17 11.552C226.17 11.552 226.698 12.464 226.698 14.816C226.698 18.416 225.042 21.224 223.242 21.224C221.706 21.224 221.394 19.808 221.394 18.728C221.394 17.192 221.465 15.512 221.465 13.856C221.465 12.296 221.442 11.096 220.506 11.096C219.762 11.096 218.946 11.552 218.946 11.552C219.498 13.136 219.714 13.976 219.714 15.992C219.714 17.072 219.666 18.536 219.666 19.616C219.666 21.92 220.914 23.24 222.906 23.24C225.546 23.24 226.482 20.336 226.866 18.776H226.962C226.962 19.544 226.986 21.176 226.986 21.512C226.986 22.76 227.25 23.168 227.826 23.168C228.594 23.168 229.338 22.616 229.338 22.616C228.498 20.792 228.33 18.584 228.33 16.736C228.33 14.984 228.57 13.472 228.57 11.888ZM234.082 14.072V13.832C234.082 12.776 233.962 11.024 233.962 11.024C233.962 11.024 231.85 11.144 231.85 11.84C231.85 12.848 232.426 13.784 232.426 17.6C232.426 20 231.946 20.672 231.946 22.208C231.946 22.76 232.09 23.072 233.146 23.072C234.202 23.072 234.37 23.024 234.37 23.024C234.082 21.272 234.058 20.384 234.058 19.064V18.056C234.058 15.2 235.762 12.92 236.89 12.92C237.466 12.92 237.946 13.28 238.33 14.36C238.33 14.36 239.626 14.072 239.626 12.848C239.626 12.008 239.05 11 237.49 11C235.594 11 234.514 12.992 234.202 14.072H234.082ZM245.763 21.56C243.267 21.56 242.427 19.016 242.427 16.784L249.123 16.544C249.219 16.304 249.435 15.56 249.435 14.504C249.435 13.112 248.571 11 245.739 11C241.251 11 240.483 15.128 240.483 17.288C240.483 20.888 242.211 23.24 245.715 23.24C247.491 23.24 249.531 22.112 249.531 20.696C249.531 19.904 248.835 19.76 248.835 19.76C248.091 20.816 246.915 21.56 245.763 21.56ZM245.403 12.32C247.107 12.32 247.395 13.712 247.395 14.144C247.395 14.648 247.347 14.984 247.203 15.32L242.547 15.488C242.739 13.952 243.627 12.32 245.403 12.32ZM259.612 12.704C259.612 12.704 258.412 11 256.108 11C252.7 11 251.452 14.912 251.452 17.48C251.452 20.48 252.796 23.24 255.172 23.24C257.74 23.24 258.964 20.048 259.396 18.8H259.516C259.42 20.024 259.372 21.176 259.372 21.512C259.372 22.928 259.636 23.168 260.212 23.168C260.956 23.168 261.868 22.616 261.868 22.616C261.868 22.616 261.244 21.44 261.244 19.928C261.244 15.44 261.484 12.056 261.484 8.312C261.484 6.968 261.34 6.2 260.5 6.2C259.924 6.2 258.988 6.656 258.988 6.656C259.564 8.168 259.612 9.464 259.612 12.704ZM255.436 21.272C254.14 21.272 253.468 19.376 253.468 17.432C253.468 15.176 253.948 12.68 256.276 12.68C258.268 12.68 259.42 14.048 259.54 14.216C259.54 14.216 259.564 14.552 259.564 15.056C259.564 17.408 257.668 21.272 255.436 21.272ZM53.1207 50.056C53.1207 46.024 55.5207 44.92 56.8167 44.92C58.0647 44.92 58.2567 46.6 58.2567 47.68C58.2567 50.032 58.0167 52.024 58.0167 53.224C58.0167 54.496 58.1847 55.072 58.9527 55.072C59.6247 55.072 60.5127 54.52 60.5127 54.52C60.0327 53.656 59.8887 52.528 59.8887 51.52C59.8887 50.2 60.0327 47.68 60.0327 46.312C60.0327 45.184 59.5767 43.024 57.2967 43C55.0167 43 53.6247 44.992 53.2887 45.976H53.1687V45.64C53.1687 44.872 53.0007 43.024 53.0007 43.024C53.0007 43.024 50.9127 43.144 50.9127 43.84C50.9127 44.872 51.4887 45.784 51.4887 50.032C51.4887 51.736 51.0087 53.2 51.0087 54.208C51.0087 54.76 51.1527 55.072 52.2087 55.072C53.2647 55.072 53.4327 55.024 53.4327 55.024C53.1447 53.272 53.1207 52.384 53.1207 51.064V50.056ZM71.5191 51.664C71.5191 49.024 71.6391 47.656 71.6391 46.24C71.6391 45.016 70.9911 43 67.5831 43C65.7831 43 63.1191 43.768 63.1191 45.208C63.1191 46 64.4871 46.624 64.4871 46.624C65.1111 45.136 66.2631 44.416 67.6551 44.416C69.0471 44.416 69.8151 45.28 69.8151 47.08C69.8151 48.592 69.7671 48.688 69.7671 48.688C69.4071 48.64 67.8711 48.472 66.7911 48.472C63.9111 48.472 62.7351 50.128 62.7351 52.216C62.7351 54.016 63.7911 55.24 65.8551 55.24C68.2791 55.24 69.4551 53.608 69.7911 52.672H69.8871C69.8871 52.72 69.8631 52.96 69.8631 53.296C69.8631 54.04 69.9831 55.168 70.6551 55.168C71.4951 55.168 72.4071 54.616 72.4071 54.616C72.4071 54.616 71.5191 53.2 71.5191 51.664ZM69.7191 50.704C69.7191 52.288 68.1111 53.512 66.3591 53.512C65.4231 53.512 64.7991 52.96 64.7991 51.904C64.7991 50.152 65.9991 49.768 67.8231 49.768C68.6871 49.768 69.5511 49.84 69.7191 49.84V50.704ZM75.1383 51.736C75.1383 54.04 76.2663 55.072 78.0183 55.072C79.1223 55.072 80.3223 54.688 80.3223 53.8C80.3223 53.44 80.2023 53.056 80.0103 52.816C79.5303 53.128 79.1223 53.344 78.4263 53.344C76.9623 53.344 76.9143 51.712 76.9143 50.104C76.9143 47.752 77.0343 44.512 77.0343 44.512H79.5063C79.8663 44.512 80.0823 43.912 80.0823 43.384C80.0823 43.24 80.0823 43.12 80.0343 43H77.0103V39.904C77.0103 39.904 75.0183 40.048 75.0183 40.744C75.0183 41.512 75.2583 42.352 75.2583 43H74.3223C73.9623 43 73.5063 43.792 73.5063 44.32C73.5063 44.368 73.5063 44.44 73.5303 44.512H75.2823C75.2343 47.296 75.1383 50.608 75.1383 51.736ZM91.6711 43.888C91.6711 43.336 91.3831 43.096 90.8791 43.096C90.1351 43.096 89.2711 43.552 89.2711 43.552C89.2711 43.552 89.7991 44.464 89.7991 46.816C89.7991 50.416 88.1431 53.224 86.3431 53.224C84.8071 53.224 84.4951 51.808 84.4951 50.728C84.4951 49.192 84.5671 47.512 84.5671 45.856C84.5671 44.296 84.5431 43.096 83.6071 43.096C82.8631 43.096 82.0471 43.552 82.0471 43.552C82.5991 45.136 82.8151 45.976 82.8151 47.992C82.8151 49.072 82.7671 50.536 82.7671 51.616C82.7671 53.92 84.0151 55.24 86.0071 55.24C88.6471 55.24 89.5831 52.336 89.9671 50.776H90.0631C90.0631 51.544 90.0871 53.176 90.0871 53.512C90.0871 54.76 90.3511 55.168 90.9271 55.168C91.6951 55.168 92.4391 54.616 92.4391 54.616C91.5991 52.792 91.4311 50.584 91.4311 48.736C91.4311 46.984 91.6711 45.472 91.6711 43.888ZM97.1838 46.072V45.832C97.1838 44.776 97.0638 43.024 97.0638 43.024C97.0638 43.024 94.9518 43.144 94.9518 43.84C94.9518 44.848 95.5278 45.784 95.5278 49.6C95.5278 52 95.0478 52.672 95.0478 54.208C95.0478 54.76 95.1918 55.072 96.2478 55.072C97.3038 55.072 97.4718 55.024 97.4718 55.024C97.1838 53.272 97.1598 52.384 97.1598 51.064V50.056C97.1598 47.2 98.8638 44.92 99.9918 44.92C100.568 44.92 101.048 45.28 101.432 46.36C101.432 46.36 102.728 46.072 102.728 44.848C102.728 44.008 102.152 43 100.592 43C98.6958 43 97.6158 44.992 97.3038 46.072H97.1838ZM112.793 51.664C112.793 49.024 112.913 47.656 112.913 46.24C112.913 45.016 112.265 43 108.857 43C107.057 43 104.393 43.768 104.393 45.208C104.393 46 105.761 46.624 105.761 46.624C106.385 45.136 107.537 44.416 108.929 44.416C110.321 44.416 111.089 45.28 111.089 47.08C111.089 48.592 111.041 48.688 111.041 48.688C110.681 48.64 109.145 48.472 108.065 48.472C105.185 48.472 104.009 50.128 104.009 52.216C104.009 54.016 105.065 55.24 107.129 55.24C109.553 55.24 110.729 53.608 111.065 52.672H111.161C111.161 52.72 111.137 52.96 111.137 53.296C111.137 54.04 111.257 55.168 111.929 55.168C112.769 55.168 113.681 54.616 113.681 54.616C113.681 54.616 112.793 53.2 112.793 51.664ZM110.993 50.704C110.993 52.288 109.385 53.512 107.633 53.512C106.697 53.512 106.073 52.96 106.073 51.904C106.073 50.152 107.273 49.768 109.097 49.768C109.961 49.768 110.825 49.84 110.993 49.84V50.704ZM116.52 53.32C116.52 54.568 116.736 55.072 117.6 55.072C118.032 55.072 119.016 54.544 119.016 54.544C119.016 54.544 118.416 53.44 118.416 51.976C118.416 50.344 118.584 46.768 118.584 45.544V43.12C118.584 39.712 118.512 38.2 117.48 38.2C116.736 38.2 115.968 38.68 115.968 38.68C116.568 40.216 116.736 41.632 116.736 44.872C116.736 47.8 116.52 50.56 116.52 53.32ZM122.668 54.976C122.668 56.464 121.228 57.64 121.228 57.64C121.228 57.64 121.372 58.312 122.092 58.312C122.98 58.312 124.924 56.296 124.924 53.92C124.924 52.576 124.228 52.096 123.34 52.096C122.116 52.096 121.636 53.056 121.612 53.752C122.284 53.824 122.668 54.328 122.668 54.976ZM139.63 47.68C139.63 49.72 139.438 51.568 139.438 53.296C139.438 54.568 139.678 55.072 140.302 55.072C141.094 55.072 141.934 54.52 141.934 54.52C141.934 54.52 141.31 53.464 141.31 51.784C141.31 50.152 141.454 48.04 141.454 46.312C141.454 45.184 140.974 43 138.766 43C136.438 43 135.118 44.92 134.686 45.976H134.59C134.662 43.912 134.686 42.424 134.686 41.104C134.686 39.688 134.542 38.2 133.63 38.2C132.838 38.2 132.07 38.656 132.07 38.656C132.91 40.36 132.934 46.624 132.934 49.096V49.864C132.934 51.448 132.406 52.72 132.406 54.208C132.406 54.76 132.574 55.072 133.63 55.072C134.686 55.072 134.854 55.024 134.854 55.024C134.566 53.272 134.542 52.384 134.542 51.064V50.056C134.542 46.024 136.894 44.92 138.262 44.92C139.462 44.92 139.63 46.6 139.63 47.68ZM145.234 53.296C145.234 54.568 145.474 55.072 146.098 55.072C146.89 55.072 147.73 54.52 147.73 54.52C147.73 54.52 147.106 53.392 147.106 51.784V45.16C147.106 44.104 147.01 43.072 146.098 43.072C145.522 43.072 144.586 43.528 144.586 43.528C145.114 44.968 145.306 45.856 145.306 49.096C145.306 50.656 145.234 51.904 145.234 53.296ZM144.586 39.472C144.586 40.216 145.162 40.792 145.906 40.792C146.65 40.792 147.25 40.216 147.25 39.472C147.25 38.728 146.65 38.128 145.906 38.128C145.162 38.128 144.586 38.728 144.586 39.472ZM158.268 55.144C158.268 57.592 157.38 59.272 154.788 59.272C153.276 59.272 152.076 58.864 152.076 57.448C152.076 57.16 152.124 56.872 152.124 56.872C151.236 56.968 150.228 57.184 150.228 58.288C150.228 60.136 152.388 61 154.188 61C158.724 61 160.092 58.192 160.092 54.64C160.092 52.816 159.66 50.32 159.66 46.816C159.66 45.808 159.684 44.752 159.78 43.6C158.916 43.552 157.716 43 155.82 43C152.172 43 150.108 46.312 150.108 49.6C150.108 52.648 151.524 54.856 153.948 54.856C156.228 54.856 157.524 52.288 157.956 51.04H158.076C158.148 51.688 158.268 53.896 158.268 55.144ZM158.052 47.056C158.052 49.432 156.324 52.888 154.236 52.888C152.508 52.888 152.124 50.584 152.124 49.432C152.124 47.272 152.796 44.632 155.244 44.632C156.492 44.632 157.38 44.92 158.052 45.184V47.056ZM170.263 47.68C170.263 49.72 170.071 51.568 170.071 53.296C170.071 54.568 170.311 55.072 170.935 55.072C171.727 55.072 172.567 54.52 172.567 54.52C172.567 54.52 171.943 53.464 171.943 51.784C171.943 50.152 172.087 48.04 172.087 46.312C172.087 45.184 171.607 43 169.399 43C167.071 43 165.751 44.92 165.319 45.976H165.223C165.295 43.912 165.319 42.424 165.319 41.104C165.319 39.688 165.175 38.2 164.263 38.2C163.471 38.2 162.703 38.656 162.703 38.656C163.543 40.36 163.567 46.624 163.567 49.096V49.864C163.567 51.448 163.039 52.72 163.039 54.208C163.039 54.76 163.207 55.072 164.263 55.072C165.319 55.072 165.487 55.024 165.487 55.024C165.199 53.272 165.175 52.384 165.175 51.064V50.056C165.175 46.024 167.527 44.92 168.895 44.92C170.095 44.92 170.263 46.6 170.263 47.68ZM189.503 43.6C188.663 43.6 187.727 43 185.303 43C181.799 43 179.663 46.432 179.663 49.552C179.663 52.744 181.151 55.24 183.503 55.24C185.567 55.24 187.103 52.48 187.607 51.208H187.727C187.343 54.04 187.223 56.968 187.223 59.752C187.223 60.256 187.247 60.568 187.295 60.664C187.439 60.904 187.727 61 188.087 61C188.831 61 189.647 60.616 189.623 60.52C189.311 59.008 189.215 56.92 189.215 54.76C189.215 51.088 189.527 47.848 189.527 44.512C189.527 44.152 189.527 43.84 189.503 43.6ZM187.775 47.272C187.775 49.528 185.879 53.272 183.791 53.272C182.183 53.272 181.679 50.944 181.679 49.384C181.679 47.152 182.591 44.632 185.015 44.632C186.551 44.632 187.775 45.184 187.775 45.184V47.272ZM201.71 43.888C201.71 43.336 201.422 43.096 200.918 43.096C200.174 43.096 199.31 43.552 199.31 43.552C199.31 43.552 199.838 44.464 199.838 46.816C199.838 50.416 198.182 53.224 196.382 53.224C194.846 53.224 194.534 51.808 194.534 50.728C194.534 49.192 194.606 47.512 194.606 45.856C194.606 44.296 194.582 43.096 193.646 43.096C192.902 43.096 192.086 43.552 192.086 43.552C192.638 45.136 192.854 45.976 192.854 47.992C192.854 49.072 192.806 50.536 192.806 51.616C192.806 53.92 194.054 55.24 196.046 55.24C198.686 55.24 199.622 52.336 200.006 50.776H200.102C200.102 51.544 200.126 53.176 200.126 53.512C200.126 54.76 200.39 55.168 200.966 55.168C201.734 55.168 202.478 54.616 202.478 54.616C201.638 52.792 201.47 50.584 201.47 48.736C201.47 46.984 201.71 45.472 201.71 43.888ZM213.199 51.664C213.199 49.024 213.319 47.656 213.319 46.24C213.319 45.016 212.671 43 209.263 43C207.463 43 204.799 43.768 204.799 45.208C204.799 46 206.167 46.624 206.167 46.624C206.791 45.136 207.943 44.416 209.335 44.416C210.727 44.416 211.495 45.28 211.495 47.08C211.495 48.592 211.447 48.688 211.447 48.688C211.087 48.64 209.551 48.472 208.471 48.472C205.591 48.472 204.415 50.128 204.415 52.216C204.415 54.016 205.471 55.24 207.535 55.24C209.959 55.24 211.135 53.608 211.471 52.672H211.567C211.567 52.72 211.543 52.96 211.543 53.296C211.543 54.04 211.663 55.168 212.335 55.168C213.175 55.168 214.087 54.616 214.087 54.616C214.087 54.616 213.199 53.2 213.199 51.664ZM211.399 50.704C211.399 52.288 209.791 53.512 208.039 53.512C207.103 53.512 206.479 52.96 206.479 51.904C206.479 50.152 207.679 49.768 209.503 49.768C210.367 49.768 211.231 49.84 211.399 49.84V50.704ZM216.927 53.32C216.927 54.568 217.143 55.072 218.007 55.072C218.439 55.072 219.423 54.544 219.423 54.544C219.423 54.544 218.823 53.44 218.823 51.976C218.823 50.344 218.991 46.768 218.991 45.544V43.12C218.991 39.712 218.919 38.2 217.887 38.2C217.143 38.2 216.375 38.68 216.375 38.68C216.975 40.216 217.143 41.632 217.143 44.872C217.143 47.8 216.927 50.56 216.927 53.32ZM222.859 53.296C222.859 54.568 223.099 55.072 223.723 55.072C224.515 55.072 225.355 54.52 225.355 54.52C225.355 54.52 224.731 53.392 224.731 51.784V45.16C224.731 44.104 224.635 43.072 223.723 43.072C223.147 43.072 222.211 43.528 222.211 43.528C222.739 44.968 222.931 45.856 222.931 49.096C222.931 50.656 222.859 51.904 222.859 53.296ZM222.211 39.472C222.211 40.216 222.787 40.792 223.531 40.792C224.275 40.792 224.875 40.216 224.875 39.472C224.875 38.728 224.275 38.128 223.531 38.128C222.787 38.128 222.211 38.728 222.211 39.472ZM229.005 51.736C229.005 54.04 230.133 55.072 231.885 55.072C232.989 55.072 234.189 54.688 234.189 53.8C234.189 53.44 234.069 53.056 233.877 52.816C233.397 53.128 232.989 53.344 232.293 53.344C230.829 53.344 230.781 51.712 230.781 50.104C230.781 47.752 230.901 44.512 230.901 44.512H233.373C233.733 44.512 233.949 43.912 233.949 43.384C233.949 43.24 233.949 43.12 233.901 43H230.877V39.904C230.877 39.904 228.885 40.048 228.885 40.744C228.885 41.512 229.125 42.352 229.125 43H228.189C227.829 43 227.373 43.792 227.373 44.32C227.373 44.368 227.373 44.44 227.397 44.512H229.149C229.101 47.296 229.005 50.608 229.005 51.736ZM236.538 61C239.946 61 246.018 47.368 246.018 44.224C246.018 43.288 245.706 43 244.962 43C244.218 43 243.282 43.456 243.282 43.456C243.57 43.984 243.786 44.416 243.786 45.232C243.786 47.224 242.994 49.576 241.362 53.128C240.738 50.56 238.29 43 237.21 43C235.962 43 235.242 43.624 235.146 43.768C236.898 45.904 239.322 51.952 240.282 54.832C239.25 56.68 238.146 58.792 235.506 58.792C235.506 59.92 235.554 61 236.538 61ZM94.3391 85.296C94.3391 86.568 94.5791 87.072 95.2031 87.072C95.9951 87.072 96.8351 86.52 96.8351 86.52C96.8351 86.52 96.2111 85.392 96.2111 83.784V77.16C96.2111 76.104 96.1151 75.072 95.2031 75.072C94.6271 75.072 93.6911 75.528 93.6911 75.528C94.2191 76.968 94.4111 77.856 94.4111 81.096C94.4111 82.656 94.3391 83.904 94.3391 85.296ZM93.6911 71.472C93.6911 72.216 94.2671 72.792 95.0111 72.792C95.7551 72.792 96.3551 72.216 96.3551 71.472C96.3551 70.728 95.7551 70.128 95.0111 70.128C94.2671 70.128 93.6911 70.728 93.6911 71.472ZM102.07 82.056C102.07 78.024 104.47 76.92 105.766 76.92C107.014 76.92 107.206 78.6 107.206 79.68C107.206 82.032 106.966 84.024 106.966 85.224C106.966 86.496 107.134 87.072 107.902 87.072C108.574 87.072 109.462 86.52 109.462 86.52C108.982 85.656 108.838 84.528 108.838 83.52C108.838 82.2 108.982 79.68 108.982 78.312C108.982 77.184 108.526 75.024 106.246 75C103.966 75 102.574 76.992 102.238 77.976H102.118V77.64C102.118 76.872 101.95 75.024 101.95 75.024C101.95 75.024 99.8619 75.144 99.8619 75.84C99.8619 76.872 100.438 77.784 100.438 82.032C100.438 83.736 99.9579 85.2 99.9579 86.208C99.9579 86.76 100.102 87.072 101.158 87.072C102.214 87.072 102.382 87.024 102.382 87.024C102.094 85.272 102.07 84.384 102.07 83.064V82.056ZM119.819 87.144C119.819 89.592 118.931 91.272 116.339 91.272C114.827 91.272 113.627 90.864 113.627 89.448C113.627 89.16 113.675 88.872 113.675 88.872C112.787 88.968 111.779 89.184 111.779 90.288C111.779 92.136 113.939 93 115.739 93C120.275 93 121.643 90.192 121.643 86.64C121.643 84.816 121.211 82.32 121.211 78.816C121.211 77.808 121.235 76.752 121.331 75.6C120.467 75.552 119.267 75 117.371 75C113.723 75 111.659 78.312 111.659 81.6C111.659 84.648 113.075 86.856 115.499 86.856C117.779 86.856 119.075 84.288 119.507 83.04H119.627C119.699 83.688 119.819 85.896 119.819 87.144ZM119.603 79.056C119.603 81.432 117.875 84.888 115.787 84.888C114.059 84.888 113.675 82.584 113.675 81.432C113.675 79.272 114.347 76.632 116.795 76.632C118.043 76.632 118.931 76.92 119.603 77.184V79.056ZM126.774 78.072V77.832C126.774 76.776 126.654 75.024 126.654 75.024C126.654 75.024 124.542 75.144 124.542 75.84C124.542 76.848 125.118 77.784 125.118 81.6C125.118 84 124.638 84.672 124.638 86.208C124.638 86.76 124.782 87.072 125.838 87.072C126.894 87.072 127.062 87.024 127.062 87.024C126.774 85.272 126.75 84.384 126.75 83.064V82.056C126.75 79.2 128.454 76.92 129.582 76.92C130.158 76.92 130.638 77.28 131.022 78.36C131.022 78.36 132.318 78.072 132.318 76.848C132.318 76.008 131.742 75 130.182 75C128.286 75 127.206 76.992 126.894 78.072H126.774ZM138.455 85.56C135.959 85.56 135.119 83.016 135.119 80.784L141.815 80.544C141.911 80.304 142.127 79.56 142.127 78.504C142.127 77.112 141.263 75 138.431 75C133.943 75 133.175 79.128 133.175 81.288C133.175 84.888 134.903 87.24 138.407 87.24C140.183 87.24 142.223 86.112 142.223 84.696C142.223 83.904 141.527 83.76 141.527 83.76C140.783 84.816 139.607 85.56 138.455 85.56ZM138.095 76.32C139.799 76.32 140.087 77.712 140.087 78.144C140.087 78.648 140.039 78.984 139.895 79.32L135.239 79.488C135.431 77.952 136.319 76.32 138.095 76.32ZM152.304 76.704C152.304 76.704 151.104 75 148.8 75C145.392 75 144.144 78.912 144.144 81.48C144.144 84.48 145.488 87.24 147.864 87.24C150.432 87.24 151.656 84.048 152.088 82.8H152.208C152.112 84.024 152.064 85.176 152.064 85.512C152.064 86.928 152.328 87.168 152.904 87.168C153.648 87.168 154.56 86.616 154.56 86.616C154.56 86.616 153.936 85.44 153.936 83.928C153.936 79.44 154.176 76.056 154.176 72.312C154.176 70.968 154.032 70.2 153.192 70.2C152.616 70.2 151.68 70.656 151.68 70.656C152.256 72.168 152.304 73.464 152.304 76.704ZM148.128 85.272C146.832 85.272 146.16 83.376 146.16 81.432C146.16 79.176 146.64 76.68 148.968 76.68C150.96 76.68 152.112 78.048 152.232 78.216C152.232 78.216 152.256 78.552 152.256 79.056C152.256 81.408 150.36 85.272 148.128 85.272ZM157.855 85.296C157.855 86.568 158.095 87.072 158.719 87.072C159.511 87.072 160.351 86.52 160.351 86.52C160.351 86.52 159.727 85.392 159.727 83.784V77.16C159.727 76.104 159.631 75.072 158.719 75.072C158.143 75.072 157.207 75.528 157.207 75.528C157.735 76.968 157.927 77.856 157.927 81.096C157.927 82.656 157.855 83.904 157.855 85.296ZM157.207 71.472C157.207 72.216 157.783 72.792 158.527 72.792C159.271 72.792 159.871 72.216 159.871 71.472C159.871 70.728 159.271 70.128 158.527 70.128C157.783 70.128 157.207 70.728 157.207 71.472ZM168.01 85.56C165.514 85.56 164.674 83.016 164.674 80.784L171.37 80.544C171.466 80.304 171.682 79.56 171.682 78.504C171.682 77.112 170.818 75 167.986 75C163.498 75 162.73 79.128 162.73 81.288C162.73 84.888 164.458 87.24 167.962 87.24C169.738 87.24 171.778 86.112 171.778 84.696C171.778 83.904 171.082 83.76 171.082 83.76C170.338 84.816 169.162 85.56 168.01 85.56ZM167.65 76.32C169.354 76.32 169.642 77.712 169.642 78.144C169.642 78.648 169.594 78.984 169.45 79.32L164.794 79.488C164.986 77.952 165.874 76.32 167.65 76.32ZM176.554 82.056C176.554 78.024 178.954 76.92 180.25 76.92C181.498 76.92 181.69 78.6 181.69 79.68C181.69 82.032 181.45 84.024 181.45 85.224C181.45 86.496 181.618 87.072 182.386 87.072C183.058 87.072 183.946 86.52 183.946 86.52C183.466 85.656 183.322 84.528 183.322 83.52C183.322 82.2 183.466 79.68 183.466 78.312C183.466 77.184 183.01 75.024 180.73 75C178.45 75 177.058 76.992 176.722 77.976H176.602V77.64C176.602 76.872 176.434 75.024 176.434 75.024C176.434 75.024 174.346 75.144 174.346 75.84C174.346 76.872 174.922 77.784 174.922 82.032C174.922 83.736 174.442 85.2 174.442 86.208C174.442 86.76 174.586 87.072 175.642 87.072C176.698 87.072 176.866 87.024 176.866 87.024C176.578 85.272 176.554 84.384 176.554 83.064V82.056ZM187.369 83.736C187.369 86.04 188.497 87.072 190.249 87.072C191.353 87.072 192.553 86.688 192.553 85.8C192.553 85.44 192.433 85.056 192.241 84.816C191.761 85.128 191.353 85.344 190.657 85.344C189.193 85.344 189.145 83.712 189.145 82.104C189.145 79.752 189.265 76.512 189.265 76.512H191.737C192.097 76.512 192.313 75.912 192.313 75.384C192.313 75.24 192.313 75.12 192.265 75H189.241V71.904C189.241 71.904 187.249 72.048 187.249 72.744C187.249 73.512 187.489 74.352 187.489 75H186.553C186.193 75 185.737 75.792 185.737 76.32C185.737 76.368 185.737 76.44 185.761 76.512H187.513C187.465 79.296 187.369 82.608 187.369 83.736ZM198.502 76.296C199.558 76.296 200.326 76.992 200.686 78.288C200.686 78.288 202.222 77.76 202.222 76.968C202.222 75.528 200.158 75 198.79 75C196.126 75 194.47 76.32 194.47 78.408C194.47 80.088 196.198 81 197.974 81.624C199.462 82.152 200.854 82.752 200.854 84.12C200.854 85.368 199.63 85.8 198.286 85.8C196.366 85.8 195.766 84.408 195.358 83.784C195.022 83.952 194.23 84.384 194.23 85.296C194.23 86.352 195.502 87.24 198.31 87.24C201.094 87.24 202.798 85.464 202.798 83.424C202.798 81.576 201.046 80.688 199.318 80.136C197.95 79.704 196.342 79.224 196.342 77.928C196.342 77.184 196.918 76.296 198.502 76.296Z" fill="#212B36"/>
</svg>
