<svg width="296" height="64" viewBox="0 0 296 64" fill="none" xmlns="http://www.w3.org/2000/svg">
<path d="M36.4099 8.24C38.1859 8.24 39.1459 9.296 39.7459 10.808C40.1779 10.64 41.5699 9.968 41.5699 9.128C41.5699 7.448 38.4739 6.56 36.7219 6.56C31.5859 6.56 29.5939 10.616 29.5939 15.368C29.5939 19.784 32.1859 23.24 36.4819 23.24C39.5539 23.24 41.6179 21.344 41.6179 20C41.6179 19.232 40.5139 18.752 40.5139 18.752C39.6739 19.928 38.4979 21.464 36.4339 21.464C32.3539 21.464 31.8259 16.928 31.8259 14.456C31.8259 11.888 32.6659 8.24 36.4099 8.24ZM51.2706 15.68C51.2706 17.72 51.0786 19.568 51.0786 21.296C51.0786 22.568 51.3186 23.072 51.9426 23.072C52.7346 23.072 53.5746 22.52 53.5746 22.52C53.5746 22.52 52.9506 21.464 52.9506 19.784C52.9506 18.152 53.0946 16.04 53.0946 14.312C53.0946 13.184 52.6146 11 50.4066 11C48.0786 11 46.7586 12.92 46.3266 13.976H46.2306C46.3026 11.912 46.3266 10.424 46.3266 9.104C46.3266 7.688 46.1826 6.2 45.2706 6.2C44.4786 6.2 43.7106 6.656 43.7106 6.656C44.5506 8.36 44.5746 14.624 44.5746 17.096V17.864C44.5746 19.448 44.0466 20.72 44.0466 22.208C44.0466 22.76 44.2146 23.072 45.2706 23.072C46.3266 23.072 46.4946 23.024 46.4946 23.024C46.2066 21.272 46.1826 20.384 46.1826 19.064V18.056C46.1826 14.024 48.5346 12.92 49.9026 12.92C51.1026 12.92 51.2706 14.6 51.2706 15.68ZM61.1011 11C57.2851 11 55.7491 14.6 55.7491 17.648C55.7491 20.432 57.3811 23.24 60.8371 23.24C64.4131 23.24 65.8291 19.664 65.8291 16.76C65.8291 14.024 64.3651 11 61.1011 11ZM60.6931 12.488C62.7331 12.488 63.6931 14.888 63.6931 17.36C63.6931 19.016 63.0211 21.848 60.8851 21.848C58.8451 21.848 57.8611 19.52 57.8611 17.048C57.8611 15.392 58.5571 12.488 60.6931 12.488ZM73.1011 11C69.2851 11 67.7491 14.6 67.7491 17.648C67.7491 20.432 69.3811 23.24 72.8371 23.24C76.4131 23.24 77.8291 19.664 77.8291 16.76C77.8291 14.024 76.3651 11 73.1011 11ZM72.6931 12.488C74.7331 12.488 75.6931 14.888 75.6931 17.36C75.6931 19.016 75.0211 21.848 72.8851 21.848C70.8451 21.848 69.8611 19.52 69.8611 17.048C69.8611 15.392 70.5571 12.488 72.6931 12.488ZM84.0211 12.296C85.0771 12.296 85.8451 12.992 86.2051 14.288C86.2051 14.288 87.7411 13.76 87.7411 12.968C87.7411 11.528 85.6771 11 84.3091 11C81.6451 11 79.9891 12.32 79.9891 14.408C79.9891 16.088 81.7171 17 83.4931 17.624C84.9811 18.152 86.3731 18.752 86.3731 20.12C86.3731 21.368 85.1491 21.8 83.8051 21.8C81.8851 21.8 81.2851 20.408 80.8771 19.784C80.5411 19.952 79.7491 20.384 79.7491 21.296C79.7491 22.352 81.0211 23.24 83.8291 23.24C86.6131 23.24 88.3171 21.464 88.3171 19.424C88.3171 17.576 86.5651 16.688 84.8371 16.136C83.4691 15.704 81.8611 15.224 81.8611 13.928C81.8611 13.184 82.4371 12.296 84.0211 12.296ZM95.3884 21.56C92.8924 21.56 92.0524 19.016 92.0524 16.784L98.7484 16.544C98.8444 16.304 99.0604 15.56 99.0604 14.504C99.0604 13.112 98.1964 11 95.3644 11C90.8764 11 90.1084 15.128 90.1084 17.288C90.1084 20.888 91.8364 23.24 95.3404 23.24C97.1164 23.24 99.1564 22.112 99.1564 20.696C99.1564 19.904 98.4604 19.76 98.4604 19.76C97.7164 20.816 96.5404 21.56 95.3884 21.56ZM95.0284 12.32C96.7324 12.32 97.0204 13.712 97.0204 14.144C97.0204 14.648 96.9724 14.984 96.8284 15.32L92.1724 15.488C92.3644 13.952 93.2524 12.32 95.0284 12.32ZM114.042 12.704C114.042 12.704 112.842 11 110.538 11C107.13 11 105.882 14.912 105.882 17.48C105.882 20.48 107.226 23.24 109.602 23.24C112.17 23.24 113.394 20.048 113.826 18.8H113.946C113.85 20.024 113.802 21.176 113.802 21.512C113.802 22.928 114.066 23.168 114.642 23.168C115.386 23.168 116.298 22.616 116.298 22.616C116.298 22.616 115.674 21.44 115.674 19.928C115.674 15.44 115.914 12.056 115.914 8.312C115.914 6.968 115.77 6.2 114.93 6.2C114.354 6.2 113.418 6.656 113.418 6.656C113.994 8.168 114.042 9.464 114.042 12.704ZM109.866 21.272C108.57 21.272 107.898 19.376 107.898 17.432C107.898 15.176 108.378 12.68 110.706 12.68C112.698 12.68 113.85 14.048 113.97 14.216C113.97 14.216 113.994 14.552 113.994 15.056C113.994 17.408 112.098 21.272 109.866 21.272ZM123.865 21.56C121.369 21.56 120.529 19.016 120.529 16.784L127.225 16.544C127.321 16.304 127.537 15.56 127.537 14.504C127.537 13.112 126.673 11 123.841 11C119.353 11 118.585 15.128 118.585 17.288C118.585 20.888 120.313 23.24 123.817 23.24C125.593 23.24 127.633 22.112 127.633 20.696C127.633 19.904 126.937 19.76 126.937 19.76C126.193 20.816 125.017 21.56 123.865 21.56ZM123.505 12.32C125.209 12.32 125.497 13.712 125.497 14.144C125.497 14.648 125.449 14.984 125.305 15.32L120.649 15.488C120.841 13.952 121.729 12.32 123.505 12.32ZM130.466 21.32C130.466 22.568 130.682 23.072 131.546 23.072C131.978 23.072 132.962 22.544 132.962 22.544C132.962 22.544 132.362 21.44 132.362 19.976C132.362 18.344 132.53 14.768 132.53 13.544V11.12C132.53 7.712 132.458 6.2 131.426 6.2C130.682 6.2 129.914 6.68 129.914 6.68C130.514 8.216 130.682 9.632 130.682 12.872C130.682 15.8 130.466 18.56 130.466 21.32ZM136.398 21.296C136.398 22.568 136.638 23.072 137.262 23.072C138.054 23.072 138.894 22.52 138.894 22.52C138.894 22.52 138.27 21.392 138.27 19.784V13.16C138.27 12.104 138.174 11.072 137.262 11.072C136.686 11.072 135.75 11.528 135.75 11.528C136.278 12.968 136.47 13.856 136.47 17.096C136.47 18.656 136.398 19.904 136.398 21.296ZM135.75 7.472C135.75 8.216 136.326 8.792 137.07 8.792C137.814 8.792 138.414 8.216 138.414 7.472C138.414 6.728 137.814 6.128 137.07 6.128C136.326 6.128 135.75 6.728 135.75 7.472ZM146.385 12.392C147.585 12.392 148.353 13.232 148.833 14.384C148.833 14.384 150.225 13.856 150.225 13.064C150.225 11.624 147.897 11 146.553 11C142.017 11 141.273 15.08 141.273 17.24C141.273 20.768 143.145 23.24 146.601 23.24C148.377 23.24 150.489 22.16 150.489 20.744C150.489 19.952 149.793 19.736 149.793 19.736C149.169 20.696 148.113 21.56 146.841 21.56C143.961 21.56 143.265 18.608 143.265 16.88C143.265 15.104 143.84 12.392 146.385 12.392ZM153.062 21.296C153.062 22.568 153.302 23.072 153.926 23.072C154.718 23.072 155.558 22.52 155.558 22.52C155.558 22.52 154.934 21.392 154.934 19.784V13.16C154.934 12.104 154.838 11.072 153.926 11.072C153.35 11.072 152.414 11.528 152.414 11.528C152.942 12.968 153.134 13.856 153.134 17.096C153.134 18.656 153.062 19.904 153.062 21.296ZM152.414 7.472C152.414 8.216 152.99 8.792 153.734 8.792C154.478 8.792 155.078 8.216 155.078 7.472C155.078 6.728 154.478 6.128 153.734 6.128C152.99 6.128 152.414 6.728 152.414 7.472ZM163.289 11C159.473 11 157.937 14.6 157.937 17.648C157.937 20.432 159.569 23.24 163.025 23.24C166.601 23.24 168.017 19.664 168.017 16.76C168.017 14.024 166.553 11 163.289 11ZM162.881 12.488C164.921 12.488 165.881 14.888 165.881 17.36C165.881 19.016 165.209 21.848 163.073 21.848C161.033 21.848 160.049 19.52 160.049 17.048C160.049 15.392 160.745 12.488 162.881 12.488ZM179.609 11.888C179.609 11.336 179.321 11.096 178.817 11.096C178.073 11.096 177.209 11.552 177.209 11.552C177.209 11.552 177.737 12.464 177.737 14.816C177.737 18.416 176.081 21.224 174.281 21.224C172.745 21.224 172.433 19.808 172.433 18.728C172.433 17.192 172.505 15.512 172.505 13.856C172.505 12.296 172.481 11.096 171.545 11.096C170.801 11.096 169.985 11.552 169.985 11.552C170.537 13.136 170.753 13.976 170.753 15.992C170.753 17.072 170.705 18.536 170.705 19.616C170.705 21.92 171.953 23.24 173.945 23.24C176.585 23.24 177.521 20.336 177.905 18.776H178.001C178.001 19.544 178.025 21.176 178.025 21.512C178.025 22.76 178.289 23.168 178.865 23.168C179.633 23.168 180.377 22.616 180.377 22.616C179.537 20.792 179.369 18.584 179.369 16.736C179.369 14.984 179.609 13.472 179.609 11.888ZM186.513 12.296C187.569 12.296 188.337 12.992 188.697 14.288C188.697 14.288 190.233 13.76 190.233 12.968C190.233 11.528 188.169 11 186.801 11C184.137 11 182.481 12.32 182.481 14.408C182.481 16.088 184.209 17 185.985 17.624C187.473 18.152 188.865 18.752 188.865 20.12C188.865 21.368 187.641 21.8 186.297 21.8C184.377 21.8 183.777 20.408 183.369 19.784C183.033 19.952 182.241 20.384 182.241 21.296C182.241 22.352 183.513 23.24 186.321 23.24C189.105 23.24 190.809 21.464 190.809 19.424C190.809 17.576 189.057 16.688 187.329 16.136C185.961 15.704 184.353 15.224 184.353 13.928C184.353 13.184 184.929 12.296 186.513 12.296ZM200.285 14.072V13.832C200.285 12.776 200.165 11.024 200.165 11.024C200.165 11.024 198.053 11.144 198.053 11.84C198.053 12.848 198.629 13.784 198.629 17.6C198.629 20 198.149 20.672 198.149 22.208C198.149 22.76 198.293 23.072 199.349 23.072C200.405 23.072 200.573 23.024 200.573 23.024C200.285 21.272 200.261 20.384 200.261 19.064V18.056C200.261 15.2 201.965 12.92 203.093 12.92C203.669 12.92 204.149 13.28 204.533 14.36C204.533 14.36 205.829 14.072 205.829 12.848C205.829 12.008 205.253 11 203.693 11C201.797 11 200.717 12.992 200.405 14.072H200.285ZM211.967 21.56C209.471 21.56 208.631 19.016 208.631 16.784L215.327 16.544C215.423 16.304 215.639 15.56 215.639 14.504C215.639 13.112 214.775 11 211.943 11C207.455 11 206.687 15.128 206.687 17.288C206.687 20.888 208.415 23.24 211.919 23.24C213.695 23.24 215.735 22.112 215.735 20.696C215.735 19.904 215.039 19.76 215.039 19.76C214.295 20.816 213.119 21.56 211.967 21.56ZM211.607 12.32C213.311 12.32 213.599 13.712 213.599 14.144C213.599 14.648 213.551 14.984 213.407 15.32L208.751 15.488C208.943 13.952 209.831 12.32 211.607 12.32ZM222.767 12.392C223.967 12.392 224.735 13.232 225.215 14.384C225.215 14.384 226.607 13.856 226.607 13.064C226.607 11.624 224.279 11 222.935 11C218.399 11 217.655 15.08 217.655 17.24C217.655 20.768 219.527 23.24 222.983 23.24C224.759 23.24 226.871 22.16 226.871 20.744C226.871 19.952 226.175 19.736 226.175 19.736C225.551 20.696 224.495 21.56 223.223 21.56C220.343 21.56 219.647 18.608 219.647 16.88C219.647 15.104 220.223 12.392 222.767 12.392ZM229.445 21.296C229.445 22.568 229.685 23.072 230.309 23.072C231.101 23.072 231.941 22.52 231.941 22.52C231.941 22.52 231.317 21.392 231.317 19.784V13.16C231.317 12.104 231.221 11.072 230.309 11.072C229.733 11.072 228.797 11.528 228.797 11.528C229.325 12.968 229.517 13.856 229.517 17.096C229.517 18.656 229.445 19.904 229.445 21.296ZM228.797 7.472C228.797 8.216 229.373 8.792 230.117 8.792C230.861 8.792 231.461 8.216 231.461 7.472C231.461 6.728 230.861 6.128 230.117 6.128C229.373 6.128 228.797 6.728 228.797 7.472ZM235.399 17.768C235.399 23.096 235.015 27.08 234.343 28.544C234.415 28.64 235.159 29 235.951 29C236.287 29 236.575 28.904 236.671 28.712C236.839 28.376 237.031 26.528 237.031 23.912C237.031 23.024 236.959 22.112 236.935 20.984C237.439 21.872 238.735 23.24 240.319 23.24C242.935 23.24 245.119 20.12 245.119 16.064C245.119 13.904 244.327 11 241.207 11C238.855 11 237.727 12.8 237.319 14.072H237.199C237.127 12.44 236.959 11.024 236.959 11.024C236.959 11.024 234.871 11.144 234.871 11.84C234.871 12.704 235.399 13.976 235.399 17.768ZM243.103 16.616C243.103 18.584 242.623 21.392 240.343 21.392C239.095 21.392 237.487 20.384 237.079 19.52C237.079 15.704 238.639 12.584 240.775 12.584C242.839 12.584 243.103 15.296 243.103 16.616ZM252.326 21.56C249.83 21.56 248.99 19.016 248.99 16.784L255.686 16.544C255.782 16.304 255.998 15.56 255.998 14.504C255.998 13.112 255.134 11 252.302 11C247.814 11 247.046 15.128 247.046 17.288C247.046 20.888 248.774 23.24 252.278 23.24C254.054 23.24 256.094 22.112 256.094 20.696C256.094 19.904 255.398 19.76 255.398 19.76C254.654 20.816 253.478 21.56 252.326 21.56ZM251.966 12.32C253.67 12.32 253.958 13.712 253.958 14.144C253.958 14.648 253.91 14.984 253.766 15.32L249.11 15.488C249.302 13.952 250.19 12.32 251.966 12.32ZM262.287 12.296C263.343 12.296 264.111 12.992 264.471 14.288C264.471 14.288 266.007 13.76 266.007 12.968C266.007 11.528 263.943 11 262.575 11C259.911 11 258.255 12.32 258.255 14.408C258.255 16.088 259.983 17 261.759 17.624C263.247 18.152 264.639 18.752 264.639 20.12C264.639 21.368 263.415 21.8 262.071 21.8C260.151 21.8 259.551 20.408 259.143 19.784C258.807 19.952 258.015 20.384 258.015 21.296C258.015 22.352 259.287 23.24 262.095 23.24C264.879 23.24 266.583 21.464 266.583 19.424C266.583 17.576 264.831 16.688 263.103 16.136C261.735 15.704 260.127 15.224 260.127 13.928C260.127 13.184 260.703 12.296 262.287 12.296ZM2.87594 49.768C2.87594 55.096 2.49194 59.08 1.81994 60.544C1.89194 60.64 2.63594 61 3.42794 61C3.76394 61 4.05194 60.904 4.14794 60.712C4.31594 60.376 4.50794 58.528 4.50794 55.912C4.50794 55.024 4.43594 54.112 4.41194 52.984C4.91594 53.872 6.21194 55.24 7.79594 55.24C10.4119 55.24 12.5959 52.12 12.5959 48.064C12.5959 45.904 11.8039 43 8.68394 43C6.33194 43 5.20394 44.8 4.79594 46.072H4.67594C4.60394 44.44 4.43594 43.024 4.43594 43.024C4.43594 43.024 2.34794 43.144 2.34794 43.84C2.34794 44.704 2.87594 45.976 2.87594 49.768ZM10.5799 48.616C10.5799 50.584 10.0999 53.392 7.81994 53.392C6.57194 53.392 4.96394 52.384 4.55594 51.52C4.55594 47.704 6.11594 44.584 8.25194 44.584C10.3159 44.584 10.5799 47.296 10.5799 48.616ZM19.8025 53.56C17.3065 53.56 16.4665 51.016 16.4665 48.784L23.1625 48.544C23.2585 48.304 23.4745 47.56 23.4745 46.504C23.4745 45.112 22.6105 43 19.7785 43C15.2905 43 14.5225 47.128 14.5225 49.288C14.5225 52.888 16.2505 55.24 19.7545 55.24C21.5305 55.24 23.5705 54.112 23.5705 52.696C23.5705 51.904 22.8745 51.76 22.8745 51.76C22.1305 52.816 20.9545 53.56 19.8025 53.56ZM19.4425 44.32C21.1465 44.32 21.4345 45.712 21.4345 46.144C21.4345 46.648 21.3865 46.984 21.2425 47.32L16.5865 47.488C16.7785 45.952 17.6665 44.32 19.4425 44.32ZM28.3713 46.072V45.832C28.3713 44.776 28.2513 43.024 28.2513 43.024C28.2513 43.024 26.1393 43.144 26.1393 43.84C26.1393 44.848 26.7153 45.784 26.7153 49.6C26.7153 52 26.2353 52.672 26.2353 54.208C26.2353 54.76 26.3793 55.072 27.4353 55.072C28.4913 55.072 28.6593 55.024 28.6593 55.024C28.3713 53.272 28.3473 52.384 28.3473 51.064V50.056C28.3473 47.2 30.0513 44.92 31.1793 44.92C31.7553 44.92 32.2353 45.28 32.6193 46.36C32.6193 46.36 33.9153 46.072 33.9153 44.848C33.9153 44.008 33.3393 43 31.7793 43C29.8833 43 28.8033 44.992 28.4913 46.072H28.3713ZM38.4841 45.424H41.2441C41.6041 45.4 41.8201 44.728 41.8201 44.248C41.8201 44.104 41.8201 43.984 41.7721 43.864H38.3641C38.3161 43.552 38.3161 42.952 38.3161 42.376C38.3161 41.2 38.3641 39.496 39.7801 39.496C40.7881 39.496 41.5561 40.072 42.2521 41.224C42.9481 40.864 43.4041 40.288 43.4041 39.88C43.4041 38.872 41.8201 38.2 39.6361 38.2C36.8761 38.2 36.4201 39.808 36.4201 41.704C36.4201 42.424 36.5161 43.168 36.5161 43.888H35.6521C35.2921 43.888 34.8361 44.68 34.8361 45.28C34.8361 45.328 34.8361 45.4 34.8601 45.472H36.6601C36.7321 47.128 36.8041 48.568 36.8041 49.816C36.8041 51.76 36.6121 53.272 36.1081 54.592C36.2521 54.712 36.8761 55.072 37.6681 55.072C38.6041 55.072 38.6281 53.944 38.6281 52.456C38.6281 49.936 38.6281 47.68 38.4841 45.424ZM48.0916 53.56C45.5956 53.56 44.7556 51.016 44.7556 48.784L51.4516 48.544C51.5476 48.304 51.7636 47.56 51.7636 46.504C51.7636 45.112 50.8996 43 48.0676 43C43.5796 43 42.8116 47.128 42.8116 49.288C42.8116 52.888 44.5396 55.24 48.0436 55.24C49.8196 55.24 51.8596 54.112 51.8596 52.696C51.8596 51.904 51.1636 51.76 51.1636 51.76C50.4196 52.816 49.2436 53.56 48.0916 53.56ZM47.7316 44.32C49.4356 44.32 49.7236 45.712 49.7236 46.144C49.7236 46.648 49.6756 46.984 49.5316 47.32L44.8756 47.488C45.0676 45.952 45.9556 44.32 47.7316 44.32ZM58.8923 44.392C60.0923 44.392 60.8603 45.232 61.3403 46.384C61.3403 46.384 62.7323 45.856 62.7323 45.064C62.7323 43.624 60.4043 43 59.0603 43C54.5243 43 53.7803 47.08 53.7803 49.24C53.7803 52.768 55.6523 55.24 59.1083 55.24C60.8843 55.24 62.9963 54.16 62.9963 52.744C62.9963 51.952 62.3003 51.736 62.3003 51.736C61.6763 52.696 60.6203 53.56 59.3483 53.56C56.4683 53.56 55.7723 50.608 55.7723 48.88C55.7723 47.104 56.3483 44.392 58.8923 44.392ZM65.8336 51.736C65.8336 54.04 66.9616 55.072 68.7136 55.072C69.8176 55.072 71.0176 54.688 71.0176 53.8C71.0176 53.44 70.8976 53.056 70.7056 52.816C70.2256 53.128 69.8176 53.344 69.1216 53.344C67.6576 53.344 67.6096 51.712 67.6096 50.104C67.6096 47.752 67.7296 44.512 67.7296 44.512H70.2016C70.5616 44.512 70.7776 43.912 70.7776 43.384C70.7776 43.24 70.7776 43.12 70.7296 43H67.7056V39.904C67.7056 39.904 65.7136 40.048 65.7136 40.744C65.7136 41.512 65.9536 42.352 65.9536 43H65.0176C64.6576 43 64.2016 43.792 64.2016 44.32C64.2016 44.368 64.2016 44.44 64.2256 44.512H65.9776C65.9296 47.296 65.8336 50.608 65.8336 51.736ZM77.74 53.56C75.244 53.56 74.404 51.016 74.404 48.784L81.1 48.544C81.196 48.304 81.412 47.56 81.412 46.504C81.412 45.112 80.548 43 77.716 43C73.228 43 72.46 47.128 72.46 49.288C72.46 52.888 74.188 55.24 77.692 55.24C79.468 55.24 81.508 54.112 81.508 52.696C81.508 51.904 80.812 51.76 80.812 51.76C80.068 52.816 78.892 53.56 77.74 53.56ZM77.38 44.32C79.084 44.32 79.372 45.712 79.372 46.144C79.372 46.648 79.324 46.984 79.18 47.32L74.524 47.488C74.716 45.952 75.604 44.32 77.38 44.32ZM91.5888 44.704C91.5888 44.704 90.3888 43 88.0848 43C84.6768 43 83.4288 46.912 83.4288 49.48C83.4288 52.48 84.7728 55.24 87.1488 55.24C89.7168 55.24 90.9408 52.048 91.3728 50.8H91.4928C91.3968 52.024 91.3488 53.176 91.3488 53.512C91.3488 54.928 91.6128 55.168 92.1888 55.168C92.9328 55.168 93.8448 54.616 93.8448 54.616C93.8448 54.616 93.2208 53.44 93.2208 51.928C93.2208 47.44 93.4608 44.056 93.4608 40.312C93.4608 38.968 93.3168 38.2 92.4768 38.2C91.9008 38.2 90.9648 38.656 90.9648 38.656C91.5408 40.168 91.5888 41.464 91.5888 44.704ZM87.4128 53.272C86.1168 53.272 85.4448 51.376 85.4448 49.432C85.4448 47.176 85.9248 44.68 88.2528 44.68C90.2448 44.68 91.3968 46.048 91.5168 46.216C91.5168 46.216 91.5408 46.552 91.5408 47.056C91.5408 49.408 89.6448 53.272 87.4128 53.272ZM103.433 52.984C103.985 53.92 105.209 55.24 106.865 55.24C109.529 55.24 111.617 52.192 111.617 48.112C111.617 45.952 110.729 43 107.777 43C105.497 43 104.273 44.608 103.817 46.072H103.697C103.817 44.944 103.889 43 103.889 41.08C103.889 40.264 103.889 38.2 102.905 38.2C102.089 38.2 101.297 38.656 101.297 38.656C101.945 39.928 102.017 42.424 102.017 44.752V48.04C102.017 52.648 101.513 52.384 101.513 54.136C101.513 54.904 101.873 55.048 102.545 55.048H103.481C103.457 54.28 103.433 53.392 103.433 52.984ZM107.321 44.584C108.905 44.584 109.601 46.384 109.601 48.664C109.601 50.896 108.713 53.584 106.889 53.584C105.113 53.584 103.985 52.192 103.529 51.52C103.529 47.824 105.041 44.584 107.321 44.584ZM113.984 61C117.392 61 123.464 47.368 123.464 44.224C123.464 43.288 123.152 43 122.408 43C121.664 43 120.728 43.456 120.728 43.456C121.016 43.984 121.232 44.416 121.232 45.232C121.232 47.224 120.44 49.576 118.808 53.128C118.184 50.56 115.736 43 114.656 43C113.408 43 112.688 43.624 112.592 43.768C114.344 45.904 116.768 51.952 117.728 54.832C116.696 56.68 115.592 58.792 112.952 58.792C112.952 59.92 113 61 113.984 61ZM135.257 43C131.441 43 129.905 46.6 129.905 49.648C129.905 52.432 131.537 55.24 134.993 55.24C138.569 55.24 139.985 51.664 139.985 48.76C139.985 46.024 138.521 43 135.257 43ZM134.849 44.488C136.889 44.488 137.849 46.888 137.849 49.36C137.849 51.016 137.177 53.848 135.041 53.848C133.001 53.848 132.017 51.52 132.017 49.048C132.017 47.392 132.713 44.488 134.849 44.488ZM151.577 43.888C151.577 43.336 151.289 43.096 150.785 43.096C150.041 43.096 149.177 43.552 149.177 43.552C149.177 43.552 149.705 44.464 149.705 46.816C149.705 50.416 148.049 53.224 146.249 53.224C144.713 53.224 144.401 51.808 144.401 50.728C144.401 49.192 144.473 47.512 144.473 45.856C144.473 44.296 144.449 43.096 143.513 43.096C142.769 43.096 141.953 43.552 141.953 43.552C142.505 45.136 142.721 45.976 142.721 47.992C142.721 49.072 142.673 50.536 142.673 51.616C142.673 53.92 143.921 55.24 145.913 55.24C148.553 55.24 149.489 52.336 149.873 50.776H149.969C149.969 51.544 149.993 53.176 149.993 53.512C149.993 54.76 150.257 55.168 150.833 55.168C151.601 55.168 152.345 54.616 152.345 54.616C151.505 52.792 151.337 50.584 151.337 48.736C151.337 46.984 151.577 45.472 151.577 43.888ZM157.09 46.072V45.832C157.09 44.776 156.97 43.024 156.97 43.024C156.97 43.024 154.858 43.144 154.858 43.84C154.858 44.848 155.434 45.784 155.434 49.6C155.434 52 154.954 52.672 154.954 54.208C154.954 54.76 155.098 55.072 156.154 55.072C157.21 55.072 157.378 55.024 157.378 55.024C157.09 53.272 157.066 52.384 157.066 51.064V50.056C157.066 47.2 158.77 44.92 159.898 44.92C160.474 44.92 160.954 45.28 161.338 46.36C161.338 46.36 162.634 46.072 162.634 44.848C162.634 44.008 162.058 43 160.498 43C158.602 43 157.522 44.992 157.21 46.072H157.09ZM169.728 49.768C169.728 55.096 169.344 59.08 168.672 60.544C168.744 60.64 169.488 61 170.28 61C170.616 61 170.904 60.904 171 60.712C171.168 60.376 171.36 58.528 171.36 55.912C171.36 55.024 171.288 54.112 171.264 52.984C171.768 53.872 173.064 55.24 174.648 55.24C177.264 55.24 179.448 52.12 179.448 48.064C179.448 45.904 178.656 43 175.536 43C173.184 43 172.056 44.8 171.648 46.072H171.528C171.456 44.44 171.288 43.024 171.288 43.024C171.288 43.024 169.2 43.144 169.2 43.84C169.2 44.704 169.728 45.976 169.728 49.768ZM177.432 48.616C177.432 50.584 176.952 53.392 174.672 53.392C173.424 53.392 171.816 52.384 171.408 51.52C171.408 47.704 172.968 44.584 175.104 44.584C177.168 44.584 177.432 47.296 177.432 48.616ZM190.23 51.664C190.23 49.024 190.35 47.656 190.35 46.24C190.35 45.016 189.702 43 186.294 43C184.494 43 181.83 43.768 181.83 45.208C181.83 46 183.198 46.624 183.198 46.624C183.822 45.136 184.974 44.416 186.366 44.416C187.758 44.416 188.526 45.28 188.526 47.08C188.526 48.592 188.478 48.688 188.478 48.688C188.118 48.64 186.582 48.472 185.502 48.472C182.622 48.472 181.446 50.128 181.446 52.216C181.446 54.016 182.502 55.24 184.566 55.24C186.99 55.24 188.166 53.608 188.502 52.672H188.598C188.598 52.72 188.574 52.96 188.574 53.296C188.574 54.04 188.694 55.168 189.366 55.168C190.206 55.168 191.118 54.616 191.118 54.616C191.118 54.616 190.23 53.2 190.23 51.664ZM188.43 50.704C188.43 52.288 186.822 53.512 185.07 53.512C184.134 53.512 183.51 52.96 183.51 51.904C183.51 50.152 184.71 49.768 186.534 49.768C187.398 49.768 188.262 49.84 188.43 49.84V50.704ZM197.318 44.296C198.374 44.296 199.142 44.992 199.502 46.288C199.502 46.288 201.038 45.76 201.038 44.968C201.038 43.528 198.974 43 197.606 43C194.942 43 193.286 44.32 193.286 46.408C193.286 48.088 195.014 49 196.79 49.624C198.278 50.152 199.67 50.752 199.67 52.12C199.67 53.368 198.446 53.8 197.102 53.8C195.182 53.8 194.582 52.408 194.174 51.784C193.838 51.952 193.046 52.384 193.046 53.296C193.046 54.352 194.318 55.24 197.126 55.24C199.91 55.24 201.614 53.464 201.614 51.424C201.614 49.576 199.862 48.688 198.134 48.136C196.766 47.704 195.158 47.224 195.158 45.928C195.158 45.184 195.734 44.296 197.318 44.296ZM204.677 51.736C204.677 54.04 205.805 55.072 207.557 55.072C208.661 55.072 209.861 54.688 209.861 53.8C209.861 53.44 209.741 53.056 209.549 52.816C209.069 53.128 208.661 53.344 207.965 53.344C206.501 53.344 206.453 51.712 206.453 50.104C206.453 47.752 206.573 44.512 206.573 44.512H209.045C209.405 44.512 209.621 43.912 209.621 43.384C209.621 43.24 209.621 43.12 209.573 43H206.549V39.904C206.549 39.904 204.557 40.048 204.557 40.744C204.557 41.512 204.797 42.352 204.797 43H203.861C203.501 43 203.045 43.792 203.045 44.32C203.045 44.368 203.045 44.44 203.069 44.512H204.821C204.773 47.296 204.677 50.608 204.677 51.736ZM214.418 46.072V45.832C214.418 44.776 214.298 43.024 214.298 43.024C214.298 43.024 212.186 43.144 212.186 43.84C212.186 44.848 212.762 45.784 212.762 49.6C212.762 52 212.282 52.672 212.282 54.208C212.282 54.76 212.426 55.072 213.482 55.072C214.538 55.072 214.706 55.024 214.706 55.024C214.418 53.272 214.394 52.384 214.394 51.064V50.056C214.394 47.2 216.098 44.92 217.226 44.92C217.802 44.92 218.282 45.28 218.666 46.36C218.666 46.36 219.962 46.072 219.962 44.848C219.962 44.008 219.386 43 217.826 43C215.93 43 214.85 44.992 214.538 46.072H214.418ZM222.195 61C225.603 61 231.675 47.368 231.675 44.224C231.675 43.288 231.363 43 230.619 43C229.875 43 228.939 43.456 228.939 43.456C229.227 43.984 229.443 44.416 229.443 45.232C229.443 47.224 228.651 49.576 227.019 53.128C226.395 50.56 223.947 43 222.867 43C221.619 43 220.899 43.624 220.803 43.768C222.555 45.904 224.979 51.952 225.939 54.832C224.907 56.68 223.803 58.792 221.163 58.792C221.163 59.92 221.211 61 222.195 61ZM243.228 44.392C244.428 44.392 245.196 45.232 245.676 46.384C245.676 46.384 247.068 45.856 247.068 45.064C247.068 43.624 244.74 43 243.396 43C238.86 43 238.116 47.08 238.116 49.24C238.116 52.768 239.988 55.24 243.444 55.24C245.22 55.24 247.332 54.16 247.332 52.744C247.332 51.952 246.636 51.736 246.636 51.736C246.012 52.696 244.956 53.56 243.684 53.56C240.804 53.56 240.108 50.608 240.108 48.88C240.108 47.104 240.684 44.392 243.228 44.392ZM256.818 47.68C256.818 49.72 256.626 51.568 256.626 53.296C256.626 54.568 256.866 55.072 257.49 55.072C258.282 55.072 259.122 54.52 259.122 54.52C259.122 54.52 258.498 53.464 258.498 51.784C258.498 50.152 258.642 48.04 258.642 46.312C258.642 45.184 258.162 43 255.954 43C253.626 43 252.306 44.92 251.874 45.976H251.778C251.85 43.912 251.874 42.424 251.874 41.104C251.874 39.688 251.73 38.2 250.818 38.2C250.026 38.2 249.258 38.656 249.258 38.656C250.098 40.36 250.122 46.624 250.122 49.096V49.864C250.122 51.448 249.594 52.72 249.594 54.208C249.594 54.76 249.762 55.072 250.818 55.072C251.874 55.072 252.042 55.024 252.042 55.024C251.754 53.272 251.73 52.384 251.73 51.064V50.056C251.73 46.024 254.082 44.92 255.45 44.92C256.65 44.92 256.818 46.6 256.818 47.68ZM266.576 53.56C264.08 53.56 263.24 51.016 263.24 48.784L269.936 48.544C270.032 48.304 270.248 47.56 270.248 46.504C270.248 45.112 269.384 43 266.552 43C262.064 43 261.296 47.128 261.296 49.288C261.296 52.888 263.024 55.24 266.528 55.24C268.304 55.24 270.344 54.112 270.344 52.696C270.344 51.904 269.648 51.76 269.648 51.76C268.904 52.816 267.728 53.56 266.576 53.56ZM266.216 44.32C267.92 44.32 268.208 45.712 268.208 46.144C268.208 46.648 268.16 46.984 268.016 47.32L263.36 47.488C263.552 45.952 264.44 44.32 266.216 44.32ZM275.625 45.424H278.385C278.745 45.4 278.961 44.728 278.961 44.248C278.961 44.104 278.961 43.984 278.913 43.864H275.505C275.457 43.552 275.457 42.952 275.457 42.376C275.457 41.2 275.505 39.496 276.921 39.496C277.929 39.496 278.697 40.072 279.393 41.224C280.089 40.864 280.545 40.288 280.545 39.88C280.545 38.872 278.961 38.2 276.777 38.2C274.017 38.2 273.561 39.808 273.561 41.704C273.561 42.424 273.657 43.168 273.657 43.888H272.793C272.433 43.888 271.977 44.68 271.977 45.28C271.977 45.328 271.977 45.4 272.001 45.472H273.801C273.873 47.128 273.945 48.568 273.945 49.816C273.945 51.76 273.753 53.272 273.249 54.592C273.393 54.712 274.017 55.072 274.809 55.072C275.745 55.072 275.769 53.944 275.769 52.456C275.769 49.936 275.769 47.68 275.625 45.424ZM284.576 44.296C285.632 44.296 286.4 44.992 286.76 46.288C286.76 46.288 288.296 45.76 288.296 44.968C288.296 43.528 286.232 43 284.864 43C282.2 43 280.544 44.32 280.544 46.408C280.544 48.088 282.272 49 284.048 49.624C285.536 50.152 286.928 50.752 286.928 52.12C286.928 53.368 285.704 53.8 284.36 53.8C282.44 53.8 281.84 52.408 281.432 51.784C281.096 51.952 280.304 52.384 280.304 53.296C280.304 54.352 281.576 55.24 284.384 55.24C287.168 55.24 288.872 53.464 288.872 51.424C288.872 49.576 287.12 48.688 285.392 48.136C284.024 47.704 282.416 47.224 282.416 45.928C282.416 45.184 282.992 44.296 284.576 44.296ZM291.023 53.632C291.023 54.472 291.695 55.144 292.559 55.144C293.399 55.144 294.071 54.472 294.071 53.632C294.071 52.768 293.399 52.096 292.559 52.096C291.695 52.096 291.023 52.768 291.023 53.632Z" fill="#212B36"/>
</svg>
