<svg width="296" height="64" viewBox="0 0 296 64" fill="none" xmlns="http://www.w3.org/2000/svg">
<path d="M8.95853 6.56C3.87053 6.56 1.90253 11.576 1.90253 15.656C1.90253 19.376 4.23053 23.24 8.19053 23.24C13.2785 23.24 15.2225 18.512 15.2225 14.432C15.2225 10.712 13.0385 6.56 8.95853 6.56ZM8.59853 21.56C5.69453 21.56 4.15853 18.8 4.15853 15.032C4.15853 12.608 5.26253 8.24 8.43053 8.24C11.4305 8.24 12.9665 11.024 12.9665 15.128C12.9665 17.936 11.7665 21.56 8.59853 21.56ZM20.0627 14.072V13.832C20.0627 12.776 19.9427 11.024 19.9427 11.024C19.9427 11.024 17.8307 11.144 17.8307 11.84C17.8307 12.848 18.4067 13.784 18.4067 17.6C18.4067 20 17.9267 20.672 17.9267 22.208C17.9267 22.76 18.0707 23.072 19.1267 23.072C20.1827 23.072 20.3507 23.024 20.3507 23.024C20.0627 21.272 20.0387 20.384 20.0387 19.064V18.056C20.0387 15.2 21.7427 12.92 22.8707 12.92C23.4467 12.92 23.9267 13.28 24.3107 14.36C24.3107 14.36 25.6067 14.072 25.6067 12.848C25.6067 12.008 25.0307 11 23.4707 11C21.5747 11 20.4947 12.992 20.1827 14.072H20.0627ZM26.2348 22.976C26.2348 24.464 24.7948 25.64 24.7948 25.64C24.7948 25.64 24.9388 26.312 25.6588 26.312C26.5468 26.312 28.4908 24.296 28.4908 21.92C28.4908 20.576 27.7948 20.096 26.9068 20.096C25.6828 20.096 25.2028 21.056 25.1788 21.752C25.8508 21.824 26.2348 22.328 26.2348 22.976ZM40.3884 12.392C41.5884 12.392 42.3564 13.232 42.8364 14.384C42.8364 14.384 44.2284 13.856 44.2284 13.064C44.2284 11.624 41.9004 11 40.5564 11C36.0204 11 35.2764 15.08 35.2764 17.24C35.2764 20.768 37.1484 23.24 40.6044 23.24C42.3804 23.24 44.4924 22.16 44.4924 20.744C44.4924 19.952 43.7964 19.736 43.7964 19.736C43.1724 20.696 42.1164 21.56 40.8444 21.56C37.9644 21.56 37.2684 18.608 37.2684 16.88C37.2684 15.104 37.8444 12.392 40.3884 12.392ZM48.9377 14.072V13.832C48.9377 12.776 48.8177 11.024 48.8177 11.024C48.8177 11.024 46.7057 11.144 46.7057 11.84C46.7057 12.848 47.2817 13.784 47.2817 17.6C47.2817 20 46.8017 20.672 46.8017 22.208C46.8017 22.76 46.9457 23.072 48.0017 23.072C49.0577 23.072 49.2257 23.024 49.2257 23.024C48.9377 21.272 48.9137 20.384 48.9137 19.064V18.056C48.9137 15.2 50.6177 12.92 51.7457 12.92C52.3217 12.92 52.8017 13.28 53.1857 14.36C53.1857 14.36 54.4817 14.072 54.4817 12.848C54.4817 12.008 53.9057 11 52.3457 11C50.4497 11 49.3697 12.992 49.0577 14.072H48.9377ZM60.6189 21.56C58.1229 21.56 57.2829 19.016 57.2829 16.784L63.9789 16.544C64.0749 16.304 64.2909 15.56 64.2909 14.504C64.2909 13.112 63.4269 11 60.5949 11C56.1069 11 55.3389 15.128 55.3389 17.288C55.3389 20.888 57.0669 23.24 60.5709 23.24C62.3469 23.24 64.3869 22.112 64.3869 20.696C64.3869 19.904 63.6909 19.76 63.6909 19.76C62.9469 20.816 61.7709 21.56 60.6189 21.56ZM60.2589 12.32C61.9629 12.32 62.2509 13.712 62.2509 14.144C62.2509 14.648 62.2029 14.984 62.0589 15.32L57.4029 15.488C57.5949 13.952 58.4829 12.32 60.2589 12.32ZM75.1637 19.664C75.1637 17.024 75.2837 15.656 75.2837 14.24C75.2837 13.016 74.6357 11 71.2277 11C69.4277 11 66.7637 11.768 66.7637 13.208C66.7637 14 68.1317 14.624 68.1317 14.624C68.7557 13.136 69.9077 12.416 71.2997 12.416C72.6917 12.416 73.4597 13.28 73.4597 15.08C73.4597 16.592 73.4117 16.688 73.4117 16.688C73.0517 16.64 71.5157 16.472 70.4357 16.472C67.5557 16.472 66.3797 18.128 66.3797 20.216C66.3797 22.016 67.4357 23.24 69.4997 23.24C71.9237 23.24 73.0997 21.608 73.4357 20.672H73.5317C73.5317 20.72 73.5077 20.96 73.5077 21.296C73.5077 22.04 73.6277 23.168 74.2997 23.168C75.1397 23.168 76.0517 22.616 76.0517 22.616C76.0517 22.616 75.1637 21.2 75.1637 19.664ZM73.3637 18.704C73.3637 20.288 71.7557 21.512 70.0037 21.512C69.0677 21.512 68.4437 20.96 68.4437 19.904C68.4437 18.152 69.6437 17.768 71.4677 17.768C72.3317 17.768 73.1957 17.84 73.3637 17.84V18.704ZM78.7828 19.736C78.7828 22.04 79.9108 23.072 81.6628 23.072C82.7668 23.072 83.9668 22.688 83.9668 21.8C83.9668 21.44 83.8468 21.056 83.6548 20.816C83.1748 21.128 82.7668 21.344 82.0708 21.344C80.6068 21.344 80.5588 19.712 80.5588 18.104C80.5588 15.752 80.6788 12.512 80.6788 12.512H83.1508C83.5108 12.512 83.7268 11.912 83.7268 11.384C83.7268 11.24 83.7268 11.12 83.6788 11H80.6548V7.904C80.6548 7.904 78.6628 8.048 78.6628 8.744C78.6628 9.512 78.9028 10.352 78.9028 11H77.9668C77.6068 11 77.1508 11.792 77.1508 12.32C77.1508 12.368 77.1508 12.44 77.1748 12.512H78.9268C78.8788 15.296 78.7828 18.608 78.7828 19.736ZM90.6892 21.56C88.1932 21.56 87.3532 19.016 87.3532 16.784L94.0492 16.544C94.1452 16.304 94.3612 15.56 94.3612 14.504C94.3612 13.112 93.4972 11 90.6652 11C86.1772 11 85.4092 15.128 85.4092 17.288C85.4092 20.888 87.1372 23.24 90.6412 23.24C92.4172 23.24 94.4572 22.112 94.4572 20.696C94.4572 19.904 93.7612 19.76 93.7612 19.76C93.0172 20.816 91.8412 21.56 90.6892 21.56ZM90.3292 12.32C92.0332 12.32 92.3212 13.712 92.3212 14.144C92.3212 14.648 92.2732 14.984 92.1292 15.32L87.4732 15.488C87.6652 13.952 88.5532 12.32 90.3292 12.32ZM109.631 21.32C109.631 22.568 109.847 23.072 110.711 23.072C111.143 23.072 112.127 22.544 112.127 22.544C112.127 22.544 111.527 21.44 111.527 19.976C111.527 16.976 111.695 16.448 111.695 11.264C111.695 7.136 111.503 6.2 110.591 6.2C110.159 6.2 109.751 6.368 109.463 6.488C108.743 6.32 107.927 6.2 107.063 6.2C103.799 6.2 102.479 7.4 102.479 9.896C102.479 10.616 102.551 11.168 102.575 11.888H101.711C101.351 11.888 100.895 12.68 100.895 13.28C100.895 13.352 100.895 13.4 100.919 13.472H102.719C102.791 15.128 102.863 16.568 102.863 17.816C102.863 19.76 102.671 21.272 102.167 22.592C102.143 22.664 102.983 23.072 103.775 23.072C104.111 23.072 104.351 22.856 104.447 22.664C104.615 22.328 104.687 21.92 104.687 19.304C104.687 16.088 104.639 15.08 104.543 13.424H107.303C107.663 13.4 107.879 12.776 107.879 12.248C107.879 12.104 107.879 11.984 107.831 11.864H104.423C104.375 11.552 104.375 10.976 104.375 10.4C104.375 8.6 104.855 7.52 107.015 7.52C107.783 7.52 108.815 7.808 109.535 8.264C109.775 9.392 109.847 10.712 109.847 12.872C109.847 15.056 109.631 18.776 109.631 21.32ZM123.398 19.664C123.398 17.024 123.518 15.656 123.518 14.24C123.518 13.016 122.87 11 119.462 11C117.662 11 114.998 11.768 114.998 13.208C114.998 14 116.366 14.624 116.366 14.624C116.99 13.136 118.142 12.416 119.534 12.416C120.926 12.416 121.694 13.28 121.694 15.08C121.694 16.592 121.646 16.688 121.646 16.688C121.286 16.64 119.75 16.472 118.67 16.472C115.79 16.472 114.614 18.128 114.614 20.216C114.614 22.016 115.67 23.24 117.734 23.24C120.158 23.24 121.334 21.608 121.67 20.672H121.766C121.766 20.72 121.742 20.96 121.742 21.296C121.742 22.04 121.862 23.168 122.534 23.168C123.374 23.168 124.286 22.616 124.286 22.616C124.286 22.616 123.398 21.2 123.398 19.664ZM121.598 18.704C121.598 20.288 119.99 21.512 118.238 21.512C117.302 21.512 116.678 20.96 116.678 19.904C116.678 18.152 117.878 17.768 119.702 17.768C120.566 17.768 121.43 17.84 121.598 17.84V18.704ZM125.022 11.456C126.75 13.616 128.526 19.928 129.198 23.12C129.198 23.12 129.318 23.144 129.486 23.144C129.942 23.144 130.878 23.048 131.334 22.376C132.75 20.312 135.702 14.576 135.702 12.152C135.702 11.408 135.414 11 134.79 11C134.046 11 132.87 11.456 132.87 11.456C132.87 11.456 133.398 12.248 133.398 13.16C133.398 16.232 130.878 20.648 130.59 21.104C129.678 17.216 128.766 14.048 128.022 12.296C127.662 11.48 127.326 11 126.99 11C126.054 11 125.238 11.312 125.022 11.456ZM142.441 11C138.625 11 137.089 14.6 137.089 17.648C137.089 20.432 138.721 23.24 142.177 23.24C145.753 23.24 147.169 19.664 147.169 16.76C147.169 14.024 145.705 11 142.441 11ZM142.033 12.488C144.073 12.488 145.033 14.888 145.033 17.36C145.033 19.016 144.361 21.848 142.225 21.848C140.185 21.848 139.201 19.52 139.201 17.048C139.201 15.392 139.897 12.488 142.033 12.488ZM151.969 14.072V13.832C151.969 12.776 151.849 11.024 151.849 11.024C151.849 11.024 149.737 11.144 149.737 11.84C149.737 12.848 150.313 13.784 150.313 17.6C150.313 20 149.833 20.672 149.833 22.208C149.833 22.76 149.977 23.072 151.033 23.072C152.089 23.072 152.257 23.024 152.257 23.024C151.969 21.272 151.945 20.384 151.945 19.064V18.056C151.945 15.2 153.649 12.92 154.777 12.92C155.353 12.92 155.833 13.28 156.217 14.36C156.217 14.36 157.513 14.072 157.513 12.848C157.513 12.008 156.937 11 155.377 11C153.481 11 152.401 12.992 152.089 14.072H151.969ZM168.638 12.392C169.838 12.392 170.606 13.232 171.086 14.384C171.086 14.384 172.478 13.856 172.478 13.064C172.478 11.624 170.15 11 168.806 11C164.27 11 163.526 15.08 163.526 17.24C163.526 20.768 165.398 23.24 168.854 23.24C170.63 23.24 172.742 22.16 172.742 20.744C172.742 19.952 172.046 19.736 172.046 19.736C171.422 20.696 170.366 21.56 169.094 21.56C166.214 21.56 165.518 18.608 165.518 16.88C165.518 15.104 166.094 12.392 168.638 12.392ZM179.66 11C175.844 11 174.308 14.6 174.308 17.648C174.308 20.432 175.94 23.24 179.396 23.24C182.972 23.24 184.388 19.664 184.388 16.76C184.388 14.024 182.924 11 179.66 11ZM179.252 12.488C181.292 12.488 182.252 14.888 182.252 17.36C182.252 19.016 181.58 21.848 179.444 21.848C177.404 21.848 176.42 19.52 176.42 17.048C176.42 15.392 177.116 12.488 179.252 12.488ZM199.724 11C197.156 11 195.884 13.112 195.548 13.976C195.476 13.088 195.068 11 193.004 11C190.892 11 189.5 12.992 189.332 13.976H189.236V13.64C189.236 12.872 189.068 11.024 189.068 11.024C189.068 11.024 186.956 11.144 186.956 11.84C186.956 12.872 187.532 13.784 187.532 18.032C187.532 19.736 187.052 21.2 187.052 22.208C187.052 22.76 187.22 23.072 188.276 23.072C189.332 23.072 189.5 23.024 189.5 23.024C189.212 21.272 189.188 20.384 189.188 19.064V18.056C189.188 14.264 191.492 12.872 192.524 12.872C194.012 12.872 194.18 14.72 194.18 15.728C194.18 16.712 193.988 18.272 193.988 21.992C193.988 22.4 194.036 23.096 194.78 23.096C195.5 23.096 196.148 22.904 196.316 22.808C196.052 21.848 195.836 20.864 195.836 18.584C195.836 17.912 195.884 17.168 195.956 16.4C196.172 14.216 197.78 12.872 199.244 12.872C200.612 12.872 200.612 14.864 200.612 15.992C200.612 17.888 200.444 20.24 200.444 21.224C200.444 22.496 200.66 23.072 201.308 23.072C202.1 23.072 202.94 22.52 202.94 22.52C202.316 21.176 202.316 20.12 202.316 18.968C202.316 16.904 202.436 15.68 202.436 14.312C202.436 13.184 201.956 11.024 199.724 11ZM207.53 20.984C208.082 21.92 209.306 23.24 210.962 23.24C213.626 23.24 215.714 20.192 215.714 16.112C215.714 13.952 214.826 11 211.874 11C209.594 11 208.37 12.608 207.914 14.072H207.794C207.914 12.944 207.986 11 207.986 9.08C207.986 8.264 207.986 6.2 207.002 6.2C206.186 6.2 205.394 6.656 205.394 6.656C206.042 7.928 206.114 10.424 206.114 12.752V16.04C206.114 20.648 205.61 20.384 205.61 22.136C205.61 22.904 205.97 23.048 206.642 23.048H207.578C207.554 22.28 207.53 21.392 207.53 20.984ZM211.418 12.584C213.002 12.584 213.698 14.384 213.698 16.664C213.698 18.896 212.81 21.584 210.986 21.584C209.21 21.584 208.082 20.192 207.626 19.52C207.626 15.824 209.138 12.584 211.418 12.584ZM218.652 21.296C218.652 22.568 218.892 23.072 219.516 23.072C220.308 23.072 221.148 22.52 221.148 22.52C221.148 22.52 220.524 21.392 220.524 19.784V13.16C220.524 12.104 220.428 11.072 219.516 11.072C218.94 11.072 218.004 11.528 218.004 11.528C218.532 12.968 218.724 13.856 218.724 17.096C218.724 18.656 218.652 19.904 218.652 21.296ZM218.004 7.472C218.004 8.216 218.58 8.792 219.324 8.792C220.068 8.792 220.668 8.216 220.668 7.472C220.668 6.728 220.068 6.128 219.324 6.128C218.58 6.128 218.004 6.728 218.004 7.472ZM226.382 18.056C226.382 14.024 228.782 12.92 230.078 12.92C231.326 12.92 231.518 14.6 231.518 15.68C231.518 18.032 231.278 20.024 231.278 21.224C231.278 22.496 231.446 23.072 232.214 23.072C232.886 23.072 233.774 22.52 233.774 22.52C233.294 21.656 233.15 20.528 233.15 19.52C233.15 18.2 233.294 15.68 233.294 14.312C233.294 13.184 232.838 11.024 230.558 11C228.278 11 226.886 12.992 226.55 13.976H226.43V13.64C226.43 12.872 226.262 11.024 226.262 11.024C226.262 11.024 224.174 11.144 224.174 11.84C224.174 12.872 224.75 13.784 224.75 18.032C224.75 19.736 224.27 21.2 224.27 22.208C224.27 22.76 224.414 23.072 225.47 23.072C226.526 23.072 226.694 23.024 226.694 23.024C226.406 21.272 226.382 20.384 226.382 19.064V18.056ZM244.781 19.664C244.781 17.024 244.901 15.656 244.901 14.24C244.901 13.016 244.253 11 240.845 11C239.045 11 236.381 11.768 236.381 13.208C236.381 14 237.749 14.624 237.749 14.624C238.373 13.136 239.525 12.416 240.917 12.416C242.309 12.416 243.077 13.28 243.077 15.08C243.077 16.592 243.029 16.688 243.029 16.688C242.669 16.64 241.133 16.472 240.053 16.472C237.173 16.472 235.997 18.128 235.997 20.216C235.997 22.016 237.053 23.24 239.117 23.24C241.541 23.24 242.717 21.608 243.053 20.672H243.149C243.149 20.72 243.125 20.96 243.125 21.296C243.125 22.04 243.245 23.168 243.917 23.168C244.757 23.168 245.669 22.616 245.669 22.616C245.669 22.616 244.781 21.2 244.781 19.664ZM242.981 18.704C242.981 20.288 241.373 21.512 239.621 21.512C238.685 21.512 238.061 20.96 238.061 19.904C238.061 18.152 239.261 17.768 241.085 17.768C241.949 17.768 242.813 17.84 242.981 17.84V18.704ZM248.4 19.736C248.4 22.04 249.528 23.072 251.28 23.072C252.384 23.072 253.584 22.688 253.584 21.8C253.584 21.44 253.464 21.056 253.272 20.816C252.792 21.128 252.384 21.344 251.688 21.344C250.224 21.344 250.176 19.712 250.176 18.104C250.176 15.752 250.296 12.512 250.296 12.512H252.768C253.128 12.512 253.344 11.912 253.344 11.384C253.344 11.24 253.344 11.12 253.296 11H250.272V7.904C250.272 7.904 248.28 8.048 248.28 8.744C248.28 9.512 248.52 10.352 248.52 11H247.584C247.224 11 246.768 11.792 246.768 12.32C246.768 12.368 246.768 12.44 246.792 12.512H248.544C248.496 15.296 248.4 18.608 248.4 19.736ZM256.269 21.296C256.269 22.568 256.509 23.072 257.133 23.072C257.925 23.072 258.765 22.52 258.765 22.52C258.765 22.52 258.141 21.392 258.141 19.784V13.16C258.141 12.104 258.045 11.072 257.133 11.072C256.557 11.072 255.621 11.528 255.621 11.528C256.149 12.968 256.341 13.856 256.341 17.096C256.341 18.656 256.269 19.904 256.269 21.296ZM255.621 7.472C255.621 8.216 256.197 8.792 256.941 8.792C257.685 8.792 258.285 8.216 258.285 7.472C258.285 6.728 257.685 6.128 256.941 6.128C256.197 6.128 255.621 6.728 255.621 7.472ZM266.496 11C262.68 11 261.144 14.6 261.144 17.648C261.144 20.432 262.776 23.24 266.232 23.24C269.808 23.24 271.224 19.664 271.224 16.76C271.224 14.024 269.76 11 266.496 11ZM266.088 12.488C268.128 12.488 269.088 14.888 269.088 17.36C269.088 19.016 268.416 21.848 266.28 21.848C264.24 21.848 263.256 19.52 263.256 17.048C263.256 15.392 263.952 12.488 266.088 12.488ZM276 18.056C276 14.024 278.4 12.92 279.696 12.92C280.944 12.92 281.136 14.6 281.136 15.68C281.136 18.032 280.896 20.024 280.896 21.224C280.896 22.496 281.064 23.072 281.832 23.072C282.504 23.072 283.392 22.52 283.392 22.52C282.912 21.656 282.768 20.528 282.768 19.52C282.768 18.2 282.912 15.68 282.912 14.312C282.912 13.184 282.456 11.024 280.176 11C277.896 11 276.504 12.992 276.168 13.976H276.048V13.64C276.048 12.872 275.88 11.024 275.88 11.024C275.88 11.024 273.792 11.144 273.792 11.84C273.792 12.872 274.368 13.784 274.368 18.032C274.368 19.736 273.888 21.2 273.888 22.208C273.888 22.76 274.032 23.072 275.088 23.072C276.144 23.072 276.312 23.024 276.312 23.024C276.024 21.272 276 20.384 276 19.064V18.056ZM289.978 12.296C291.034 12.296 291.802 12.992 292.162 14.288C292.162 14.288 293.698 13.76 293.698 12.968C293.698 11.528 291.634 11 290.266 11C287.602 11 285.946 12.32 285.946 14.408C285.946 16.088 287.674 17 289.45 17.624C290.938 18.152 292.33 18.752 292.33 20.12C292.33 21.368 291.106 21.8 289.762 21.8C287.842 21.8 287.242 20.408 286.834 19.784C286.498 19.952 285.706 20.384 285.706 21.296C285.706 22.352 286.978 23.24 289.786 23.24C292.57 23.24 294.274 21.464 294.274 19.424C294.274 17.576 292.522 16.688 290.794 16.136C289.426 15.704 287.818 15.224 287.818 13.928C287.818 13.184 288.394 12.296 289.978 12.296ZM47.1422 51.736C47.1422 54.04 48.2702 55.072 50.0222 55.072C51.1262 55.072 52.3262 54.688 52.3262 53.8C52.3262 53.44 52.2062 53.056 52.0142 52.816C51.5342 53.128 51.1262 53.344 50.4302 53.344C48.9662 53.344 48.9182 51.712 48.9182 50.104C48.9182 47.752 49.0382 44.512 49.0382 44.512H51.5102C51.8702 44.512 52.0862 43.912 52.0862 43.384C52.0862 43.24 52.0862 43.12 52.0382 43H49.0142V39.904C49.0142 39.904 47.0222 40.048 47.0222 40.744C47.0222 41.512 47.2622 42.352 47.2622 43H46.3262C45.9662 43 45.5102 43.792 45.5102 44.32C45.5102 44.368 45.5102 44.44 45.5342 44.512H47.2862C47.2382 47.296 47.1422 50.608 47.1422 51.736ZM61.923 47.68C61.923 49.72 61.731 51.568 61.731 53.296C61.731 54.568 61.971 55.072 62.595 55.072C63.387 55.072 64.227 54.52 64.227 54.52C64.227 54.52 63.603 53.464 63.603 51.784C63.603 50.152 63.747 48.04 63.747 46.312C63.747 45.184 63.267 43 61.059 43C58.731 43 57.411 44.92 56.979 45.976H56.883C56.955 43.912 56.979 42.424 56.979 41.104C56.979 39.688 56.835 38.2 55.923 38.2C55.131 38.2 54.363 38.656 54.363 38.656C55.203 40.36 55.227 46.624 55.227 49.096V49.864C55.227 51.448 54.699 52.72 54.699 54.208C54.699 54.76 54.867 55.072 55.923 55.072C56.979 55.072 57.147 55.024 57.147 55.024C56.859 53.272 56.835 52.384 56.835 51.064V50.056C56.835 46.024 59.187 44.92 60.555 44.92C61.755 44.92 61.923 46.6 61.923 47.68ZM75.2105 51.664C75.2105 49.024 75.3305 47.656 75.3305 46.24C75.3305 45.016 74.6825 43 71.2745 43C69.4745 43 66.8105 43.768 66.8105 45.208C66.8105 46 68.1785 46.624 68.1785 46.624C68.8025 45.136 69.9545 44.416 71.3465 44.416C72.7385 44.416 73.5065 45.28 73.5065 47.08C73.5065 48.592 73.4585 48.688 73.4585 48.688C73.0985 48.64 71.5625 48.472 70.4825 48.472C67.6025 48.472 66.4265 50.128 66.4265 52.216C66.4265 54.016 67.4825 55.24 69.5465 55.24C71.9705 55.24 73.1465 53.608 73.4825 52.672H73.5785C73.5785 52.72 73.5545 52.96 73.5545 53.296C73.5545 54.04 73.6745 55.168 74.3465 55.168C75.1865 55.168 76.0985 54.616 76.0985 54.616C76.0985 54.616 75.2105 53.2 75.2105 51.664ZM73.4105 50.704C73.4105 52.288 71.8025 53.512 70.0505 53.512C69.1145 53.512 68.4905 52.96 68.4905 51.904C68.4905 50.152 69.6905 49.768 71.5145 49.768C72.3785 49.768 73.2425 49.84 73.4105 49.84V50.704ZM78.8297 51.736C78.8297 54.04 79.9577 55.072 81.7097 55.072C82.8137 55.072 84.0137 54.688 84.0137 53.8C84.0137 53.44 83.8937 53.056 83.7017 52.816C83.2217 53.128 82.8137 53.344 82.1177 53.344C80.6537 53.344 80.6057 51.712 80.6057 50.104C80.6057 47.752 80.7257 44.512 80.7257 44.512H83.1977C83.5577 44.512 83.7737 43.912 83.7737 43.384C83.7737 43.24 83.7737 43.12 83.7257 43H80.7017V39.904C80.7017 39.904 78.7097 40.048 78.7097 40.744C78.7097 41.512 78.9497 42.352 78.9497 43H78.0137C77.6537 43 77.1977 43.792 77.1977 44.32C77.1977 44.368 77.1977 44.44 77.2217 44.512H78.9737C78.9257 47.296 78.8297 50.608 78.8297 51.736ZM99.3512 51.664C99.3512 49.024 99.4712 47.656 99.4712 46.24C99.4712 45.016 98.8232 43 95.4152 43C93.6152 43 90.9512 43.768 90.9512 45.208C90.9512 46 92.3192 46.624 92.3192 46.624C92.9432 45.136 94.0952 44.416 95.4872 44.416C96.8792 44.416 97.6472 45.28 97.6472 47.08C97.6472 48.592 97.5992 48.688 97.5992 48.688C97.2392 48.64 95.7032 48.472 94.6232 48.472C91.7432 48.472 90.5672 50.128 90.5672 52.216C90.5672 54.016 91.6232 55.24 93.6872 55.24C96.1112 55.24 97.2872 53.608 97.6232 52.672H97.7192C97.7192 52.72 97.6952 52.96 97.6952 53.296C97.6952 54.04 97.8152 55.168 98.4872 55.168C99.3272 55.168 100.239 54.616 100.239 54.616C100.239 54.616 99.3512 53.2 99.3512 51.664ZM97.5512 50.704C97.5512 52.288 95.9432 53.512 94.1912 53.512C93.2552 53.512 92.6312 52.96 92.6312 51.904C92.6312 50.152 93.8312 49.768 95.6552 49.768C96.5192 49.768 97.3832 49.84 97.5512 49.84V50.704ZM105.047 46.072V45.832C105.047 44.776 104.927 43.024 104.927 43.024C104.927 43.024 102.815 43.144 102.815 43.84C102.815 44.848 103.391 45.784 103.391 49.6C103.391 52 102.911 52.672 102.911 54.208C102.911 54.76 103.055 55.072 104.111 55.072C105.167 55.072 105.335 55.024 105.335 55.024C105.047 53.272 105.023 52.384 105.023 51.064V50.056C105.023 47.2 106.727 44.92 107.855 44.92C108.431 44.92 108.911 45.28 109.295 46.36C109.295 46.36 110.591 46.072 110.591 44.848C110.591 44.008 110.015 43 108.455 43C106.559 43 105.479 44.992 105.167 46.072H105.047ZM116.728 53.56C114.232 53.56 113.392 51.016 113.392 48.784L120.088 48.544C120.184 48.304 120.4 47.56 120.4 46.504C120.4 45.112 119.536 43 116.704 43C112.216 43 111.448 47.128 111.448 49.288C111.448 52.888 113.176 55.24 116.68 55.24C118.456 55.24 120.496 54.112 120.496 52.696C120.496 51.904 119.8 51.76 119.8 51.76C119.056 52.816 117.88 53.56 116.728 53.56ZM116.368 44.32C118.072 44.32 118.36 45.712 118.36 46.144C118.36 46.648 118.312 46.984 118.168 47.32L113.512 47.488C113.704 45.952 114.592 44.32 116.368 44.32ZM136.078 51.664C136.078 49.024 136.198 47.656 136.198 46.24C136.198 45.016 135.55 43 132.142 43C130.342 43 127.678 43.768 127.678 45.208C127.678 46 129.046 46.624 129.046 46.624C129.67 45.136 130.822 44.416 132.214 44.416C133.606 44.416 134.374 45.28 134.374 47.08C134.374 48.592 134.326 48.688 134.326 48.688C133.966 48.64 132.43 48.472 131.35 48.472C128.47 48.472 127.294 50.128 127.294 52.216C127.294 54.016 128.35 55.24 130.414 55.24C132.838 55.24 134.014 53.608 134.35 52.672H134.446C134.446 52.72 134.422 52.96 134.422 53.296C134.422 54.04 134.542 55.168 135.214 55.168C136.054 55.168 136.966 54.616 136.966 54.616C136.966 54.616 136.078 53.2 136.078 51.664ZM134.278 50.704C134.278 52.288 132.67 53.512 130.918 53.512C129.982 53.512 129.358 52.96 129.358 51.904C129.358 50.152 130.558 49.768 132.382 49.768C133.246 49.768 134.11 49.84 134.278 49.84V50.704ZM139.806 53.32C139.806 54.568 140.022 55.072 140.886 55.072C141.318 55.072 142.302 54.544 142.302 54.544C142.302 54.544 141.702 53.44 141.702 51.976C141.702 50.344 141.87 46.768 141.87 45.544V43.12C141.87 39.712 141.798 38.2 140.766 38.2C140.022 38.2 139.254 38.68 139.254 38.68C139.854 40.216 140.022 41.632 140.022 44.872C140.022 47.8 139.806 50.56 139.806 53.32ZM145.642 53.32C145.642 54.568 145.858 55.072 146.722 55.072C147.154 55.072 148.138 54.544 148.138 54.544C148.138 54.544 147.538 53.44 147.538 51.976C147.538 50.344 147.706 46.768 147.706 45.544V43.12C147.706 39.712 147.634 38.2 146.602 38.2C145.858 38.2 145.09 38.68 145.09 38.68C145.69 40.216 145.858 41.632 145.858 44.872C145.858 47.8 145.642 50.56 145.642 53.32ZM156.042 61C159.45 61 165.522 47.368 165.522 44.224C165.522 43.288 165.21 43 164.466 43C163.722 43 162.786 43.456 162.786 43.456C163.074 43.984 163.29 44.416 163.29 45.232C163.29 47.224 162.498 49.576 160.866 53.128C160.242 50.56 157.794 43 156.714 43C155.466 43 154.746 43.624 154.65 43.768C156.402 45.904 158.826 51.952 159.786 54.832C158.754 56.68 157.65 58.792 155.01 58.792C155.01 59.92 155.058 61 156.042 61ZM172.277 43C168.461 43 166.925 46.6 166.925 49.648C166.925 52.432 168.557 55.24 172.013 55.24C175.589 55.24 177.005 51.664 177.005 48.76C177.005 46.024 175.541 43 172.277 43ZM171.869 44.488C173.909 44.488 174.869 46.888 174.869 49.36C174.869 51.016 174.197 53.848 172.061 53.848C170.021 53.848 169.037 51.52 169.037 49.048C169.037 47.392 169.733 44.488 171.869 44.488ZM188.597 43.888C188.597 43.336 188.309 43.096 187.805 43.096C187.061 43.096 186.197 43.552 186.197 43.552C186.197 43.552 186.725 44.464 186.725 46.816C186.725 50.416 185.069 53.224 183.269 53.224C181.733 53.224 181.421 51.808 181.421 50.728C181.421 49.192 181.493 47.512 181.493 45.856C181.493 44.296 181.469 43.096 180.533 43.096C179.789 43.096 178.973 43.552 178.973 43.552C179.525 45.136 179.741 45.976 179.741 47.992C179.741 49.072 179.693 50.536 179.693 51.616C179.693 53.92 180.941 55.24 182.933 55.24C185.573 55.24 186.509 52.336 186.893 50.776H186.989C186.989 51.544 187.013 53.176 187.013 53.512C187.013 54.76 187.277 55.168 187.853 55.168C188.621 55.168 189.365 54.616 189.365 54.616C188.525 52.792 188.357 50.584 188.357 48.736C188.357 46.984 188.597 45.472 188.597 43.888ZM194.11 46.072V45.832C194.11 44.776 193.99 43.024 193.99 43.024C193.99 43.024 191.878 43.144 191.878 43.84C191.878 44.848 192.454 45.784 192.454 49.6C192.454 52 191.974 52.672 191.974 54.208C191.974 54.76 192.118 55.072 193.174 55.072C194.23 55.072 194.398 55.024 194.398 55.024C194.11 53.272 194.086 52.384 194.086 51.064V50.056C194.086 47.2 195.79 44.92 196.918 44.92C197.494 44.92 197.974 45.28 198.358 46.36C198.358 46.36 199.654 46.072 199.654 44.848C199.654 44.008 199.078 43 197.518 43C195.622 43 194.542 44.992 194.23 46.072H194.11ZM211.019 43C207.203 43 205.667 46.6 205.667 49.648C205.667 52.432 207.299 55.24 210.755 55.24C214.331 55.24 215.747 51.664 215.747 48.76C215.747 46.024 214.283 43 211.019 43ZM210.611 44.488C212.651 44.488 213.611 46.888 213.611 49.36C213.611 51.016 212.939 53.848 210.803 53.848C208.763 53.848 207.779 51.52 207.779 49.048C207.779 47.392 208.475 44.488 210.611 44.488ZM227.47 53.104C226.654 49.672 226.03 46.456 225.478 44.512C225.142 43.288 224.734 43 224.23 43C224.014 43 223.318 43.072 222.67 43.456C223.078 44.008 223.534 44.896 224.182 47.08C223.87 48.76 222.694 51.544 221.59 53.104C220.774 50.08 220.174 47.176 219.622 45.28C219.214 43.864 218.806 43 218.35 43C217.27 43 216.526 43.36 216.358 43.456C218.158 45.664 219.55 51.952 220.222 55.144H220.342C220.63 55.144 221.806 55.096 222.358 54.328C222.838 53.656 224.278 50.872 224.782 49.312L226.126 55.144H226.222C226.534 55.144 227.686 55.096 228.238 54.304C229.678 52.264 232.39 46.576 232.39 44.152C232.39 43.408 232.102 43 231.478 43C230.734 43 229.558 43.456 229.558 43.456C229.558 43.456 230.086 44.248 230.086 45.16C230.086 48.232 227.758 52.648 227.47 53.104ZM236.882 50.056C236.882 46.024 239.282 44.92 240.578 44.92C241.826 44.92 242.018 46.6 242.018 47.68C242.018 50.032 241.778 52.024 241.778 53.224C241.778 54.496 241.946 55.072 242.714 55.072C243.386 55.072 244.274 54.52 244.274 54.52C243.794 53.656 243.65 52.528 243.65 51.52C243.65 50.2 243.794 47.68 243.794 46.312C243.794 45.184 243.338 43.024 241.058 43C238.778 43 237.386 44.992 237.05 45.976H236.93V45.64C236.93 44.872 236.762 43.024 236.762 43.024C236.762 43.024 234.674 43.144 234.674 43.84C234.674 44.872 235.25 45.784 235.25 50.032C235.25 51.736 234.77 53.2 234.77 54.208C234.77 54.76 234.914 55.072 235.97 55.072C237.026 55.072 237.194 55.024 237.194 55.024C236.906 53.272 236.882 52.384 236.882 51.064V50.056ZM246.949 53.632C246.949 54.472 247.621 55.144 248.485 55.144C249.325 55.144 249.997 54.472 249.997 53.632C249.997 52.768 249.325 52.096 248.485 52.096C247.621 52.096 246.949 52.768 246.949 53.632Z" fill="#212B36"/>
</svg>
