<svg width="101" height="40" viewBox="0 0 101 40" fill="none" xmlns="http://www.w3.org/2000/svg">
<path d="M32.9911 31.9225C32.3121 31.8323 31.0246 31.7181 29.6714 31.7403C26.8968 31.7858 25.0808 32.4584 25.1235 35.0635C25.1489 36.6196 26.1141 37.6867 27.7717 37.6595C30.5463 37.614 33.0484 35.4071 33.0111 33.1405L32.9911 31.9225ZM36.2761 38.8186C35.8088 39.2322 35.2731 39.5792 34.4275 39.5931C33.5817 39.6069 33.2245 37.9425 33.2069 36.8598L33.1895 35.8109C32.3684 37.3133 30.7795 39.4716 27.3289 39.5282C24.6222 39.5726 23.0043 37.9069 22.9633 35.4034C22.9172 32.5953 24.5045 30.336 28.5307 30.27C30.0866 30.2444 31.5439 30.3559 33.0015 30.501C33.0015 30.501 33.0562 29.7216 33.0261 27.8951C32.9829 25.2558 31.9112 23.886 29.5095 23.9255C27.5807 23.9571 25.801 24.7984 24.9904 26.9438C24.9904 26.9438 23.4929 26.4269 23.4773 25.4798C23.4468 23.6187 26.879 22.4118 29.3824 22.3708C33.9498 22.296 34.9073 24.9874 34.9384 26.8821C34.9739 29.0473 34.8747 31.2148 34.929 34.5304C34.9612 36.4927 35.79 38.0815 36.2761 38.8186Z" fill="#9F1C69"/>
<path d="M49.4965 25.9745C48.705 27.4928 48.5907 29.9685 48.6665 32.0653C48.7165 33.4515 48.7899 34.5324 48.9262 35.5092C49.0284 36.4536 49.1592 37.2614 49.4578 38.0296C49.3256 38.1361 48.5263 38.5032 47.749 38.5313C46.9374 38.5606 46.8751 37.7841 46.8372 36.736C46.681 32.4079 46.8612 29.8955 46.7831 27.7313C46.7257 26.1422 46.365 23.6496 44.0319 23.7339C42.544 23.7874 40.6534 24.8715 39.6053 27.7194C39.1095 28.9903 39.0419 30.8889 39.12 33.0529C39.1919 35.0478 39.3918 35.8176 39.7826 38.2073C39.6822 38.245 39.4465 38.2872 38.4324 38.3237C37.3503 38.3628 37.1644 37.8955 37.1423 37.2869C37.0777 35.4948 37.3878 33.8266 37.2964 31.2904C37.1097 26.1168 36.3963 23.8583 36.3452 22.4382C36.3159 21.6266 38.5443 21.4448 38.7468 21.4373L38.8507 26.5277C39.9258 23.4758 41.6617 21.8556 44.3668 21.758C46.9032 21.6664 47.9955 23.7939 48.2308 25.6138C48.7266 24.3434 50.3182 21.5432 53.835 21.4162C56.8108 21.3088 57.8056 23.5414 57.8898 25.8747C57.9716 28.1402 57.946 30.2749 57.998 33.5565C58.0466 36.6349 58.1866 37.6139 59.1656 39.2922C59.1656 39.2922 58.2083 39.9702 57.3967 39.9995C56.686 40.0251 56.3841 39.1055 56.3218 37.3809C56.2511 35.4196 56.0992 30.6796 55.9941 27.7715C55.9343 26.1147 55.732 23.3117 53.3647 23.3971C51.1334 23.4775 49.9722 25.0769 49.4965 25.9745Z" fill="#9F1C69"/>
<path d="M70.0144 32.0307C69.3373 31.928 68.0521 31.7899 66.6986 31.787C63.9237 31.7812 62.0954 32.4201 62.0899 35.0257C62.0866 36.5819 63.0318 37.6666 64.6896 37.6701C67.4645 37.6759 70.0069 35.5157 70.0118 33.2489L70.0144 32.0307ZM72.9781 38.703C72.5031 39.108 71.961 39.4449 71.1152 39.4431C70.2694 39.4413 70.1364 38.054 70.1388 36.9711L70.1409 35.9221C69.292 37.4092 67.6633 39.5376 64.2123 39.5302C61.5055 39.5245 59.9185 37.8294 59.9238 35.3254C59.9297 32.517 61.5586 30.2874 65.5852 30.296C67.1415 30.2991 68.5962 30.4376 70.0511 30.6096C70.0511 30.6096 70.12 29.8314 70.1239 28.0045C70.1294 25.365 69.0832 23.9757 66.6814 23.9706C64.7521 23.9665 63.2324 25.1347 62.3823 27.2647C62.3823 27.2647 60.8946 26.7203 60.8965 25.7727C60.9004 23.9116 64.0794 22.4087 66.583 22.414C71.1509 22.4235 72.0584 25.1324 72.0545 27.0273C72.0499 29.1928 71.9106 31.358 71.9036 34.674C71.8995 36.6364 72.5055 37.9573 72.9781 38.703Z" fill="#9F1C69"/>
<path d="M76.7927 26.1514C76.5753 30.0364 85.7386 29.1936 85.4361 34.599C85.285 37.3016 82.889 39.5398 79.241 39.3357C75.6932 39.1373 73.8655 37.8827 73.945 36.4638C74.0016 35.4502 74.837 35.0563 75.2854 34.912C75.7059 35.8845 76.4913 37.5888 79.2955 37.7458C81.3903 37.863 83.2319 37.0512 83.3415 35.0917C83.5854 30.7338 74.4633 31.4433 74.7412 26.4769C74.8886 23.8419 77.0887 22.0671 80.7379 22.2714C82.6298 22.3772 85.2586 23.2361 85.1565 25.0601C85.1073 25.9389 83.8273 26.4093 83.418 26.4541C83.0792 24.6391 81.942 23.762 80.4219 23.6771C77.8542 23.5333 76.8626 24.9011 76.7927 26.1514Z" fill="#9F1C69"/>
<path d="M78.7431 7.13936C77.9201 4.73419 78.9796 1.874 80.8452 0.864162C80.5222 1.3643 80.1482 2.13646 80.1363 3.41912C80.1199 5.19234 81.2713 7.93262 82.2067 9.46759C82.9945 10.7602 85.8328 16.0783 85.8328 16.0783C85.8328 16.0783 85.4587 15.6028 85.2358 15.329C82.6377 12.1393 79.5461 9.48595 78.7431 7.13936ZM86.6115 15.5866L81.7011 0.828423C81.8816 0.885838 82.1589 0.975475 82.2708 1.05066C82.8617 1.44827 83.0289 1.63301 83.53 2.33761C84.5537 3.77708 85.3339 6.60076 85.5141 8.38296C85.6633 9.85641 86.6115 15.5866 86.6115 15.5866ZM86.2086 15.7846C85.3026 14.0711 83.3623 10.5503 82.6434 9.36272C81.7142 7.82776 80.6378 5.08942 80.5942 3.31483C80.5731 2.44775 80.5964 2.19915 80.8325 1.52638C80.8778 1.3971 81.0516 1.15397 81.1617 1.00106L86.2086 15.7846ZM87.2571 4.27116C88.0156 6.60525 87.2262 10.6108 87.0595 14.7353C87.036 15.3171 87.0257 15.5411 87.0257 15.5411C87.0257 15.5411 86.0691 9.70487 85.9209 8.20017C85.7454 6.41621 84.9521 3.60601 83.9553 2.14799C83.2685 1.14342 82.4098 0.764172 81.814 0.577282C84.0044 0.257202 86.4798 1.87927 87.2571 4.27116ZM92.3072 28.618C93.9121 26.2454 95.8933 24.3177 97.8228 23.0058C97.4921 22.2855 96.7141 21.9082 96.2759 21.944C94.9946 22.049 91.9878 25.9618 89.3682 30.4543L88.9731 25.6318C88.8294 23.8781 88.4415 21.0019 88.1476 19.4388C87.6379 16.7274 87.4819 16.3933 87.4242 15.7024C87.4159 15.6004 87.3903 14.9134 87.4073 14.5486C87.5994 10.4186 88.4606 6.35431 87.7098 4.01572C86.9095 1.52326 84.2813 -0.108177 82.1089 0.225765C82.1134 0.223225 82.1198 0.219711 82.1198 0.219711C82.1198 0.219711 82.0581 0.228691 81.9624 0.246464C81.9439 0.250172 81.9253 0.2533 81.907 0.257206C81.757 0.286694 81.5498 0.333172 81.35 0.398983C80.9811 0.520649 80.7434 0.642704 80.7434 0.642704L80.7458 0.643681C78.6431 1.56115 77.3173 4.61253 78.2174 7.2122C79.0302 9.56074 82.1194 12.1821 84.6844 15.4139C85.1085 15.9482 85.3921 16.2279 85.5751 16.6099C85.8635 17.2121 86.9925 23.4172 87.3957 28.3412L87.6941 31.9834C87.9207 34.7485 87.9117 36.7185 87.4565 39.0303C87.6725 39.1827 88.3691 39.3971 89.1139 39.37C89.2824 39.3561 89.4845 39.3395 89.6144 39.261C89.8732 39.104 90.16 38.8769 89.939 36.1789L89.8782 35.437C89.8202 34.7287 89.7175 33.8884 89.5951 32.8122C90.0683 31.9586 90.5758 31.1022 91.147 30.2068C94.0092 34.8949 97.2389 37.7491 98.2503 37.6661C99.0931 37.5971 99.9006 36.3342 100.123 35.7386C98.2319 35.6267 95.3905 33.9331 92.3072 28.618Z" fill="#9F1C69"/>
<path d="M87.7399 3.80234C87.9666 4.413 88.0957 5.05843 88.2238 5.70015C88.375 6.45709 88.4656 6.41998 88.6165 7.17692C88.6896 7.5425 88.7628 7.92058 88.6927 8.28596C88.6226 8.65154 88.3701 9.00384 88.0223 9.05423C87.6626 9.10637 87.3153 8.81227 87.1847 8.45137C87.054 8.09048 87.099 7.68487 87.1958 7.31323C87.3243 6.82111 87.6047 6.30047 87.5321 5.781C87.4833 5.43026 87.4388 5.10608 87.3226 4.77351C87.2191 4.47784 87.0945 4.19018 86.9509 3.91385C86.6683 3.36977 86.3125 2.86866 85.9001 2.42809C85.5532 2.05744 85.1662 1.72935 84.7483 1.45419C84.5991 1.35596 84.4487 1.25968 84.2966 1.16594C84.1829 1.09564 83.9909 1.04682 84.0415 1.27374C84.0614 1.36397 84.1325 1.43251 84.1972 1.49871C84.3626 1.66862 84.5061 1.8598 84.6229 2.06603C84.7498 2.29002 84.8442 2.53003 84.9268 2.77336C84.9965 2.9792 85.092 3.16453 85.1634 3.3647C85.2712 3.66622 85.2984 4.01423 85.1685 4.30442C85.0389 4.59462 84.7266 4.80182 84.4307 4.73152C84.0683 4.6452 83.8763 4.20951 83.8484 3.8162C83.8203 3.4227 83.8999 3.02294 83.8302 2.63529C83.7496 2.1875 83.4799 1.80727 83.2182 1.44501C83.1442 1.34248 83.0493 1.22941 82.9282 1.2382C82.8372 1.24464 82.7624 1.32393 82.7292 1.41396C82.696 1.50418 82.6966 1.60398 82.7003 1.70084C82.7372 2.70579 83.0366 3.6797 83.1537 4.67801C83.1949 5.02875 83.2137 5.38202 83.2322 5.73491L83.2983 6.98944C83.3166 7.33979 83.3318 7.7083 83.1865 8.02252C83.0411 8.33674 82.6761 8.56503 82.3747 8.42013C82.1066 8.29124 82.0043 7.93327 82.0263 7.62218C82.0484 7.31089 82.1619 7.01464 82.1933 6.70452C82.2249 6.39362 82.1734 6.08057 82.1285 5.77143C82.0006 4.88736 81.9263 3.99489 81.9062 3.10125C81.8988 2.77297 82.0224 2.34334 81.873 2.03537C81.7652 1.81332 81.5701 1.97639 81.4473 2.10509C81.2835 2.27694 81.1846 2.5189 81.2003 2.76614C81.2358 3.33111 81.7215 3.93923 81.1614 4.4175C81.0579 4.50577 80.9302 4.57099 80.8571 4.68563C80.7847 4.79928 80.7792 4.94145 80.7757 5.07601C80.7685 5.36054 80.7613 5.64488 80.754 5.92942C80.7468 6.20692 80.8001 6.47486 80.7962 6.75295C80.7913 7.08748 80.6105 7.45872 80.299 7.50618C80.0276 7.54738 79.7706 7.31811 79.668 7.04705C79.5655 6.77619 79.5811 6.47388 79.5981 6.1829C79.6296 5.64606 79.7077 5.08851 79.6954 4.55088C79.6858 4.13374 79.2583 3.82636 78.9445 4.16753C78.8287 4.29349 78.7732 4.47139 78.7609 4.64735C78.7525 4.76628 78.7619 4.88795 78.7328 5.00317C78.7035 5.11819 78.6217 5.2297 78.51 5.24103C78.3832 5.25372 78.2602 5.13635 78.1381 5.17463C78.0333 5.20783 77.9888 5.33652 77.9593 5.44862C77.8839 5.73374 77.7782 6.02374 77.7567 6.32C77.7341 6.63539 77.7325 6.95312 77.7495 7.26929C77.8188 8.54941 78.2836 9.85296 78.8429 10.9913C78.9519 11.2129 79.0619 11.4377 79.1132 11.6793C79.1644 11.9211 79.1517 12.1855 79.0261 12.3982C78.7851 12.8059 78.2075 12.8528 77.8278 12.6251C77.5156 12.4378 77.3146 12.1011 77.2228 11.749C77.131 11.3967 77.1375 11.0266 77.1611 10.6634C77.2283 9.62935 77.1639 8.59764 77.1189 7.56242C77.0975 7.06815 77.033 6.47974 77.0273 5.99543C77.0164 5.03168 77.0937 4.12984 77.4302 3.24284C77.6386 2.69388 77.9479 2.06993 78.5213 1.53094C78.9646 1.114 79.4612 0.792356 80.2332 0.456656C81.0392 0.106308 82.088 -0.0407448 82.8374 0.00963974C83.2436 0.0367851 83.6246 0.147319 84.0183 0.271913C84.5194 0.430291 85.0053 0.646086 85.4509 0.938823C86.4697 1.60769 87.2993 2.61537 87.7399 3.80234Z" fill="#402020"/>
<path d="M88.4865 8.14988C88.4384 8.44008 88.2796 8.72598 88.0234 8.83749C87.943 8.87245 87.8258 8.87323 87.7951 8.78652C87.7776 8.73653 87.8008 8.67931 87.8356 8.64103C87.8705 8.60275 87.916 8.57737 87.9561 8.54534C88.0847 8.44203 88.1525 8.27233 88.1816 8.1034C88.2105 7.93448 88.2062 7.76126 88.2207 7.59018C88.2351 7.42087 88.3794 7.12598 88.4665 7.40778C88.5331 7.62397 88.523 7.9296 88.4865 8.14988Z" fill="#6A3935"/>
<path d="M78.9932 12.046C78.9705 12.1962 78.8764 12.3317 78.7481 12.3989C78.6438 12.4534 78.5102 12.4598 78.4165 12.3862C78.3227 12.3124 78.295 12.1479 78.379 12.0626C78.4563 11.9839 78.6045 11.9794 78.6334 11.8695C78.6559 11.7841 78.5831 11.6992 78.5897 11.6107C78.6034 11.4252 78.8029 11.4865 78.8756 11.5855C78.9598 11.7003 79.0144 11.9046 78.9932 12.046Z" fill="#6A3935"/>
<path d="M85.0009 4.15404C84.9572 4.29445 84.8537 4.42334 84.7166 4.44892C84.6697 4.45771 84.6178 4.45283 84.5807 4.42119C84.5434 4.38975 84.5285 4.32628 84.558 4.28703C84.5846 4.25129 84.6332 4.24738 84.6721 4.22844C84.7633 4.18411 84.7933 4.0603 84.7857 3.95406C84.7762 3.82185 84.6689 3.45666 84.9162 3.55391C85.1113 3.63047 85.0496 3.99839 85.0009 4.15404Z" fill="#6A3935"/>
<path d="M82.9519 8.02447C82.8288 8.16645 82.6703 8.27542 82.5008 8.20531C82.4086 8.16723 82.3459 8.04283 82.3941 7.95163C82.4607 7.82528 82.6513 7.86258 82.7537 7.76708C82.8037 7.72022 82.8247 7.64874 82.8513 7.58371C82.8779 7.51868 82.9187 7.4513 82.9835 7.43431C83.0552 7.41576 83.1317 7.47181 83.1569 7.54582C83.1819 7.61984 83.1638 7.70401 83.1261 7.77138C83.0833 7.84754 83.0237 7.94167 82.9519 8.02447Z" fill="#6A3935"/>
<path d="M83.0273 0.174064C82.8953 0.159027 82.7625 0.152973 82.6297 0.156293C82.5625 0.15805 82.4938 0.162347 82.4319 0.18832C82.3698 0.214293 82.3147 0.265849 82.3016 0.331662C82.2809 0.434579 82.3698 0.533199 82.4699 0.56425C82.5703 0.595301 82.6781 0.577725 82.7824 0.565812C82.9613 0.545307 83.6294 0.734346 83.5665 0.349238C83.539 0.180118 83.1538 0.188515 83.0273 0.174064Z" fill="#6A3935"/>
<path d="M80.4285 7.23866C80.3589 7.2992 80.2668 7.34275 80.1797 7.31834C80.0924 7.29393 80.0281 7.17832 80.0754 7.09708C80.139 6.98732 80.3273 7.02716 80.3835 6.91292C80.4105 6.85804 80.3935 6.7893 80.4134 6.7313C80.4675 6.57292 80.6751 6.64323 80.6773 6.79497C80.6792 6.92893 80.5199 7.15898 80.4285 7.23866Z" fill="#6A3935"/>
<path d="M81.0963 4.0983C80.9942 4.21157 80.8395 4.26859 80.6926 4.24711C80.6163 4.23578 80.529 4.18423 80.5315 4.1024C80.5331 4.05358 80.5676 4.01296 80.6055 3.98581C80.6436 3.95867 80.687 3.94031 80.7225 3.90965C80.7821 3.85809 80.8123 3.779 80.845 3.70518C80.8776 3.63117 80.919 3.55481 80.9885 3.52044C81.3121 3.36069 81.2101 3.97195 81.0963 4.0983Z" fill="#6A3935"/>
<path d="M20.1985 27.1537C20.0856 31.2801 18.2348 37.0857 12.2475 36.922C9.33887 36.8425 7.35142 36.4834 7.35142 36.4834C7.75371 32.9063 7.91814 30.6091 8.03297 26.4149C8.05211 25.7124 8.06285 24.7425 8.06617 23.6674C8.64423 23.4772 9.21251 23.2372 9.79311 22.9552C10.7 22.5146 11.2556 22.0973 11.3333 21.5401C11.4398 20.7777 10.3567 20.3629 10.3567 20.3629C10.3567 20.3629 10.3286 21.1769 8.06559 21.9551C8.05973 20.3301 8.03981 18.6592 8.00837 17.4103C8.89263 17.2651 10.8233 17.2164 11.9393 17.2469C18.9746 17.4393 20.3131 22.9595 20.1985 27.1537ZM3.42397 21.5811C2.66293 20.7599 2.61196 19.6239 3.03925 18.8826C3.43959 18.1876 4.73416 17.8275 5.75181 17.6472C5.83559 19.223 5.87113 20.8597 5.87718 22.4121C4.84255 22.44 3.9534 22.1523 3.42397 21.5811ZM12.2243 15.4946C10.701 15.453 9.15569 15.4317 7.36333 15.5424C6.84152 15.5653 4.3055 15.6926 3.19509 16.0398C1.48788 16.5737 0.347592 17.5808 0.0796562 19.1552C-0.239836 21.032 0.427466 22.2814 1.62068 23.1083C2.87775 23.9793 4.38342 24.1949 5.83617 24.1072C5.84867 24.1064 5.86058 24.1046 5.87308 24.1039C5.86508 24.9973 5.84867 25.8382 5.82797 26.5916C5.70592 31.0565 5.36279 34.9396 4.76619 38.2068C7.80351 38.5267 10.4042 38.7331 11.8587 38.7729C19.3337 38.9772 22.4701 33.207 22.6468 26.7467C22.7817 21.8084 20.5453 15.7221 12.2243 15.4946Z" fill="#9F1C69"/>
<path d="M9.55976 37.8166C9.55761 37.8106 9.55722 37.8088 9.55566 37.8041C9.55331 37.7997 9.55214 37.7977 9.54882 37.7915C9.52715 37.7485 9.50742 37.7047 9.48496 37.6624C9.43497 37.5677 9.3797 37.4759 9.31955 37.3874C9.23695 37.2652 9.16547 37.1406 9.08989 37.014C9.07505 36.9892 9.05923 36.9652 9.04381 36.941C8.89832 36.897 7.38366 36.6264 7.31804 36.492C5.0857 36.4141 3.93448 36.2305 3.01701 35.1629C2.04936 35.68 1.78259 36.9978 2.56648 37.6651C3.42653 38.397 8.05506 38.5115 9.50976 38.5513C9.59393 38.5535 9.67439 38.5511 9.75719 38.5519C9.74079 38.4683 9.72439 38.3867 9.70661 38.3105C9.66717 38.1422 9.61678 37.9797 9.55976 37.8166Z" fill="#9F1C69"/>
<path d="M98.464 21.5784V21.701H98.1169V22.6083H97.9759V21.701H97.6289V21.5784H98.464Z" fill="#9F1C69"/>
<path d="M98.5884 21.5784H98.7882L99.0847 22.4492L99.3786 21.5784H99.577V22.6083H99.4438V22.0004C99.4438 21.9795 99.4442 21.9445 99.4452 21.8959C99.4461 21.8473 99.4465 21.7953 99.4465 21.7397L99.1526 22.6083H99.0142L98.7175 21.7397V21.7711C98.7175 21.7965 98.7181 21.835 98.7195 21.8865C98.721 21.9383 98.7216 21.9762 98.7216 22.0004V22.6083H98.5884V21.5784Z" fill="#9F1C69"/>
</svg>
