<svg width="392" height="288" viewBox="0 0 392 288" fill="none" xmlns="http://www.w3.org/2000/svg">
<g id="404">
<rect id="Rectangle" opacity="0.01" width="392" height="288" fill="#CCCDD7"/>
<g id="Group 900">
<g id="Group 897">
<path id="Vector 145" d="M113 211.586V83.3103H278.517V211.586H113Z" fill="#9F1C69"/>
<path id="Vector 148" opacity="0.3" d="M113 211.586V83.3103H278.517V211.586H113Z" fill="black"/>
<path id="Vector 146" d="M124.723 74.1038V101.672C124.723 103.66 126.183 105.346 128.15 105.631L255.322 124.028C257.734 124.377 259.895 122.506 259.895 120.069V68.1903C259.895 65.9082 257.989 64.0886 255.709 64.1946L128.537 70.1081C126.402 70.2074 124.723 71.9669 124.723 74.1038Z" fill="#F0EBEB"/>
<path id="Vector 147" d="M163.343 99.1724H113V213.655H278.515V108.77H169.549L163.343 99.1724Z" fill="#9F1C69"/>
</g>
<g id="Group 898">
<g id="Vector">
<path d="M249.601 197.881L236.182 219.428C235.906 219.889 235.759 220.412 235.758 220.944C235.756 221.476 235.9 221.999 236.174 222.462C236.448 222.924 236.843 223.309 237.319 223.579C237.796 223.849 238.338 223.994 238.891 224H265.728C266.281 223.994 266.823 223.849 267.3 223.579C267.776 223.309 268.172 222.924 268.445 222.462C268.719 221.999 268.863 221.476 268.861 220.944C268.86 220.412 268.713 219.889 268.437 219.428L255.019 197.881C254.736 197.433 254.338 197.063 253.864 196.806C253.389 196.549 252.854 196.414 252.31 196.414C251.765 196.414 251.23 196.549 250.755 196.806C250.281 197.063 249.883 197.433 249.601 197.881Z" fill="white"/>
<path d="M249.601 197.881L236.182 219.428C235.906 219.889 235.759 220.412 235.758 220.944C235.756 221.476 235.9 221.999 236.174 222.462C236.448 222.924 236.843 223.309 237.319 223.579C237.796 223.849 238.338 223.994 238.891 224H265.728C266.281 223.994 266.823 223.849 267.3 223.579C267.776 223.309 268.172 222.924 268.445 222.462C268.719 221.999 268.863 221.476 268.861 220.944C268.86 220.412 268.713 219.889 268.437 219.428L255.019 197.881C254.736 197.433 254.338 197.063 253.864 196.806C253.389 196.549 252.854 196.414 252.31 196.414C251.765 196.414 251.23 196.549 250.755 196.806C250.281 197.063 249.883 197.433 249.601 197.881Z" fill="#F94C43" fill-opacity="0.1"/>
<path d="M249.601 197.881L236.182 219.428C235.906 219.889 235.759 220.412 235.758 220.944C235.756 221.476 235.9 221.999 236.174 222.462C236.448 222.924 236.843 223.309 237.319 223.579C237.796 223.849 238.338 223.994 238.891 224H265.728C266.281 223.994 266.823 223.849 267.3 223.579C267.776 223.309 268.172 222.924 268.445 222.462C268.719 221.999 268.863 221.476 268.861 220.944C268.86 220.412 268.713 219.889 268.437 219.428L255.019 197.881C254.736 197.433 254.338 197.063 253.864 196.806C253.389 196.549 252.854 196.414 252.31 196.414C251.765 196.414 251.23 196.549 250.755 196.806C250.281 197.063 249.883 197.433 249.601 197.881Z" stroke="#F94C43" stroke-linecap="round" stroke-linejoin="round"/>
</g>
<path id="Vector_2" d="M252.309 205.714V211.809" stroke="#F94C43" stroke-width="2" stroke-linecap="round" stroke-linejoin="round"/>
<path id="Vector_3" d="M252.309 217.905H252.324" stroke="#F94C43" stroke-width="2" stroke-linecap="round" stroke-linejoin="round"/>
</g>
<g id="Group 901">
<circle id="Ellipse 78" cx="173.689" cy="156.414" r="5.51724" fill="white"/>
<circle id="Ellipse 79" cx="195.759" cy="156.414" r="5.51724" fill="white"/>
<circle id="Ellipse 80" cx="217.826" cy="156.414" r="5.51724" fill="white"/>
</g>
</g>
</g>
</svg>
