<svg width="66" height="45" viewBox="0 0 66 45" fill="none" xmlns="http://www.w3.org/2000/svg">
<path d="M18.6736 42.627C14.7225 41.4417 6.10903 38.1227 3.26423 34.3297C0.419435 30.5366 11.5616 33.5395 17.4882 35.515C15.9076 34.3297 12.7464 31.248 12.7464 28.4032C12.7464 25.5584 16.6978 30.3788 18.6736 33.1445C18.6734 31.5642 19.1472 28.1663 21.0437 27.2181C22.9402 26.2698 24.2046 34.7252 24.5997 39.0714" stroke="black" stroke-width="4" stroke-linecap="round" stroke-linejoin="round"/>
<path d="M44.7505 17.7352C47.1212 14.5743 51.6254 7.30424 50.6772 3.51118C49.7289 -0.281887 50.282 9.04273 50.6772 14.1792C53.0478 12.2037 58.2633 8.48972 60.1598 9.43799C62.0563 10.3863 56.2087 14.5744 53.0478 16.55C56.2087 16.1549 62.7675 15.6018 63.7158 16.55C64.9011 17.7352 50.6772 24.8473 48.3065 23.662" stroke="black" stroke-width="4" stroke-linecap="round" stroke-linejoin="round"/>
</svg>
