<svg width="38" height="24" viewBox="0 0 38 24" fill="none" xmlns="http://www.w3.org/2000/svg">
<path opacity="0.07" d="M35.4883 24H2.51169C1.12455 24 0 22.9039 0 21.5518V2.4482C0 1.09601 1.12455 0 2.51169 0H35.4883C36.8756 0 38 1.09601 38 2.4482V21.5518C38 22.9039 36.8756 24 35.4883 24Z" fill="black"/>
<path fill-rule="evenodd" clip-rule="evenodd" d="M34.6205 23H3.37949C2.06537 23 1 21.9952 1 20.7558V3.24418C1 2.00467 2.06537 1 3.37949 1H34.6205C35.9348 1 37 2.00467 37 3.24418V20.7558C37 21.9952 35.9348 23 34.6205 23Z" fill="white"/>
<path fill-rule="evenodd" clip-rule="evenodd" d="M3.88867 9.53063V14.3876C3.95504 14.3876 4.0203 14.388 4.08479 14.3883C4.22468 14.3891 4.36097 14.3898 4.49719 14.3869C4.62408 14.3842 4.75127 14.3839 4.87847 14.3837C5.18543 14.3831 5.49247 14.3825 5.79541 14.3468C7.49927 14.1451 8.43972 12.2412 7.57792 10.7183C7.14029 9.94485 6.41897 9.59561 5.55874 9.53688C5.18519 9.51139 4.80971 9.51411 4.43425 9.51682C4.27013 9.51801 4.10602 9.51919 3.94207 9.51802C3.93049 9.51794 3.91897 9.52156 3.90697 9.52533C3.90101 9.52721 3.89494 9.52912 3.88867 9.53063ZM5.01322 13.5549C4.95821 13.5541 4.90247 13.5532 4.8457 13.5532V10.3509C5.4387 10.3371 6.01499 10.3472 6.46694 10.8127C7.09314 11.4576 7.05526 12.5854 6.38505 13.1794C6.09317 13.438 5.73937 13.527 5.36415 13.5512C5.2487 13.5587 5.1327 13.5569 5.01322 13.5549Z" fill="#303030"/>
<path fill-rule="evenodd" clip-rule="evenodd" d="M30.8878 9.52258C30.8829 9.52398 30.8775 9.52556 30.8711 9.52707L30.8711 14.3799H31.8231V12.4441C31.9203 12.4053 31.958 12.4571 31.9985 12.5177C32.1649 12.7664 32.3317 13.0147 32.4985 13.263C32.7305 13.6085 32.9625 13.9539 33.1932 14.3002C33.2352 14.3633 33.2784 14.3929 33.3568 14.3893C33.4574 14.3848 33.5584 14.3858 33.6594 14.3867C33.7017 14.3871 33.7441 14.3875 33.7865 14.3875H34.4297C34.0648 13.9001 33.7077 13.423 33.3512 12.9465C33.2005 12.7452 33.0499 12.544 32.8988 12.3422C32.9145 12.3379 32.9285 12.3341 32.9415 12.3306C32.9672 12.3236 32.9888 12.3178 33.0104 12.3117C33.2342 12.2473 33.4394 12.1498 33.6103 11.987C33.8874 11.7229 33.9808 11.3875 34.004 11.0192C34.0447 10.3736 33.7036 9.84666 33.0898 9.64609C32.9089 9.58689 32.716 9.54161 32.5273 9.53513C32.1355 9.52175 31.7432 9.52078 31.351 9.51981C31.2042 9.51945 31.0573 9.51908 30.9106 9.51807C30.9036 9.51799 30.8967 9.51999 30.8878 9.52258ZM31.9136 11.7605C31.8839 11.7603 31.8541 11.7601 31.8242 11.7601L31.8242 10.2946C31.8396 10.2941 31.8551 10.2935 31.8705 10.293C32.1484 10.2829 32.4226 10.2729 32.6783 10.4033C32.9182 10.5256 33.0175 10.7343 33.0205 10.9955C33.0236 11.2667 32.9357 11.4925 32.6873 11.63C32.4446 11.7643 32.1815 11.7624 31.9136 11.7605Z" fill="#303030"/>
<path d="M27.5508 9.52246C28.4461 9.52246 29.3341 9.52246 30.2312 9.52246C30.2312 9.79652 30.2312 10.0652 30.2312 10.3438C29.6585 10.3438 29.0869 10.3438 28.5061 10.3438C28.5061 10.7047 28.5061 11.0559 28.5061 11.4201C29.0578 11.4201 29.6063 11.4201 30.1632 11.4201C30.1632 11.7013 30.1632 11.9693 30.1632 12.2486C29.6099 12.2486 29.0613 12.2486 28.5051 12.2486C28.5051 12.6871 28.5051 13.1147 28.5051 13.5561C29.0814 13.5561 29.6556 13.5561 30.2347 13.5561C30.2347 13.836 30.2347 14.102 30.2347 14.3778C29.3398 14.3778 28.4494 14.3778 27.5508 14.3778C27.5508 12.7632 27.5508 11.1499 27.5508 9.52246Z" fill="#303030"/>
<path d="M12.8434 9.98521C12.6754 10.2043 12.5135 10.4153 12.3476 10.6313C12.1656 10.4375 11.9731 10.2813 11.7118 10.248C11.4502 10.2148 11.2054 10.2575 11.0111 10.4518C10.8013 10.6613 10.8257 10.974 11.0766 11.1294C11.2447 11.2334 11.4351 11.3018 11.6154 11.3863C11.8908 11.5156 12.1757 11.6284 12.4396 11.7783C12.8212 11.9948 12.9932 12.3454 13.0105 12.7803C13.0335 13.3556 12.8591 13.8426 12.3813 14.1906C12.0209 14.4531 11.6065 14.5265 11.169 14.5008C10.5031 14.4619 10.0141 14.1316 9.66016 13.6021C9.85631 13.3925 10.0481 13.1879 10.2325 12.9909C10.3518 13.1283 10.4464 13.2668 10.5691 13.3727C10.8429 13.6092 11.1686 13.6864 11.5204 13.5992C11.8775 13.5107 12.0921 13.1645 12.017 12.8252C11.978 12.6486 11.8753 12.514 11.7174 12.435C11.5394 12.3461 11.3515 12.2767 11.1679 12.1991C10.9703 12.1158 10.7679 12.0421 10.5762 11.947C9.96216 11.6422 9.77405 11.1103 9.94892 10.4469C10.0953 9.89215 10.6027 9.50375 11.2301 9.44827C11.8211 9.39579 12.3472 9.56585 12.8049 9.94404C12.8163 9.95326 12.8252 9.96563 12.8434 9.98521Z" fill="#303030"/>
<path d="M22.4414 9.51723C22.7746 9.51723 23.0981 9.51447 23.4214 9.52155C23.4516 9.52215 23.4924 9.57932 23.5081 9.61835C23.8442 10.4565 24.1771 11.2962 24.5111 12.1355C24.5931 12.3417 24.676 12.5475 24.7663 12.7732C24.7894 12.722 24.8065 12.6871 24.821 12.6514C25.2288 11.6389 25.637 10.6267 26.0425 9.61354C26.0698 9.54557 26.1001 9.51314 26.1801 9.5147C26.4852 9.51998 26.7905 9.51687 27.1135 9.51687C27.0952 9.56514 27.0822 9.60249 27.0669 9.63865C26.3956 11.2304 25.7236 12.8216 25.0548 14.4142C25.0231 14.49 24.9843 14.5159 24.9052 14.5114C24.7962 14.505 24.686 14.5156 24.5774 14.5067C24.539 14.5036 24.4834 14.4726 24.47 14.44C23.7938 12.8179 23.1214 11.194 22.4489 9.57019C22.4448 9.56047 22.4456 9.54858 22.4414 9.51723Z" fill="#303030"/>
<path d="M17.0762 10.8108C16.9231 10.6962 16.7924 10.581 16.6456 10.4917C16.0791 10.1473 15.3514 10.2279 14.8406 10.682C14.0779 11.36 14.1133 12.6834 14.9103 13.2964C15.5079 13.756 16.3412 13.7324 16.9116 13.2397C16.9595 13.1982 17.0071 13.1563 17.0765 13.096C17.0765 13.1687 17.0765 13.219 17.0765 13.2695C17.0763 13.5558 17.0749 13.842 17.0778 14.1284C17.0784 14.1892 17.0595 14.2212 17.0027 14.2484C15.839 14.803 14.4127 14.4247 13.72 13.3556C12.7639 11.8799 13.5205 9.86252 15.3552 9.46704C15.9225 9.34502 16.473 9.4058 16.9943 9.67108C17.0281 9.68826 17.0723 9.72981 17.0727 9.7608C17.0783 10.1063 17.0762 10.4522 17.0762 10.8108Z" fill="#303030"/>
<path d="M22.425 11.9569C22.4468 13.2523 21.3791 14.3098 20.0258 14.3078C18.6635 14.3058 17.6173 13.293 17.625 11.9294C17.6326 10.6418 18.6924 9.62688 20.0268 9.6187C21.3861 9.61041 22.4467 10.677 22.425 11.9569Z" fill="#FF6F00"/>
<path d="M9.28299 14.3816C8.96658 14.3816 8.65908 14.3816 8.34375 14.3816C8.34375 12.7622 8.34375 11.1489 8.34375 9.52637C8.65583 9.52637 8.96562 9.52637 9.28299 9.52637C9.28299 11.1425 9.28299 12.7559 9.28299 14.3816Z" fill="#303030"/>
</svg>
