<svg width="38" height="24" viewBox="0 0 38 24" fill="none" xmlns="http://www.w3.org/2000/svg">
<path opacity="0.07" d="M35 0H3C1.3 0 0 1.3 0 3V21C0 22.7 1.4 24 3 24H35C36.7 24 38 22.7 38 21V3C38 1.3 36.6 0 35 0Z" fill="black"/>
<path d="M37 3V21C37 22.1 36.1 23 35 23H3C1.9 23 1 22.1 1 21V3C1 1.9 1.9 1 3 1H35C36.1 1 37 1.9 37 3Z" fill="white"/>
<path fill-rule="evenodd" clip-rule="evenodd" d="M5.3 8C5.2 8 5 8.1 5 8.2L5.1 8.4C5.3 8.4 6.4 8.6 7 8.9C7.4 9 7.7 9.3 7.9 9.5L9.5 15.7C9.5 15.9 9.6 15.9 9.7 15.9H11.2C11.2708 15.9 11.3417 15.9125 11.4081 15.9243C11.5292 15.9458 11.6354 15.9646 11.7 15.9C11.7618 15.8382 11.7854 15.7764 11.818 15.691C11.8382 15.6382 11.8618 15.5764 11.9 15.5L15 8.2C15.0575 8.1425 15.0819 8.11806 15.0923 8.08866C15.1 8.06693 15.1 8.0425 15.1 8H13C12.9 8 12.8 8.1 12.9 8.2L10.8 13.3C10.8 13.3 10.7 13.3 10.7 13.4C10.6 13.3 10.6 13.3 10.6 13.2L9.7 8.8C9.6 8.3 9.2 8 8.7 8H5.3ZM14.3008 16C14.3697 15.5172 14.3912 15.3674 14.4306 15.2225C14.4483 15.1573 14.4697 15.0931 14.5008 15L14.5008 15C15.0008 12.8 15.5008 10.5 15.9008 8.3C15.9191 8.2633 15.9341 8.22997 15.9476 8.2C16.0075 8.06667 16.0375 8 16.2008 8H18.0008C17.8008 9.2 17.6008 10.1 17.3008 11.2C17.0008 12.7 16.7008 14.2 16.3008 15.7C16.3008 15.9 16.2008 15.9 16.0008 15.9L14.3008 16ZM18.2008 13.9L17.8008 15.7C17.8439 15.7431 17.8684 15.7677 17.8904 15.7656C17.9194 15.7628 17.9439 15.7137 18.0008 15.6C18.7129 15.8374 19.5503 15.8243 20.5625 15.8085C20.8295 15.8044 21.1086 15.8 21.4008 15.8C22.0556 15.8 22.2729 15.625 22.7074 15.275L22.8008 15.2C23.6008 14.6 23.9008 13.8 23.7008 12.9C23.6008 12.3 23.1008 11.8 22.6008 11.5C22.3008 11.3 21.9008 11.1 21.5008 10.9L21.0008 10.5C20.8008 10.3 20.8008 10 21.0008 9.8C21.1008 9.7 21.2008 9.6 21.4008 9.6C21.7008 9.5 22.0008 9.5 22.3008 9.5C22.8008 9.5 23.3008 9.7 23.8008 9.9C24.0008 9.3 24.1008 8.8 24.2008 8.2H24.1008C23.5008 8 22.2008 8 21.0008 8C20.3809 8 20.0612 8.24016 19.6696 8.53439C19.5558 8.61988 19.4359 8.70994 19.3008 8.8C18.6008 9.5 18.2008 10.9 19.4008 11.9C19.7008 12.2 20.1008 12.4 20.5008 12.6C20.6191 12.6789 20.7374 12.7422 20.8496 12.8023C21.0219 12.8944 21.1797 12.9789 21.3008 13.1C21.7008 13.5 21.7008 14 21.2008 14.2C21.0008 14.3 20.7008 14.4 20.5008 14.4C19.8008 14.5 19.1008 14.3 18.4008 14C18.4008 14 18.3008 13.9 18.2008 13.9ZM31.2004 16H29.5004C29.4579 16 29.4335 16 29.4117 15.9923C29.3823 15.9819 29.3579 15.9575 29.3004 15.9L29.1004 15L29.0004 14.8H26.6004C26.5004 14.8 26.4004 14.8 26.4004 15L26.1004 15.9C26.1004 16 26.0004 16 26.0004 16H23.9004L24.1004 15.5L27.0004 8.7C27.0004 8.2 27.3004 8 27.8004 8H29.3004C29.4004 8 29.5004 8 29.5004 8.2L30.9004 14.7C30.9175 14.7686 30.9347 14.8343 30.9514 14.8981C31.0318 15.2059 31.1004 15.4686 31.1004 15.8C31.1579 15.8575 31.1823 15.8819 31.1927 15.9113C31.2004 15.9331 31.2004 15.9575 31.2004 16ZM28.3 10.1H28C27.9167 10.3083 27.8377 10.495 27.7621 10.6735L27.762 10.6738L27.7618 10.6743L27.7617 10.6744C27.4748 11.3523 27.2374 11.9131 27 13.1H28.9C28.7854 12.5271 28.7146 12.0708 28.6541 11.6812L28.6541 11.6812C28.5562 11.0507 28.4854 10.5944 28.3 10.1Z" fill="#142688"/>
</svg>
