<svg width="38" height="24" viewBox="0 0 38 24" fill="none" xmlns="http://www.w3.org/2000/svg">
<path opacity="0.07" d="M35 0H3C1.3 0 0 1.3 0 3V21C0 22.7 1.4 24 3 24H35C36.7 24 38 22.7 38 21V3C38 1.3 36.6 0 35 0Z" fill="black"/>
<path d="M35 1C36.1 1 37 1.9 37 3V21C37 22.1 36.1 23 35 23H3C1.9 23 1 22.1 1 21V3C1 1.9 1.9 1 3 1H35Z" fill="#006FCF"/>
<path fill-rule="evenodd" clip-rule="evenodd" d="M14.978 8.006H10.983L10.716 8H7.286L4 15.68H7.911L8.406 14.49H9.536L10.03 15.68H26.94L28.065 14.49L29.143 15.68H33.977L30.494 11.852L34.013 8H29.25L28.135 9.19L27.057 8H16.687L15.865 9.941L14.978 8.006ZM25.0454 10.3458H22.0684V11.1728H24.9974V12.4118H22.0744V13.3338H25.0514V14.0728L27.1284 11.8278L25.0514 9.48779L25.0454 10.3458ZM8.97113 10.2681L9.74512 12.1441H8.20312L8.97113 10.2681ZM19.646 9.084H17.407L15.907 12.62L14.282 9.084H12.06V13.894L10 9.084H8.007L5.625 14.596H7.18L7.674 13.406H10.27L10.764 14.596H13.484V10.661L15.235 14.602H16.425L18.165 10.673V14.603H19.623L19.647 9.083L19.646 9.084ZM31.5173 9.08398L28.9863 11.852H28.9873L31.4993 14.602H29.6243L28.0763 12.864L26.4623 14.602H20.6523V9.08398H26.5463L28.0943 10.81L29.6953 9.08398H31.5173Z" fill="white"/>
</svg>
