<svg width="38" height="24" viewBox="0 0 38 24" fill="none" xmlns="http://www.w3.org/2000/svg">
<path opacity="0.07" d="M35 0H3C1.3 0 0 1.3 0 3V21C0 22.7 1.4 24 3 24H35C36.7 24 38 22.7 38 21V3C38 1.3 36.6 0 35 0Z" fill="black"/>
<path d="M35 1C36.1 1 37 1.9 37 3V21C37 22.1 36.1 23 35 23H3C1.9 23 1 22.1 1 21V3C1 1.9 1.9 1 3 1H35Z" fill="white"/>
<circle cx="15" cy="12" r="7" fill="#EB001B"/>
<circle cx="23" cy="12" r="7" fill="#F79E1B"/>
<path d="M22 11.9998C22 9.5998 20.8 7.4998 19 6.2998C17.2 7.5998 16 9.6998 16 11.9998C16 14.2998 17.2 16.4998 19 17.6998C20.8 16.4998 22 14.3998 22 11.9998Z" fill="#FF5F00"/>
</svg>
