<svg width="24" height="24" viewBox="0 0 24 24" fill="none" xmlns="http://www.w3.org/2000/svg">
<g id="Pin">
<path id="XMLID_215_" d="M12.3616 2C6.90301 2 4 5.51296 4 9.34246C4 11.1182 4.98826 13.3341 6.57102 14.0367C6.81036 14.1448 6.94162 14.0985 6.99566 13.8746C7.04199 13.7047 7.25045 12.8863 7.35082 12.5003C7.3817 12.3767 7.36626 12.2686 7.26589 12.1528C6.74088 11.5429 6.32395 10.4311 6.32395 9.38879C6.32395 6.7174 8.43945 4.12321 12.0373 4.12321C15.1488 4.12321 17.3261 6.15378 17.3261 9.05679C17.3261 12.3381 15.5966 14.608 13.3499 14.608C12.1068 14.608 11.1803 13.6275 11.4737 12.4153C11.8289 10.9715 12.5237 9.41967 12.5237 8.37737C12.5237 7.44315 11.9987 6.67107 10.9255 6.67107C9.65933 6.67107 8.63247 7.92956 8.63247 9.62041C8.63247 10.6936 9.01079 11.4194 9.01079 11.4194C9.01079 11.4194 7.76002 16.4996 7.5284 17.4493C7.13464 19.0552 7.58244 21.6571 7.62105 21.881C7.64421 22.0045 7.78318 22.0431 7.86039 21.9428C7.98392 21.7806 9.4972 19.6111 9.92184 18.0438C10.0763 17.4724 10.7094 15.1562 10.7094 15.1562C11.1263 15.9128 12.3307 16.5459 13.6124 16.5459C17.4264 16.5459 20.1828 13.1797 20.1828 9.00275C20.1673 4.99566 16.7547 2 12.3616 2Z" fill="#212B36"/>
</g>
</svg>
