<svg width="16" height="16" viewBox="0 0 16 16" fill="none" xmlns="http://www.w3.org/2000/svg">
<path d="M8 0C3.58188 0 0 3.58152 0 8.00031C0 11.3895 2.10836 14.2842 5.08417 15.4494C5.01439 14.8168 4.95133 13.8458 5.11233 13.1546C5.25742 12.5307 6.0502 9.17791 6.0502 9.17791C6.0502 9.17791 5.81083 8.69886 5.81083 7.99044C5.81083 6.87819 6.45608 6.04771 7.25865 6.04771C7.94123 6.04771 8.27058 6.56006 8.27058 7.17475C8.27058 7.86097 7.8341 8.8869 7.6082 9.83823C7.41965 10.6348 8.00735 11.284 8.79278 11.284C10.2149 11.284 11.3076 9.78459 11.3076 7.62052C11.3076 5.70491 9.93143 4.36577 7.96633 4.36577C5.68962 4.36577 4.35384 6.07298 4.35384 7.83754C4.35384 8.52499 4.61892 9.26238 4.94888 9.66313C5.01439 9.74267 5.02418 9.81172 5.00459 9.89249C4.94398 10.1453 4.80869 10.6891 4.78237 10.8C4.74747 10.9462 4.66667 10.9776 4.51484 10.9067C3.51576 10.4418 2.89073 8.98062 2.89073 7.80733C2.89073 5.2838 4.72482 2.96621 8.17692 2.96621C10.9519 2.96621 13.1087 4.94409 13.1087 7.58661C13.1087 10.3438 11.3707 12.5628 8.95745 12.5628C8.14692 12.5628 7.38476 12.1417 7.12397 11.6441C7.12397 11.6441 6.72299 13.1719 6.62565 13.5461C6.44506 14.241 5.95715 15.1116 5.63085 15.643C6.37955 15.8748 7.17539 16 8 16C12.4181 16 16 12.4185 16 8.00031C16 3.58152 12.4181 0 8 0Z" fill="#E60023"/>
</svg>
