<svg width="32" height="32" viewBox="0 0 32 32" fill="none" xmlns="http://www.w3.org/2000/svg">
<path d="M22.3992 11.7334C24.1665 11.7334 25.5992 10.3007 25.5992 8.53338C25.5992 6.76607 24.1665 5.33337 22.3992 5.33337C20.6319 5.33337 19.1992 6.76607 19.1992 8.53338C19.1992 10.3007 20.6319 11.7334 22.3992 11.7334Z" stroke="#637381" stroke-width="1.5" stroke-linecap="round" stroke-linejoin="round"/>
<path d="M9.6004 19.1999C11.3677 19.1999 12.8004 17.7672 12.8004 15.9999C12.8004 14.2326 11.3677 12.7999 9.6004 12.7999C7.83308 12.7999 6.40039 14.2326 6.40039 15.9999C6.40039 17.7672 7.83308 19.1999 9.6004 19.1999Z" stroke="#637381" stroke-width="1.5" stroke-linecap="round" stroke-linejoin="round"/>
<path d="M22.3992 26.6667C24.1665 26.6667 25.5992 25.234 25.5992 23.4667C25.5992 21.6994 24.1665 20.2667 22.3992 20.2667C20.6319 20.2667 19.1992 21.6994 19.1992 23.4667C19.1992 25.234 20.6319 26.6667 22.3992 26.6667Z" stroke="#637381" stroke-width="1.5" stroke-linecap="round" stroke-linejoin="round"/>
<path d="M12.3652 17.6107L19.6506 21.8561" stroke="#637381" stroke-width="1.5" stroke-linecap="round" stroke-linejoin="round"/>
<path d="M19.6399 10.1439L12.3652 14.3893" stroke="#637381" stroke-width="1.5" stroke-linecap="round" stroke-linejoin="round"/>
</svg>
