<svg width="40" height="40" viewBox="0 0 40 40" fill="none" xmlns="http://www.w3.org/2000/svg">
<path d="M26.9461 27.9941C26.896 29.8028 26.0716 32.3473 23.4053 32.2757C22.1102 32.2408 21.2251 32.0835 21.2251 32.0835C21.4043 30.5157 21.4777 29.5085 21.5285 27.6702C21.5373 27.3626 21.5419 26.9368 21.5433 26.4662C21.8008 26.3826 22.0538 26.2775 22.3124 26.1536C22.7163 25.9607 22.9636 25.7779 22.9985 25.5334C23.0458 25.1994 22.5635 25.0177 22.5635 25.0177C22.5635 25.0177 22.5477 25.3736 21.5433 25.7144C21.5405 25.0022 21.5317 24.2705 21.5176 23.7233C21.9116 23.6598 22.7713 23.6383 23.268 23.6517C26.4011 23.736 26.9973 26.1557 26.9461 27.9941ZM19.4764 25.5514C19.1374 25.1916 19.1148 24.6938 19.3049 24.3686C19.4831 24.0641 20.0595 23.9064 20.5128 23.8274C20.5502 24.5171 20.5658 25.2332 20.5686 25.9127C20.1086 25.9247 19.7117 25.8016 19.4764 25.5514ZM23.395 22.8837C22.7166 22.8654 22.0287 22.8562 21.2304 22.9045C20.9983 22.9148 19.8687 22.9705 19.3744 23.1226C18.6142 23.3568 18.1062 23.7981 17.987 24.4882C17.8448 25.3108 18.1418 25.8584 18.6731 26.221C19.233 26.6027 19.9036 26.6973 20.5502 26.6588C20.5559 26.6584 20.5612 26.6577 20.5668 26.6574C20.5633 27.049 20.5559 27.4173 20.5467 27.7478C20.5026 29.3364 20.3922 30.7542 20.2105 31.9988C19.8168 31.9226 19.5371 31.7818 19.2951 31.5046C18.8643 31.7314 18.7454 32.3089 19.0943 32.6013C19.3656 32.8285 20.4783 32.9199 21.3348 32.9601C22.1332 33.0307 22.7978 33.0755 23.2324 33.0871C26.5609 33.1767 27.9579 30.6473 28.0362 27.8156C28.0965 25.6513 27.1006 22.9836 23.395 22.8837Z" fill="#8D0E57"/>
<path d="M11.809 28.8298C8.53484 32.7316 12.0926 34.9661 10.34 39.8944C15.7008 34.2079 10.9958 30.8661 11.809 28.8298Z" fill="#402020"/>
<path d="M12.5789 26.1794C7.97195 26.7382 8.63834 30.236 1 29.922C4.02577 31.0174 10.8037 32.16 12.5789 26.1794Z" fill="#402020"/>
<path d="M29.3606 21.3054C31.2737 16.6268 36.1812 18.8186 38.9776 13.546C34.9779 17.9176 27.7579 13.4458 29.3606 21.3054Z" fill="#402020"/>
<path d="M13.0616 26.0416C9.52787 32.9476 18.5759 31.3446 18.8017 37.7531C21.7079 30.4538 12.367 31.957 13.0616 26.0416Z" fill="#402020"/>
<path d="M30.4012 25.9853C31.8818 28.8153 30.4372 33.8759 30.4372 33.8759C30.4372 33.8759 32.3486 30.5894 32.4103 26.3726C32.514 19.2822 27.7614 20.9388 30.4012 25.9853Z" fill="#402020"/>
<path d="M22.1163 19.3768C18.4873 17.7219 10.4429 15.6793 8.7397 23.112C14.1213 22.8061 13.1127 18.3096 22.1163 19.3768Z" fill="#402020"/>
<path d="M25.4968 9.80566C24.7651 15.9359 31.7025 15.9182 35.0373 15.3376C27.6141 14.4073 29.6701 11.0979 25.4968 9.80566Z" fill="#402020"/>
<path d="M20.3299 18.1272C18.8673 16.7234 12.9113 9.56559 11.0405 12.8732C9.17012 16.1809 18.373 17.5973 20.3299 18.1272Z" fill="#402020"/>
<path d="M22.3171 19.1458C16.8723 11.6867 21.5536 10.4753 19.177 5.57519C13.105 10.5568 18.9833 16.712 22.3171 19.1458Z" fill="#402020"/>
<path d="M39.9553 8.34055C39.9143 7.47836 39.7383 6.68214 39.4522 5.95718C39.4758 6.00163 39.2402 5.28584 38.7752 4.55418C38.3431 3.87367 37.6181 3.18012 37.0914 2.76701C34.5091 0.741716 29.7064 0.243595 25.9637 2.40753C24.2718 3.38579 22.9997 4.71681 22.1241 6.23729C21.7177 6.9432 21.397 7.69003 21.16 8.4612C19.8653 12.6695 21.0563 17.6087 24.3865 20.6391L24.3861 20.643C23.5317 20.2327 22.5975 19.9416 21.589 19.7991C18.9653 19.4284 16.1752 20.4722 14.6946 22.4125C14.454 22.6672 14.0427 23.2189 13.9414 23.328C11.6276 25.8207 7.49795 26.8007 4.85106 24.1736C3.44207 22.7748 2.84658 20.0831 4.52827 18.7429C5.42609 18.0275 7.20091 18.3577 7.32721 19.5885C7.32932 19.6132 7.3325 19.6386 7.33744 19.6637C7.6059 20.862 9.93776 19.5367 8.67905 17.6923C7.37942 15.7884 4.48982 16.392 3.23992 18.2656C1.17935 21.3556 3.47593 25.325 6.95256 26.2169C9.40083 26.8452 12.2153 25.899 13.8614 23.9989C13.6243 24.7437 13.5555 25.5656 13.7015 26.4483C14.0374 28.4789 15.8542 30.2117 17.9416 30.2061C18.7096 30.2043 19.3714 29.5905 19.4338 28.8207C19.4913 27.943 18.6916 27.1835 17.9282 27.6759C15.5363 29.2183 13.0309 23.9527 17.4548 21.4152C21.7883 18.9295 27.1247 22.2065 28.9909 26.6575C29.6464 28.2203 29.9854 29.8984 29.8944 31.595C29.8517 32.3919 29.8016 33.2315 29.6065 34.0048C29.5095 34.3907 29.4432 34.6299 29.2679 35.1016C29.1631 35.3838 29.0502 35.7062 28.8809 36.0124C29.4372 35.4078 29.7117 35.0127 30.026 34.166C30.3086 33.4051 30.4006 32.485 30.4391 31.674C30.516 30.0568 30.2765 28.4238 29.7424 26.8956C29.3733 25.8394 28.8629 24.8308 28.2141 23.9185C27.8934 23.4673 27.5389 23.0394 27.1526 22.6425C27.0401 22.5272 26.9194 22.4203 26.7963 22.3162L26.8192 22.319C26.8192 22.319 26.482 22.0107 25.8985 21.49C25.4053 21.0497 25.0751 20.7798 24.9414 20.673C24.7322 20.4832 24.5608 20.3258 24.4955 20.2542C20.1701 15.5132 19.8289 7.48577 25.5972 3.51208C29.9724 0.497241 37.6195 1.91893 38.7075 7.24552C39.177 9.54246 37.8929 12.8272 35.3773 12.7291C34.0886 12.6787 32.953 11.6383 33.3118 10.1651C33.6592 8.53881 29.9671 9.16005 30.8501 12.081C32.2083 16.5744 40.2731 14.9915 39.9553 8.34055Z" fill="#402020"/>
</svg>
