<svg width="392" height="338" viewBox="0 0 392 338" fill="none" xmlns="http://www.w3.org/2000/svg">
<g id="404">
<rect id="Rectangle" opacity="0.01" y="12" width="392" height="288" fill="#CCCDD7"/>
<g id="Server Error">
<g id="Group 17416" opacity="0.8">
<ellipse id="Oval" opacity="0.04" cx="179.499" cy="156.242" rx="156.335" ry="156.242" fill="#8D1D58"/>
<circle id="Oval_2" opacity="0.04" cx="180.492" cy="157.327" r="100.906" fill="#8D1D58"/>
<ellipse id="Oval_3" opacity="0.2" cx="179.018" cy="155.761" rx="42.3306" ry="42.3055" fill="#8D1D58"/>
</g>
<g id="Group 17415">
<path id="Path 7" fill-rule="evenodd" clip-rule="evenodd" d="M122.074 232.188C122.074 232.188 121.005 197.927 156.692 165.968C184.599 140.977 214.315 115.482 225.947 105.553C228.887 103.043 233.199 103.009 236.187 105.461L262.222 126.832C265.456 129.487 266.104 134.175 263.688 137.592C248.948 158.434 200.682 226.181 193.166 230.281L173.777 232.581L158.89 226.34L146.837 232.103L125.153 229.998" fill="#8D1D58"/>
<circle id="Oval_4" cx="172.894" cy="202.368" r="22.6869" fill="white"/>
<circle id="Oval_5" opacity="0.2" cx="172.89" cy="202.368" r="17.187" fill="#8D1D58"/>
<path id="Path 8" fill-rule="evenodd" clip-rule="evenodd" d="M210.544 160.327C209.147 159.111 209.033 156.981 210.291 155.622L261.881 99.905C263.053 98.639 265.026 98.5529 266.304 99.712C267.597 100.885 267.688 102.887 266.506 104.173L215.116 160.074C213.913 161.383 211.885 161.496 210.544 160.327Z" fill="#6F144A"/>
<path id="Path 9" fill-rule="evenodd" clip-rule="evenodd" d="M182.922 142.99L190.305 106.137C191.158 101.881 193.148 97.9365 196.065 94.7226L222.729 65.3407C223.994 63.9471 226.308 64.9125 226.207 66.7916L224.041 107.285L182.922 142.99Z" fill="#6F144A"/>
<path id="Path 10" fill-rule="evenodd" clip-rule="evenodd" d="M262.75 138.704L304.592 132.88C306.441 132.623 307.603 134.813 306.354 136.2L281.06 164.287C277.901 167.794 273.779 170.292 269.208 171.468L232.699 180.866L262.75 138.704Z" fill="#6F144A"/>
<path id="Vector 149" d="M60.5 258.5L117 248.5L144.5 241.5L228 238L313 237.5L324 238.5V267L285 333L149.5 338L60.5 292.5V258.5Z" fill="white"/>
<path id="Path 11" fill-rule="evenodd" clip-rule="evenodd" d="M60.5 258L103.05 234.885L114.286 237.671L124.88 229.8L147.032 232.089L158.68 226.302L173.414 232.486L191.026 230.868L211.242 226.302L227.471 234.885L313 237.5" fill="white"/>
<path id="Path 6" d="M60.5 258L103.05 234.885L114.286 237.671L124.88 229.8L147.032 232.089L158.68 226.302L173.414 232.486L191.026 230.868L211.242 226.302L227.471 234.885L313 237.5" stroke="#212B36" stroke-width="2"/>
</g>
</g>
</g>
</svg>
