<svg width="24" height="24" viewBox="0 0 24 24" fill="none" xmlns="http://www.w3.org/2000/svg">
<path d="M16.7996 8.80001C18.1251 8.80001 19.1996 7.72549 19.1996 6.40001C19.1996 5.07452 18.1251 4 16.7996 4C15.4741 4 14.3996 5.07452 14.3996 6.40001C14.3996 7.72549 15.4741 8.80001 16.7996 8.80001Z" stroke="#212B36" stroke-width="1.5" stroke-linecap="round" stroke-linejoin="round"/>
<path d="M7.19999 14.3999C8.52548 14.3999 9.6 13.3253 9.6 11.9999C9.6 10.6744 8.52548 9.59985 7.19999 9.59985C5.87451 9.59985 4.79999 10.6744 4.79999 11.9999C4.79999 13.3253 5.87451 14.3999 7.19999 14.3999Z" stroke="#212B36" stroke-width="1.5" stroke-linecap="round" stroke-linejoin="round"/>
<path d="M16.7996 20C18.1251 20 19.1996 18.9254 19.1996 17.6C19.1996 16.2745 18.1251 15.2 16.7996 15.2C15.4741 15.2 14.3996 16.2745 14.3996 17.6C14.3996 18.9254 15.4741 20 16.7996 20Z" stroke="#212B36" stroke-width="1.5" stroke-linecap="round" stroke-linejoin="round"/>
<path d="M9.2746 13.208L14.7386 16.392" stroke="#212B36" stroke-width="1.5" stroke-linecap="round" stroke-linejoin="round"/>
<path d="M14.7306 7.60791L9.2746 10.7919" stroke="#212B36" stroke-width="1.5" stroke-linecap="round" stroke-linejoin="round"/>
</svg>
