<svg width="120" height="120" viewBox="0 0 120 120" fill="none" xmlns="http://www.w3.org/2000/svg">
<mask id="mask0_1976_1289" style="mask-type:alpha" maskUnits="userSpaceOnUse" x="0" y="0" width="120" height="120">
<rect width="120" height="120" fill="#C4C4C4"/>
</mask>
<g mask="url(#mask0_1976_1289)">
<path d="M36.8512 72.417C37.207 78.7881 37.4219 85.16 37.7082 91.5311C37.7434 92.3276 37.7768 93.1232 37.7768 93.9206L37.7552 96.3101L37.7543 101.089V110.646L36.8512 109.77H81.9286L81.0256 110.646V72.417L81.9286 73.2932H70.6597H65.0248C63.1474 73.2941 61.2691 73.2871 59.3908 73.3116C57.5125 73.3116 55.6342 73.1837 53.7559 73.1259L48.1219 72.9024C44.3635 72.7622 40.6078 72.6028 36.8512 72.417ZM36.8512 72.417C40.6078 72.2312 44.3635 72.0718 48.1201 71.9307L53.7541 71.7072C55.6324 71.6503 57.5107 71.5215 59.389 71.5215C61.2673 71.546 63.1456 71.5399 65.023 71.5399H70.6579H81.9268H82.8298V72.4161V110.645V111.521H81.9268H36.8494H35.9464V110.645V101.088L35.9455 96.3092L35.9238 93.9197C35.9238 93.1232 35.9572 92.3276 35.9924 91.5302C36.2805 85.16 36.4954 78.789 36.8512 72.417Z" fill="#121212"/>
<path d="M52.63 73.2932C52.8323 74.0284 53.0084 74.7635 53.1746 75.4987L53.403 76.601C53.4635 76.969 53.6026 77.3361 53.5466 77.7033C53.5204 78.4384 53.5394 79.1736 53.5331 79.9088V82.1142L52.63 81.238H66.4744L65.5713 82.1142V77.7042C65.5758 77.521 65.5641 77.337 65.5524 77.153C65.5406 76.9699 65.6093 76.7859 65.6445 76.6019L65.8946 75.4996C66.0707 74.7644 66.2612 74.0292 66.4753 73.2941C66.6884 74.0292 66.8789 74.7644 67.0559 75.4996L67.306 76.6019C67.3413 76.7859 67.409 76.9699 67.3982 77.153C67.3855 77.337 67.3747 77.521 67.3792 77.7042V82.1142V82.9905H66.4762H52.63H51.727V82.1142V79.9088C51.7207 79.1736 51.7405 78.4384 51.7135 77.7033C51.6575 77.3361 51.7965 76.969 51.857 76.601L52.0855 75.4987C52.2517 74.7635 52.4278 74.0284 52.63 73.2932Z" fill="#121212"/>
<path d="M59.8905 44.5171C59.8905 44.5171 61.4925 44.3792 64.2951 44.1366C65.6965 44.0319 67.3982 43.9047 69.35 43.759C70.3269 43.6915 71.3643 43.6181 72.4602 43.5428C73.5551 43.4684 74.7064 43.5643 75.9071 43.5388C78.3095 43.5388 80.9126 43.5388 83.6648 43.5388C84.3786 43.5398 85.1035 43.5408 85.8364 43.5428C86.2084 43.5868 86.4957 43.5643 86.9444 43.6631C87.3769 43.7511 87.8255 43.8431 88.1864 43.9908C89.7057 44.5406 91.1292 45.3799 92.2342 46.7113C92.8149 47.4499 93.1082 48.028 93.5236 48.6756C93.9158 49.3105 94.3089 49.9502 94.7062 50.5929C95.5006 51.8793 96.3041 53.1814 97.1136 54.4942C98.7337 57.1198 100.379 59.7864 102.024 62.4531C103.67 65.1198 105.316 67.7865 106.935 70.4121C107.745 71.7249 108.548 73.0269 109.343 74.3133C109.74 74.956 110.134 75.5958 110.525 76.2307L111.111 77.1796L111.183 77.2969L111.22 77.3566L111.295 77.5004L111.416 77.7489C111.496 77.9279 111.581 78.0502 111.654 78.2732C111.98 79.23 112.059 80.0605 111.961 80.9106C111.933 81.3341 111.8 81.743 111.699 82.15C111.524 82.5374 111.415 82.9482 111.16 83.3014L110.813 83.8404L110.373 84.3207C110.057 84.6729 109.827 84.8304 109.557 85.0828C109.035 85.5455 108.52 86.0013 108.012 86.4513C105.978 88.2523 104.056 89.9534 102.281 91.5255C101.373 92.2895 100.596 93.12 99.7228 93.7676C98.8588 94.425 98.0381 95.0481 97.2679 95.6341C95.7274 96.805 94.3846 97.8263 93.2776 98.6686C91.0607 100.345 89.7702 101.279 89.7702 101.279C89.7702 101.279 90.8469 100.118 92.7705 98.1286C93.7343 97.1366 94.9048 95.9315 96.2486 94.5502C96.9201 93.8595 97.6338 93.1239 98.3869 92.3491C99.131 91.5636 100.054 90.8886 100.921 90.0816C102.697 88.5105 104.618 86.8074 106.653 85.0065C107.161 84.5565 107.676 84.0996 108.197 83.6389C108.435 83.4158 108.775 83.1537 108.916 82.9678L109.194 82.6724L109.415 82.3183C109.591 82.0991 109.648 81.8057 109.777 81.5513C109.838 81.2715 109.939 80.9927 109.954 80.7022C110.04 80.128 109.924 79.499 109.808 79.0646C109.78 78.9384 109.662 78.7457 109.593 78.5892L109.472 78.3417L109.456 78.3104C109.472 78.3368 109.401 78.2077 109.487 78.3623L109.45 78.3026L109.378 78.1852L108.792 77.2363C108.4 76.6014 108.007 75.9616 107.61 75.3189C106.815 74.0326 106.012 72.7305 105.202 71.4177C103.582 68.7921 101.937 66.1254 100.291 63.4588C98.646 60.7921 96.9997 58.1254 95.3806 55.4998C94.5711 54.187 93.7676 52.885 92.9731 51.5986C92.5759 50.9559 92.1817 50.3161 91.7906 49.6812C91.4044 49.0698 90.9921 48.342 90.6504 47.9272C89.8761 46.9744 88.6844 46.2515 87.511 45.8367C87.2025 45.7086 86.9434 45.6734 86.6802 45.6039C86.4352 45.5257 86.0007 45.5335 85.6741 45.4944C84.9946 45.4944 84.3232 45.4953 83.6618 45.4963C80.9096 45.4963 78.3055 45.4963 75.9041 45.4963C74.7033 45.4709 73.552 45.5658 72.4572 45.4924C71.3613 45.4161 70.3239 45.3437 69.347 45.2762C67.3952 45.1304 65.6934 45.0033 64.2921 44.8986C61.4925 44.655 59.8905 44.5171 59.8905 44.5171Z" fill="#121212"/>
<path d="M85.1144 106.536C87.8705 106.536 90.1048 103.849 90.1048 100.535C90.1048 97.2212 87.8705 94.5347 85.1144 94.5347C82.3583 94.5347 80.124 97.2212 80.124 100.535C80.124 103.849 82.3583 106.536 85.1144 106.536Z" fill="white"/>
<path d="M80.124 100.535C80.124 100.535 80.1311 100.668 80.1442 100.919C80.1543 101.168 80.1896 101.536 80.2954 101.99C80.3912 102.446 80.5797 102.987 80.8963 103.553C81.2118 104.114 81.6504 104.718 82.2835 105.19C82.8975 105.676 83.699 106.024 84.5508 106.059C84.7515 106.075 84.9974 106.057 85.1648 106.039C85.4108 106.005 85.6588 105.966 85.8251 105.898C86.2062 105.778 86.6135 105.579 86.9553 105.317C87.656 104.806 88.2014 104.057 88.5613 103.225C88.9192 102.405 89.0896 101.422 89.0976 100.574C89.0805 100.325 89.0936 100.002 89.0573 99.8131C89.0371 99.6047 89.0049 99.3866 88.9575 99.1557C88.8688 98.7038 88.7347 98.2626 88.5573 97.8449C88.1983 97.0134 87.6499 96.2689 86.9513 95.7563C86.2516 95.2359 85.4179 94.9659 84.5297 95.0187C84.1415 95.0246 83.71 95.143 83.3259 95.277C82.9519 95.4462 82.59 95.636 82.2845 95.8825C81.6514 96.3531 81.2128 96.9566 80.8973 97.5181C80.5817 98.0836 80.3912 98.6255 80.2954 99.0814C80.1896 99.5353 80.1533 99.9031 80.1442 100.153C80.1311 100.403 80.124 100.535 80.124 100.535ZM80.124 100.535C80.124 100.535 80.1281 100.401 80.1371 100.152C80.1391 99.9011 80.1785 99.5343 80.2611 99.0735C80.3337 98.6099 80.498 98.0601 80.7471 97.4487C81.0062 96.8392 81.4074 96.1887 81.9871 95.5705C82.5769 94.9571 83.3622 94.4083 84.4319 94.155C85.4048 93.9133 86.6589 94.016 87.7033 94.5678C88.769 95.099 89.6531 96.0009 90.2247 97.0603C90.5282 97.5837 90.745 98.154 90.8871 98.7409C90.9668 99.0276 91.0192 99.3357 91.0534 99.6585C91.1028 99.996 91.0918 100.21 91.1119 100.494C91.0887 101.774 90.8347 102.941 90.2207 104.006C89.6501 105.064 88.7629 105.963 87.7013 106.495C87.1751 106.776 86.6166 106.928 86.0278 107.001C85.7102 107.045 85.4673 107.033 85.2283 107.024C84.9138 107.003 84.6758 106.97 84.4127 106.906C83.3854 106.66 82.5698 106.109 81.9891 105.498C81.4104 104.879 81.0062 104.231 80.7491 103.621C80.4991 103.009 80.3337 102.459 80.2611 101.997C80.1785 101.536 80.1391 101.169 80.1371 100.919C80.1281 100.669 80.124 100.535 80.124 100.535Z" fill="#121212"/>
<path d="M60.1156 44.5171C60.1156 44.5171 58.5278 44.6551 55.7493 44.8977C54.3601 45.0024 52.6724 45.1295 50.7367 45.2753C49.7689 45.3428 48.7406 45.4162 47.6538 45.4915C46.569 45.5658 45.4268 45.47 44.2362 45.4954C41.8539 45.4954 39.274 45.4954 36.5449 45.4954C35.2212 45.5296 33.6193 45.3692 32.6887 45.7654C31.5082 46.143 30.3397 46.8454 29.4979 47.7541C29.2902 47.9938 29.1431 48.2032 28.9444 48.4927L28.3647 49.4338C27.9756 50.0628 27.5854 50.6967 27.1923 51.3345C26.4049 52.6101 25.6084 53.9014 24.806 55.2025C23.2 57.8046 21.5688 60.4488 19.9376 63.092C18.3064 65.7362 16.6752 68.3794 15.0692 70.9825C14.2657 72.2835 13.4693 73.5738 12.6829 74.8495C12.2887 75.4873 11.8985 76.1212 11.5104 76.7502L10.9297 77.6912L10.6414 78.1588L10.5698 78.2752L10.5345 78.3339L10.5154 78.3633C10.6021 78.2077 10.5315 78.3379 10.5456 78.3105L10.4266 78.556C10.353 78.7145 10.2552 78.8906 10.2008 79.0353C10.1786 79.1557 10.1524 79.2721 10.1201 79.3875C10.0395 79.6037 10.0566 79.9392 10.0173 80.2082C10.0566 80.7766 10.1171 81.3655 10.3762 81.8654C10.4609 82.1393 10.6484 82.3457 10.7825 82.5834C10.961 82.8016 11.1162 82.961 11.3471 83.186C11.8693 83.6399 12.3825 84.088 12.8906 84.5301C14.922 86.2998 16.8425 87.9716 18.6149 89.5152C19.4809 90.3096 20.4023 90.9699 21.1464 91.7427C21.8995 92.5057 22.6142 93.2296 23.2847 93.9095C24.6275 95.2702 25.797 96.4558 26.7608 97.4321C28.6833 99.3915 29.76 100.534 29.76 100.534C29.76 100.534 28.4736 99.6185 26.2587 97.976C25.1538 97.1514 23.8129 96.1506 22.2745 95.0022C21.5053 94.428 20.6876 93.8175 19.8247 93.1738C18.9526 92.5399 18.1753 91.7221 17.268 90.9718C15.4956 89.4282 13.5751 87.7564 11.5437 85.9867C11.0356 85.5455 10.5214 85.0965 10.0002 84.6426C9.73605 84.3932 9.39933 84.0537 9.1483 83.7299C8.9265 83.3758 8.66135 83.0324 8.52425 82.6392C8.15123 81.882 8.04133 81.0407 8 80.2024C8.04638 79.77 8.0232 79.3767 8.16434 78.9062L8.36697 78.2185C8.44258 78.0287 8.52425 77.8859 8.60288 77.7157L8.72184 77.4711L8.80048 77.3283L8.83677 77.2696L8.90835 77.1532L9.19669 76.6856L9.77638 75.7445C10.1655 75.1146 10.5557 74.4816 10.9499 73.8438C11.7362 72.5682 12.5327 71.2779 13.3362 69.9768C14.9422 67.3737 16.5734 64.7305 18.2046 62.0863C19.8358 59.4422 21.4659 56.799 23.0719 54.1968C23.8754 52.8948 24.6719 51.6045 25.4582 50.3289C25.8524 49.6911 26.2426 49.0572 26.6317 48.4282L27.2114 47.4871C27.4241 47.1701 27.6994 46.7749 27.9746 46.4687C29.1299 45.2303 30.5383 44.4007 32.0707 43.9018C32.4548 43.7737 32.9226 43.6935 33.335 43.6093L33.8622 43.5673L34.1254 43.5458L34.2715 43.5389H34.3371H34.4681C35.1678 43.5389 35.8604 43.5389 36.5429 43.5389C39.272 43.5389 41.8519 43.5389 44.2341 43.5389C45.4248 43.5643 46.566 43.4695 47.6518 43.5428C48.7376 43.6191 49.7669 43.6915 50.7347 43.759C52.6704 43.9048 54.358 44.0319 55.7473 44.1366C58.5278 44.3792 60.1156 44.5171 60.1156 44.5171Z" fill="#121212"/>
<path d="M85.8806 66.3221C85.3135 65.4114 84.5494 64.574 83.8675 63.617L82.2472 64.7617C82.9787 65.6842 83.569 66.6458 84.2902 67.4472C84.9199 68.1644 85.5202 68.8487 86.0894 69.4976L86.3063 69.7449C87.5724 71.1881 88.6759 72.4458 89.5852 73.4821C91.4103 75.5492 92.4782 76.7123 92.4782 76.7123C92.4782 76.7123 91.6626 75.3708 90.1894 73.0545C89.4496 71.8992 88.5522 70.4963 87.5216 68.8861C87.0072 68.0817 86.4586 67.225 85.8806 66.3221Z" fill="#121212"/>
<path d="M34.1476 66.322C34.7147 65.4114 35.4787 64.5739 36.1606 63.6169L37.7809 64.7616C37.0494 65.6842 36.4592 66.6457 35.738 67.4471C35.1082 68.1644 34.508 68.8486 33.9387 69.4975L33.7218 69.7448C32.4558 71.188 31.3523 72.4457 30.4429 73.482C28.6179 75.5491 27.55 76.7122 27.55 76.7122C27.55 76.7122 28.3656 75.3707 29.8388 73.0544C30.5785 71.8991 31.4759 70.4962 32.5065 68.886C33.0209 68.0816 33.5696 67.2249 34.1476 66.322Z" fill="#121212"/>
<path d="M34.7265 106.536C37.4826 106.536 39.7168 103.849 39.7168 100.535C39.7168 97.2212 37.4826 94.5347 34.7265 94.5347C31.9703 94.5347 29.7361 97.2212 29.7361 100.535C29.7361 103.849 31.9703 106.536 34.7265 106.536Z" fill="white"/>
<path d="M39.7178 100.535C39.7178 100.535 39.7138 100.669 39.7047 100.919C39.7027 101.169 39.6634 101.536 39.5807 101.997C39.5081 102.46 39.3428 103.009 39.0927 103.621C38.8347 104.231 38.4314 104.879 37.8527 105.498C37.272 106.109 36.4554 106.66 35.4291 106.906C35.166 106.97 34.9281 107.003 34.6135 107.024C34.3746 107.034 34.1316 107.044 33.814 107.001C33.2253 106.929 32.6668 106.777 32.1405 106.495C31.0789 105.963 30.1917 105.064 29.6211 104.006C29.0082 102.941 28.7541 101.774 28.7299 100.494C28.7501 100.211 28.739 99.9961 28.7884 99.6586C28.8227 99.3357 28.8751 99.0266 28.9547 98.741C29.0979 98.154 29.3136 97.5837 29.6171 97.0603C30.1887 96.0009 31.0729 95.099 32.1385 94.5678C33.1829 94.017 34.4371 93.9134 35.41 94.155C36.4796 94.4083 37.265 94.9571 37.8547 95.5705C38.4344 96.1887 38.8367 96.8393 39.0948 97.4487C39.3438 98.0601 39.5081 98.6109 39.5807 99.0736C39.6634 99.5343 39.7027 99.9012 39.7047 100.152C39.7138 100.402 39.7178 100.535 39.7178 100.535ZM39.7178 100.535C39.7178 100.535 39.7108 100.402 39.6976 100.152C39.6876 99.9021 39.6523 99.5343 39.5464 99.0804C39.4506 98.6246 39.2611 98.0826 38.9445 97.5172C38.629 96.9557 38.1905 96.3531 37.5573 95.8816C37.2519 95.6351 36.8899 95.4453 36.5159 95.276C36.1318 95.142 35.6993 95.0237 35.3122 95.0178C34.423 94.965 33.5902 95.235 32.8906 95.7554C32.1929 96.267 31.6445 97.0124 31.2846 97.8439C31.1061 98.2616 30.9721 98.7028 30.8843 99.1548C30.837 99.3856 30.8047 99.6038 30.7845 99.8121C30.7482 100.001 30.7613 100.324 30.7442 100.573C30.7523 101.421 30.9227 102.404 31.2806 103.224C31.6395 104.056 32.1849 104.804 32.8865 105.316C33.2283 105.578 33.6356 105.777 34.0167 105.897C34.183 105.964 34.431 106.003 34.677 106.038C34.8444 106.056 35.0904 106.073 35.291 106.058C36.1429 106.023 36.9444 105.675 37.5583 105.189C38.1915 104.718 38.63 104.113 38.9456 103.552C39.2611 102.987 39.4506 102.445 39.5464 101.989C39.6523 101.535 39.6886 101.167 39.6976 100.918C39.7108 100.668 39.7178 100.535 39.7178 100.535Z" fill="#121212"/>
<path d="M76.7607 24.9777C76.7607 24.9777 76.7456 25.3896 76.7184 26.1624C76.677 26.9313 76.5923 28.0709 76.3373 29.508C76.2455 30.2377 76.0217 31.0164 75.8362 31.8929C75.5741 32.742 75.322 33.686 74.9027 34.6437C74.7161 35.1329 74.4893 35.6239 74.2221 36.115C73.9641 36.611 73.6949 37.1226 73.3602 37.6146C73.0325 38.1116 72.6817 38.6134 72.2361 39.0615C71.8076 39.5232 71.3933 40.0123 70.8983 40.4545C69.0039 42.2632 66.5501 43.9986 63.4813 44.7881C62.708 44.9456 61.9337 45.153 61.1141 45.1667L60.5042 45.2087L60.1977 45.2293L60.1211 45.2342L59.9769 45.2273L59.8348 45.2175C59.4567 45.1911 59.0766 45.1637 58.6935 45.1373C58.3296 45.1363 57.8759 45.0141 57.4565 44.9358C57.0402 44.8341 56.5784 44.7881 56.1963 44.6316C55.3999 44.3635 54.5954 44.0926 53.8524 43.6876C53.07 43.3481 52.3875 42.8482 51.6606 42.4022C51.3168 42.1547 50.9912 41.8847 50.6545 41.6245C50.3127 41.3691 49.9891 41.0942 49.6897 40.7929C48.4063 39.666 47.3578 38.3102 46.3628 36.9211C44.4816 34.0734 43.1044 30.8286 42.6477 27.3783C42.5701 26.9508 42.5298 26.5185 42.5187 26.0812C42.5056 25.6292 42.4542 25.2497 42.4753 24.7371L42.5388 23.5035C42.559 23.0936 42.6598 22.6241 42.7203 22.1878C43.0369 20.4387 43.5601 18.7776 44.407 17.2506C45.2367 15.7304 46.2579 14.3159 47.4879 13.1185C48.7229 11.9309 50.094 10.9057 51.5759 10.1114C54.553 8.55112 57.8588 7.84972 60.9558 8.02679C61.3268 8.05222 61.6686 8.04439 62.0567 8.09722C62.4459 8.15298 62.831 8.20874 63.2131 8.26352C63.9853 8.36526 64.6739 8.59417 65.3877 8.75851C66.7648 9.21828 68.0784 9.73773 69.2227 10.4411C69.8155 10.761 70.3478 11.1405 70.872 11.5103C71.4205 11.8507 71.8651 12.2958 72.2956 12.7223C72.7321 13.144 73.0708 13.6331 73.4408 14.0635C73.7897 14.5125 74.0598 14.9987 74.3532 15.437C75.4249 17.277 75.931 19.0339 76.2647 20.4524C76.5641 21.8875 76.675 23.0193 76.7163 23.7921C76.7466 24.5659 76.7607 24.9777 76.7607 24.9777ZM76.7607 24.9777C76.7607 24.9777 76.7335 24.5669 76.68 23.795C76.678 23.4077 76.5772 22.9391 76.4593 22.3913C76.3776 21.8376 76.1548 21.2281 75.9128 20.5532C75.3785 19.2208 74.5054 17.6889 73.1878 16.2332C72.5264 15.5093 71.7834 14.7864 70.9346 14.1144C70.0696 13.4687 69.2499 12.6725 68.1863 12.1197C67.1741 11.4937 66.0087 11.0398 64.7919 10.6279C64.1688 10.489 63.5256 10.2738 62.8885 10.1946C62.5699 10.1466 62.2473 10.0977 61.9247 10.0498C61.599 10.0009 61.2119 10.0067 60.854 9.98131C58.1148 9.82186 55.1821 10.4479 52.5478 11.8263C51.2352 12.5296 50.0214 13.4404 48.9255 14.49C47.8347 15.5495 46.9354 16.8045 46.1995 18.1477C45.4494 19.481 44.9866 20.9992 44.7154 22.4754C44.666 22.853 44.5743 23.1895 44.5541 23.6023L44.4896 24.8359C44.4735 25.146 44.5209 25.5901 44.533 25.9618C44.54 26.3502 44.5763 26.7386 44.6479 27.125C45.0532 30.2348 46.3234 33.238 48.0494 35.8479C49.8298 38.41 52.0992 40.6658 54.7708 41.9463C55.4211 42.3053 56.1126 42.5313 56.7952 42.7641C57.1379 42.9069 57.4676 42.9196 57.8003 43.0087C58.1411 43.0703 58.4304 43.1818 58.8377 43.1867C59.2208 43.2131 59.6009 43.2405 59.9789 43.2669C60.2158 43.2943 60.6393 43.2297 60.9568 43.218C61.6474 43.2141 62.3058 43.0272 62.9621 42.8991C65.5762 42.2319 67.7639 40.7069 69.4758 39.0693C70.3619 38.2652 71.0263 37.3261 71.7229 36.4897C72.098 36.0876 72.4135 35.6572 72.72 35.2356C73.0446 34.8247 73.3491 34.4168 73.6052 33.9952C74.1808 33.1852 74.6133 32.3654 75.0418 31.6092C75.3846 30.8247 75.7767 30.1115 75.9653 29.4199C76.0772 29.0775 76.184 28.7528 76.2828 28.4476C76.3675 28.1384 76.4099 27.842 76.4703 27.5691C76.5873 27.0213 76.677 26.5498 76.68 26.1624C76.7335 25.3896 76.7607 24.9777 76.7607 24.9777Z" fill="#121212"/>
</g>
</svg>
