<svg width="120" height="120" viewBox="0 0 120 120" fill="none" xmlns="http://www.w3.org/2000/svg">
<mask id="mask0_1976_1283" style="mask-type:alpha" maskUnits="userSpaceOnUse" x="0" y="0" width="120" height="120">
<rect width="120" height="120" fill="#C4C4C4"/>
</mask>
<g mask="url(#mask0_1976_1283)">
<path d="M97.9878 8.44675L23.0221 8.89154L23.4737 8.44577L23.7914 21.2665L23.9503 27.6769C24.0172 29.814 24.0392 31.9502 24.0452 34.0873L24.0222 46.908V59.7288V111.012L23.0231 110.026H97.9888L96.9897 111.012V59.7288L96.9757 34.0873C96.9727 31.9502 97.0526 29.814 97.0986 27.6769L97.2554 21.2665L97.5702 8.44577L97.9878 8.85702L82.6472 8.44675L97.9878 8.0355L98.3944 8.02466L98.4054 8.44774L98.7202 21.2685L98.877 27.6789C98.923 29.816 99.0029 31.9521 98.9999 34.0893L98.9859 59.7308V111.014V112H97.9868H23.0221H22.023V111.014V59.7308V46.91L22 34.0893C22.006 31.9521 22.028 29.816 22.0949 27.6789L22.2538 21.2685L22.5715 8.44774L22.5825 8L23.0221 8.00197L97.9878 8.44675Z" fill="#121212"/>
<path d="M43.3526 23.1338C43.3526 23.1338 43.3406 23.2591 43.3196 23.4938C43.2777 23.7246 43.3177 24.0816 43.1628 24.4997C43.0988 24.7098 43.0469 24.9534 42.953 25.2029C42.8361 25.4455 42.7092 25.7068 42.5733 25.9869C42.4134 26.2542 42.1966 26.5096 41.9888 26.7986C41.749 27.057 41.4663 27.3065 41.1785 27.5826C40.5321 28.0264 39.7558 28.4929 38.8116 28.6517C38.5588 28.6891 38.3819 28.7602 38.0482 28.768C37.8224 28.768 37.5936 28.7671 37.3628 28.7661C37.144 28.7848 36.8803 28.7365 36.6035 28.6734C36.3367 28.6112 36.038 28.5698 35.7852 28.4663C34.7571 28.0964 33.8109 27.3982 33.0976 26.4672C32.3982 25.5175 32.0495 24.3281 31.9995 23.1348L32.0135 22.9425L32.0245 22.8488L32.0455 22.6614L32.0874 22.2867C32.0914 22.0618 32.1873 21.7364 32.2903 21.4277C32.4551 20.7768 32.7848 20.2945 33.0946 19.7994C33.8099 18.8684 34.7531 18.1663 35.7832 17.7974C36.8203 17.4808 37.8854 17.3714 38.8066 17.61C39.2232 17.6584 39.6918 17.8694 40.1035 18.0381C40.5191 18.2057 40.8398 18.4828 41.1795 18.683C41.4673 18.9592 41.748 19.2107 41.9888 19.4681C42.1966 19.757 42.4134 20.0144 42.5733 20.2807C42.7092 20.5608 42.8351 20.8231 42.952 21.0647C43.0459 21.3143 43.0978 21.5569 43.1618 21.7669C43.3157 22.1841 43.2767 22.5431 43.3187 22.7738C43.3406 23.0086 43.3526 23.1338 43.3526 23.1338ZM43.3526 23.1338C43.3526 23.1338 43.3386 23.0086 43.3127 22.7748C43.2627 22.546 43.3077 22.1851 43.1288 21.7768C43.0519 21.5707 42.9889 21.335 42.882 21.0953C42.7442 20.8705 42.5953 20.6278 42.4364 20.3685C42.2526 20.1278 42.0158 19.904 41.793 19.6535C41.5432 19.4276 41.2315 19.2442 40.9367 19.0371C40.592 18.9079 40.2593 18.7028 39.8906 18.6258C39.515 18.5617 39.1843 18.4493 38.7167 18.4819C37.8994 18.4237 37.0931 18.7225 36.3667 19.0805C35.6503 19.4986 35.0728 20.113 34.6282 20.7965C34.4674 21.1742 34.2525 21.5421 34.1946 21.8813C34.1456 22.05 34.0677 22.1999 34.0627 22.4829L34.0277 22.8587L34.0108 23.046L34.0018 23.1397L33.9978 23.1861L33.9958 23.2098L33.9948 23.2216C33.9968 23.1812 33.9888 23.3281 33.9988 23.1348C34.0337 23.9543 34.2386 24.7463 34.6262 25.4761C35.0708 26.1595 35.6463 26.7779 36.3657 27.194C36.5386 27.3006 36.7134 27.3489 36.8873 27.4396C37.0551 27.5254 37.236 27.6152 37.4807 27.6438C37.7075 27.6891 37.9313 27.7335 38.1522 27.7779C38.2661 27.8025 38.5308 27.7848 38.7127 27.7927C39.53 27.8302 40.2773 27.5461 40.9397 27.2335C41.2355 27.0264 41.5462 26.841 41.795 26.6151C42.0178 26.3646 42.2546 26.1408 42.4384 25.9001C42.5973 25.6408 42.7461 25.3972 42.883 25.1733C42.9889 24.9337 43.0529 24.6989 43.1288 24.4928C43.3067 24.0835 43.2617 23.7216 43.3127 23.4928C43.3396 23.2581 43.3526 23.1338 43.3526 23.1338Z" fill="#121212"/>
<path d="M37.0484 22.0155L39.2995 23.981L38.3223 23.9988L45.0994 19.481L39.3225 25.1951L38.9248 25.5886L38.3443 25.2128L35.8335 23.5816L37.0484 22.0155Z" fill="#121212"/>
<path d="M48.2417 22.4911C48.2417 22.4911 48.8871 22.3353 50.0152 22.1075C50.5797 21.995 51.2651 21.8579 52.0514 21.7268C52.445 21.6587 52.8627 21.5848 53.3033 21.5088C53.7439 21.4358 54.2075 21.5325 54.6921 21.5049C58.5627 21.5049 63.7222 21.5049 68.8827 21.5049C74.0432 21.5049 79.2027 21.5049 83.0734 21.5049C83.5569 21.5364 84.0205 21.4319 84.4621 21.5226C84.9028 21.5996 85.3214 21.6725 85.7141 21.7406C86.5004 21.8727 87.1868 22.0088 87.7503 22.1183C88.8793 22.3422 89.5237 22.4911 89.5237 22.4911C89.5237 22.4911 88.8783 22.64 87.7503 22.8639C87.1868 22.9733 86.5004 23.1094 85.7141 23.2416C85.3214 23.3096 84.9028 23.3836 84.4621 23.4596C84.0215 23.5503 83.5579 23.4448 83.0734 23.4773C79.2027 23.4773 74.0432 23.4773 68.8827 23.4773C63.7222 23.4773 58.5617 23.4773 54.6921 23.4773C54.2085 23.4487 53.7449 23.5454 53.3033 23.4734C52.8627 23.3964 52.444 23.3235 52.0514 23.2554C51.2651 23.1242 50.5797 22.9872 50.0152 22.8747C48.8861 22.6469 48.2417 22.4911 48.2417 22.4911Z" fill="#121212"/>
<path d="M43.3516 41.1336C43.3516 41.1336 43.3396 41.2589 43.3186 41.4936C43.2767 41.7244 43.3167 42.0824 43.1618 42.4995C43.0978 42.7096 43.0459 42.9532 42.952 43.2027C42.8351 43.4453 42.7082 43.7066 42.5723 43.9867C42.4124 44.254 42.1946 44.5094 41.9878 44.7984C41.748 45.0568 41.4643 45.3053 41.1775 45.5824C40.5311 46.0262 39.7538 46.4917 38.8106 46.6515C38.5568 46.689 38.38 46.759 38.0472 46.7678C37.8214 46.7678 37.5936 46.7669 37.3618 46.7669C37.143 46.7856 36.8803 46.7373 36.6025 46.6742C36.3357 46.612 36.037 46.5706 35.7842 46.4671C34.7561 46.0972 33.8099 45.399 33.0966 44.467C32.3972 43.5173 32.0495 42.3279 31.9995 41.1336L32.0145 40.9413L32.0245 40.8476L32.0455 40.6602L32.0874 40.2855C32.0914 40.0606 32.1863 39.7352 32.2903 39.4265C32.4551 38.7766 32.7838 38.2933 33.0936 37.7982C33.8079 36.8673 34.7521 36.1651 35.7832 35.7962C36.8203 35.4807 37.8854 35.3712 38.8066 35.6108C39.2242 35.6582 39.6918 35.8702 40.1035 36.0379C40.5191 36.2055 40.8398 36.4826 41.1805 36.6828C41.4673 36.96 41.749 37.2105 41.9898 37.4679C42.1976 37.7568 42.4144 38.0132 42.5743 38.2805C42.7102 38.5606 42.8371 38.8229 42.954 39.0645C43.0479 39.3141 43.0988 39.5567 43.1628 39.7667C43.3177 40.1839 43.2777 40.5429 43.3196 40.7736C43.3396 41.0084 43.3516 41.1336 43.3516 41.1336ZM43.3516 41.1336C43.3516 41.1336 43.3376 41.0084 43.3117 40.7746C43.2617 40.5458 43.3067 40.1849 43.1278 39.7756C43.0519 39.5705 42.9879 39.3348 42.881 39.0941C42.7432 38.8693 42.5943 38.6267 42.4354 38.3683C42.2526 38.1276 42.0148 37.9038 41.792 37.6533C41.5422 37.4274 41.2305 37.244 40.9357 37.0369C40.591 36.9087 40.2583 36.7036 39.8896 36.6256C39.513 36.5615 39.1833 36.4481 38.7157 36.4807C37.8974 36.4225 37.0911 36.7203 36.3647 37.0783C35.6483 37.4955 35.0708 38.1099 34.6262 38.7933C34.4654 39.172 34.2506 39.5399 34.1926 39.8792C34.1436 40.0478 34.0657 40.1977 34.0607 40.4807L34.0257 40.8555L34.0088 41.0429L33.9998 41.1366L33.9958 41.1839L33.9938 41.2066L33.9928 41.2184C33.9948 41.178 33.9868 41.324 33.9968 41.1316C34.0317 41.9512 34.2356 42.7431 34.6232 43.4739C35.0678 44.1583 35.6433 44.7757 36.3627 45.1919C36.5356 45.2984 36.7104 45.3467 36.8843 45.4374C37.0521 45.5232 37.233 45.612 37.4777 45.6416C37.7045 45.687 37.9283 45.7313 38.1492 45.7757C38.2631 45.7994 38.5278 45.7826 38.7107 45.7895C39.528 45.827 40.2753 45.543 40.9377 45.2303C41.2335 45.0232 41.5442 44.8388 41.793 44.613C42.0158 44.3625 42.2536 44.1386 42.4364 43.898C42.5953 43.6386 42.7441 43.395 42.882 43.1711C42.9879 42.9315 43.0519 42.6968 43.1278 42.4906C43.3057 42.0814 43.2607 41.7194 43.3117 41.4906C43.3386 41.2579 43.3516 41.1336 43.3516 41.1336Z" fill="#121212"/>
<path d="M48.2397 40.4911C48.2397 40.4911 48.8852 40.3353 50.0132 40.1075C50.5777 39.995 51.2631 39.8579 52.0494 39.7268C52.4431 39.6587 52.8607 39.5848 53.3013 39.5088C53.742 39.4358 54.2055 39.5325 54.6901 39.5049C58.5608 39.5049 63.7203 39.5049 68.8808 39.5049C74.0413 39.5049 79.2008 39.5049 83.0714 39.5049C83.555 39.5364 84.0186 39.4319 84.4602 39.5226C84.9008 39.5996 85.3194 39.6725 85.7121 39.7406C86.4984 39.8727 87.1848 40.0088 87.7483 40.1183C88.8773 40.3422 89.5218 40.4911 89.5218 40.4911C89.5218 40.4911 88.8763 40.64 87.7483 40.8639C87.1848 40.9733 86.4984 41.1094 85.7121 41.2416C85.3194 41.3096 84.9008 41.3836 84.4602 41.4595C84.0196 41.5503 83.556 41.4448 83.0714 41.4773C79.2008 41.4773 74.0413 41.4773 68.8808 41.4773C63.7203 41.4773 58.5598 41.4773 54.6901 41.4773C54.2065 41.4487 53.7429 41.5453 53.3013 41.4734C52.8607 41.3964 52.4421 41.3235 52.0494 41.2554C51.2631 41.1242 50.5777 40.9872 50.0132 40.8747C48.8842 40.6469 48.2397 40.4911 48.2397 40.4911Z" fill="#121212"/>
<path d="M37.0465 40.0155L39.2985 41.982L38.3204 41.9998L45.0975 37.481L39.3205 43.1951L38.9219 43.5896L38.3424 43.2128L35.8315 41.5816L37.0465 40.0155Z" fill="#121212"/>
<path d="M43.3523 59.1339C43.3523 59.1339 43.3403 59.2591 43.3193 59.4938C43.2773 59.7246 43.3173 60.0816 43.1624 60.4998C43.0985 60.7098 43.0465 60.9534 42.9526 61.2029C42.8347 61.4455 42.7078 61.7069 42.573 61.987C42.4121 62.2533 42.1963 62.5097 41.9885 62.7986C41.7477 63.056 41.4659 63.3065 41.1782 63.5827C40.5317 64.0265 39.7554 64.4929 38.8112 64.6517C38.5585 64.6892 38.3816 64.7602 38.0479 64.7681C37.8221 64.7681 37.5943 64.7671 37.3625 64.7661C37.1437 64.7849 36.8799 64.7355 36.6032 64.6734C36.3364 64.6103 36.0376 64.5699 35.7849 64.4653C34.7568 64.0955 33.8116 63.3973 33.0972 62.4663C32.7875 61.9732 32.4538 61.4732 32.3059 60.8903C32.208 60.6082 32.1061 60.3252 32.0931 60.0244L32.0441 59.5786L32.0211 59.3558L32.0102 59.2443L32.0052 59.1891L32.0022 59.1615L32.0012 59.1477C32.0022 59.0993 31.9952 59.2364 32.0042 59.0352C32.0841 58.5145 32.0401 58.0993 32.2889 57.4267C32.4538 56.7768 32.7825 56.2936 33.0932 55.7985C33.8086 54.8675 34.7518 54.1653 35.7829 53.7965C36.82 53.4809 37.885 53.3714 38.8062 53.6101C39.2239 53.6584 39.6925 53.8695 40.1041 54.0381C40.5197 54.2058 40.8405 54.4819 41.1802 54.6831C41.4679 54.9592 41.7487 55.2107 41.9895 55.4681C42.1973 55.7571 42.4141 56.0135 42.574 56.2808C42.7098 56.5608 42.8357 56.8222 42.9526 57.0648C43.0465 57.3143 43.0975 57.5569 43.1614 57.767C43.3163 58.1841 43.2763 58.5431 43.3183 58.7739C43.3403 59.0086 43.3523 59.1339 43.3523 59.1339ZM43.3523 59.1339C43.3523 59.1339 43.3383 59.0086 43.3123 58.7749C43.2624 58.5461 43.3073 58.1851 43.1285 57.7758C43.0525 57.5707 42.9886 57.335 42.8827 57.0944C42.7448 56.8695 42.5959 56.6269 42.4371 56.3675C42.2532 56.1269 42.0164 55.903 41.7936 55.6535C41.5439 55.4277 41.2321 55.2442 40.9374 55.0371C40.5927 54.9089 40.26 54.7038 39.8913 54.6259C39.5156 54.5618 39.1849 54.4494 38.7173 54.4819C37.9 54.4237 37.0927 54.7225 36.3664 55.0805C35.65 55.4977 35.0725 56.1121 34.6279 56.7956C34.467 57.1733 34.2522 57.5411 34.1943 57.8804C34.0524 58.1467 34.0484 58.7611 33.9924 59.2335C34.0024 59.0392 33.9954 59.1851 33.9984 59.1447L33.9994 59.1536L34.0014 59.1733L34.0054 59.2118L34.0134 59.2877L34.0284 59.4396L34.0554 59.7443C34.0524 59.9514 34.1243 60.1437 34.1783 60.34C34.2522 60.7463 34.464 61.0964 34.6249 61.4771C35.0695 62.1605 35.645 62.7789 36.3644 63.1951C36.5372 63.3026 36.7121 63.3499 36.8859 63.4416C37.0548 63.5274 37.2346 63.6172 37.4794 63.6458C37.7062 63.6911 37.93 63.7355 38.1508 63.7799C38.2647 63.8046 38.5295 63.7868 38.7123 63.7947C39.5296 63.8322 40.277 63.5481 40.9394 63.2355C41.2351 63.0284 41.5458 62.843 41.7946 62.6172C42.0174 62.3667 42.2542 62.1428 42.4381 61.9022C42.5969 61.6428 42.7458 61.3992 42.8837 61.1753C42.9896 60.9357 43.0525 60.701 43.1295 60.4948C43.3073 60.0856 43.2624 59.7236 43.3133 59.4948C43.3393 59.2591 43.3523 59.1339 43.3523 59.1339Z" fill="#121212"/>
<path d="M48.2417 58.4911C48.2417 58.4911 48.8871 58.3353 50.0152 58.1075C50.5797 57.995 51.2651 57.8579 52.0514 57.7268C52.445 57.6587 52.8627 57.5848 53.3033 57.5088C53.7439 57.4358 54.2075 57.5325 54.6921 57.5049C58.5627 57.5049 63.7222 57.5049 68.8827 57.5049C74.0432 57.5049 79.2027 57.5049 83.0734 57.5049C83.5569 57.5364 84.0205 57.4319 84.4621 57.5226C84.9028 57.5996 85.3214 57.6725 85.7141 57.7406C86.5004 57.8727 87.1868 58.0088 87.7503 58.1183C88.8793 58.3422 89.5237 58.4911 89.5237 58.4911C89.5237 58.4911 88.8783 58.64 87.7503 58.8639C87.1868 58.9733 86.5004 59.1094 85.7141 59.2416C85.3214 59.3096 84.9028 59.3836 84.4621 59.4596C84.0215 59.5503 83.5579 59.4448 83.0734 59.4773C79.2027 59.4773 74.0432 59.4773 68.8827 59.4773C63.7222 59.4773 58.5617 59.4773 54.6921 59.4773C54.2085 59.4487 53.7449 59.5454 53.3033 59.4734C52.8627 59.3964 52.444 59.3235 52.0514 59.2554C51.2651 59.1242 50.5797 58.9872 50.0152 58.8747C48.8861 58.6479 48.2417 58.4911 48.2417 58.4911Z" fill="#121212"/>
<path d="M43.3488 77.1353C43.3488 77.1353 43.3368 77.2606 43.3158 77.4953C43.2738 77.7261 43.3138 78.0831 43.1589 78.5012C43.095 78.7113 43.043 78.9549 42.9491 79.2044C42.8322 79.447 42.7053 79.7093 42.5695 79.9884C42.4086 80.2557 42.1928 80.5111 41.985 80.8001C41.7442 81.0585 41.4624 81.308 41.1747 81.5841C40.5282 82.0279 39.7509 82.4944 38.8077 82.6542C38.555 82.6907 38.3781 82.7617 38.0444 82.7705C37.8186 82.7696 37.5898 82.7686 37.359 82.7686C37.1402 82.7873 36.8764 82.738 36.5997 82.6749C36.3329 82.6128 36.0331 82.5713 35.7814 82.4668C34.7533 82.097 33.8081 81.3977 33.0947 80.4668C32.784 79.9746 32.4513 79.4736 32.3034 78.8908C32.2055 78.6087 32.1036 78.3257 32.0916 78.0249L32.0416 77.5801L32.0196 77.3562L32.0087 77.2448L32.0037 77.1886L32.0017 77.161L32.0007 77.1472C32.0027 77.0979 31.9947 77.2359 32.0047 77.0347C32.0846 76.514 32.0406 76.0988 32.2894 75.4262C32.4543 74.7763 32.783 74.2931 33.0927 73.798C33.8081 72.867 34.7523 72.1648 35.7824 71.796C36.8185 71.4814 37.8845 71.3709 38.8057 71.6106C39.2224 71.6579 39.691 71.8709 40.1026 72.0386C40.5182 72.2072 40.839 72.4824 41.1787 72.6836C41.4654 72.9597 41.7472 73.2102 41.988 73.4696C42.1958 73.7585 42.4126 74.015 42.5725 74.2812C42.7073 74.5613 42.8342 74.8237 42.9511 75.0653C43.045 75.3148 43.096 75.5574 43.1599 75.7684C43.3148 76.1866 43.2748 76.5446 43.3168 76.7754C43.3368 77.0101 43.3488 77.1353 43.3488 77.1353ZM43.3488 77.1353C43.3488 77.1353 43.3348 77.0101 43.3088 76.7764C43.2589 76.5476 43.3038 76.1866 43.125 75.7773C43.049 75.5712 42.9851 75.3365 42.8782 75.0968C42.7403 74.872 42.5914 74.6294 42.4326 74.37C42.2497 74.1294 42.0119 73.9055 41.7891 73.656C41.5404 73.4301 41.2286 73.2467 40.9339 73.0386C40.5892 72.9094 40.2565 72.7053 39.8878 72.6274C39.5111 72.5633 39.1824 72.4498 38.7138 72.4824C37.8965 72.4232 37.0892 72.722 36.3629 73.08C35.6465 73.4982 35.069 74.1116 34.6244 74.7951C34.4635 75.1738 34.2487 75.5416 34.1908 75.8809C34.0489 76.1481 34.0449 76.7606 33.9879 77.233C33.9979 77.0397 33.9909 77.1846 33.9939 77.1442L33.9949 77.1541L33.9969 77.1728L34.0009 77.2113L34.0089 77.2872L34.0239 77.4381L34.0509 77.7438C34.0479 77.9509 34.1188 78.1423 34.1728 78.3395C34.2467 78.7458 34.4585 79.0969 34.6194 79.4766C35.064 80.16 35.6395 80.7784 36.3589 81.1956C36.5317 81.3021 36.7056 81.3494 36.8804 81.4411C37.0483 81.5279 37.2281 81.6167 37.4739 81.6453C37.7007 81.6906 37.9235 81.736 38.1453 81.7804C38.2592 81.8041 38.524 81.7873 38.7058 81.7942C39.5231 81.8317 40.2705 81.5486 40.9329 81.236C41.2286 81.0289 41.5384 80.8435 41.7881 80.6176C42.0109 80.3671 42.2477 80.1433 42.4316 79.9026C42.5904 79.6433 42.7393 79.3997 42.8772 79.1758C42.9841 78.9371 43.047 78.7024 43.124 78.4963C43.3018 78.087 43.2579 77.7261 43.3078 77.4963C43.3358 77.2606 43.3488 77.1353 43.3488 77.1353Z" fill="#121212"/>
<path d="M48.2378 76.4916C48.2378 76.4916 48.8832 76.3358 50.0112 76.108C50.5758 75.9966 51.2612 75.8585 52.0475 75.7273C52.4411 75.6593 52.8588 75.5853 53.2994 75.5084C53.74 75.4364 54.2036 75.5321 54.6882 75.5044C58.5588 75.5044 63.7183 75.5044 68.8788 75.5044C74.0393 75.5044 79.1988 75.5044 83.0694 75.5044C83.553 75.536 84.0166 75.4315 84.4582 75.5222C84.8989 75.5991 85.3175 75.6711 85.7101 75.7411C86.4965 75.8723 87.1829 76.0084 87.7464 76.1189C88.8754 76.3427 89.5198 76.4916 89.5198 76.4916C89.5198 76.4916 88.8744 76.6406 87.7464 76.8644C87.1829 76.9739 86.4965 77.111 85.7101 77.2422C85.3175 77.3112 84.8989 77.3842 84.4582 77.4611C84.0176 77.5518 83.554 77.4463 83.0694 77.4788C79.1988 77.4788 74.0393 77.4788 68.8788 77.4788C63.7183 77.4788 58.5578 77.4788 54.6882 77.4788C54.2046 77.4512 53.741 77.5469 53.2994 77.4749C52.8588 77.398 52.4401 77.325 52.0475 77.256C51.2612 77.1248 50.5758 76.9877 50.0112 76.8753C48.8822 76.6485 48.2378 76.4916 48.2378 76.4916Z" fill="#121212"/>
<path d="M37.0445 76.0145L39.2966 77.982L38.3184 77.9998L45.0955 73.481L39.3186 79.1961L38.9199 79.5896L38.3404 79.2128L35.8296 77.5806L37.0445 76.0145Z" fill="#121212"/>
<path d="M43.3516 95.1346C43.3516 95.1346 43.3396 95.2598 43.3186 95.4945C43.2767 95.7253 43.3167 96.0823 43.1618 96.5005C43.0978 96.7115 43.0459 96.9541 42.952 97.2046C42.8341 97.4462 42.7082 97.7086 42.5723 97.9886C42.4124 98.2559 42.1956 98.5113 41.9878 98.8003C41.748 99.0587 41.4653 99.3082 41.1785 99.5853C40.5321 100.029 39.7548 100.497 38.8116 100.656C38.5578 100.693 38.381 100.764 38.0482 100.772C37.8224 100.772 37.5936 100.771 37.3628 100.771C37.144 100.789 36.8803 100.74 36.6035 100.677C36.3367 100.614 36.037 100.574 35.7852 100.469C34.7571 100.098 33.8119 99.3989 33.0976 98.4689C32.3992 97.5192 32.0495 96.3298 31.9995 95.1355L32.0135 94.9432L32.0245 94.8495L32.0455 94.6622L32.0874 94.2874C32.0914 94.0625 32.1873 93.7371 32.2903 93.4284C32.4551 92.7785 32.7848 92.2952 33.0946 91.8002C33.8099 90.8702 34.7521 90.166 35.7832 89.7972C36.8193 89.4806 37.8854 89.3711 38.8066 89.6108C39.2232 89.6581 39.6918 89.8702 40.1035 90.0388C40.5201 90.2065 40.8398 90.4836 41.1795 90.6838C41.4673 90.9599 41.748 91.2114 41.9888 91.4698C42.1966 91.7587 42.4124 92.0162 42.5733 92.2824C42.7082 92.5615 42.8351 92.8248 42.952 93.0665C43.0459 93.316 43.0968 93.5586 43.1618 93.7696C43.3157 94.1868 43.2767 94.5458 43.3186 94.7766C43.3396 95.0093 43.3516 95.1346 43.3516 95.1346ZM43.3516 95.1346C43.3516 95.1346 43.3376 95.0093 43.3117 94.7756C43.2617 94.5468 43.3067 94.1858 43.1278 93.7765C43.0509 93.5704 42.9879 93.3357 42.881 93.0951C42.7432 92.8702 42.5943 92.6276 42.4354 92.3692C42.2516 92.1286 42.0148 91.9047 41.792 91.6542C41.5422 91.4284 41.2305 91.2449 40.9357 91.0368C40.591 90.9076 40.2583 90.7025 39.8896 90.6256C39.514 90.5605 39.1833 90.4481 38.7157 90.4806C37.8984 90.4224 37.0911 90.7213 36.3657 91.0792C35.6493 91.4974 35.0718 92.1128 34.6272 92.7962C34.4664 93.1749 34.2515 93.5428 34.1936 93.8821C34.1456 94.0517 34.0667 94.1996 34.0617 94.4836L34.0267 94.8584L34.0098 95.0458L34.0008 95.1405L33.9968 95.1878L33.9948 95.2105L33.9938 95.2223C33.9958 95.1819 33.9878 95.3288 33.9978 95.1355C34.0327 95.9541 34.2376 96.747 34.6252 97.4768C35.0708 98.1612 35.6463 98.7796 36.3657 99.1958C36.5386 99.3033 36.7134 99.3506 36.8873 99.4423C37.0551 99.5281 37.2359 99.6179 37.4807 99.6465C37.7075 99.6918 37.9313 99.7372 38.1522 99.7816C38.2661 99.8053 38.5308 99.7885 38.7137 99.7954C39.5309 99.8329 40.2783 99.5488 40.9407 99.2362C41.2365 99.0281 41.5472 98.8437 41.796 98.6169C42.0188 98.3664 42.2556 98.1435 42.4394 97.9019C42.5983 97.6415 42.7471 97.3989 42.885 97.175C42.9909 96.9354 43.0539 96.7007 43.1308 96.4945C43.3087 96.0853 43.2637 95.7243 43.3147 95.4945C43.3386 95.2598 43.3516 95.1346 43.3516 95.1346Z" fill="#121212"/>
<path d="M48.2397 94.4916C48.2397 94.4916 48.8852 94.3358 50.0132 94.108C50.5777 93.9966 51.2631 93.8585 52.0494 93.7273C52.4431 93.6593 52.8607 93.5853 53.3013 93.5084C53.742 93.4364 54.2055 93.5321 54.6901 93.5044C58.5608 93.5044 63.7203 93.5044 68.8808 93.5044C74.0413 93.5044 79.2008 93.5044 83.0714 93.5044C83.555 93.536 84.0186 93.4315 84.4602 93.5222C84.9008 93.5991 85.3194 93.6711 85.7121 93.7411C86.4984 93.8723 87.1848 94.0084 87.7483 94.1189C88.8773 94.3427 89.5218 94.4916 89.5218 94.4916C89.5218 94.4916 88.8763 94.6406 87.7483 94.8644C87.1848 94.9739 86.4984 95.111 85.7121 95.2422C85.3194 95.3112 84.9008 95.3842 84.4602 95.4611C84.0196 95.5518 83.556 95.4463 83.0714 95.4788C79.2008 95.4788 74.0413 95.4788 68.8808 95.4788C63.7203 95.4788 58.5598 95.4788 54.6901 95.4788C54.2065 95.4512 53.7429 95.5469 53.3013 95.4749C52.8607 95.398 52.4421 95.325 52.0494 95.256C51.2631 95.1248 50.5777 94.9877 50.0132 94.8753C48.8842 94.6475 48.2397 94.4916 48.2397 94.4916Z" fill="#121212"/>
</g>
</svg>
