<svg width="120" height="120" viewBox="0 0 120 120" fill="none" xmlns="http://www.w3.org/2000/svg">
<mask id="mask0_1976_1295" style="mask-type:alpha" maskUnits="userSpaceOnUse" x="0" y="0" width="120" height="120">
<rect width="120" height="120" fill="#C4C4C4"/>
</mask>
<g mask="url(#mask0_1976_1295)">
<path d="M12 72.2694C15.2063 72.1272 18.4135 71.9692 21.6198 71.8613L31.2396 71.5051L36.0495 71.3256C37.6532 71.2481 39.2558 71.2559 40.8604 71.2794L50.4792 71.2883H88.9585H90.0052L89.9572 72.3008C89.9092 73.3379 89.7983 74.2906 89.6663 75.2747C89.5363 76.2519 89.3614 77.2183 89.1724 78.1838C88.9724 79.1463 88.7575 80.1069 88.5006 81.0566C88.2496 82.0073 87.9737 82.9532 87.6568 83.8862C87.3518 84.8223 87.0089 85.7475 86.636 86.6619C86.2711 87.5793 85.8602 88.479 85.4313 89.3709C84.9973 90.2608 84.5265 91.133 84.0306 91.9935C83.5167 92.8422 83.0028 93.6938 82.4199 94.5033C80.1545 97.7774 77.2851 100.681 73.9509 102.944C73.1311 103.529 72.2473 104.022 71.3785 104.53C70.4817 104.99 69.5979 105.478 68.6591 105.853C67.7433 106.28 66.7905 106.61 65.8387 106.942C64.8909 107.287 63.9062 107.509 62.9414 107.798L63.6972 106.846V111.019V112H62.6975H38.8769H37.8771V111.019V106.846L38.6819 107.808C37.6182 107.556 36.6734 107.274 35.7206 106.906C34.7608 106.574 33.853 106.139 32.9302 105.733C32.0484 105.253 31.1177 104.853 30.2778 104.301C29.422 103.779 28.5512 103.274 27.7574 102.662C26.9416 102.081 26.1228 101.501 25.3849 100.825C24.6301 100.169 23.8423 99.5474 23.1725 98.8056C22.4886 98.0815 21.7208 97.4271 21.1109 96.6382C20.4971 95.8523 19.9082 95.0507 19.3173 94.254C18.7855 93.4161 18.2916 92.5576 17.7797 91.7139C17.2368 90.8858 16.8419 89.9821 16.426 89.0912C16.0301 88.1925 15.5472 87.333 15.2273 86.4078L14.2625 83.6419C13.9056 82.7334 13.6896 81.7836 13.4697 80.8378L12.7958 78.0082C12.6039 77.0594 12.5239 76.091 12.3819 75.1354L12 72.2694ZM12 72.2694L12.6369 75.0902C12.8638 76.0253 13.0288 76.9721 13.3037 77.8914L14.1905 80.6298C14.4764 81.5433 14.7584 82.4557 15.1773 83.3201L16.323 85.9447C16.7009 86.8189 17.2358 87.6185 17.6817 88.4564C18.1486 89.2855 18.5915 90.1244 19.1744 90.8799C19.7283 91.6511 20.2601 92.435 20.823 93.1924C21.4449 93.9077 22.0697 94.6171 22.6706 95.3441C23.2484 96.0898 23.9563 96.7236 24.5901 97.4232C25.221 98.1286 25.9688 98.7114 26.6816 99.3325C27.3785 99.9732 28.1533 100.52 28.9241 101.069C29.674 101.649 30.4958 102.123 31.3046 102.617C32.0954 103.14 32.9742 103.512 33.804 103.967C34.6708 104.347 35.5277 104.761 36.4194 105.067C37.2892 105.41 38.23 105.681 39.0698 105.883L39.8747 106.076V106.844V111.017L38.8749 110.036H62.6954L61.6957 111.017V106.844V106.121L62.4515 105.893C63.3623 105.619 64.2981 105.41 65.1899 105.085C66.0867 104.771 66.9865 104.46 67.8453 104.059C68.7291 103.707 69.5559 103.246 70.3987 102.817C71.2125 102.339 72.0433 101.879 72.8091 101.329L73.9669 100.515L75.0706 99.6308C75.4475 99.3472 75.7815 99.0136 76.1334 98.7006C76.4823 98.3837 76.8372 98.0737 77.1562 97.7273L78.1359 96.7108L79.0607 95.6434C79.6496 94.9095 80.2454 94.1785 80.7683 93.3936C81.3192 92.6302 81.8061 91.8218 82.294 91.0163C82.7659 90.1999 83.2138 89.3699 83.6267 88.5222C84.0346 87.6715 84.4285 86.814 84.7764 85.9359C85.1333 85.0617 85.4623 84.1757 85.7542 83.2779C86.0581 82.3831 86.3231 81.4756 86.564 80.5621C86.812 79.6496 87.0179 78.7274 87.2099 77.8021C87.3918 76.8759 87.5598 75.9448 87.6838 75.0117C87.8087 74.0875 87.9167 73.124 87.9577 72.2371L88.9575 73.2486H50.4782L40.8594 73.2574C39.2558 73.281 37.6522 73.2888 36.0485 73.2113L31.2386 73.0318L21.6188 72.6756C18.4145 72.5697 15.2073 72.4117 12 72.2694Z" fill="#121212"/>
<path d="M21.2215 81.4932C21.2275 81.5118 21.2555 81.7257 21.3585 82.1711C21.4625 82.6107 21.6214 83.2475 21.8724 83.998C22.1113 84.7535 22.4472 85.6189 22.8512 86.5324C23.2711 87.438 23.742 88.4024 24.3138 89.3119C24.5788 89.7809 24.8897 90.2195 25.1866 90.6591C25.4726 91.1084 25.8145 91.5048 26.1194 91.912C26.4184 92.3251 26.7643 92.6743 27.0672 93.0315C27.3681 93.3906 27.6821 93.7026 27.977 93.9871C28.5469 94.5778 29.0717 95.0193 29.4417 95.3264C29.8086 95.6384 30.0185 95.817 30.0185 95.817C30.0185 95.817 29.7896 95.6629 29.3897 95.3931C28.9848 95.1272 28.4089 94.7436 27.7671 94.2138C27.4371 93.9596 27.0822 93.68 26.7373 93.3513C26.3893 93.0256 25.9945 92.7057 25.6425 92.3211C25.2866 91.9414 24.8867 91.5715 24.5418 91.1457C24.1859 90.7287 23.813 90.3108 23.483 89.8594C22.7852 88.9842 22.1813 88.0404 21.6334 87.1426C21.1016 86.236 20.6427 85.3638 20.2957 84.5907C19.9388 83.8244 19.6889 83.1592 19.5179 82.6872C19.351 82.2182 19.266 81.9003 19.27 81.919L21.2215 81.4932Z" fill="#121212"/>
<path d="M32.9731 69.0894C32.9731 69.0894 32.8152 68.5154 32.5842 67.5107C32.4712 67.0074 32.3313 66.3971 32.1983 65.6976C32.1293 65.3473 32.0543 64.9754 31.9764 64.582C31.9034 64.1895 32.0004 63.7765 31.9724 63.3457C31.9964 62.7983 31.9824 62.4863 32.0864 61.8809C32.1613 61.3216 32.3013 60.8212 32.4872 60.2914C32.8581 59.2436 33.46 58.2084 34.2808 57.3068C35.9015 55.4887 38.4759 54.278 41.1153 54.2966L42.0491 54.3457C42.389 54.3957 42.7419 54.433 43.0668 54.5046C43.7057 54.6488 44.3305 54.8421 44.9164 55.111C46.0941 55.6388 47.1319 56.4051 47.9497 57.3068C48.7705 58.2075 49.3724 59.2436 49.7433 60.2914C50.1212 61.3344 50.2542 62.4097 50.2592 63.3457C50.2272 63.7755 50.3332 64.1886 50.2412 64.582C50.1632 64.9745 50.0902 65.3463 50.0192 65.6976C49.8863 66.3971 49.7483 67.0074 49.6363 67.5107C49.4094 68.5154 49.2584 69.0894 49.2584 69.0894C49.2584 69.0894 49.1074 68.5154 48.8805 67.5107C48.7695 67.0074 48.6306 66.3971 48.4976 65.6976C48.4276 65.3473 48.3536 64.9754 48.2757 64.582C48.1837 64.1895 48.2906 63.7765 48.2577 63.3457C48.2497 62.5608 48.1487 61.7622 47.8547 60.939C47.5668 60.1236 47.0979 59.3171 46.4561 58.6127C45.8162 57.9082 45.0054 57.3077 44.0866 56.8966C43.6287 56.6857 43.1408 56.5375 42.6439 56.4228C42.4 56.3688 42.17 56.3492 41.9331 56.305L41.1163 56.2589C39.0467 56.2471 37.0452 57.192 35.7745 58.6127C35.1317 59.3171 34.6637 60.1246 34.3758 60.939C34.2318 61.3383 34.1149 61.773 34.0699 62.133C33.9919 62.4421 33.9869 63.0328 33.9719 63.3448C33.9439 63.7745 34.0409 64.1876 33.9679 64.581C33.8899 64.9735 33.8159 65.3453 33.7459 65.6966C33.613 66.3961 33.474 67.0064 33.36 67.5097C33.1311 68.5154 32.9731 69.0894 32.9731 69.0894Z" fill="#121212"/>
<path d="M45.3132 55.9146L44.3132 69.8851L43.3132 55.9146H45.3132Z" fill="#121212"/>
<path d="M39.6855 55.9146L38.6855 69.8851L37.6855 55.9146H39.6855Z" fill="#121212"/>
<path d="M47.6755 55.7624C47.6755 55.7624 47.9594 55.5269 48.4703 55.158C48.5982 55.0667 48.7402 54.9666 48.8952 54.8577C49.0722 54.7724 49.2741 54.6939 49.496 54.6026C49.727 54.5143 49.9729 54.4192 50.2319 54.3201C50.2979 54.2975 50.3679 54.2789 50.4368 54.2739C50.6128 54.2671 50.5878 54.2857 50.6738 54.2946C50.7938 54.3142 50.9177 54.3181 51.0437 54.324C51.2786 54.3259 51.5886 54.3662 51.9135 54.4172C52.2414 54.4555 52.5484 54.531 52.8603 54.6134C53.4932 54.7675 54.131 55.0275 54.7649 55.3405C55.3847 55.676 56.0046 56.0714 56.5554 56.5659C57.1263 57.0369 57.6052 57.6216 58.0501 58.2211C58.457 58.8471 58.8339 59.4996 59.0709 60.1962C59.3408 60.881 59.4758 61.5953 59.5707 62.285C59.5947 62.6284 59.6137 62.9846 59.6227 63.3005C59.6227 63.5998 59.6227 63.8922 59.6227 64.1767C59.6227 64.7458 59.6227 65.2834 59.6227 65.7799C59.5897 66.0281 59.6977 66.2665 59.6047 66.4932C59.5267 66.7189 59.4538 66.9337 59.3828 67.1358C59.2498 67.5391 59.1119 67.8913 58.9999 68.1798C58.7729 68.7596 58.622 69.0903 58.622 69.0903C58.622 69.0903 58.471 68.7596 58.2441 68.1798C58.1331 67.8903 57.9941 67.5391 57.8611 67.1358C57.7912 66.9337 57.7172 66.7189 57.6392 66.4932C57.5462 66.2675 57.6552 66.0281 57.6212 65.7799C57.6212 65.2834 57.6212 64.7458 57.6212 64.1767C57.6212 63.8922 57.6212 63.5998 57.6212 63.3005C57.6072 63.0356 57.5942 62.7658 57.5802 62.4911C57.5032 61.9534 57.4022 61.3981 57.1893 60.8653C57.0083 60.3218 56.7084 59.8165 56.3955 59.3259C56.0436 58.8608 55.6757 58.3997 55.2258 58.0337C54.7959 57.6452 54.3099 57.3391 53.8271 57.0751C53.3312 56.8328 52.8343 56.6267 52.3404 56.508C52.0925 56.4433 51.8535 56.3824 51.6386 56.3609C51.4236 56.3255 51.2127 56.2873 50.9407 56.2833C50.8148 56.2765 50.6908 56.2686 50.5698 56.2765C50.5348 56.2833 50.3898 56.2814 50.4478 56.2892C50.3998 56.2941 50.3519 56.2863 50.3049 56.2725C50.1039 56.2127 49.914 56.1558 49.736 56.1028C49.5411 56.0469 49.3581 55.9949 49.1891 55.9468C49.0012 55.9272 48.8272 55.9095 48.6692 55.8928C48.0424 55.8261 47.6755 55.7624 47.6755 55.7624Z" fill="#121212"/>
<path d="M54.6763 55.9146L53.6763 69.8851L52.6763 55.9146H54.6763Z" fill="#121212"/>
<path d="M41.1164 55.2776V50.2109" stroke="#121212" stroke-width="2" stroke-miterlimit="10"/>
<path d="M51.0907 55.2776V50.2109" stroke="#121212" stroke-width="2" stroke-miterlimit="10"/>
<path d="M32.973 42.8604C33.269 45.3113 33.5399 47.7612 33.7559 50.2121L32.973 49.4429L35.2415 49.2398C35.9983 49.1593 36.7542 49.2437 37.51 49.23H42.047H51.1189H69.2637H87.4086H91.9446L94.2131 49.2241C94.9699 49.178 95.7257 49.2368 96.4815 49.3144C99.5058 49.5812 102.531 49.8609 105.554 50.2121C102.531 50.5634 99.5058 50.843 96.4815 51.1099C95.7257 51.1874 94.9699 51.2462 94.2131 51.2001L91.9446 51.1942H87.4086H69.2637H51.1189H42.047H37.51C36.7542 51.1805 35.9983 51.2649 35.2415 51.1844L32.973 50.9813L32.1282 50.9058L32.1902 50.2121C32.4062 47.7612 32.6771 45.3103 32.973 42.8604Z" fill="#121212"/>
<path d="M104.553 50.2109L104.646 42.8602L105.552 43.7491L32.9698 42.8602L105.552 41.9712L106.446 41.9595L106.458 42.8602L106.552 50.2109H104.553Z" fill="#121212"/>
<path d="M32.9706 43.7531C32.3507 42.2902 31.8478 40.7724 31.4399 39.228C31.245 38.4539 31.062 37.6749 30.9131 36.887C30.7631 36.1001 30.6251 35.3064 30.5342 34.5067C30.4312 33.7081 30.3752 32.9026 30.3322 32.0941C30.2972 31.6899 30.3162 31.2837 30.3072 30.8784C30.3042 30.4713 30.2922 30.0641 30.3242 29.6579C30.3552 28.8426 30.4052 28.0243 30.5331 27.2099C30.5781 26.8008 30.6561 26.3966 30.7711 25.9992L31.089 24.8032L31.07 24.8787C31.235 24.2478 31.3919 23.7131 31.6009 23.1588C31.7919 22.6064 32.0308 22.0756 32.2618 21.5428C32.5127 21.0199 32.7706 20.4989 33.0506 19.9896C33.3545 19.4951 33.6204 18.9761 33.9574 18.5012C34.2983 18.0293 34.6002 17.5299 34.9741 17.0825C35.348 16.6351 35.701 16.17 36.0949 15.7393L37.3196 14.4844C37.7525 14.091 38.2074 13.7211 38.6513 13.3394C39.0822 12.9411 39.5891 12.6399 40.065 12.2974C40.5459 11.9638 41.0207 11.6165 41.5466 11.3546L43.0893 10.5078C43.6222 10.2665 44.167 10.0486 44.7059 9.81905C45.2428 9.58358 45.7847 9.36282 46.3515 9.21466L48.0311 8.70937C48.588 8.5259 49.1709 8.46605 49.7398 8.34046L51.4564 8.00981L51.5104 8H51.6013H101.786H101.853L101.889 8.00491C102.911 8.156 103.692 8.47291 104.492 8.94288C105.271 9.40893 105.958 10.0359 106.495 10.7629C107.04 11.4929 107.378 12.3229 107.639 13.153C107.847 14.0007 107.974 14.817 107.978 15.6922V24.914C107.98 25.6833 108.011 26.4515 107.995 27.2197C107.976 27.988 107.914 28.7562 107.875 29.5254L107.61 34.1368C107.431 37.2108 107.267 40.2847 107.044 43.3587L107.039 43.4264L106.979 43.4224L106.01 43.3587L106.979 43.2949L106.915 43.3587C106.691 40.2847 106.527 37.2108 106.349 34.1368L106.083 29.5254C106.044 28.7572 105.981 27.989 105.963 27.2197C105.946 26.4515 105.978 25.6833 105.98 24.914V15.6922C105.98 15.029 105.869 14.3176 105.711 13.672C105.506 13.0392 105.26 12.422 104.871 11.9069C104.487 11.3918 104.009 10.9523 103.452 10.6177C102.92 10.2851 102.21 10.0349 101.683 9.95739L101.786 9.9623H51.6013L51.7453 9.95249L50.1417 10.2635C49.6108 10.3822 49.0609 10.4342 48.546 10.6069L46.9884 11.0769C46.4615 11.2123 45.9626 11.4173 45.4677 11.6352L43.9791 12.267L42.5674 13.0441C42.0835 13.2825 41.6526 13.6014 41.2127 13.9065C40.7798 14.2195 40.3129 14.4903 39.922 14.8573C39.5181 15.2065 39.1022 15.5421 38.7063 15.9002L37.5895 17.0452C37.2306 17.4377 36.9097 17.8645 36.5668 18.2717C36.2239 18.6798 35.9509 19.139 35.638 19.5697C35.328 20.0034 35.0871 20.4792 34.8072 20.9316C34.5512 21.3966 34.3173 21.8735 34.0863 22.3513C33.8764 22.8369 33.6574 23.3207 33.4855 23.8181C33.3045 24.3028 33.1385 24.8316 33.0426 25.2771L33.0236 25.3526C32.8636 26.0944 32.6577 26.8194 32.5157 27.5671L32.2668 28.6826L32.0808 29.8159C32.0098 30.1936 31.9788 30.5763 31.9388 30.9599C31.9068 31.3435 31.8449 31.7262 31.8359 32.1118C31.7919 32.8839 31.7599 33.658 31.7739 34.4361C31.7689 35.2132 31.8038 35.9942 31.8548 36.7732C31.9048 37.5542 31.9878 38.3332 32.0838 39.1132C32.2887 40.6635 32.5587 42.2225 32.9706 43.7531Z" fill="#121212"/>
<path d="M35.028 31.263C35.028 31.263 35.0409 31.1649 35.0649 30.9815C35.0899 30.7803 35.1379 30.5056 35.2059 30.171C35.3459 29.496 35.5708 28.5443 35.9647 27.4474C36.1447 26.894 36.3936 26.3131 36.6546 25.7019C36.9255 25.0955 37.2454 24.4686 37.5944 23.8348C37.9743 23.2157 38.3302 22.5593 38.7981 21.9549C39.024 21.6478 39.238 21.3319 39.4749 21.0297L40.2318 20.1545C40.7106 19.5501 41.3115 19.0546 41.8474 18.5238C42.3883 17.995 43.0191 17.5829 43.573 17.1286C44.1399 16.6881 44.7627 16.3643 45.3106 16.0042C45.8525 15.6324 46.4404 15.4057 46.9482 15.1457C47.4691 14.9102 47.92 14.6384 48.3689 14.505C48.8058 14.348 49.1857 14.2116 49.4997 14.0988C50.1245 13.8741 50.4814 13.7466 50.4814 13.7466C50.4814 13.7466 50.1355 13.9036 49.5316 14.1763C49.2307 14.3127 48.8648 14.4785 48.4449 14.6689C48.015 14.8347 47.5901 15.1418 47.0972 15.4145C46.6183 15.7118 46.0644 15.9758 45.5646 16.3849C45.0587 16.7803 44.4818 17.1404 43.9689 17.6123C43.468 18.098 42.8971 18.5385 42.4202 19.0889C41.9484 19.6423 41.4165 20.1545 41.0106 20.7687L40.3637 21.6537C40.1648 21.9578 39.9858 22.2747 39.7989 22.5799C39.406 23.1813 39.123 23.8299 38.8161 24.4362C38.5402 25.0563 38.2912 25.6646 38.0862 26.2494C37.8913 26.839 37.7043 27.3944 37.5824 27.9203C37.3034 28.9623 37.1724 29.8482 37.0985 30.4595C37.0635 30.7695 37.0415 31.003 37.0355 31.1502C37.0275 31.3141 37.0225 31.4024 37.0225 31.4024L35.028 31.263Z" fill="#121212"/>
<path d="M89.6135 30.287C89.6135 30.287 88.7577 30.6912 87.2431 31.3486C86.4562 31.6056 85.4845 31.9559 84.3427 32.2699C83.7709 32.4023 83.162 32.5426 82.5201 32.6908C81.8743 32.8527 81.1774 32.7958 80.4596 32.8389C79.7328 32.8595 79.0089 32.9037 78.1981 32.9066C77.4343 32.8821 76.6755 32.8958 75.8287 32.8252C74.1531 32.7438 72.4405 32.5181 70.6589 32.1816C68.8843 31.8401 67.0637 31.3495 65.2801 30.6009C63.5095 29.8523 61.7149 28.8535 60.3462 27.163C59.6984 26.2672 59.2125 25.234 59.2785 23.9095C59.3105 23.675 59.3194 23.4709 59.3724 23.2119C59.4614 22.9087 59.5634 22.6036 59.6764 22.3082C59.9433 21.8 60.2092 21.3163 60.5721 20.9337C61.9598 19.3187 63.7204 18.4278 65.4051 17.7125C67.1047 17.0051 68.8073 16.5509 70.4329 16.2261C72.0575 15.8856 73.6122 15.7022 75.0468 15.5864C75.4058 15.5619 75.7577 15.5442 76.1016 15.5089C76.4445 15.4559 76.7815 15.4588 77.1104 15.4942C77.4383 15.5256 77.7572 15.556 78.0692 15.5854C78.2331 15.6021 78.3951 15.6188 78.5541 15.6355C78.7 15.658 78.845 15.6806 78.988 15.7031C80.1257 15.8876 81.1105 16.0191 81.9323 16.2143C83.5729 16.6195 84.4727 16.8697 84.4727 16.8697C84.4727 16.8697 83.5349 16.9011 81.8923 16.9551C81.0845 16.9777 80.0737 17.118 78.93 17.1945C78.786 17.2063 78.641 17.218 78.4931 17.2308C78.3581 17.2494 78.2221 17.2691 78.0822 17.2887C77.7862 17.3309 77.4823 17.375 77.1704 17.4202C76.5475 17.5094 75.8897 17.4712 75.2058 17.5408C73.8411 17.6507 72.3645 17.8254 70.8388 18.1452C69.3102 18.4504 67.7175 18.8781 66.1809 19.5179C64.6602 20.1497 63.1106 20.9945 62.1158 22.1778C61.8409 22.4535 61.6809 22.7949 61.5119 23.0824C61.4709 23.2168 61.418 23.3424 61.354 23.4709C61.31 23.6564 61.295 23.9134 61.264 24.1322L61.254 24.2176L61.249 24.2598L61.246 24.2804C61.243 24.3127 61.258 24.0812 61.253 24.1862L61.273 24.3088L61.303 24.5541C61.298 24.7189 61.37 24.8798 61.431 25.0408C61.5109 25.3694 61.7499 25.6765 61.9499 25.9876C62.9206 27.1973 64.4643 28.1343 66.0679 28.7946C67.6785 29.4716 69.3802 29.9347 71.0508 30.2546C72.7174 30.5705 74.38 30.7883 75.9226 30.8629C76.6825 30.9296 77.4913 30.9188 78.2421 30.9424C78.947 30.9384 79.6848 30.8953 80.3626 30.8756C80.7056 30.8639 81.0415 30.8541 81.3684 30.8286C81.6934 30.7805 82.0103 30.7432 82.3232 30.7432C82.9551 30.751 83.5529 30.7579 84.1168 30.7638C85.2405 30.7049 86.2203 30.6549 87.0271 30.6127C88.6737 30.4067 89.6135 30.287 89.6135 30.287Z" fill="#121212"/>
</g>
</svg>
