<svg width="24" height="24" viewBox="0 0 24 24" fill="none" xmlns="http://www.w3.org/2000/svg">
<g id="Tw">
<path id="XMLID_22_" d="M8.28805 20C15.8375 20 19.9667 13.8431 19.9667 8.50762C19.9667 8.33471 19.9667 8.1618 19.9542 7.98271C20.7575 7.4084 21.4478 6.7044 22 5.88925C21.2532 6.21655 20.4562 6.43269 19.6404 6.52532C20.5002 6.01894 21.1403 5.22849 21.4478 4.28983C20.6445 4.75916 19.7596 5.09263 18.8434 5.27172C17.2871 3.64759 14.689 3.56731 13.0386 5.09881C11.9718 6.08687 11.5199 7.55661 11.8525 8.95842C8.55162 8.79786 5.47662 7.26019 3.39316 4.74063C2.30122 6.58707 2.85974 8.94607 4.66081 10.1317C4.00816 10.1132 3.36806 9.9403 2.79699 9.62536C2.79699 9.64389 2.79699 9.65624 2.79699 9.67476C2.79699 11.5953 4.1776 13.2503 6.09162 13.6332C5.48917 13.7937 4.85535 13.8184 4.24035 13.7011C4.78004 15.3438 6.31754 16.4739 8.07468 16.5047C6.61876 17.6287 4.82397 18.24 2.97898 18.24C2.65265 18.24 2.32633 18.2215 2 18.1844C3.8701 19.3701 6.05397 20 8.28805 20Z" fill="#212B36"/>
</g>
</svg>
