<svg width="20" height="16" viewBox="0 0 20 16" fill="none" xmlns="http://www.w3.org/2000/svg">
<path d="M6.18916 16C13.6159 16 17.6773 9.84496 17.6773 4.50752C17.6773 4.33272 17.6738 4.15872 17.6659 3.98544C18.4562 3.41341 19.1382 2.70514 19.68 1.89384C18.9565 2.2156 18.178 2.43216 17.3613 2.5298C18.1949 2.02976 18.8349 1.23868 19.1368 0.29572C18.3442 0.766078 17.4771 1.09766 16.5729 1.27616C15.8361 0.49104 14.7872 0 13.6256 0C11.3959 0 9.58771 1.80888 9.58771 4.0386C9.58771 4.3556 9.62319 4.66384 9.69247 4.9596C6.33668 4.79068 3.361 3.1834 1.36952 0.73944C1.01083 1.35586 0.822173 2.05642 0.8228 2.7696C0.8228 4.17096 1.5356 5.40804 2.6196 6.1318C1.9784 6.11221 1.35128 5.93895 0.79096 5.6266C0.79036 5.64356 0.79036 5.66008 0.79036 5.6782C0.79036 7.63432 2.18212 9.26756 4.02964 9.63764C3.68265 9.73217 3.32459 9.77997 2.96496 9.77976C2.70524 9.77976 2.45212 9.7542 2.20612 9.70696C2.72016 11.3118 4.21072 12.4797 5.97796 12.5124C4.596 13.5959 2.85516 14.2413 0.963119 14.2413C0.641259 14.2416 0.319663 14.2229 0 14.1854C1.78696 15.3312 3.9088 15.9997 6.18936 15.9997" fill="#4AA1EA"/>
</svg>
