<svg width="48" height="34" viewBox="0 0 48 34" fill="none" xmlns="http://www.w3.org/2000/svg">
<path opacity="0.64" fill-rule="evenodd" clip-rule="evenodd" d="M46.9972 5.24673C46.4453 3.18141 44.819 1.55513 42.7536 1.00313C39.01 0 24 0 24 0C24 0 8.98999 0 5.24635 1.00313C3.18141 1.55513 1.55475 3.18141 1.00285 5.24673C0 8.98999 0 16.8003 0 16.8003C0 16.8003 0 24.6105 1.00285 28.3533C1.55475 30.4186 3.18141 32.0454 5.24635 32.5973C8.98999 33.6001 24 33.6001 24 33.6001C24 33.6001 39.01 33.6001 42.7536 32.5973C44.819 32.0454 46.4453 30.4186 46.9972 28.3533C48 24.6105 48 16.8003 48 16.8003C48 16.8003 48 8.98999 46.9972 5.24673Z" fill="black"/>
<path fill-rule="evenodd" clip-rule="evenodd" d="M19.1998 24.0004V9.6001L31.6703 16.8003L19.1998 24.0004Z" fill="white"/>
</svg>
