<svg width="32" height="32" viewBox="0 0 32 32" fill="none" xmlns="http://www.w3.org/2000/svg">
<path d="M26.9873 16.0439C26.8421 21.353 24.4609 28.8224 16.7576 28.6118C13.0154 28.5095 10.4583 28.0475 10.4583 28.0475C10.9759 23.4452 11.1875 20.4896 11.3352 15.0934C11.3598 14.1896 11.3737 12.9416 11.3779 11.5584C12.1217 11.3137 12.8528 11.0049 13.5998 10.6421C14.7666 10.0753 15.4815 9.53831 15.5815 8.82148C15.7184 7.84057 14.3249 7.30689 14.3249 7.30689C14.3249 7.30689 14.2888 8.35414 11.3772 9.3554C11.3696 7.26468 11.344 5.11492 11.3036 3.50812C12.4413 3.32119 14.9252 3.25863 16.3611 3.29782C25.4127 3.54531 27.1348 10.6476 26.9873 16.0439ZM5.40528 8.87424C4.42613 7.8177 4.36055 6.35613 4.9103 5.40236C5.42538 4.50813 7.09097 4.04481 8.40027 3.8129C8.50806 5.8403 8.55379 7.94609 8.56158 9.94334C7.23042 9.97927 6.08644 9.60917 5.40528 8.87424ZM16.7277 1.04329C14.7679 0.989767 12.7797 0.962379 10.4737 1.10484C9.80229 1.13424 6.53946 1.29806 5.1108 1.7448C2.91431 2.43174 1.44721 3.72747 1.10249 5.75311C0.691428 8.1677 1.54998 9.77525 3.08516 10.8391C4.70251 11.9597 6.63971 12.2371 8.50882 12.1243C8.5249 12.1233 8.54022 12.121 8.5563 12.12C8.546 13.2695 8.5249 14.3514 8.49826 15.3208C8.34123 21.0653 7.89977 26.0613 7.13217 30.2648C11.04 30.6764 14.386 30.942 16.2574 30.9932C25.8748 31.256 29.91 23.8321 30.1374 15.5203C30.311 9.1667 27.4336 1.336 16.7277 1.04329" fill="#9F1C69"/>
<path d="M13.2997 29.7628C13.2969 29.755 13.2964 29.7527 13.2944 29.7467C13.2914 29.7409 13.2899 29.7384 13.2856 29.7304C13.2577 29.6751 13.2323 29.6188 13.2034 29.5643C13.1391 29.4424 13.068 29.3244 12.9906 29.2105C12.8843 29.0532 12.7924 28.8929 12.6951 28.7301C12.676 28.6982 12.6557 28.6673 12.6358 28.6362C12.4487 28.5796 10.4999 28.2314 10.4155 28.0585C7.54335 27.9583 6.06219 27.7221 4.88178 26.3485C3.63679 27.0138 3.29358 28.7093 4.30213 29.5678C5.40867 30.5095 11.3637 30.6568 13.2353 30.708C13.3436 30.7108 13.4472 30.7078 13.5537 30.7088C13.5326 30.6012 13.5115 30.4962 13.4886 30.3982C13.4379 30.1816 13.373 29.9726 13.2997 29.7628Z" fill="#9F1C69"/>
</svg>
